<svg viewBox="0 0 1192 964" version="1.1" xmlns="http://www.w3.org/2000/svg">
  <!-- Generator: Sketch 51.2 (57519) - http://www.bohemiancoding.com/sketch -->
  <title>11_NjYgc2tldGNoIG9mIGEgbWFuIG5lYXIgaGlzIGJ1cyBkcml2ZXIuanBn</title>
  <desc>Created with Sketch.</desc>
  <defs></defs>
  <g id="11_NjYgc2tldGNoIG9mIGEgbWFuIG5lYXIgaGlzIGJ1cyBkcml2ZXIuanBn" stroke="none" stroke-width="1" fill="none" fill-rule="evenodd">
    <path d="M614.943,54.358 C617.347,62.561 631.687,67.315 624.565,78.048 C612.399,81.98 604.357,72.526 595.692,68.426 C595.461,56.795 602.995,49.492 614.943,54.358" id="Fill-1" fill="#000000"></path>
    <path d="M556.451,83.971 C489.946,100.636 404.369,110.062 335.826,117.29 C404.384,102.188 483.067,89.312 556.451,83.971" id="Fill-2" fill="#000000"></path>
    <path d="M295.846,126.911 C257.838,146.161 204.51,154.029 164.064,168.373 C197.794,145.818 250.038,129.993 295.846,126.911" id="Fill-3" fill="#000000"></path>
    <path d="M333.606,124.691 C334.099,124.691 334.591,124.691 335.085,124.691 C337.103,141.161 337.209,173.919 323.98,182.438 C327.141,163.143 332.34,145.885 333.606,124.691" id="Fill-4" fill="#000000"></path>
    <path d="M740.065,425.278 C727.334,387.068 736.716,323.136 734.878,276.466 C728.822,276.851 722.652,272.263 716.368,270.542 C715.742,339.698 716.88,420.091 712.67,491.91 C705.607,422.055 711.736,337.332 713.409,269.061 C688.955,257.24 653.353,252.618 634.935,237.227 C672.169,234.576 701.769,258.709 734.878,267.582 C750.801,177.381 688.033,165.866 636.41,143.201 C631.223,160.489 639.441,192.506 634.935,210.572 C629.24,199.785 625.161,133.117 639.374,135.058 C661.998,138.148 728.924,166.162 737.101,184.662 C765.708,249.39 727.918,357.006 740.065,425.278" id="Fill-5" fill="#000000"></path>
    <path d="M340.269,186.881 C404.704,175.221 491.462,159.917 554.972,153.566 C589.352,150.129 535.466,165.993 523.136,167.631 C468.188,174.938 399.406,185.45 340.269,186.881" id="Fill-6" fill="#000000"></path>
    <path d="M631.228,260.177 C636.386,290.732 636.41,336.259 636.41,385.299 C636.41,408.872 629.747,491.516 643.815,497.091 C645.067,497.585 697.021,491.617 695.643,503.014 C694.817,509.816 635.644,499.598 634.193,497.091 C617.148,467.782 630.289,386.29 630.486,336.433 C630.584,312.526 627.187,277.917 631.228,260.177" id="Fill-7" fill="#000000"></path>
    <path d="M791.887,328.29 C824.066,343.251 868.097,346.353 896.276,365.309 C864.893,352.513 818.523,348.303 791.887,328.29" id="Fill-8" fill="#000000"></path>
    <path d="M994.744,398.624 C966.831,396.915 943.768,383.967 918.491,377.153 C942.188,374.623 973.44,389.015 994.744,398.624" id="Fill-9" fill="#000000"></path>
    <path d="M1010.296,403.066 C1026.545,409.519 1045.336,413.43 1060.642,420.835 C1045.169,425.288 1022.785,411.42 1010.296,403.066" id="Fill-10" fill="#000000"></path>
    <path d="M1076.185,425.278 C1090.573,426.682 1102.341,430.714 1110.98,437.864 C1098.256,437.732 1087.693,429.092 1076.185,425.278" id="Fill-11" fill="#000000"></path>
    <path d="M1144.299,449.711 C1135.58,449.297 1130.585,445.159 1123.566,443.047 C1128.905,440.999 1143.727,442.08 1144.299,449.711" id="Fill-12" fill="#000000"></path>
    <path d="M750.428,459.335 C753.586,459.633 758.056,458.619 760.051,460.073 C760.051,461.062 760.051,462.049 760.051,463.038 C755.688,460.881 756.417,464.375 753.387,465.257 C752.965,462.195 752.604,462.526 749.687,463.038 C749.386,461.251 751.037,461.427 750.428,459.335" id="Fill-13" fill="#000000"></path>
    <path d="M739.324,460.814 C739.57,463.528 742.258,463.803 741.542,467.477 C738.799,468 740.264,464.312 738.583,463.776 C737.047,463.965 738.378,467.029 737.101,467.477 C734.353,465.858 733.715,466.525 729.695,466.736 C732.932,464.789 734.305,460.977 739.324,460.814" id="Fill-14" fill="#000000"></path>
    <path d="M773.378,467.477 C771.425,467.704 771.469,465.933 771.154,464.518 C773.631,463.773 773.582,465.544 773.378,467.477" id="Fill-15" fill="#000000"></path>
    <path d="M742.281,465.257 C745.282,464.971 743.102,469.871 743.765,471.921 C740.764,472.207 742.951,467.307 742.281,465.257" id="Fill-16" fill="#000000"></path>
    <path d="M742.281,478.583 C744.766,478.076 744.987,479.826 745.247,481.547 C743.523,481.29 741.776,481.065 742.281,478.583" id="Fill-17" fill="#000000"></path>
    <path d="M757.092,484.509 C753.982,489.057 744.307,490.967 737.101,488.948 C741.999,485.267 748.915,487.578 757.092,484.509" id="Fill-18" fill="#000000"></path>
    <path d="M819.282,496.35 C814.969,515.824 824.392,530.964 823.724,546.696 C814.771,536.242 815.216,514.316 817.061,497.091 C804.274,495.066 792.289,492.247 778.559,491.169 C790.41,488.726 807.25,494.042 819.282,496.35" id="Fill-19" fill="#000000"></path>
    <path d="M767.455,491.91 C772.305,498.394 773.702,511.533 766.714,516.341 C769.42,508.074 770.19,500.615 767.455,491.91" id="Fill-20" fill="#000000"></path>
    <path d="M726.737,497.091 C717.599,502.332 704.788,498.669 696.384,505.979 C701.023,498.031 716.139,496.621 726.737,497.091" id="Fill-21" fill="#000000"></path>
    <path d="M698.602,511.16 C706.409,517.907 707.724,531.156 711.188,542.255 C702.107,536.17 705.481,520.396 698.602,511.16" id="Fill-22" fill="#000000"></path>
    <path d="M751.911,530.41 C755.929,537.002 760.574,546.912 759.31,556.323 C755.586,548.943 754.261,539.164 751.911,530.41" id="Fill-23" fill="#000000"></path>
    <path d="M1008.071,539.291 C981.519,543.147 940.332,544.894 919.227,534.852 C944.472,536.362 984.593,534.085 1008.071,539.291" id="Fill-24" fill="#000000"></path>
    <path d="M1105.057,537.073 C1079.275,544.852 1039.414,546.045 1013.253,537.815 C1040.607,539.43 1075.999,538.236 1105.057,537.073" id="Fill-25" fill="#000000"></path>
    <path d="M912.569,539.291 C913.057,539.291 913.552,539.291 914.045,539.291 C920.058,580.756 913.985,631.39 908.862,671.077 C904.573,632.854 914.907,583.467 912.569,539.291" id="Fill-26" fill="#000000"></path>
    <path d="M1005.113,550.4 C1009.638,578.683 1005.836,617.707 1000.667,643.681 C997.576,619.774 1002.626,578.573 1005.113,550.4" id="Fill-27" fill="#000000"></path>
    <path d="M870.363,552.618 C868.863,556.3 866.019,558.643 862.965,560.765 C864.133,556.752 866.851,554.287 870.363,552.618" id="Fill-28" fill="#000000"></path>
    <path d="M648.996,554.101 C647.328,556.624 644.043,557.541 640.857,558.541 C641.615,555.582 645.297,551.661 648.996,554.101" id="Fill-29" fill="#000000"></path>
    <path d="M1150.222,554.101 C1154.553,569.331 1150.986,591.625 1148.739,606.662 C1142.835,592.577 1150.347,571.604 1150.222,554.101" id="Fill-30" fill="#000000"></path>
    <path d="M1062.117,557.065 C1065.991,580.026 1059.472,611.605 1053.978,632.577 C1048.218,610.67 1063.219,584.152 1062.117,557.065" id="Fill-31" fill="#000000"></path>
    <path d="M817.8,570.387 C819.392,572.706 818.107,577.267 817.061,579.273 C813.921,579.303 816.143,573.977 816.318,572.609 C807.721,574.472 795.304,579.039 788.187,572.609 C798.068,576.17 809.294,572.64 817.8,570.387" id="Fill-32" fill="#000000"></path>
    <path d="M580.146,575.573 C580.146,577.051 580.146,578.531 580.146,580.015 C578.419,582.353 571.837,581.701 569.037,580.756 C569.534,575.82 574.853,575.707 580.146,575.573" id="Fill-33" fill="#000000"></path>
    <path d="M1094.694,588.896 C1094.694,590.624 1094.694,592.353 1094.694,594.083 C1092.387,594.088 1089.868,595.83 1088.031,594.083 C1087.176,589.16 1090.994,587.051 1094.694,588.896" id="Fill-34" fill="#000000"></path>
    <path d="M1040.648,595.559 C1040.444,598.071 1041.223,601.565 1039.909,602.964 C1038.427,602.964 1036.943,602.964 1035.468,602.964 C1034.263,598.487 1034.028,593.993 1040.648,595.559" id="Fill-35" fill="#000000"></path>
    <path d="M962.908,606.662 C964.481,609.019 965.197,615.423 963.649,618.514 C955.462,620.509 955.925,605.65 962.908,606.662" id="Fill-36" fill="#000000"></path>
    <path d="M1129.489,669.595 C1116.09,663.184 1117.434,602.385 1134.677,611.108 C1141.334,629.118 1133.706,653.171 1129.489,669.595" id="Fill-37" fill="#000000"></path>
    <path d="M127.787,624.437 C129.938,644.23 128.043,670.734 128.524,691.068 C116.972,679.759 122.228,637.951 127.787,624.437" id="Fill-38" fill="#000000"></path>
    <path d="M106.314,659.972 C100.147,663.142 90.958,658.604 83.364,658.491 C74.437,644.084 112.799,647.988 106.314,659.972" id="Fill-39" fill="#000000"></path>
    <path d="M391.353,661.455 C451.88,657.648 532.194,656.093 514.252,734.75 C508.646,759.332 421.629,740.812 403.198,732.526 C385.277,724.471 402.779,675.734 391.353,661.455 Z M405.422,722.904 C443.15,728.683 526.823,764.376 506.108,685.887 C476.269,675.204 440.288,666.872 400.977,668.118 C401.42,682.345 395.992,712.976 405.422,722.904 Z" id="Fill-40" fill="#000000"></path>
    <path d="M488.342,688.105 C471.716,689.477 440.68,686.555 426.889,677.741 C440.236,676.626 478.108,676.265 488.342,688.105" id="Fill-41" fill="#000000"></path>
    <path d="M413.565,675.517 C415.576,686.163 418.942,705.89 413.565,714.76 C411.838,714.76 410.109,714.76 408.379,714.76 C406.217,706.143 404.071,679.74 413.565,675.517" id="Fill-42" fill="#000000"></path>
    <path d="M842.974,677.741 C847.638,680.971 846.306,690.201 846.672,697.731 C864.663,699.516 867.972,744.582 850.379,749.554 C852.992,782.18 851.354,817.414 851.854,847.28 C847.293,796.958 845.455,733.521 842.974,677.741" id="Fill-43" fill="#000000"></path>
    <path d="M848.154,678.482 C881.299,684.977 882.931,764.32 853.337,773.243 C876.955,758.066 877.521,690.978 848.154,678.482" id="Fill-44" fill="#000000"></path>
    <path d="M500.924,703.654 C481.539,705.95 454.335,697.66 432.815,694.769 C428.882,700.955 434.088,716.284 423.93,716.24 C411.182,668.088 487.473,689.532 500.924,703.654" id="Fill-45" fill="#000000"></path>
    <path d="M854.077,687.363 C854.307,690.063 853.963,692.183 853.337,694.026 C851.606,694.026 849.883,694.026 848.154,694.026 C846.775,688.724 849.522,684.356 854.077,687.363" id="Fill-46" fill="#000000"></path>
    <path d="M864.44,698.474 C864.44,699.949 864.44,701.432 864.44,702.913 C863.368,704.058 860.65,703.564 858.519,703.654 C854.844,698.96 861.26,694.196 864.44,698.474" id="Fill-47" fill="#000000"></path>
    <path d="M948.106,711.794 C949.966,713.138 948.648,717.675 953.286,716.24 C954.058,718.325 954.702,723.163 953.286,725.121 C950.003,726.279 945.231,725.953 941.441,726.604 C937.978,721.259 939.53,709.861 948.106,711.794" id="Fill-48" fill="#000000"></path>
    <path d="M868.146,713.276 C868.405,716.254 868.134,718.693 865.923,719.199 C863.235,719.176 862.668,717.023 862.965,714.018 C863.917,712.999 866.176,713.283 868.146,713.276" id="Fill-49" fill="#000000"></path>
    <path d="M495.743,733.268 C477.025,734.895 447.501,728.254 428.37,722.904 C428.37,722.163 428.37,721.423 428.37,720.682 C450.235,722.52 478.773,724.074 495.743,733.268" id="Fill-50" fill="#000000"></path>
    <path d="M733.4,726.604 C704.162,746.728 653.871,749.739 616.425,759.181 C650.857,744.751 700.462,737.601 733.4,726.604" id="Fill-51" fill="#000000"></path>
    <path d="M868.887,736.968 C869.182,741.215 868.574,744.552 863.699,743.632 C861.41,740.01 863.53,735.322 868.887,736.968" id="Fill-52" fill="#000000"></path>
    <path d="M860.74,754 C861.591,754.874 861.579,756.614 861.482,758.44 C860.024,759.911 857.253,758.91 855.56,758.44 C855.56,757.205 855.56,755.97 855.56,754.734 C858.127,755.332 858.402,753.632 860.74,754" id="Fill-53" fill="#000000"></path>
    <path d="M888.137,892.443 C894.126,916.712 871.778,919.015 861.482,929.462 C861.387,932.516 862.766,934.101 862.224,937.608 C858.771,937.85 856.385,937.029 854.077,936.126 C854.295,930.975 851.438,928.895 851.854,923.54 C854.523,923.341 856.976,923.353 856.301,926.503 C870.146,918.382 879.925,906.199 888.137,892.443" id="Fill-54" fill="#000000"></path>
    <path d="M883.69,919.099 C881.311,937.414 878.002,968.408 853.337,962.039 C850.251,955.743 852.084,943.542 856.301,939.825 C858.132,945.361 852.126,954.912 856.301,960.557 C877.967,959.279 872.997,931.353 883.69,919.099" id="Fill-55" fill="#000000"></path>
    <path d="M799.291,929.462 C802.449,934.94 796.96,944.337 795.593,950.194 C803.082,949.731 812.648,952.61 822.241,952.412 C825.229,948.982 821.958,939.295 829.647,940.565 C829.664,958.111 819.692,965.66 799.291,962.78 C787.711,956.231 796.754,939.187 799.291,929.462" id="Fill-56" fill="#000000"></path>
    <path d="M817.8,939.089 C821.18,938.668 822.023,940.789 822.241,943.53 C818.705,944.103 817.866,941.981 817.8,939.089" id="Fill-57" fill="#000000"></path>
    <path d="M806.696,941.307 C810.481,941.469 814.723,941.181 816.318,943.53 C815.825,948.128 809.938,944.416 806.696,945.012 C806.696,943.776 806.696,942.542 806.696,941.307" id="Fill-58" fill="#000000"></path>
    <path d="M906.646,374.933 C863.903,368.555 816.518,360.425 789.664,335.695 C824.12,349.861 862.796,363.745 902.94,369.752 C918.364,222.375 846.558,146.737 751.17,103.221 C781.879,157.898 775.343,264.133 782.266,340.135 C758.334,267.446 781.205,143.8 738.583,90.635 C879.533,162.619 1004.856,275.921 1142.816,352.722 C1155.56,359.816 1171.364,361.244 1177.617,374.193 C1197.783,415.979 1185.359,481.553 1191.68,533.368 C1182.189,558.107 1186.408,598.222 1182.799,626.653 C1160.5,638.795 1135.882,654.671 1133.936,689.586 C1122.187,697.088 1101.743,697.123 1090.994,690.327 C1089.194,685.723 1088.355,680.481 1089.512,674.777 C1019.062,699.961 958.185,742.19 882.949,757.698 C873.405,777.523 874.256,807.738 853.337,816.19 C881.859,783.167 891.511,699.382 866.665,654.05 C852.619,663.751 840.184,678.776 822.241,678.482 C822.633,673.148 818.145,672.71 817.8,668.118 C796.719,672.752 767.72,683.084 744.506,674.041 C750.104,784.131 793.109,858.788 849.637,920.581 C862.675,914.121 873.846,905.796 879.992,892.443 C833.532,849.593 798.467,786.83 789.664,713.276 C806.9,785.132 833.563,847.564 882.949,887.263 C881.925,909.434 861.507,912.212 850.379,924.281 C845.106,921.899 843.9,915.453 840.008,911.693 C837.142,918.201 829.489,919.93 830.388,930.203 C829.76,930.897 825.67,931.788 825.205,930.203 C823.669,932.456 831.356,935.106 828.163,939.089 C823.65,938.908 822.898,934.975 819.282,933.901 C809.203,945.38 804.666,928.095 795.593,927.244 C792.326,915.394 793.135,902.928 800.032,896.148 C795.466,889.227 789.953,870.838 797.809,862.83 C800.021,882.327 804.28,899.927 798.55,922.057 C803.293,913.959 823.838,917.015 826.681,924.281 C828.031,916.989 832.243,912.562 837.791,909.471 C783.909,853.631 750.971,781.378 742.281,680.699 C737.71,692.315 748.79,712.258 735.618,717.716 C737.258,696.395 739.589,669.379 740.065,644.422 C742.583,643.873 741.282,647.151 743.023,647.386 C733.78,624.052 720.713,598.131 712.67,571.127 C688.9,567.657 663.559,597.746 655.66,566.687 C642.394,571.187 630.831,577.394 614.202,578.531 C622.365,613.05 614.437,672.534 614.202,708.835 C614.503,711.499 618.973,709.986 619.383,712.535 C615.889,724.218 625.734,742.209 611.24,742.89 C610.366,790.88 597.942,827.324 592.731,870.977 C634.066,853.823 677.978,839.242 720.073,822.848 C728.63,794.096 730.678,753.222 743.023,725.862 C742.288,759.181 735.305,786.258 729.695,814.708 C766.871,791.976 776.174,816.342 728.954,824.33 C727.219,825.807 727.895,829.681 725.997,830.994 C675.023,841.972 634.62,867.452 585.327,877.64 C583.248,830.915 609.969,783.625 598.654,739.932 C598.798,729.466 600.398,720.452 600.875,710.318 C602.073,709.046 603.971,708.474 606.797,708.835 C611.782,670.692 607.652,618.863 613.461,579.273 C597.196,582.153 578.76,594.781 562.377,584.454 C561.229,582.937 561.229,577.827 562.377,576.31 C561.597,574.868 559.368,578.182 556.451,577.051 C556.102,573.062 556.744,570.952 554.972,569.646 C395.905,564.747 248.905,553.498 84.846,542.996 C85.933,548.57 86.629,554.534 87.066,560.765 C221.678,583.2 378.327,583.779 519.433,597.781 C522.102,589.348 517.952,574.085 523.877,568.909 C530.881,573.008 526.182,588.816 527.579,598.523 C540.485,600.548 557.065,601.59 571.261,600.006 C573.614,599.644 570.015,593.33 573.482,594.083 C578.214,620.828 499.124,600.886 470.569,599.264 C340.477,591.865 194.089,583.985 74.48,568.17 C74.775,578.237 73.769,589.606 75.217,598.523 C206.058,643.181 395.401,610.465 530.541,651.827 C557.294,660.016 546.335,745.909 532.76,762.881 C559.132,768.647 575.882,755.44 595.692,754.734 C597.78,757.742 595.123,761.267 595.692,765.104 C504.395,804.08 386.214,753.421 289.923,745.854 C295.138,755.073 289.273,768.961 289.182,779.907 C365.999,800.139 485.446,832.085 568.299,805.822 C511.619,843.184 400.827,807.973 337.307,797.683 C251.402,780.178 160.674,761.086 77.441,738.448 C129.211,798.964 241.569,805.315 329.904,831.735 C415.086,840.82 491.362,858.823 568.299,876.157 C575.263,841.207 586.555,808.032 593.47,771.025 C601.025,813.045 568.499,849.299 579.404,885.038 C449.124,848.34 272.108,836.416 150.736,786.57 C115.278,772.015 77.615,772.237 67.075,732.526 C67.56,723.747 65.921,711.041 68.557,706.613 C74.353,709.21 70.298,721.657 71.518,728.826 C103.797,742.943 144.572,748.565 180.349,759.181 C182.243,748.487 179.514,733.171 184.792,725.862 C143.862,717.434 102.71,709.233 64.854,697.731 C65.271,691.483 70.148,689.694 77.441,690.327 C74.961,687.622 68.651,688.749 67.815,684.404 C73.561,664.678 67.069,632.3 70.778,611.108 C75.766,613.773 74.027,623.159 74.48,630.36 C76.881,629.564 73.898,622.823 78.182,622.214 C116.345,615.333 123.502,646.133 117.42,679.963 C106.44,679.006 88.566,678.772 79.661,673.3 C79.824,667.444 86.762,672.185 90.027,670.336 C87.674,666.516 77.634,670.39 77.441,664.413 C89.214,657.057 99.626,669.703 110.015,671.077 C111.22,659.997 106.873,648.067 108.537,634.059 C97.429,635.819 85.924,635.541 77.441,631.1 C75.513,637.337 83.984,657.002 74.48,659.232 C73.937,666.19 75.691,670.855 75.217,677.741 C214.28,713.163 362.861,742.999 523.136,754.734 C526.597,727.96 522.481,689.99 526.838,663.672 C377.733,651.213 224.742,633.113 84.105,611.851 C55.365,607.501 70.886,593.274 67.815,564.463 C70.449,561.914 74.127,560.415 79.661,560.765 C80.523,556.534 78.556,549.154 78.92,542.996 C78.231,540.478 73.838,541.665 72.998,539.291 C67.771,522.3 77.116,512.835 82.623,505.237 C116.46,458.531 96.923,368.941 118.162,308.302 C83.451,315.546 36.055,316.517 7.846,332.733 C8.243,345.664 8.934,358.302 8.587,371.972 C12.166,358.536 15.022,338.598 26.354,330.511 C32.298,362.527 33.925,406.556 31.539,440.085 C18.892,432.25 14.723,415.934 10.807,399.365 C7.479,397.758 3.767,396.537 1.922,393.442 C15.217,367.661 -14.541,306.379 12.289,290.533 C40.95,273.603 91.75,283.681 123.343,275.725 C133.89,242.008 131.796,199.451 139.632,163.93 C135.956,157.676 134.926,131.834 139.632,120.251 C164.015,60.19 295.894,38.566 362.478,24.004 C410.35,13.532 473.068,-4.537 525.358,1.051 C610.518,10.152 673.276,59.994 734.878,92.117 C728.021,92.804 727.021,87.634 723.773,84.712 C726.961,94.774 740.444,112.234 735.618,125.432 C704.125,54.262 618.28,37.448 543.127,9.935 C610.811,29.833 604.827,124.923 604.576,206.871 C605.849,208.313 608.412,208.467 611.24,208.352 C619.534,179.113 597.687,105.468 630.486,101.001 C664.944,96.307 703.203,145.664 734.878,151.344 C768.033,190.678 747.536,271.29 753.387,338.657 C835.068,363.094 921.202,383.079 1001.408,408.991 C999.775,353.559 1004.752,293.393 980.682,256.475 C958.661,222.71 899.482,220.831 876.285,186.881 C906.026,227.439 911.292,314.634 906.646,374.933 Z M483.157,17.34 C528.422,14.095 577.798,22.832 587.547,59.54 C567.474,-10.364 448.271,-1.45 376.546,21.78 C301.032,46.242 200.129,61.582 151.477,108.403 C247.287,77.096 358.559,26.272 483.157,17.34 Z M504.627,58.798 C371.777,82.904 218.652,86.736 143.331,168.373 C128.688,274.401 115.378,381.775 98.17,485.246 C128.946,490.28 179.693,452.403 204.781,481.547 C219.623,478.125 237.181,477.42 254.384,476.362 C255.008,472.545 255.352,468.445 255.126,463.776 C238.018,462.622 215.172,467.206 207.003,457.112 C218.855,455.773 238.895,458.006 255.126,457.112 C261.875,364.35 275.81,277.755 289.923,190.584 C243.395,195.648 197.301,212.947 159.62,219.457 C195.581,199.891 242.29,191.073 290.665,183.921 C297.169,151.434 297.753,113.024 315.835,92.117 C298.681,208.163 273.095,329.366 265.493,457.854 C299.654,458.401 332.5,460.073 369.141,460.073 C380.436,460.073 426.75,458.082 426.151,465.257 C425.226,476.302 370.129,463.344 359.516,468.96 C389.69,472.237 423.659,495.139 455.765,500.796 C494.481,507.61 580.567,507.2 592.731,480.064 C607.46,447.201 588.542,397.223 594.211,362.346 C517.945,388.041 544.14,264.491 555.713,232.784 C549.155,230.646 549.734,217.619 549.049,212.055 C562.362,210.313 572.113,205.008 587.547,205.391 C583.742,133.386 600.876,36.912 508.329,54.358 C504.392,54.225 508.999,58.798 504.627,58.798 Z M820.023,497.091 C852.258,528.873 909.122,554.041 880.731,617.773 C911.334,637.265 899.398,710.945 897.018,754 C940.923,732.364 1001.275,730.038 994.744,659.232 C964.848,665.438 932.686,680.982 902.94,679.963 C977.604,662.323 1043.709,636.132 1117.645,617.773 C1123.168,607.513 1123.308,567.12 1139.116,572.609 C1151.788,577.014 1143.919,633.758 1145.041,648.869 C1155.595,638.945 1169.249,632.107 1178.353,620.731 C1173.658,620.972 1170.273,622.522 1165.771,622.955 C1163.994,620.779 1163.331,617.496 1163.549,613.326 C1158.554,612.302 1153.528,615.134 1150.222,613.326 C1150.602,607.536 1158.127,608.898 1163.549,608.146 C1161.006,586.099 1167.646,567.519 1167.247,545.213 C1170.567,543.008 1177.539,541.677 1182.058,542.996 C1182.486,544.298 1181.16,547.347 1182.799,547.438 C1183.052,543.496 1184.022,540.273 1184.281,536.332 C1152.312,528.82 1101.623,542.856 1080.626,526.705 C1111.154,523.807 1151.089,526.614 1185.758,527.446 C1185.758,523.994 1185.758,520.535 1185.758,517.082 C1185.341,516.564 1180.395,519.3 1179.094,516.341 C1180.364,509.057 1175.827,500.284 1182.058,498.574 C1184.884,498.213 1184.377,501.194 1185.758,502.273 C1185.811,465.207 1185.179,428.821 1177.617,399.365 C1179.099,421.826 1183.901,444.893 1182.799,467.477 C1038.239,428.681 898.35,385.197 753.387,346.798 C751.339,371.381 758.653,402.146 751.911,421.577 C738.799,337.213 766.756,213.06 728.954,155.045 C698.011,144.854 640.676,88.483 619.383,123.212 C647.129,99.78 700.74,148.499 728.954,165.413 C696.565,149.684 662.728,135.395 631.969,118.028 C607.957,131.696 619.847,174.548 619.383,206.871 C638.447,206.569 627.854,241.229 629.747,254.254 C625.444,256.577 622.004,252.313 618.642,251.292 C618.728,260.093 619.563,268.139 620.125,276.466 C634.977,278.774 620.667,296.944 626.788,308.302 C613.258,380.781 622.281,471.107 619.383,548.918 C624.239,543.412 635.176,543.979 644.556,542.996 C647.315,540.665 639.266,538.978 641.592,537.073 C668.228,536.067 676.488,512.738 697.859,508.936 C680.436,518.66 669.361,534.735 645.297,537.815 C654.889,547.72 661.794,566.722 670.471,580.015 C684.653,576.43 694.48,568.487 711.929,568.17 C725.256,597.042 738.493,626.004 748.945,657.75 C780.512,661.756 812.04,654.015 827.422,637.023 C823.921,613.731 822.596,592.39 820.023,568.909 C822.368,568.513 825.536,565.091 828.163,567.429 C826.959,569.428 822.302,567.982 822.241,571.127 C824.982,594.306 825.218,619.979 831.868,639.241 C831.778,626.528 843.227,614.466 854.818,620.731 C857.555,606.44 861.519,593.379 862.224,577.051 C858.115,579.605 857.946,586.099 852.596,587.419 C841.924,577.356 824.952,569.657 825.946,550.4 C830.062,566.518 842.19,574.628 852.596,584.454 C856.385,570.719 867.652,564.47 875.551,554.842 C855.036,537.598 840.311,514.564 820.023,497.091 Z M556.451,217.978 C556.247,233.591 577.519,223.896 586.81,230.563 C586.81,224.394 586.81,218.225 586.81,212.055 C575.186,212.525 566.469,215.902 556.451,217.978 Z M617.9,214.275 C619.763,224.015 613.3,242.075 623.083,243.888 C620.576,235.291 625.15,219.619 620.125,213.534 C619.997,214.398 618.955,214.337 617.9,214.275 Z M603.835,236.486 C607.734,236.785 610.405,238.307 613.461,239.448 C613.461,231.305 613.461,223.158 613.461,215.015 C610.499,215.015 607.538,215.015 604.576,215.015 C606.152,221.607 605.11,230.44 603.835,236.486 Z M605.317,448.969 C605.507,524.187 580.383,538.827 503.89,529.668 C375.877,514.335 230.805,530.674 104.093,514.86 C83.909,512.342 73.383,508.924 78.92,536.332 C247.098,541.918 410.73,563.42 577.925,560.023 C582.576,562.282 585.194,566.571 589.028,569.646 C598.598,563.916 608.439,558.457 615.684,550.4 C610.08,457.377 616.913,333.047 611.979,247.591 C609.259,247.353 607.885,245.765 605.317,245.37 C605.54,306.097 605.164,388.278 605.317,448.969 Z M1008.813,410.468 C1027.377,415.596 1043.017,423.652 1062.857,427.499 C1064.333,348.432 1053.598,278.444 986.604,266.099 C1005.97,301.771 1009.698,357.015 1008.813,410.468 Z M8.587,326.811 C36.684,310.971 82.379,308.808 118.899,303.859 C118.911,294.245 121.785,287.494 122.602,278.685 C122.107,278.685 121.616,278.685 121.123,278.685 C83.707,293.929 1.751,272.224 8.587,326.811 Z M1070.262,430.459 C1085.561,434.166 1098.875,443.802 1114.686,444.528 C1110.196,384.359 1109.702,316.243 1056.193,307.56 C1069.22,340.193 1062.822,392.243 1070.262,430.459 Z M1139.857,361.605 C1145.022,388.062 1153.938,422.507 1150.222,450.452 C1137.34,413.728 1150.914,350.547 1109.503,342.358 C1115.239,374.626 1115.578,412.292 1119.867,446.007 C1135.521,454.549 1160.674,461.457 1178.353,463.038 C1176.123,453.669 1160.843,457.35 1156.144,450.452 C1163.459,449.255 1174.514,454.756 1178.353,454.15 C1180.407,413.367 1169.393,361.054 1139.857,361.605 Z M1175.394,389.739 C1174.58,384.63 1174.784,378.505 1171.695,375.674 C1172.852,380.437 1173.002,386.21 1175.394,389.739 Z M264.751,464.518 C264.592,468.554 265.26,473.419 264.01,476.362 C311.677,470.91 311.677,489.961 264.01,484.509 C264.01,487.717 264.01,490.921 264.01,494.133 C318.295,485.293 374.446,496.074 426.151,497.833 C376.986,482.092 332.71,461.465 264.751,464.518 Z M125.563,488.948 C151.627,488.892 172.869,486.43 195.9,482.284 C174.318,470.847 148.47,486.09 125.563,488.948 Z M252.165,484.509 C224.645,486.361 192.57,491.535 169.986,493.392 C198.815,492.94 226.173,493.964 254.384,494.133 C253.586,491.23 256.103,485.014 252.906,484.509 C252.659,484.509 252.411,484.509 252.165,484.509 Z M87.804,505.237 C210.411,511.105 335.003,518.378 464.647,517.823 C368.512,480.658 203.004,504.219 95.21,497.833 C92.934,492.819 101.824,491.987 98.911,491.169 C91.151,483.466 90.242,498.861 87.804,505.237 Z M466.871,507.46 C470.528,509.177 473.595,516.137 468.351,518.565 C481.877,518.613 494.17,519.891 507.588,520.046 C510.279,520.565 509.667,524.386 512.031,525.229 C551.617,529.318 598.153,528.596 592.731,490.431 C567.919,513.89 508.175,504.606 466.871,507.46 Z M563.115,581.497 C593.086,592.8 631.867,571.115 657.883,561.506 C653.54,555.974 652.623,547.016 646.038,543.737 C617.117,543.442 609.454,564.409 587.547,571.127 C584.142,561.794 567.309,558.312 557.192,564.463 C557.728,566.729 556.436,567.162 556.451,568.909 C561.383,570.742 565.475,562.415 570.52,564.463 C566.664,568.506 558.133,567.873 557.934,575.573 C565.282,573.977 567.903,566.349 574.961,565.945 C571.254,569.65 563.544,573.272 563.856,578.531 C565.113,577.074 567.3,576.544 569.778,576.31 C569.778,576.803 569.778,577.297 569.778,577.79 C567.294,578.761 563.744,578.664 563.115,581.497 Z M854.077,636.282 C848.076,639.814 837.997,643.146 828.904,639.981 C829.056,642.796 832.02,642.789 831.868,645.905 C828.615,653.466 816.301,662.293 821.5,671.077 C827.218,665.19 830.019,656.395 837.051,651.827 C833.61,661.226 824.687,665.13 822.982,676.258 C831.544,675.397 833.924,658.118 841.491,656.267 C837.442,663.822 831.917,669.896 828.163,677.741 C836.954,673.697 839.834,663.739 848.154,659.232 C846.275,664.757 838.623,668.444 838.532,673.3 C871.322,657.72 897.97,592.612 877.768,557.065 C856.113,568.856 863.229,615.634 854.077,636.282 Z M1056.935,682.922 C1062.822,677.704 1071.323,675.102 1077.667,670.336 C1075.336,665.034 1077.378,657.72 1085.072,659.972 C1087.283,661.552 1086.332,664.648 1085.807,667.377 C1096.436,662.949 1103.11,654.568 1118.384,654.791 C1121.836,666.142 1118.951,683.839 1130.23,687.363 C1145.004,659.437 1140.448,614.236 1132.453,583.714 C1124.139,592.927 1125.604,611.905 1118.384,622.214 C1096.713,625.956 1079.813,634.481 1059.159,639.241 C1059.514,654.411 1057.056,670.704 1056.935,682.922 Z M1019.916,694.769 C1020.055,689.725 1020.249,684.73 1025.84,685.146 C1029.136,686.273 1028.533,694.092 1026.582,696.249 C1035.57,692.653 1043.709,688.207 1053.236,685.146 C1054.495,670.606 1056.008,656.327 1056.193,640.723 C1035.709,645.157 1019.177,653.556 998.449,657.75 C997.232,676.524 992.557,691.84 991.046,710.318 C1002.066,705.788 1019.32,703.552 1025.099,696.249 C1023.816,698.195 1019.96,696.516 1019.916,694.769 Z M783.741,659.972 C786.163,663.227 786.471,668.596 788.187,672.56 C809.299,670.723 823.729,662.203 829.647,645.164 C827.646,644.941 828.32,642.048 826.681,641.464 C816.548,651.809 801.34,657.087 783.741,659.972 Z M745.988,659.972 C744.253,663.69 747.066,667.806 745.247,671.818 C751.464,674.234 758.609,675.728 767.455,675.517 C765.642,671.656 764.165,667.456 764.497,661.455 C756.496,662.046 750.711,660.424 745.247,658.491 C744.373,655.262 746.216,653.911 743.765,652.568 C744.234,655.063 742.812,659.443 744.506,660.713 C744.283,659.509 745.507,658.714 745.988,659.972 Z M767.455,661.455 C768.69,665.4 769.877,669.396 771.154,673.3 C775.125,672.824 779.457,672.71 783.005,671.818 C782.507,667.632 780.62,664.823 780.783,659.972 C777.324,661.449 770.751,659.81 767.455,661.455 Z M77.441,694.769 C225.559,728.882 393.124,770.762 562.377,771.768 C389.186,757.898 229.655,722.459 78.182,691.81 C79.923,692.009 78.634,695.086 77.441,694.769 Z M185.533,759.181 C218.166,766.032 249.791,773.895 284.742,778.431 C285.564,769.383 286.046,759.989 286.963,751.035 C251.174,746.602 221.506,736.039 186.271,731.044 C185.404,739.359 183.54,750.451 185.533,759.181 Z" id="Fill-59" fill="#000000"></path>
    <path d="M857.777,525.229 C859.019,518.348 852.107,520.245 848.896,516.341 C898.892,517.835 955.503,515.004 1011.037,514.86 C1040.433,514.786 1112.908,530.959 1043.607,529.668 C982.646,528.53 915.811,532.001 857.777,525.229" id="Fill-60" fill="#000000"></path>
    <path d="M771.154,528.188 C774.089,527.65 776.921,520.637 780.042,517.823 C782.808,517.034 782.15,519.661 784.481,519.307 C782.711,504.791 776.992,494.223 769.678,485.246 C783.771,493.856 785.957,514.376 790.405,532.627 C783.994,532.627 785.368,524.83 782.266,521.523 C769.661,531.381 765.171,549.347 763.014,569.646 C770.058,534.266 747.224,517.504 733.4,494.874 C724.074,505.261 736.348,514.575 737.101,527.446 C744.325,527.512 743.62,519.654 748.945,517.823 C748.331,527.571 739.687,529.288 734.878,534.852 C737.052,519.523 720.087,504.189 733.4,492.65 C730.354,489.276 727.256,485.963 727.479,479.322 C734.19,489.057 737.865,504.395 754.128,502.273 C762.467,495.062 766.979,487.382 764.497,470.44 C766.624,471.273 767.19,473.669 771.154,472.659 C773.065,469.948 776.758,463.426 773.378,460.073 C770.799,457.715 771.902,463.525 768.197,462.297 C765.949,457.685 760.298,450.593 757.833,443.789 C745.356,444.287 740.065,451.582 729.695,450.452 C732.997,461.296 720.796,459.271 721.556,465.257 C720.291,465.528 720.158,464.68 720.073,463.776 C717.158,467.036 720.87,474.232 721.556,478.583 C722.508,480.655 723.087,476.25 725.256,477.104 C725.532,480.342 722.893,480.661 720.815,481.547 C719.387,476.498 714.061,464.881 720.073,461.556 C701.728,422.401 784.752,412.135 771.896,456.375 C772.264,458.968 775.709,458.486 776.342,460.814 C776.161,467.545 775.444,473.742 769.678,474.883 C772.166,495.573 748.838,516.106 735.618,496.35 C738.704,513.751 763.69,515.667 763.756,538.557 C769.745,524.759 781.614,511.315 771.154,494.874 C782.085,501.109 778.644,521.359 771.154,528.188" id="Fill-61" fill="#000000"></path>
  </g>
</svg>
