<svg width="145" height="145" viewBox="0 0 145 145" fill="none" xmlns="http://www.w3.org/2000/svg">
<path opacity="0.05" d="M69.3843 139.336C69.3843 142.466 66.8475 145 63.7205 145H28.319C15.8251 145 5.6638 134.836 5.6638 122.345V59.4727C5.6638 56.3429 8.20059 53.8089 11.3276 53.8089C14.4546 53.8089 16.9914 56.3457 16.9914 59.4727V122.342C16.9914 128.587 22.0735 133.67 28.319 133.67H63.7205C66.8475 133.67 69.3843 136.206 69.3843 139.336ZM145 16.9914V33.9828C145 37.1098 142.463 39.6466 139.336 39.6466V62.5855C139.336 65.7154 136.799 68.2493 133.672 68.2493C130.545 68.2493 128.009 65.7125 128.009 62.5855V39.6466H5.6638C2.53679 39.6494 0 37.1126 0 33.9856V16.9914C0 7.62172 7.62172 0 16.9914 0H128.006C137.378 0 145 7.62172 145 16.9914ZM11.3276 28.319H133.67V16.9914C133.67 13.8672 131.127 11.3276 128.006 11.3276H16.9914C13.8672 11.3276 11.3276 13.8701 11.3276 16.9914V28.319ZM84.9598 62.3046C88.0896 62.3046 90.6236 59.7678 90.6236 56.6408C90.6236 53.511 88.0868 50.977 84.9598 50.977H59.4727C56.3429 50.977 53.8089 53.5138 53.8089 56.6408C53.8089 59.7678 56.3457 62.3046 59.4727 62.3046H84.9598ZM140.363 107.144C137.287 106.576 134.334 108.611 133.766 111.687C131.417 124.425 120.29 133.672 107.309 133.672C92.4737 133.672 80.4055 121.604 80.4055 106.769C80.4055 91.9345 92.4737 79.8663 107.309 79.8663C109.774 79.8663 112.215 80.1983 114.564 80.8567C117.578 81.6994 120.702 79.9373 121.542 76.9238C122.385 73.9103 120.622 70.7861 117.609 69.9462C114.269 69.0126 110.802 68.5387 107.306 68.5387C86.2253 68.5387 69.0722 85.689 69.0722 106.772C69.0722 127.855 86.2282 145 107.309 145C125.75 145 141.564 131.854 144.904 113.741C145.474 110.665 143.439 107.711 140.363 107.144ZM99.9847 100.212C97.7743 97.9984 94.1876 97.9984 91.9743 100.212C89.761 102.422 89.761 106.009 91.9743 108.222L100.314 116.562C102.243 118.491 104.783 119.456 107.323 119.456C109.845 119.456 112.371 118.506 114.295 116.599L139.044 92.102C141.269 89.9028 141.286 86.3161 139.086 84.0915C136.885 81.8697 133.301 81.8498 131.076 84.0518L107.326 107.558L99.9847 100.212Z" fill="black"/>
</svg>
