<svg width="150" height="164" viewBox="0 0 150 164" fill="none" xmlns="http://www.w3.org/2000/svg">
<path opacity="0.05" d="M89.3617 144.782C89.3617 148.322 92.2181 151.188 95.7447 151.188C99.2713 151.188 102.128 148.322 102.128 144.782C102.128 141.243 99.2713 138.376 95.7447 138.376C92.2181 138.376 89.3617 141.243 89.3617 144.782ZM73.4043 138.376C76.9309 138.376 79.7872 141.243 79.7872 144.782C79.7872 148.322 76.9309 151.188 73.4043 151.188C69.8777 151.188 67.0213 148.322 67.0213 144.782C67.0213 141.243 69.8777 138.376 73.4043 138.376ZM51.0638 138.376C54.5904 138.376 57.4468 141.243 57.4468 144.782C57.4468 148.322 54.5904 151.188 51.0638 151.188C47.5372 151.188 44.6809 148.322 44.6809 144.782C44.6809 141.243 47.5372 138.376 51.0638 138.376ZM28.7234 138.376C32.25 138.376 35.1064 141.243 35.1064 144.782C35.1064 148.322 32.25 151.188 28.7234 151.188C25.1968 151.188 22.3404 148.322 22.3404 144.782C22.3404 141.243 25.1968 138.376 28.7234 138.376ZM6.38298 138.376C9.90958 138.376 12.766 141.243 12.766 144.782C12.766 148.322 9.90958 151.188 6.38298 151.188C2.85638 151.188 0 148.322 0 144.782C0 141.243 2.85957 138.376 6.38298 138.376ZM49.1489 40.5045C49.184 35.1809 52.2 30.4851 57.0032 28.2622L114.389 1.50004C116.665 0.446217 119.068 -0.059877 121.538 0.00738865C125.652 0.113092 129.539 1.78192 132.485 4.70958C135.549 7.75254 137.234 11.8237 137.234 16.1736V126.665C144.664 129.311 150 136.432 150 144.782C150 155.378 141.409 164.001 130.851 164.001C127.324 164.001 124.468 161.134 124.468 157.595C124.468 154.055 127.324 151.188 130.851 151.188C134.371 151.188 137.234 148.315 137.234 144.782C137.234 141.249 134.371 138.376 130.851 138.376C127.331 138.376 124.468 141.249 124.468 144.782C124.468 148.322 121.612 151.188 118.085 151.188C114.559 151.188 111.702 148.322 111.702 144.782C111.702 136.432 117.038 129.311 124.468 126.665V16.1736C124.468 14.1492 122.78 12.8551 121.213 12.8167C120.715 12.8007 120.217 12.9128 119.751 13.1274L62.3681 39.8895C62.2213 39.9568 61.9181 40.0977 61.9149 40.591C61.9117 41.1195 62.2372 41.2572 62.3777 41.3181L108.763 60.8315C112.015 62.1993 113.544 65.9533 112.181 69.2173C110.818 72.4813 107.078 74.0156 103.826 72.6479L57.4245 53.128C52.3628 50.9787 49.1138 46.0267 49.1489 40.5045Z" fill="black"/>
</svg>
