<?xml version="1.0" encoding="UTF-8" standalone="no"?>
<svg xmlns:dc="http://purl.org/dc/elements/1.1/" xmlns:cc="http://creativecommons.org/ns#" xmlns:rdf="http://www.w3.org/1999/02/22-rdf-syntax-ns#" xmlns:svg="http://www.w3.org/2000/svg" xmlns="http://www.w3.org/2000/svg" xmlns:sodipodi="http://sodipodi.sourceforge.net/DTD/sodipodi-0.dtd" xmlns:inkscape="http://www.inkscape.org/namespaces/inkscape" version="1.1" id="Layer_1" x="0px" y="0px" width="182px" height="41px" viewBox="0 0 182 41" enable-background="new 0 0 182 41" xml:space="preserve" sodipodi:docname="Aeroflot_Russian_Airlines_logo_(en).svg" inkscape:version="1.0.2 (e86c870879, 2021-01-15)"><metadata id="metadata67"><rdf:RDF><cc:Work rdf:about=""><dc:format>image/svg+xml</dc:format><dc:type rdf:resource="http://purl.org/dc/dcmitype/StillImage"/></cc:Work></rdf:RDF></metadata><defs id="defs65"/><sodipodi:namedview pagecolor="#ffffff" bordercolor="#666666" borderopacity="1" objecttolerance="10" gridtolerance="10" guidetolerance="10" inkscape:pageopacity="0" inkscape:pageshadow="2" inkscape:window-width="1600" inkscape:window-height="837" id="namedview63" showgrid="false" inkscape:zoom="5.3164006" inkscape:cx="113.08735" inkscape:cy="11.268892" inkscape:window-x="-8" inkscape:window-y="-8" inkscape:window-maximized="1" inkscape:current-layer="g60"/><g id="g60"><path fill-rule="evenodd" clip-rule="evenodd" fill="#00529c" d="m 10.81,4.606 3.266,5.565 H 7.543 l 3.096,-5.679 h 0.085 z m 4.601,7.781 2.812,4.714 H 25.55 L 15.61,0.771 H 9.531 L 0.5,17.101 H 3.766 L 6.35,12.387 Z" id="path14"/><path fill-rule="evenodd" clip-rule="evenodd" fill="#00529c" d="M 11.377,36.639 9.02,35.617 18.79,34.426 c 0.17,0.283 0.341,0.539 0.54,0.795 z m 26.213,0 2.357,-1.078 -9.713,-1.164 c -0.085,0.313 -0.341,0.568 -0.511,0.824 z m -1.419,0.172 -2.954,0.994 -4.203,-1.277 -0.37,-0.113 c 0.142,-0.115 0.256,-0.229 0.37,-0.369 0.17,-0.143 0.312,-0.342 0.483,-0.484 z m 7.81,-2.754 -2.698,1.25 -10.792,-1.25 c 0.085,-0.254 0.171,-0.51 0.256,-0.768 z m 0.965,-0.369 3.521,-2.244 H 29.383 c 0,0.797 -0.114,1.479 -0.369,2.074 -0.739,1.902 -2.584,2.811 -4.431,2.781 -1.817,-0.057 -3.663,-0.992 -4.487,-2.727 -0.284,-0.625 -0.454,-1.307 -0.454,-2.129 H 0.5 l 3.494,2.244 14.626,-0.766 c 0.283,1.049 0.794,1.959 1.476,2.639 1.165,1.223 2.84,1.904 4.487,1.904 1.619,0.029 3.267,-0.566 4.431,-1.875 0.625,-0.682 1.107,-1.563 1.391,-2.613 z m -15.932,5.791 0.369,0.684 -0.369,0.172 -0.994,0.453 -1.136,-2.244 c -0.709,0.256 -1.505,0.398 -2.301,0.426 -0.852,0.029 -1.732,-0.086 -2.499,-0.342 l -0.966,2.16 c -0.313,0.027 -0.739,0 -1.022,-0.197 -0.142,-0.086 -0.284,-0.229 -0.34,-0.428 l 0.34,-0.568 0.824,-1.479 c -0.256,-0.168 -0.483,-0.281 -0.71,-0.51 l 0.682,-0.822 c 1.164,0.711 2.442,1.107 3.691,1.107 1.25,0.029 2.499,-0.371 3.664,-1.193 l 0.768,0.227 0.312,0.115 c -0.113,0.084 -0.199,0.17 -0.312,0.256 -0.228,0.225 -0.426,0.453 -0.795,0.652 z m 0,-11.614 c 0.738,0.881 1.277,1.961 1.562,3.209 h -1.221 c -0.085,-0.371 -0.198,-0.738 -0.34,-1.078 -0.824,-2.158 -2.5,-3.693 -4.431,-4.973 -0.255,-0.141 -0.482,-0.311 -0.738,-0.453 0.256,0.086 0.483,0.172 0.738,0.258 1.76,0.707 3.322,1.674 4.43,3.037 z m -3.295,8.008 c 0.313,-0.057 0.795,-0.227 1.165,-0.51 l -1.932,-3.834 2.017,-0.967 -1.704,-1.477 -0.682,0.315 -2.925,1.332 0.852,1.932 1.392,-0.623 z m -5.282,0.541 C 20.323,36.328 20.209,36.215 20.096,36.129 19.869,35.932 19.67,35.733 19.528,35.533 l -6.669,1.26 2.839,0.953 z M 18.62,34.057 c -0.114,-0.254 -0.199,-0.51 -0.285,-0.768 l -13.348,0.768 2.698,1.307 z" id="path58"/><path d="m 102.30382,28.236773 -1.15238,4.242469 c -0.13999,0.170723 -0.36193,0.312423 -0.56339,0.418271 -0.3073,0.167309 -0.6146,0.257792 -0.899708,0.257792 -0.279985,0 -0.530948,-0.114385 -0.64704,-0.285108 -0.08195,-0.1417 -0.165601,-0.365347 -0.05292,-0.761425 l 1.039698,-3.871999 h -1.068721 l -1.008974,3.735421 c -0.08536,0.336324 -0.225354,0.925319 0.08195,1.376028 0.170723,0.254377 0.53607,0.53607 1.288959,0.53607 0.312423,0 0.623139,-0.05463 1.019216,-0.225354 0.24755,-0.146822 0.52754,-0.310716 0.7546,-0.481439 l -0.16731,0.594116 h 0.95434 l 1.49383,-5.534842 z" style="fill:#00529c;fill-opacity:1;fill-rule:nonzero;stroke:none;stroke-width:0;stroke-miterlimit:4;stroke-dasharray:none" id="path18098"/><path d="m 109.14316,28.877667 c -0.25438,-0.334617 -0.56509,-0.503633 -0.62143,-0.532656 -0.35852,-0.192917 -0.7546,-0.225354 -1.09775,-0.225354 -0.36364,0 -0.81435,0.03244 -1.31628,0.338031 -0.36705,0.256085 -0.81435,0.645333 -0.97995,1.294081 -0.15023,0.478025 -0.0888,0.839958 0.0819,1.067019 0.19292,0.256085 0.53095,0.390956 0.81606,0.476318 l 0.53095,0.17243 c 0.27827,0.05805 0.56167,0.05805 0.72898,0.276572 0.0854,0.116091 0.17414,0.257791 0.11439,0.53607 -0.0854,0.25267 -0.24926,0.419979 -0.39437,0.534363 -0.19463,0.170723 -0.53437,0.314131 -1.00898,0.314131 -0.30901,0 -0.56338,-0.06317 -0.81605,-0.203161 -0.22194,-0.167308 -0.39267,-0.309009 -0.47973,-0.445587 l -0.70509,0.648748 c 0.50875,0.667527 1.13189,0.756303 1.74479,0.756303 0.41998,0 1.26506,-0.05463 1.96844,-0.590702 0.39095,-0.334617 0.67435,-0.761425 0.78874,-1.125065 0.0563,-0.286815 0.11267,-0.701672 -0.0273,-0.959464 -0.19974,-0.390956 -0.64704,-0.556557 -0.90312,-0.618017 l -0.39267,-0.11097 c -0.50192,-0.112678 -0.72898,-0.169016 -0.84337,-0.310716 -0.10926,-0.08024 -0.19633,-0.249256 -0.10926,-0.587288 0.0512,-0.138285 0.16901,-0.367054 0.38754,-0.53607 0.28169,-0.169016 0.54119,-0.196332 0.73582,-0.196332 0.25096,0 0.47802,0.05975 0.67435,0.196332 0.16902,0.112677 0.3073,0.254377 0.42169,0.397785 z" style="fill:#00529c;fill-opacity:1;fill-rule:nonzero;stroke:none;stroke-width:0;stroke-miterlimit:4;stroke-dasharray:none" id="path18102"/><path d="m 114.90694,28.877667 c -0.22706,-0.334617 -0.53436,-0.503633 -0.61631,-0.532656 -0.33632,-0.192917 -0.73582,-0.225354 -1.06873,-0.225354 -0.38754,0 -0.81435,0.03244 -1.32139,0.338031 -0.36706,0.256085 -0.81606,0.645333 -1.0141,1.294081 -0.10414,0.478025 -0.0529,0.839958 0.11439,1.067019 0.19803,0.256085 0.5668,0.390956 0.81435,0.476318 l 0.50363,0.17243 c 0.28169,0.05805 0.5668,0.05805 0.76142,0.276572 0.0854,0.116091 0.16902,0.257791 0.0854,0.53607 -0.0854,0.25267 -0.25096,0.419979 -0.36705,0.534363 -0.19804,0.170723 -0.53095,0.314131 -1.01068,0.314131 -0.30901,0 -0.55997,-0.06317 -0.84337,-0.203161 -0.22536,-0.167308 -0.36706,-0.309009 -0.47803,-0.445587 l -0.70338,0.648748 c 0.5412,0.667527 1.1558,0.756303 1.7704,0.756303 0.42681,0 1.26506,-0.05463 1.97015,-0.590702 0.39266,-0.334617 0.67435,-0.761425 0.75801,-1.125065 0.0854,-0.286815 0.11097,-0.701672 -0.0273,-0.959464 -0.16901,-0.390956 -0.61972,-0.556557 -0.898,-0.618017 l -0.39608,-0.11097 c -0.48144,-0.112678 -0.69996,-0.169016 -0.81776,-0.310716 -0.10756,-0.08024 -0.19121,-0.249256 -0.10756,-0.587288 0.0546,-0.138285 0.13829,-0.367054 0.39266,-0.53607 0.25438,-0.169016 0.53266,-0.196332 0.69997,-0.196332 0.28511,0 0.50705,0.05975 0.70509,0.196332 0.17072,0.112677 0.3073,0.254377 0.42168,0.397785 z" style="fill:#00529c;fill-opacity:1;fill-rule:nonzero;stroke:none;stroke-width:0;stroke-miterlimit:4;stroke-dasharray:none" id="path18106"/><path d="m 116.96944,28.236773 -0.20145,0.72728 h 0.64704 l -1.28896,4.807562 h 1.0636 l 1.49042,-5.534842 z m 0.67436,-1.826737 c -0.0905,0.390956 0.13999,0.699965 0.50875,0.699965 0.39266,0 0.75289,-0.309009 0.86557,-0.699965 0.10926,-0.368762 -0.11268,-0.677771 -0.50705,-0.677771 -0.35852,0 -0.7546,0.309009 -0.86727,0.677771" style="fill:#00529c;fill-opacity:1;fill-rule:nonzero;stroke:none;stroke-width:0;stroke-miterlimit:4;stroke-dasharray:none" id="path18110"/><path d="m 127.40762,33.771274 1.1814,-4.356853 c 0.37218,-0.310716 0.93215,-0.563386 1.43578,-0.563386 0.36535,0 0.5651,0.138286 0.64534,0.307301 0.17072,0.256085 0.0871,0.674357 0.0273,0.84508 l -1.01068,3.767858 h 1.07044 l 1.00897,-3.682497 c 0.11609,-0.452416 0.16731,-0.985072 -0.0836,-1.434074 -0.22536,-0.36364 -0.64363,-0.534363 -1.23775,-0.534363 -0.36022,0 -0.97995,0.08365 -1.65772,0.534363 l 0.11439,-0.418271 h -1.71918 l -0.19292,0.72728 h 0.64533 l -1.29066,4.807562 z" style="fill:#00529c;fill-opacity:1;fill-rule:nonzero;stroke:none;stroke-width:0;stroke-miterlimit:4;stroke-dasharray:none" id="path18114"/><path d="m 92.253521,25.790652 -2.163061,7.981304 h 1.207012 l 0.935562,-3.510067 h 0.809228 l 1.125065,3.510067 h 0.08536 1.372614 l -1.290667,-3.571527 c 0.592409,-0.06146 1.379443,-0.338032 1.854053,-0.701672 0.530949,-0.39437 0.932148,-0.956049 1.065312,-1.545044 0.170723,-0.5668 0.09048,-1.15238 -0.244134,-1.543336 -0.452416,-0.565094 -1.352127,-0.619725 -2.000874,-0.619725 h -0.756304 z m 1.999167,3.562991 H 94.054649 92.48229 l 0.705086,-2.639379 h 1.065312 0.536071 c 0.170723,0 0.699964,0 0.981657,0.281693 0.167309,0.170723 0.309009,0.450709 0.192918,0.899711 -0.11097,0.421686 -0.338032,0.759717 -0.670942,1.039703 -0.365348,0.279986 -0.759718,0.396078 -1.039704,0.418272" style="fill:#00529c;fill-opacity:1;fill-rule:nonzero;stroke:none;stroke-width:0;stroke-miterlimit:4;stroke-dasharray:none" id="path18118"/><path d="m 122.20518,30.539315 c -1.12165,0.112677 -2.05209,0.561679 -2.35939,1.715767 -0.029,0.134871 -0.058,0.249256 -0.058,0.361933 v 0.196331 c 0.029,0.619725 0.449,1.070434 1.37774,1.070434 0.33461,0 0.67094,-0.05463 1.0397,-0.20316 0.0324,0 0.058,-0.02049 0.11097,-0.04951 0.36705,-0.169016 0.64363,-0.452416 0.7324,-0.53607 h 0.0563 l -0.19462,0.676063 h 0.95775 l 0.98166,-3.56982 c 0.1417,-0.565093 0.27828,-1.126772 -0.0307,-1.546751 -0.25608,-0.39437 -0.898,-0.534363 -1.40164,-0.534363 -0.48144,0 -0.90141,0.05805 -1.21213,0.139993 -0.97995,0.250963 -1.34871,0.843372 -1.37774,1.376028 l 0.98678,0.05805 c 0.0785,-0.279986 0.19634,-0.478025 0.39096,-0.619725 0.22706,-0.163894 0.56339,-0.223647 0.98507,-0.223647 0.22706,0 0.50364,0.02731 0.61631,0.223647 0.17243,0.198039 0.11439,0.479732 0.0615,0.734109 l -0.20145,0.701672 h -0.78533 c -0.22877,0 -0.47631,0 -0.67606,0.02902 m 0,2.526702 c -0.16902,0.06317 -0.33803,0.08878 -0.50705,0.08878 -0.22194,0 -0.50363,-0.02561 -0.66923,-0.256085 -0.1417,-0.198039 -0.17243,-0.39437 -0.0871,-0.674356 0.0563,-0.22194 0.16731,-0.449002 0.44729,-0.672649 0.16731,-0.114385 0.39437,-0.256085 0.81606,-0.307302 0.13999,-0.03414 0.31072,-0.05975 0.50875,-0.05975 h 0.78875 l -0.31243,1.176282 c -0.16901,0.228769 -0.33803,0.367055 -0.53778,0.510462 -0.16389,0.08878 -0.3073,0.169016 -0.44729,0.194625" style="fill:#00529c;fill-opacity:1;fill-rule:nonzero;stroke:none;stroke-width:0;stroke-miterlimit:4;stroke-dasharray:none" id="path18122"/><path d="m 147.87527,28.236773 -0.19462,0.72728 h 0.64704 l -1.29921,4.807562 h 1.07044 l 1.4887,-5.534842 z m 0.98678,-1.826737 c -0.0871,0.390956 0.13829,0.699965 0.50705,0.699965 0.36193,0 0.7563,-0.309009 0.86727,-0.699965 0.11438,-0.368762 -0.11097,-0.677771 -0.50534,-0.677771 -0.36193,0 -0.76313,0.309009 -0.86898,0.677771" style="fill:#00529c;fill-opacity:1;fill-rule:nonzero;stroke:none;stroke-width:0;stroke-miterlimit:4;stroke-dasharray:none" id="path18126"/><path d="m 151.95026,28.236773 -1.487,5.534842 h 1.07044 l 0.84337,-3.178863 c 0.13828,-0.363641 0.27657,-0.728988 0.47632,-1.008974 0.33632,-0.537778 0.72557,-0.619725 0.95434,-0.619725 0.1417,0 0.30901,0.02561 0.42168,0.139993 0.0785,0.08536 0.11268,0.249256 0.11268,0.450709 l 0.95605,-0.281693 c 0.19292,-0.559972 0,-0.872395 -0.33462,-1.036289 -0.17584,-0.08365 -0.37047,-0.116092 -0.5668,-0.116092 -0.61802,0 -1.23091,0.336325 -1.65772,0.925319 l 0.22194,-0.809227 z" style="fill:#00529c;fill-opacity:1;fill-rule:nonzero;stroke:none;stroke-width:0;stroke-miterlimit:4;stroke-dasharray:none" id="path18130"/><path d="m 157.85813,25.677975 -1.76869,6.57796 c -0.13658,0.503633 -0.39437,1.516021 0.8741,1.516021 h 0.61631 l 0.19633,-0.730695 h -0.30559 c -0.53436,0 -0.39608,-0.452416 -0.37047,-0.561678 l 1.82844,-6.801608 z" style="fill:#00529c;fill-opacity:1;fill-rule:nonzero;stroke:none;stroke-width:0;stroke-miterlimit:4;stroke-dasharray:none" id="path18134"/><path d="m 160.74813,28.236773 -0.1878,0.72728 h 0.64875 l -1.32822,4.807562 h 1.09604 l 1.49212,-5.534842 z m 0.98678,-1.826737 c -0.0871,0.390956 0.1417,0.699965 0.50705,0.699965 0.39607,0 0.75971,-0.309009 0.87068,-0.699965 0.0854,-0.368762 -0.1417,-0.677771 -0.50192,-0.677771 -0.39779,0 -0.76143,0.309009 -0.87581,0.677771" style="fill:#00529c;fill-opacity:1;fill-rule:nonzero;stroke:none;stroke-width:0;stroke-miterlimit:4;stroke-dasharray:none" id="path18138"/><path d="m 164.67818,33.771274 1.15067,-4.356853 c 0.39096,-0.310716 0.95605,-0.563386 1.45969,-0.563386 0.36534,0 0.5668,0.138286 0.64704,0.307301 0.19633,0.256085 0.058,0.674357 0.029,0.84508 l -1.00897,3.767858 h 1.06531 l 1.00897,-3.682497 c 0.11439,-0.452416 0.17072,-0.985072 -0.0837,-1.434074 -0.21853,-0.36364 -0.64704,-0.534363 -1.23433,-0.534363 -0.39266,0 -0.95776,0.08365 -1.65772,0.534363 l 0.11268,-0.418271 h -1.71406 l -0.19804,0.72728 h 0.64362 l -1.28896,4.807562 z" style="fill:#00529c;fill-opacity:1;fill-rule:nonzero;stroke:none;stroke-width:0;stroke-miterlimit:4;stroke-dasharray:none" id="path18142"/><path d="m 181.17532,28.877667 c -0.22023,-0.334617 -0.50022,-0.503633 -0.5907,-0.532656 -0.36535,-0.192917 -0.72387,-0.225354 -1.06531,-0.225354 -0.39779,0 -0.81606,0.03244 -1.31799,0.338031 -0.39607,0.256085 -0.84508,0.645333 -1.01238,1.294081 -0.14683,0.478025 -0.0581,0.839958 0.10755,1.067019 0.16902,0.256085 0.53607,0.390956 0.79045,0.476318 l 0.53436,0.17243 c 0.27657,0.05805 0.5651,0.05805 0.72387,0.276572 0.1195,0.116091 0.17414,0.257791 0.1195,0.53607 -0.0819,0.25267 -0.24925,0.419979 -0.39607,0.534363 -0.17073,0.170723 -0.50705,0.314131 -1.01068,0.314131 -0.31584,0 -0.53778,-0.06317 -0.81777,-0.203161 -0.22364,-0.167308 -0.38754,-0.309009 -0.47461,-0.445587 l -0.70338,0.648748 c 0.50534,0.667527 1.12678,0.756303 1.74309,0.756303 0.45071,0 1.26335,-0.05463 1.96673,-0.590702 0.39607,-0.334617 0.67094,-0.761425 0.78703,-1.125065 0.0854,-0.286815 0.11609,-0.701672 -0.0222,-0.959464 -0.17414,-0.390956 -0.65387,-0.556557 -0.90142,-0.618017 l -0.39779,-0.11097 c -0.47119,-0.112678 -0.70167,-0.169016 -0.84166,-0.310716 -0.0871,-0.08024 -0.19463,-0.249256 -0.11268,-0.587288 0.0563,-0.138285 0.13487,-0.367054 0.39608,-0.53607 0.27486,-0.169016 0.55826,-0.196332 0.72899,-0.196332 0.28169,0 0.47461,0.05975 0.69825,0.196332 0.14341,0.112677 0.2817,0.254377 0.39608,0.397785 z" style="fill:#00529c;fill-opacity:1;fill-rule:nonzero;stroke:none;stroke-width:0;stroke-miterlimit:4;stroke-dasharray:none" id="path18146"/><path d="m 138.39143,33.7713 h 1.20701 l 1.20872,-1.941121 h 3.06277 l 0.14,1.941121 h 1.37944 l -0.75801,-7.981304 h -0.98337 z m 2.97912,-2.868148 2.16306,-3.399096 h 0.0239 l 0.2595,3.399096 z" style="fill:#00529c;fill-opacity:1;fill-rule:nonzero;stroke:none;stroke-width:0;stroke-miterlimit:4;stroke-dasharray:none" id="path18150"/><path d="m 171.76882,31.243718 h 3.33934 l 0.0871,-0.367055 c 0.22365,-0.737523 0.44559,-1.490412 0.058,-2.10843 -0.33974,-0.530948 -1.01239,-0.64704 -1.49383,-0.64704 -0.71021,0 -1.3931,0.25267 -1.93771,0.730695 -0.7324,0.64704 -1.03628,1.516021 -1.2053,2.248423 -0.16902,0.590701 -0.33974,1.488705 0.10926,2.137453 0.42169,0.558264 1.18482,0.64704 1.71406,0.64704 0.43193,0 0.82972,-0.06146 1.24116,-0.20316 0.22194,-0.08024 0.50192,-0.192917 0.75459,-0.334618 l -0.16389,-0.64704 c -0.25779,0.114384 -0.45242,0.198039 -0.73411,0.259499 -0.26462,0.0461 -0.51046,0.105848 -0.79045,0.105848 -0.41827,0 -0.78532,-0.139993 -0.97824,-0.389248 -0.31072,-0.367055 -0.17072,-0.932148 -0.0837,-1.207013 z m 0.1656,-0.734109 0.0563,-0.247549 c 0.11609,-0.286814 0.25267,-0.735816 0.61631,-1.046532 0.2356,-0.232184 0.60095,-0.36364 0.93044,-0.36364 0.28169,0 0.55997,0.08365 0.70338,0.25267 0.24926,0.339739 0.13658,0.816056 0.0307,1.181404 l -0.0615,0.223647 z" style="fill:#00529c;fill-opacity:1;fill-rule:nonzero;stroke:none;stroke-width:0;stroke-miterlimit:4;stroke-dasharray:none" id="path18162"/><path d="M 43.13001,17.136047 V 14.650515 H 33.323926 V 9.9709763 H 42.14098 V 7.5113574 H 33.323926 V 3.2529127 H 42.61606 V 0.79545329 H 26.791576 V 17.136047 Z" style="fill:#00529c;fill-opacity:1;fill-rule:nonzero;stroke:none;stroke-width:0;stroke-miterlimit:4;stroke-dasharray:none" id="path18042"/><path d="M 52.690769,17.136091 V 3.2529567 h 3.83951 c 1.168265,0 2.250152,0.088538 3.234864,0.7471714 0.716939,0.5074718 1.166105,1.235208 1.166105,2.1357007 0,0.7514902 -0.265613,1.5267344 -1.254643,2.1529763 -1.291354,0.8400279 -3.535027,0.9566384 -4.947311,0.7838821 l -0.805476,-0.095016 6.506437,8.1584198 h 7.549453 l -6.17604,-6.81092 c 1.1078,-0.12093 2.882872,-0.5592988 3.95828,-1.2524837 1.287035,-0.8724197 1.947828,-2.1594547 1.947828,-3.3644305 0,-1.3453403 -0.725576,-2.81161 -2.366762,-3.7747268 C 63.393026,0.82572965 60.7261,0.79549729 58.266481,0.79549729 H 46.128186 V 17.136091 Z" style="fill:#00529c;fill-opacity:1;fill-rule:nonzero;stroke:none;stroke-width:0;stroke-miterlimit:4;stroke-dasharray:none" id="path18054"/><path d="m 105.44993,17.136047 v -6.897298 h 8.81489 V 7.7791298 h -8.81489 V 3.2529127 h 9.53399 V 0.79545329 H 98.921898 V 17.136047 Z" style="fill:#00529c;fill-opacity:1;fill-rule:nonzero;stroke:none;stroke-width:0;stroke-miterlimit:4;stroke-dasharray:none" id="path18058"/><path d="m 123.9191,0.794805 h -6.5669 v 16.340594 h 16.19375 v -2.485533 h -9.62685 z" style="fill:#00529c;fill-opacity:1;fill-rule:nonzero;stroke:none;stroke-width:0;stroke-miterlimit:4;stroke-dasharray:none" id="path18062"/><path d="m 160.52444,3.253776 h 7.04414 V 17.13691 h 6.5669 V 3.253776 h 7.03983 V 0.7941571 h -20.65087 z" style="fill:#00529c;fill-opacity:1;fill-rule:nonzero;stroke:none;stroke-width:0;stroke-miterlimit:4;stroke-dasharray:none" id="path18066"/><path d="m 146.61668,0.31804196 c -3.05779,0 -7.34646,0.69102554 -10.22502,2.75330474 -2.28254,1.619591 -3.35795,3.9345265 -3.35795,5.9061086 0,1.9521467 1.07541,4.2627637 3.35795,5.8801947 2.87856,2.034207 7.16723,2.727392 10.22502,2.727392 3.05563,0 7.37022,-0.693185 10.24661,-2.727392 2.28039,-1.617431 3.33204,-3.928048 3.33204,-5.8801947 0,-1.9715821 -1.05165,-4.2865176 -3.33204,-5.9061086 -2.87639,-2.0622792 -7.19098,-2.72523183 -10.24661,-2.75330474 m 0,15.28893904 c -1.62175,0 -3.54151,-0.360629 -4.95163,-2.131382 -1.16826,-1.436037 -1.37773,-3.090179 -1.37773,-4.4981437 0,-1.4662697 0.20947,-3.0880202 1.37773,-4.526217 1.41012,-1.8009853 3.32988,-2.1572953 4.95163,-2.1572953 1.64335,0 3.53935,0.35631 4.97106,2.1572953 1.17043,1.4381968 1.38206,3.0599473 1.38206,4.526217 0,1.4079647 -0.21163,3.0621067 -1.38206,4.4981437 -1.43171,1.770753 -3.32771,2.131382 -4.97106,2.131382" style="fill:#00529c;fill-opacity:1;fill-rule:nonzero;stroke:none;stroke-width:0;stroke-miterlimit:4;stroke-dasharray:none" id="path18078"/><path d="m 83.075161,0.31804196 c -3.055628,0 -7.342146,0.69102554 -10.21854,2.75330474 -2.284703,1.619591 -3.36443,3.9345265 -3.36443,5.9061086 0,1.9521467 1.079727,4.2627637 3.36443,5.8801947 2.876394,2.034207 7.162912,2.727392 10.21854,2.727392 3.053469,0 7.374538,-0.693185 10.25525,-2.727392 2.276066,-1.617431 3.32772,-3.928048 3.32772,-5.8801947 0,-1.9715821 -1.051654,-4.2865176 -3.32772,-5.9061086 C 90.449699,1.0090675 86.12863,0.34611487 83.075161,0.31804196 m 0,15.28893904 c -1.619591,0 -3.539346,-0.360629 -4.945151,-2.131382 -1.168265,-1.436037 -1.382051,-3.090179 -1.382051,-4.4981437 0,-1.4662697 0.213786,-3.0880202 1.382051,-4.526217 1.405805,-1.8009853 3.32556,-2.1572953 4.945151,-2.1572953 1.643345,0 3.539346,0.35631 4.975384,2.1572953 1.170424,1.4381968 1.379891,3.0599473 1.379891,4.526217 0,1.4079647 -0.209467,3.0621067 -1.379891,4.4981437 -1.436038,1.770753 -3.332039,2.131382 -4.975384,2.131382" style="fill:#00529c;fill-opacity:1;fill-rule:nonzero;stroke:none;stroke-width:0;stroke-miterlimit:4;stroke-dasharray:none" id="path18082"/><path d="m 3.767255,17.136047 2.5783889,-4.746481 h 9.0869851 l 2.785697,4.746481 h 7.342146 L 15.611864,0.79545329 H 9.5243612 L 0.50000004,17.136047 Z M 7.5441413,10.178284 10.632161,4.4838019 h 0.09286 l 3.353633,5.6944821 z" style="fill:#00529c;fill-opacity:1;fill-rule:nonzero;stroke:none;stroke-width:0;stroke-miterlimit:4;stroke-dasharray:none" id="path18086"/></g></svg>