<svg width="118" height="25" viewBox="0 0 118 25" fill="none" xmlns="http://www.w3.org/2000/svg">
<path fill-rule="evenodd" clip-rule="evenodd" d="M21.155 19.6994L21.0099 20.1385L22.1244 20.3415L26.8403 21.2355C27.664 20.9823 28.2127 20.7799 28.875 20.4589L22.1244 19.8003L21.155 19.6994ZM40.9539 1.28362C40.3887 0.793776 39.6779 0.473365 38.8384 0.32173C38.3862 0.237341 37.4824 0.186579 36.1415 0.170097H30.5375V10.0448H33.5246V6.33044H36.1408C37.1418 6.31395 37.9497 6.26253 38.5313 6.1788C39.0478 6.12804 39.5644 5.95926 40.0816 5.72324C40.5817 5.48721 41.0176 5.1668 41.3247 4.72772C41.6641 4.32226 41.8255 3.81593 41.8255 3.22521C41.8255 2.43078 41.519 1.77281 40.9539 1.28362ZM38.402 4.01767C38.1762 4.23721 37.869 4.40599 37.4654 4.50752C37.2074 4.57542 36.7709 4.62553 36.1415 4.64267C35.8507 4.65981 35.5114 4.65981 35.1563 4.65981H33.5253V1.82358H34.9463C35.4143 1.82358 35.8022 1.84072 36.1415 1.85786C36.5114 1.85786 36.7886 1.88208 36.9924 1.89989L36.9925 1.8999C37.0288 1.90307 37.0627 1.90604 37.0945 1.90863C37.5625 1.95939 37.9661 2.11102 38.2733 2.36419C38.5962 2.58373 38.7413 2.887 38.7413 3.24235C38.7413 3.54497 38.6284 3.79879 38.402 4.01767ZM7.31571 0.152296H5.74964L0 10.0442H3.14918L4.37656 7.79932H10.287L11.563 10.0442H14.8087L8.91459 0.152296H7.31571ZM7.31571 6.12804H5.29678L7.29931 2.46506L7.31508 2.51517L9.34978 6.12738H7.31571V6.12804ZM26.3224 1.43526C25.1279 0.473367 23.4319 0 21.3007 0C19.6538 0 18.2965 0.270308 17.2798 0.793779C16.2461 1.33373 15.5844 2.02598 15.2937 2.90348L18.2328 3.35905C18.4429 2.86986 18.8465 2.48154 19.3795 2.17761C19.9288 1.87368 20.6069 1.73853 21.382 1.73853C22.4322 1.73853 23.2716 1.97455 23.8853 2.46506C24.499 2.93711 24.8705 3.56211 24.9998 4.28798H20.3647V5.94212H24.9998C24.8226 6.85391 24.4025 7.51188 23.7888 7.91733C23.1751 8.30565 22.4 8.52519 21.5283 8.52519C20.7046 8.52519 19.9623 8.35642 19.3643 8.00172C18.7507 7.66417 18.3792 7.12422 18.2341 6.43197L15.247 7.03917C16.0222 9.14953 18.089 10.2123 21.4482 10.2123C22.8213 10.2123 23.9995 10.0099 24.9689 9.6051C25.9541 9.1825 26.7293 8.60892 27.2944 7.84943C27.8595 7.10707 28.1503 6.21243 28.1503 5.16614C28.1477 3.64649 27.5341 2.39716 26.3224 1.43526ZM106.275 0.152296V1.82358H110.651V10.0442H113.639V1.82358H118V0.152296H106.275ZM103.029 1.35087C101.722 0.473368 99.9942 0.000658921 97.8296 0.000658921H97.7974C96.6186 0.000658921 95.5527 0.152293 94.6325 0.406117C93.948 0.588244 93.2981 0.890778 92.7107 1.30077C92.1944 1.64826 91.7407 2.08814 91.3704 2.60021C91.3704 2.60887 91.3661 2.61752 91.3618 2.62609C91.3575 2.6345 91.3534 2.64282 91.3534 2.65098C90.9012 3.3096 90.6917 4.16997 90.6917 5.16614V5.18263C90.6917 6.1109 90.9182 6.92115 91.3704 7.62988C91.6933 8.10259 92.0957 8.50805 92.6293 8.87923C93.9053 9.75739 95.6498 10.2123 97.829 10.2123H97.8447C100.009 10.2123 101.753 9.75673 103.044 8.86209C104.337 7.96744 104.983 6.71809 104.983 5.1312C104.984 3.52848 104.337 2.26266 103.029 1.35087ZM100.769 7.64703C100.01 8.22126 99.0406 8.50805 97.8454 8.50805H97.8296C96.6508 8.50805 95.6662 8.2206 94.9075 7.64703C94.1317 7.07279 93.7608 6.21243 93.7608 5.09824C93.7608 3.96757 94.1317 3.10654 94.8904 2.56659C95.617 1.99235 96.6186 1.70556 97.8296 1.70556H97.8454C99.0576 1.70556 100.058 1.99236 100.801 2.54945C101.544 3.10655 101.916 3.95043 101.916 5.08176C101.916 6.21309 101.528 7.07279 100.769 7.64703ZM86.1708 0.135813H83.0052L77.7235 9.23392L77.2555 10.027H80.4053L84.5385 2.44792L88.8179 10.027H92.0642L91.3704 8.86275L86.1708 0.135813ZM78.1758 4.86156C78.1758 3.95043 78.0143 3.22456 77.7235 2.65032C77.3527 1.89083 76.7875 1.36736 76.1739 0.928933C75.4151 0.421944 74.0584 -0.168778 72.5396 0.0850461C71.7645 0.203058 70.942 0.557756 70.1499 1.25L70.1991 0.102188H66.8077V1.26714C66.0155 0.574893 65.1766 0.220859 64.3845 0.102188C62.8827 -0.133835 61.5103 0.456882 60.7679 0.963212C59.6528 1.72271 58.749 2.80327 58.749 4.8965C58.749 7.14136 59.7663 8.01886 60.8158 8.82978C61.5267 9.35259 62.8026 9.82596 64.3845 9.6908C65.2225 9.61896 66.0423 9.39613 66.8077 9.03218V11.7669H70.1177V8.99856C70.9736 9.40402 71.7967 9.60642 72.5396 9.65718C74.1228 9.79234 75.4151 9.33611 76.1259 8.8133C76.7396 8.3406 77.3211 7.83427 77.7235 7.07477C77.9985 6.51636 78.1758 5.80763 78.1758 4.86156ZM66.8083 6.88753C65.8868 7.46177 65.0801 7.62989 64.3851 7.5633C62.8354 7.411 61.9631 5.99288 61.9631 4.82859C61.9631 3.39399 62.7061 2.73537 63.3034 2.36419C63.5462 2.19541 63.9171 2.07674 64.3851 2.07674C65.0637 2.07674 65.936 2.31343 66.8083 3.03864V6.88753ZM72.5403 7.5455C71.8629 7.6134 71.0549 7.42748 70.1183 6.87039V3.00501C71.0064 2.29628 71.8629 2.04312 72.5403 2.04312C73.0259 2.04312 73.3962 2.16179 73.639 2.33057C74.2205 2.70175 74.9793 3.36037 74.9793 4.79497C74.9793 5.95926 74.0912 7.39386 72.5403 7.5455ZM55.7461 1.35087C54.438 0.473368 52.6941 0.000658921 50.5465 0.000658921H50.5301C49.3349 0.000658921 48.2689 0.152293 47.3487 0.406117C46.6654 0.591675 46.016 0.893962 45.4269 1.30077C44.8776 1.68908 44.3932 2.14465 44.0545 2.65098C43.6187 3.3096 43.3922 4.16997 43.3922 5.16614V5.18263C43.3922 6.75238 44.0545 7.98458 45.3298 8.87923C46.6057 9.75739 48.3661 10.2123 50.5465 10.2123H50.5622C52.7426 10.2123 54.4702 9.75673 55.7625 8.86209C57.0542 7.96744 57.7001 6.71809 57.7001 5.1312C57.7001 3.52848 57.0536 2.26266 55.7461 1.35087ZM53.485 7.64703C52.742 8.22126 51.7568 8.50805 50.5616 8.50805H50.5458C49.3664 8.50805 48.3818 8.2206 47.6067 7.64703C46.8473 7.07279 46.46 6.21243 46.46 5.09824C46.46 3.96757 46.8473 3.10654 47.5903 2.56659C48.3333 1.99235 49.3185 1.70556 50.5458 1.70556H50.5622C51.7739 1.70556 52.7748 1.99236 53.5178 2.54945C54.2608 3.10655 54.6323 3.95043 54.6323 5.08176C54.6323 6.21309 54.2438 7.07279 53.485 7.64703ZM104.402 12.6938H104.273C103.755 13.3857 103.459 13.1257 103.193 12.8919C103.011 12.7318 102.842 12.5839 102.626 12.7624C102.125 13.2002 103.724 13.9096 104.402 12.6938ZM97.9747 16.3061C98.4427 16.5935 99.0898 15.9177 99.46 15.4628C99.5414 15.3778 99.6051 15.2934 99.6549 15.2261C99.5777 15.4071 99.5125 15.5935 99.46 15.7839C99.4121 15.9355 99.3957 16.0878 99.46 16.1887C99.5092 16.2896 99.6215 16.3575 99.8321 16.3575C100.187 16.3575 100.51 16.1379 100.8 15.6824L100.704 15.6145C99.7894 16.7773 100.605 14.6937 100.86 14.0401C100.898 13.944 100.923 13.8789 100.93 13.8595L100.123 13.8931C99.928 14.433 99.7672 14.8556 99.46 15.2604C99.4377 15.2839 99.4153 15.3081 99.3928 15.3326C99.3792 15.3474 99.3656 15.3624 99.3519 15.3774C99.2741 15.4629 99.1936 15.5512 99.1055 15.6316C98.1566 16.4794 98.905 14.6982 99.1883 14.0239C99.2379 13.9058 99.2733 13.8217 99.2828 13.7915L98.0239 13.9432L97.9904 14.0612C98.5134 14.0612 98.2921 14.5528 98.0542 15.0815C98.0275 15.1406 98.0007 15.2003 97.9747 15.2598C97.7974 15.6646 97.6681 16.0529 97.9103 16.2559C97.9188 16.2648 97.9312 16.2734 97.9436 16.282C97.9552 16.2901 97.9667 16.2981 97.9747 16.3061ZM65.791 19.5985C65.4523 19.5985 65.1615 19.7673 64.9029 19.9697C64.8695 19.9862 64.8373 20.0033 64.8215 20.0376L64.9029 19.8009L64.9672 19.5985H64.9029L63.7241 19.7337L63.6919 19.8523C63.6978 19.8523 63.7045 19.8522 63.712 19.852C63.7165 19.8519 63.7212 19.8517 63.7262 19.8516C63.8051 19.8491 63.9429 19.8449 63.9985 19.9024C64.1166 20.0534 63.5492 21.5602 63.2822 22.269C63.2215 22.4303 63.1763 22.5503 63.1583 22.6035C63.0782 22.8396 62.9647 22.9411 62.8676 23.0083C62.819 23.0421 62.7704 23.0665 62.7255 23.0892C62.636 23.1342 62.5608 23.172 62.5289 23.2615H64.24L64.2734 23.1606C63.695 23.0904 63.8548 22.7161 64.028 22.3105C64.0629 22.2287 64.0983 22.1457 64.1284 22.0636C64.3857 22.1644 64.6607 22.1987 64.9035 22.148C66.211 21.877 67.0335 19.5985 65.791 19.5985ZM64.9023 21.8941C64.6758 22.0794 64.4343 22.0965 64.2236 21.8091C64.2522 21.7196 64.2816 21.6054 64.3144 21.4778C64.43 21.0286 64.5879 20.4147 64.9023 20.1385C64.9512 20.0885 65.0092 20.0493 65.073 20.0232C65.1367 19.9972 65.2048 19.9848 65.2731 19.9868C65.8868 19.9862 65.468 21.4386 64.9023 21.8941ZM68.7137 19.5985C68.5352 19.5985 68.358 19.615 68.1801 19.6829C66.8077 20.122 66.0319 22.1644 67.6308 22.1644C67.8257 22.1644 68.0029 22.1308 68.1801 22.0636C69.5526 21.6238 70.329 19.5985 68.7137 19.5985ZM68.1807 21.8091C67.9871 22.0122 67.7929 22.0965 67.6156 21.9442C67.3406 21.6911 67.7128 20.4754 68.1807 19.9697C68.31 19.8181 68.4557 19.7337 68.585 19.7337C69.1325 19.7337 68.7137 21.2355 68.1807 21.8091ZM108.537 16.2896L108.955 15.0917C109.202 15.0917 109.529 15.7066 109.725 16.0737C109.774 16.1658 109.814 16.2423 109.844 16.2896H110.651L110.684 16.1887C110.464 16.164 110.335 15.9273 110.195 15.6674C110.047 15.3935 109.885 15.094 109.586 14.9901C109.75 14.9259 109.867 14.7497 109.977 14.5857C110.126 14.3624 110.26 14.1618 110.474 14.2979C110.942 14.5853 111.249 13.7915 110.636 13.7915C110.313 13.7915 110.161 14.0274 109.994 14.2853C109.792 14.5963 109.57 14.9394 109.005 14.9394L109.391 13.7915L108.132 13.9603L108.1 14.0612C108.772 14.0744 108.233 15.224 107.917 15.8986L107.917 15.8989C107.838 16.0669 107.773 16.2054 107.745 16.2896H108.537ZM42.197 18.4336H40.6953L38.6442 20.9481L38.3376 18.4336H36.8037L36.7552 18.5344C37.0131 18.5344 37.1588 18.5509 37.3525 18.7375L36.4322 21.4386C36.3043 21.7984 36.0687 21.8701 35.8894 21.9246C35.7744 21.9596 35.6825 21.9875 35.6571 22.0801H37.0781L37.1103 21.9792C36.2046 21.9658 36.8991 20.3912 37.2951 19.4935L37.2951 19.4934C37.3864 19.2864 37.4619 19.1154 37.4982 19.0078L37.8854 22.0801H38.0147L40.4852 19.0586L39.6615 21.4386C39.5222 21.8658 39.2843 21.9068 39.0959 21.9393C38.9791 21.9594 38.8813 21.9763 38.8378 22.0801H40.9854L41.0176 21.9792C40.8239 21.9792 40.711 21.9627 40.6467 21.9284C40.3819 21.7484 40.9966 20.1843 41.2887 19.4407C41.3529 19.2774 41.4015 19.1536 41.4219 19.0928C41.5512 18.6874 41.777 18.6373 41.9548 18.603C41.9655 18.5998 41.976 18.5967 41.9864 18.5936C42.0855 18.5646 42.1679 18.5404 42.197 18.4336ZM55.8748 20.2057C56.3232 20.4778 55.5288 21.3313 55.2186 21.6645C55.1823 21.7035 55.1527 21.7353 55.1324 21.7583C55.1266 21.658 55.124 21.5379 55.121 21.4059C55.1077 20.8053 55.0889 19.9578 54.7445 19.5979L53.7758 19.8339V19.9347C54.4901 19.8542 54.3678 21.8953 54.3287 22.5473L54.3245 22.6187L54.3044 22.6362C54.1186 22.7987 53.9463 22.9493 53.743 22.7367C53.5657 22.5514 53.3879 22.5343 53.2264 22.5857C53.0006 22.6866 52.8871 22.9569 53.1293 23.1593C53.1608 23.1923 53.193 23.2094 53.2245 23.2262L53.2264 23.2272C54.1466 23.632 56.117 20.8808 56.3592 20.391C56.9893 19.1258 54.9867 19.6658 55.8748 20.2057ZM50.3036 19.6994C49.5771 19.2267 48.5761 20.122 48.3175 20.7964H47.7846L48.1718 19.6658H47.3645L46.993 20.7964H46.4443C46.8801 19.2774 45.4591 19.4297 44.6032 20.2229L44.6997 20.2908C46.1535 19.0078 45.9435 22.0464 44.8448 22.0464C44.6366 22.0464 44.7228 21.9534 44.8402 21.8265C44.9778 21.6779 45.1584 21.4829 44.9583 21.337C44.7483 21.1683 44.4733 21.2869 44.3282 21.4887C44.2317 21.6403 44.1989 21.8269 44.3282 21.9785C44.3446 21.9869 44.3569 21.9998 44.3693 22.0127C44.3812 22.0252 44.3932 22.0377 44.4089 22.0464C45.1355 22.5528 46.1371 21.6074 46.4115 20.9487H46.9451L46.5572 22.0801H47.3487L47.736 20.9487H48.2689C47.8495 22.4849 49.2541 22.3332 50.1264 21.523L50.0299 21.4551C48.5767 22.7374 48.7697 19.6994 49.8685 19.6994C50.0755 19.6994 49.9913 19.7914 49.8749 19.9187C49.737 20.0695 49.5538 20.2698 49.7556 20.4253C50.1908 20.7463 50.7723 20.0033 50.3036 19.6994ZM53.227 19.3276C53.0012 18.9227 52.6297 18.5852 52.0804 18.3821C52.0666 18.3751 52.0526 18.371 52.04 18.3674L52.0399 18.3673C52.0232 18.3625 52.0086 18.3583 51.9996 18.3485L51.9347 18.4494C51.9594 18.4669 51.984 18.4797 52.0086 18.4926C52.0323 18.5049 52.0559 18.5173 52.0798 18.5338C52.467 18.7876 52.6934 19.1581 52.7578 19.6651C52.5444 19.5679 52.3069 19.5441 52.0798 19.5972C50.8688 19.9011 49.8029 22.1631 51.5468 22.1631C51.7404 22.1631 51.9183 22.1466 52.0798 22.0952C52.6127 21.9772 53 21.6561 53.2264 21.2513C53.3968 20.9621 53.487 20.6292 53.4872 20.2895C53.4873 19.9499 53.3972 19.6169 53.227 19.3276ZM52.0804 21.7755C51.9511 21.9271 51.8218 22.0115 51.7089 22.0115C51.0788 22.0115 51.5474 20.5426 52.0804 19.969C52.2097 19.8174 52.3383 19.733 52.4519 19.733C53.0649 19.7337 52.5805 21.2019 52.0804 21.7755ZM59.0404 19.6658L58.6689 20.7463H57.8288L58.2003 19.5985L56.9565 19.7501L56.9243 19.8517C56.9562 19.8557 56.9861 19.8588 57.0136 19.8616L57.0136 19.8616C57.0976 19.8702 57.1587 19.8765 57.1829 19.9018C57.3929 20.0027 56.6499 21.8763 56.5692 22.0794H57.3601L57.7802 20.8815H58.6203C58.6027 20.9456 58.5724 21.027 58.5388 21.1172C58.3869 21.5247 58.1676 22.113 58.7496 22.113C59.2018 22.113 59.4762 21.8091 59.7506 21.4715L59.6213 21.4036C58.7938 22.5225 59.517 20.5313 59.7629 19.8543C59.7954 19.765 59.8195 19.6985 59.8307 19.6651H59.0404V19.6658ZM97.2159 15.716L97.1188 15.6316C95.7785 16.7623 95.0689 15.0574 96.2957 14.0955C96.6022 13.8595 97.2973 13.9096 96.893 14.1634C96.2635 14.5682 97.5067 15.0574 97.5067 14.2643C97.5067 13.0149 94.0831 14.433 94.9554 15.9692C95.4076 16.7794 96.7315 16.2052 97.2159 15.716ZM63.1104 21.4887L62.9969 21.4386C62.9519 21.5023 62.9059 21.5503 62.8738 21.5838L62.8676 21.5902C62.3182 22.1473 62.5926 21.252 62.8676 20.4932C62.9851 20.1647 63.103 19.8587 63.1607 19.7091L63.1607 19.709C63.1742 19.674 63.1844 19.6476 63.1905 19.6315L62.8676 19.648L62.4317 19.6651L62.3182 20.0027C62.2381 19.5979 61.9474 19.5135 61.6244 19.6315C60.8486 19.8853 59.8149 21.1511 60.3321 21.9614C60.6708 22.4842 61.2523 22.0115 61.6244 21.6067C61.7367 21.4715 61.8338 21.3535 61.8818 21.2691C61.463 22.4671 62.3176 22.2989 62.8669 21.792C62.9575 21.6995 63.0391 21.5979 63.1104 21.4887ZM61.8818 21.0325C61.8061 21.1691 61.72 21.2992 61.6244 21.4214C60.9136 22.2818 60.8322 20.712 61.6244 19.9354C61.6405 19.9186 61.6605 19.9018 61.6806 19.885C61.7006 19.8682 61.7206 19.8513 61.7367 19.8345C62.0117 19.6315 62.1725 19.8345 62.1725 20.1385C62.1725 20.4081 62.0767 20.6956 61.8818 21.0325ZM43.15 20.9995C43.5859 20.9144 44.0059 20.7292 44.2803 20.358C44.2883 20.3406 44.2965 20.3277 44.3047 20.3149L44.3047 20.3149L44.3047 20.3149C44.3126 20.3025 44.3205 20.2901 44.3282 20.2736C44.4253 20.1042 44.4575 19.9024 44.3282 19.7501L44.2803 19.6994C44.0053 19.4798 43.5852 19.5141 43.15 19.6994C42.6978 19.9024 42.2298 20.2565 41.9548 20.6619C41.6483 21.1004 41.5512 21.5737 41.9062 21.9442C41.9226 21.9614 41.939 21.9785 41.9548 21.9785C42.2613 22.2653 42.7142 22.2317 43.15 22.0794C43.5373 21.9278 43.9088 21.6911 44.1188 21.4715C44.0391 21.4094 43.8368 21.4942 43.6027 21.5923L43.6026 21.5924C43.4568 21.6535 43.2986 21.7198 43.15 21.759C42.7785 21.8599 42.4556 21.8091 42.5685 21.0839L42.5694 21.0838C42.7627 21.0667 42.9567 21.0495 43.15 20.9995ZM43.15 19.9697C43.2629 19.8517 43.3922 19.7666 43.5209 19.7666C43.8117 19.7666 43.666 20.1549 43.5859 20.3066C43.4936 20.5095 43.3406 20.6754 43.15 20.7793C42.9782 20.8671 42.7915 20.9186 42.6007 20.9309C42.6814 20.712 42.8914 20.2393 43.15 19.9697ZM107.324 15.716L107.229 15.6316C105.888 16.7623 105.177 15.0574 106.404 14.0955C106.711 13.8595 107.406 13.9096 107.002 14.1634C106.372 14.5682 107.616 15.0574 107.616 14.2643C107.616 13.0149 104.192 14.433 105.064 15.9692C105.516 16.7794 106.841 16.2052 107.324 15.716ZM109.182 19.6658L108.827 20.7463H107.955L108.342 19.5985L107.099 19.7501L107.066 19.8517C107.098 19.8557 107.128 19.8588 107.155 19.8616C107.239 19.8702 107.3 19.8764 107.324 19.9018C107.498 19.9851 107.01 21.2792 106.798 21.8406C106.754 21.9586 106.722 22.0441 106.71 22.0794H107.502L107.905 20.8815H108.778C108.759 20.9387 108.732 21.0095 108.701 21.0881C108.54 21.4961 108.298 22.113 108.907 22.113C109.343 22.113 109.634 21.8091 109.892 21.4715L109.779 21.4036C108.951 22.5228 109.675 20.5303 109.92 19.8538L109.921 19.8528C109.953 19.7642 109.977 19.6983 109.988 19.6651H109.182V19.6658ZM105.581 19.6822C105.323 20.4081 105.129 20.898 104.547 21.4379C103.589 22.3059 104.4 20.4024 104.666 19.7776L104.666 19.7773C104.705 19.6856 104.733 19.6216 104.741 19.5979L103.465 19.7495L103.433 19.851C103.963 19.851 103.751 20.329 103.518 20.854C103.311 21.3203 103.087 21.8238 103.353 22.0623C103.917 22.535 104.822 21.3871 105.096 21.0325C105.079 21.0848 105.057 21.1436 105.034 21.2061L105.034 21.2062C104.884 21.608 104.676 22.1638 105.291 22.1638C105.645 22.1638 105.968 21.9278 106.259 21.4887L106.146 21.4214C105.194 22.6298 106.114 20.3154 106.33 19.7717C106.353 19.7156 106.368 19.6783 106.372 19.6658L105.581 19.6822ZM104.419 15.6817L104.305 15.6138C103.41 16.7976 104.21 14.7048 104.462 14.0449C104.501 13.9425 104.527 13.8746 104.532 13.8588L103.739 13.8924C103.562 14.3816 102.949 15.8511 102.335 15.8511C102.087 15.8511 102.624 14.4918 102.829 13.974C102.864 13.8837 102.89 13.819 102.899 13.7915L101.625 13.9432L101.592 14.0612C102.096 14.0612 101.891 14.5373 101.668 15.0586C101.468 15.5238 101.253 16.025 101.511 16.2559C102.06 16.7451 102.996 15.5808 103.256 15.2261C103.238 15.2801 103.214 15.3409 103.19 15.4056C103.036 15.8066 102.825 16.3575 103.465 16.3575C103.853 16.3575 104.208 16.0199 104.419 15.6817ZM100.478 19.6658C100.434 19.7848 100.496 19.8028 100.573 19.8253C100.694 19.8602 100.851 19.906 100.704 20.358C100.685 20.4043 100.659 20.4929 100.627 20.6033L100.627 20.6035C100.495 21.0554 100.256 21.8713 99.9457 21.6403C99.8748 21.5828 99.7861 21.5544 99.6966 21.5608C99.607 21.5671 99.5228 21.6076 99.46 21.6746C99.3477 21.7755 99.3149 21.9442 99.46 22.0629C99.46 22.0629 99.4758 22.0794 99.4934 22.0794C100.23 22.5538 100.656 21.1392 100.858 20.4681C100.886 20.3753 100.91 20.2967 100.93 20.2393C101.078 19.8004 101.365 19.8132 101.71 19.8286C101.777 19.8315 101.845 19.8345 101.915 19.8345C101.897 19.8912 101.855 19.995 101.803 20.1279L101.803 20.128C101.573 20.7077 101.122 21.8431 101.398 22.0629C101.818 22.417 102.431 21.8269 102.658 21.4887L102.544 21.4214C101.578 22.6961 102.541 20.2496 102.738 19.7484C102.755 19.7052 102.767 19.6764 102.771 19.6658H100.478ZM99.46 21.4887L99.3477 21.4386C98.4263 22.5191 99.1692 20.5947 99.46 19.8688C99.4934 19.7501 99.5256 19.6658 99.5414 19.6321H99.46L98.7984 19.6664L98.6849 20.004C98.5877 19.5992 98.3127 19.5148 97.974 19.6328C97.1989 19.8866 96.1815 21.1524 96.683 21.9627C97.0216 22.4855 97.6032 22.0128 97.974 21.608C98.0876 21.4729 98.1847 21.3548 98.2326 21.2705C97.7482 22.6714 98.9914 22.2159 99.4594 21.5065V21.4887H99.46ZM98.2333 21.0325C98.1572 21.1692 98.0707 21.2993 97.9747 21.4214C97.2651 22.2818 97.1837 20.712 97.9747 19.9354C97.9907 19.9186 98.0111 19.9018 98.0314 19.885C98.0518 19.8682 98.0721 19.8513 98.0882 19.8345C98.3632 19.6315 98.524 19.8345 98.524 20.1385C98.524 20.4081 98.4269 20.6956 98.2333 21.0325ZM95.3755 19.6822C95.1326 20.4081 94.9396 20.898 94.3581 21.4379C93.4002 22.3059 94.2109 20.4024 94.477 19.7776L94.4772 19.7773C94.5162 19.6856 94.5435 19.6216 94.5518 19.5979L93.2758 19.7495L93.2436 19.851C93.7712 19.851 93.5594 20.3239 93.3258 20.8455C93.1159 21.3142 92.8883 21.8223 93.1635 22.0623C93.703 22.5135 94.5371 21.4882 94.8648 21.0856L94.9081 21.0325C94.8909 21.0842 94.8691 21.1423 94.8459 21.204C94.695 21.6059 94.4855 22.1638 95.1017 22.1638C95.4562 22.1638 95.7791 21.9278 96.0699 21.4887L95.9576 21.4214C95.0058 22.6304 95.9261 20.3133 96.1415 19.771C96.1554 19.7361 96.1663 19.7085 96.1736 19.6897C96.178 19.6785 96.1811 19.6704 96.1828 19.6658L95.3755 19.6822ZM116.401 19.6822C116.379 19.7455 116.359 19.8064 116.339 19.8656C116.284 20.0271 116.234 20.1756 116.175 20.3237C115.996 20.7533 115.725 21.1344 115.384 21.4379C114.426 22.3059 115.237 20.4024 115.503 19.7776C115.542 19.6858 115.569 19.6216 115.577 19.5979L114.303 19.7495L114.269 19.851C114.797 19.851 114.585 20.3239 114.351 20.8455C114.142 21.3142 113.914 21.8223 114.189 22.0623C114.729 22.5135 115.563 21.4882 115.89 21.0856L115.934 21.0325C115.917 21.0842 115.895 21.1423 115.872 21.204C115.721 21.6059 115.511 22.1638 116.127 22.1638H116.175C116.498 22.1473 116.806 21.9106 117.097 21.4887L116.983 21.4214C116.031 22.6304 116.952 20.313 117.167 19.7709C117.189 19.7152 117.204 19.6783 117.208 19.6658L116.401 19.6822ZM117.305 13.8924C117.03 13.69 116.594 13.7236 116.174 13.8924C115.222 14.2972 114.252 15.4285 114.931 16.1551C115.237 16.4755 115.722 16.4419 116.174 16.2731C116.53 16.1452 116.856 15.9378 117.128 15.6652C117.057 15.6123 116.852 15.6989 116.614 15.8C116.472 15.86 116.319 15.9252 116.174 15.9692C115.787 16.07 115.48 16.0028 115.593 15.2769C115.787 15.2604 115.98 15.2433 116.174 15.209C116.61 15.1081 117.03 14.9394 117.305 14.551C117.451 14.3651 117.514 14.0777 117.305 13.8924ZM116.611 14.5174C116.481 14.737 116.352 14.8886 116.175 14.973C116.013 15.0739 115.836 15.1081 115.627 15.1418C115.707 14.9057 115.9 14.433 116.175 14.1634C116.288 14.0447 116.418 13.9775 116.547 13.9775C116.837 13.9768 116.692 14.3651 116.611 14.5174ZM114.268 14.0287L114.268 14.0286C114.304 13.9389 114.328 13.8781 114.334 13.8595L113.526 13.8931C113.267 14.6196 113.073 15.1088 112.508 15.6323C111.557 16.4831 112.314 14.6857 112.595 14.0172L112.595 14.0171L112.595 14.017C112.643 13.9029 112.677 13.8217 112.687 13.7922L111.411 13.9438L111.395 14.0619C111.912 14.0619 111.704 14.5266 111.473 15.0416C111.265 15.5082 111.037 16.0159 111.314 16.2566C111.839 16.7244 112.689 15.6804 113.017 15.2779L113.058 15.2268C113.04 15.2774 113.018 15.333 112.995 15.3915L112.995 15.3921C112.833 15.8026 112.615 16.3581 113.236 16.3581C113.591 16.3581 113.914 16.1386 114.205 15.683L114.107 15.6145C113.187 16.7842 114.017 14.669 114.268 14.0287ZM112.799 19.6822C112.542 20.4081 112.347 20.898 111.782 21.4379C110.807 22.3094 111.626 20.3869 111.889 19.7701L111.889 19.7698C111.926 19.6821 111.952 19.6209 111.96 19.5979L110.684 19.7495L110.652 19.851C111.181 19.851 110.972 20.3255 110.742 20.8482C110.536 21.3161 110.313 21.8228 110.587 22.0623C111.136 22.535 112.04 21.3871 112.315 21.0325C112.298 21.084 112.276 21.1417 112.253 21.203C112.102 21.605 111.893 22.1638 112.508 22.1638C112.864 22.1638 113.187 21.9278 113.478 21.4887L113.364 21.4214C112.404 22.6412 113.349 20.2715 113.555 19.7568L113.555 19.7562C113.574 19.7087 113.586 19.6771 113.591 19.6658L112.799 19.6822ZM83.7967 19.6994C83.5217 19.4798 83.1017 19.5141 82.6658 19.6994C81.7122 20.1042 80.744 21.2355 81.4214 21.9442C81.7292 22.2647 82.2136 22.2482 82.6658 22.0794C83.0525 21.9278 83.4246 21.6911 83.634 21.4715C83.5551 21.4094 83.3525 21.4942 83.1181 21.5924L83.118 21.5925C82.9722 21.6536 82.8141 21.7198 82.6658 21.759C82.2937 21.8599 81.9708 21.8091 82.0843 21.0839C82.278 21.0674 82.471 21.0496 82.6658 20.9995C83.1017 20.9144 83.5217 20.7292 83.7967 20.358C83.9412 20.1549 84.0225 19.8688 83.7967 19.6994ZM83.1181 20.3072C83.015 20.5078 82.8577 20.6722 82.6658 20.7799C82.4941 20.8679 82.3074 20.9194 82.1165 20.9316C82.1979 20.712 82.4072 20.2393 82.6658 19.9697C82.7794 19.8517 82.9074 19.7666 83.0367 19.7666C83.3439 19.7666 83.1824 20.1549 83.1181 20.3072ZM79.5816 19.7337L79.5495 19.8523C80.0697 19.828 79.8498 20.3463 79.6156 20.8983C79.3558 21.5107 79.0784 22.1644 79.7746 22.1644C80.1468 22.1644 80.4855 21.9284 80.792 21.4557L80.6785 21.405C80.4848 21.6753 80.3398 21.7933 80.2439 21.7933C79.9823 21.7933 80.5614 20.3419 80.7805 19.7927L80.7806 19.7926C80.8192 19.6957 80.8467 19.627 80.8563 19.5992L79.5816 19.7337ZM94.2282 15.6316C92.8879 16.7623 92.1929 15.0574 93.4202 14.0955C93.728 13.8595 94.4054 13.9096 94.0175 14.1634C93.3723 14.5682 94.6161 15.0574 94.6161 14.2643C94.6161 13.0149 91.2089 14.433 92.0636 15.9692C92.5328 16.7794 93.8397 16.2052 94.3253 15.716L94.2282 15.6316ZM20.7999 18.6359L22.1244 18.6188L32.1686 18.4843C31.2313 19.2774 30.489 19.6486 29.7138 19.9697C29.6917 19.9697 28.6121 19.8923 27.2148 19.7921C25.5523 19.6729 23.44 19.5214 22.1238 19.4297C21.365 19.379 20.8642 19.3282 20.8642 19.3282C20.6062 20.3916 20.1212 21.4043 19.201 22.0629L20.1862 24.4937L19.5725 24.7976L18.7166 23.245C18.1673 23.3966 17.6343 23.4645 17.1013 23.4303C16.5848 23.4131 16.0682 23.3122 15.5189 23.1428L14.7279 25L14.0821 24.6618L15.1802 22.2818C14.1792 21.6403 13.5012 20.4589 13.2426 19.311C13.2426 19.311 12.7424 19.3453 11.9831 19.3954C9.56046 19.582 4.44155 19.9525 4.39298 19.9525C3.61783 19.6321 2.87484 19.2438 1.93822 18.4678L11.9831 18.6201L14.0499 18.6544C14.2114 20.7806 15.2287 21.844 17.102 21.9119C17.3927 21.9284 17.6835 21.9119 18.0228 21.8776L17.102 19.7508L16.7954 19.0243L16.0853 19.3117L15.5037 18.2819L17.1026 17.438L17.4255 17.2692L18.5879 18.096L17.5706 18.5516L18.8459 21.5394C21.6722 19.1086 20.0411 16.4755 17.8286 14.551C19.3303 15.2934 20.477 16.4755 20.7999 18.6359ZM15.7131 22.8224C16.166 22.9535 16.6323 23.027 17.102 23.0413C17.5864 23.0591 18.0872 23.0076 18.4908 22.8725L18.3294 22.5185C17.9743 22.653 17.5378 22.7037 17.102 22.6872C16.6762 22.6687 16.2537 22.6006 15.8424 22.4842L15.7131 22.8224ZM13.2426 20.4246L13.4684 20.8472L11.983 21.3707L9.8512 22.1302C9.09244 22.0115 8.51092 21.7755 7.94579 21.5223L11.983 20.6784L13.2426 20.4246ZM20.1382 21.6067L20.4448 21.1676L22.125 21.7755L23.6103 22.3154C23.14 22.5271 22.6366 22.6474 22.125 22.6701C22.0812 22.6729 22.0374 22.6671 21.9957 22.653L20.1382 21.6067ZM12.936 19.6823L13.0811 20.1042L11.983 20.3066L7.26777 21.2184C6.44405 20.9481 5.89533 20.7628 5.21667 20.4246L11.983 19.7666L12.936 19.6823ZM10.4977 22.2818L11.983 21.759L13.662 21.1511L13.9692 21.5902L12.1123 22.6365H11.983C11.4986 22.6365 10.9985 22.5185 10.4977 22.2818ZM20.639 20.8815L20.8648 20.4589L22.1237 20.7121L26.161 21.5395C25.5801 21.8091 25.0149 22.0464 24.2398 22.1473L22.1244 21.4043L20.639 20.8815ZM77.9379 20.7433C77.9569 20.7274 77.976 20.7114 77.9985 20.6956C78.6936 20.1549 79.6138 20.7628 79.0323 21.5909C78.7907 21.9284 78.3864 22.0972 77.9985 22.148C77.9482 22.148 77.8978 22.1524 77.8494 22.1567C77.8051 22.1607 77.7625 22.1644 77.7235 22.1644C76.5483 22.1644 76.8484 21.4209 77.1082 20.777C77.3016 20.2978 77.4727 19.8737 76.997 19.8523L77.0304 19.7508L77.9985 19.6321L78.2735 19.5985L77.9985 20.4424L77.8692 20.7964C77.8953 20.779 77.9165 20.7612 77.9379 20.7433ZM77.7734 22.0115C77.8535 22.0115 77.9184 21.9785 77.9985 21.9106C78.3385 21.6067 78.6293 20.7463 78.2414 20.7457C78.16 20.7457 78.0799 20.7793 77.9985 20.8637C77.6441 21.1841 77.3375 22.0115 77.7734 22.0115ZM75.1565 20.7463L75.5286 19.6658V19.6651H76.3189C76.3088 19.6949 76.2886 19.7511 76.2615 19.8263C76.0278 20.4744 75.2838 22.5383 76.1083 21.4036L76.2376 21.4715C75.9638 21.8091 75.6895 22.113 75.2373 22.113C74.6355 22.113 74.8786 21.4841 75.0362 21.0763C75.0648 21.0024 75.0905 20.9358 75.108 20.8815H74.2521L73.832 22.0794H73.0411C73.0451 22.0692 73.0508 22.0549 73.058 22.0367C73.1948 21.6931 73.8699 19.9976 73.6548 19.9018C73.6305 19.8765 73.5695 19.8702 73.4855 19.8616C73.458 19.8588 73.4281 19.8557 73.3962 19.8517L73.4283 19.7501L74.6885 19.5985L74.3006 20.7463H75.1565ZM71.3061 18.3666C71.3177 18.3707 71.3295 18.3748 71.3451 18.3828C72.6696 18.8891 73.4283 20.4932 72.1694 21.6067C71.9283 21.8213 71.6478 21.9822 71.3451 22.0794C70.1347 22.4506 69.1823 21.3707 70.4905 20.1549C70.7156 19.9519 71.0221 19.733 71.3451 19.6315C71.5715 19.5649 71.8131 19.5649 72.0237 19.6658C71.9588 19.1588 71.733 18.7882 71.3451 18.5344C71.3209 18.5175 71.3007 18.5049 71.2804 18.4921C71.2604 18.4796 71.2402 18.467 71.2158 18.45L71.265 18.3492C71.2815 18.358 71.2938 18.3623 71.3061 18.3666ZM70.9742 22.0115C71.0877 22.0115 71.2158 21.9271 71.3451 21.7755C71.8623 21.2019 72.3309 19.7337 71.733 19.733C71.6037 19.733 71.4744 19.8174 71.3451 19.969C70.8291 20.5426 70.3605 22.0115 70.9742 22.0115ZM86.4907 14.9987C86.2385 15.5693 85.9706 16.1754 86.751 16.1887L86.7189 16.2896H84.6198C84.6573 16.1786 84.743 16.1634 84.8479 16.1449C85.0147 16.1153 85.2303 16.0772 85.3786 15.6316C85.4016 15.5597 85.461 15.4103 85.5384 15.2159C85.8428 14.4505 86.4248 12.9876 86.1537 12.8125C86.0736 12.7617 85.9607 12.7446 85.7671 12.7446L85.7993 12.6437C85.9117 12.6437 86.0675 12.6347 86.2508 12.6241C86.5675 12.6057 86.9665 12.5825 87.366 12.593C87.9791 12.6272 88.5927 12.7281 88.8513 13.0663C88.9508 13.1881 89.0026 13.3447 88.9964 13.5048C88.9964 13.6913 88.9472 13.8601 88.8513 14.0117C88.577 14.433 87.9305 14.6018 87.366 14.6361C87.1074 14.6526 86.8488 14.6361 86.6552 14.6018C86.6111 14.7262 86.5514 14.8614 86.4907 14.9987ZM87.3654 12.8461C87.3162 12.8461 87.284 12.8461 87.2361 12.8633L86.7189 14.4001C86.9377 14.4263 87.1594 14.3973 87.3654 14.3157C88.1563 13.9775 88.2856 12.8804 87.3654 12.8461ZM91.5641 14.2979C91.5962 14.4594 91.5962 14.6262 91.5641 14.7877C91.4184 15.3613 90.869 16.0364 90.1601 16.2731C89.9816 16.3238 89.8044 16.3575 89.6107 16.3575C89.2386 16.3575 88.997 16.2559 88.852 16.07C88.6571 15.8169 88.6735 15.4285 88.852 15.0574C89.0771 14.551 89.5615 14.0612 90.1601 13.8759C90.3215 13.8252 90.4988 13.7915 90.676 13.7915C91.1919 13.7915 91.4669 13.9939 91.5641 14.2979ZM90.1594 14.1634C89.6902 14.6862 89.3029 15.8848 89.5767 16.1379C89.7558 16.3061 89.9652 16.2217 90.1594 16.0028C90.6754 15.4292 91.0954 13.9267 90.5461 13.9267C90.4168 13.9267 90.2875 14.0282 90.1594 14.1634ZM91.5641 19.6486C91.6934 19.615 91.8548 19.5985 91.9999 19.5985C92.2415 19.5985 92.6615 19.6658 92.6615 19.9862C92.6615 20.4246 91.9028 20.6949 91.5798 20.7793C92.8886 20.898 92.4042 21.8091 91.5641 22.0794C91.4026 22.1302 91.2411 22.1638 91.0797 22.1638C90.5625 22.1638 90.2717 21.9785 90.1594 21.7254C90.0459 21.5223 90.0623 21.252 90.1594 20.9823C90.3373 20.4252 90.8854 19.8345 91.5641 19.6486ZM91.0626 22.0286C91.2575 22.0286 91.4827 21.7082 91.5641 21.4214C91.5962 21.2863 91.5962 21.1676 91.5641 21.0839C91.4991 20.9316 91.3376 20.8643 91.0147 20.9659C91.011 20.9774 91.0066 20.9911 91.0015 21.0066C90.9177 21.2632 90.6678 22.0286 91.0626 22.0286ZM91.0626 20.7964C91.2254 20.7793 91.4026 20.7285 91.5641 20.6276C91.8227 20.476 92.0478 20.2229 92.0485 19.8853C92.0485 19.5979 91.8069 19.6987 91.5641 19.9862C91.3704 20.2057 91.1762 20.4932 91.0626 20.7964ZM89.1951 19.4331C89.152 20.1649 89.1087 20.9017 89.1087 21.6238C89.1087 21.8941 89.238 21.9785 89.4814 21.9785L89.4493 22.0794H87.5918L87.624 21.9785C88.1853 21.9365 88.1939 21.6523 88.2072 21.211C88.21 21.1187 88.213 21.0196 88.2212 20.9144H86.881C86.8529 20.9439 86.8067 20.9865 86.751 21.038C86.4231 21.3408 85.7644 21.9492 86.5101 21.9785V22.0794H85.2178C85.2346 22.0261 85.4165 21.903 85.6111 21.7713C85.7872 21.6521 85.9737 21.5259 86.0579 21.4379L87.366 20.1213L88.8513 18.6188L89.1087 18.3492H89.2537C89.2378 18.7076 89.2165 19.0698 89.1951 19.4331ZM87.1074 20.6956H88.2206L88.302 19.497L87.366 20.4252L87.1074 20.6956Z" fill="#333333"/>
</svg>
