<svg width="20" height="21" viewBox="0 0 20 21"  xmlns="http://www.w3.org/2000/svg">
<path d="M20 5.39173C20 2.98657 17.8046 1.15521 15.4341 1.60532C12.1379 -0.533623 7.86676 -0.536592 4.56598 1.60532C2.1932 1.15478 0 2.98845 0 5.39173C0 6.81134 0.790508 8.10067 1.99852 8.76786C0.946992 11.8137 1.67867 15.3511 4.23543 17.7338L3.30176 18.6674C2.99664 18.9725 2.99664 19.4672 3.30176 19.7723C3.60684 20.0774 4.10148 20.0774 4.4066 19.7723L5.48137 18.6975C8.1877 20.4129 11.7381 20.4599 14.5186 18.6975L15.5934 19.7723C15.8985 20.0774 16.3931 20.0774 16.6982 19.7723C17.0034 19.4672 17.0034 18.9725 16.6982 18.6674L15.7646 17.7338C18.337 15.3365 19.0451 11.7909 18.0015 8.76786C19.2095 8.10067 20 6.81134 20 5.39173ZM13.702 2.41649C13.3264 2.72466 13.0085 3.1038 12.7697 3.53606C11.0096 2.92841 9.03988 2.91134 7.23031 3.53606C6.99156 3.1038 6.67367 2.7247 6.29805 2.41649C8.62238 1.27872 11.3772 1.27853 13.702 2.41649ZM1.5625 5.39173C1.5625 4.1281 2.59055 3.10005 3.85418 3.10005C4.65731 3.10005 5.39031 3.5254 5.80121 4.18517C4.49621 4.93317 3.39731 6.03087 2.64762 7.3388C1.98785 6.92786 1.5625 6.19481 1.5625 5.39173ZM10 18.4386C6.19477 18.4386 3.09898 15.3428 3.09898 11.5375C3.09898 7.73228 6.19477 4.63649 10 4.63649C13.8052 4.63649 16.9011 7.73228 16.9011 11.5375C16.9011 15.3428 13.8052 18.4386 10 18.4386ZM17.3524 7.33876C16.6044 6.03368 15.5067 4.93481 14.1988 4.18513C14.6098 3.52536 15.3428 3.10001 16.1459 3.10001C17.4095 3.10001 18.4375 4.12806 18.4375 5.39169C18.4375 6.19485 18.0122 6.92786 17.3524 7.33876ZM13.6254 14.0581C13.9305 14.3632 13.9305 14.8578 13.6254 15.1629C13.3202 15.468 12.8256 15.468 12.5205 15.1629L9.44762 12.09C9.30109 11.9435 9.21879 11.7447 9.21879 11.5375V6.92817C9.21879 6.49669 9.56856 6.14692 10 6.14692C10.4315 6.14692 10.7813 6.49669 10.7813 6.92817V11.214L13.6254 14.0581Z" />
</svg>
