<svg width="50" height="45" viewBox="0 0 50 45" fill="none" xmlns="http://www.w3.org/2000/svg">
<path d="M44.8983 44.5H5.1017C3.19407 44.5 1.98826 42.4507 2.91468 40.7831L22.813 4.96619C23.7662 3.25039 26.2338 3.25039 27.187 4.96619L47.0853 40.7831C48.0117 42.4507 46.8059 44.5 44.8983 44.5Z" fill="#FFDC00" stroke="black"/>
<g opacity="0.3">
<mask id="mask0" mask-type="alpha" maskUnits="userSpaceOnUse" x="2" y="3" width="46" height="42">
<path d="M44.8983 44.5H5.1017C3.19407 44.5 1.98826 42.4507 2.91468 40.7831L22.813 4.96619C23.7662 3.25039 26.2338 3.25039 27.187 4.96619L47.0853 40.7831C48.0117 42.4507 46.8059 44.5 44.8983 44.5Z" fill="#FFDC00" stroke="black"/>
</mask>
<g mask="url(#mask0)">
<path opacity="0.1" d="M39.5 9.85294L51.5 45C51.5 46.0253 38.6724 47.5294 37.6471 47.5294H9.85294C8.82765 47.5294 8 46.7018 8 45.6765V43.7618L8.09882 43.8174C42.1126 44.8179 31.8288 8 31.8288 8H37.6471C38.6724 8 39.5 8.82771 39.5 9.85294Z" fill="black"/>
</g>
</g>
<path d="M25.0573 32.7496C24.1652 32.7496 23.4927 33.4465 23.4927 34.3706C23.4927 35.2946 24.1652 35.9915 25.0573 35.9915C25.9642 35.9915 26.6219 35.3099 26.6219 34.3706C26.6225 33.416 25.9789 32.7496 25.0573 32.7496Z" fill="black"/>
<path d="M26.1555 30.6867L26.6148 22.6728C26.6656 21.7856 25.9571 21.039 25.065 21.039C24.1729 21.039 23.4644 21.7862 23.5151 22.6728L23.9745 30.6867C24.0076 31.2624 24.4858 31.7121 25.0644 31.7121C25.6442 31.7121 26.1224 31.2624 26.1555 30.6867Z" fill="black"/>
</svg>
