<svg id="Layer_1" data-name="Layer 1" xmlns="http://www.w3.org/2000/svg" viewBox="0 0 69.95 17.0914">
  <defs>
    <style>
      .cls-1 {
        fill: #042443;
      }
    </style>
  </defs>
  <g id="Layer_2" data-name="Layer 2">
    <g id="Layer_1-2" data-name="Layer 1-2">
      <path class="cls-1" d="M13.89,13.28H12.63V12h1.25a1.19005,1.19005,0,0,1,.69.13.54.54,0,0,1,.22.49.59.59,0,0,1-.18.46A1,1,0,0,1,13.89,13.28ZM12.63,9.22h1.21a.84.84,0,0,1,.62.16.5.5,0,0,1,.15.41.67.67,0,0,1-.13.43.76.76,0,0,1-.61.19H12.63ZM15.92,11a2,2,0,0,0,.77-1.59,1.67,1.67,0,0,0-.57-1.34,2.87,2.87,0,0,0-1.91-.51H10.42V15h3.74a3.4,3.4,0,0,0,2.15-.57A2,2,0,0,0,17,12.75,1.83,1.83,0,0,0,15.92,11Z" transform="translate(0 -0.1286)"/>
      <path class="cls-1" d="M3.73,11.63,4.8,8l1.12,3.6ZM6.94,15H9.77L6.08,5.23H3.57L0,15H2.74l.39-1.32h3.4Z" transform="translate(0 -0.1286)"/>
      <path class="cls-1" d="M21.65,12.92a1.68,1.68,0,1,1,1.67-1.69l0,.01a1.63,1.63,0,0,1-1.57871,1.67973Q21.69566,12.92114,21.65,12.92Zm.42-5.52A3.31,3.31,0,0,0,20,8.14V7.56H17.88v9.66h2.21V14.44a3.42,3.42,0,0,0,2,.64,3.67,3.67,0,0,0,3.46-3.84A3.67,3.67,0,0,0,22.07,7.4Z" transform="translate(0 -0.1286)"/>
      <path class="cls-1" d="M38.44,12.92a1.68,1.68,0,1,1,1.67-1.69l0,.01a1.63,1.63,0,0,1-1.57871,1.67973Q38.48566,12.92114,38.44,12.92Zm.42-5.52a3.28994,3.28994,0,0,0-2,.74V7.56h-2.2v9.66h2.22V14.44a3.39,3.39,0,0,0,2,.64,3.66,3.66,0,0,0,3.45-3.84A3.66,3.66,0,0,0,38.86,7.4Z" transform="translate(0 -0.1286)"/>
      <path class="cls-1" d="M45.21,11.24a1.67,1.67,0,1,0,1.67-1.68,1.63,1.63,0,0,0-1.67027,1.58871Q45.20859,11.19436,45.21,11.24ZM50.65,15H48.53v-.61a3.31,3.31,0,0,1-2,.74,3.66,3.66,0,0,1-3.53531-3.78058Q42.99652,11.29467,43,11.24A3.66,3.66,0,0,1,46.46,7.4a3.31,3.31,0,0,1,2,.74V7.56h2.12Z" transform="translate(0 -0.1286)"/>
      <path class="cls-1" d="M30.07,12.9a1.66,1.66,0,1,0-1.63988-1.67988L28.43,11.24a1.61,1.61,0,0,0,1.55892,1.65951Q30.02945,12.90077,30.07,12.9Zm0,2.18a3.81978,3.81978,0,1,1,.06026.00016Q30.10014,15.08031,30.07,15.08Z" transform="translate(0 -0.1286)"/>
    </g>
  </g>
  <path class="cls-1" d="M58.47244,8.70024a2.78167,2.78167,0,1,1,2.35176-.78672,4.68382,4.68382,0,1,0,4.19048-1.28611,6.386,6.386,0,0,1-.12813.74716,3.92142,3.92142,0,1,1-3.52436,1.07554,3.54854,3.54854,0,1,0-3.15826.97519A6.017,6.017,0,0,1,58.47244,8.70024Zm-.52573,2.22035A5.05861,5.05861,0,1,1,62.434,9.5228a2.40348,2.40348,0,1,0,3.39855,0,2.38053,2.38053,0,0,0-1.49008-.69251,6.09079,6.09079,0,0,1-.48053.77167,1.64307,1.64307,0,1,1-.89087.45743,5.82338,5.82338,0,1,0-5.01443,1.63286A6.10175,6.10175,0,0,1,57.94671,10.92059ZM56.08348,3.17184a3.9215,3.9215,0,1,1,5.54538,5.54629A3.54744,3.54744,0,1,0,64.78669,7.743a6.01543,6.01543,0,0,1-.269.72405,2.78293,2.78293,0,1,1-2.35176.78768,4.68534,4.68534,0,1,0-4.18956,1.28568,6.45277,6.45277,0,0,1,.12813-.74813,3.88073,3.88073,0,0,1-2.021-1.07414A3.92778,3.92778,0,0,1,56.08348,3.17184Zm8.96091,3.07581a5.0586,5.0586,0,1,1-4.48918,1.39687,2.4048,2.4048,0,1,0-1.90751.69391,6.11987,6.11987,0,0,1,.48053-.77259,1.643,1.643,0,1,1,.88991-.45747A5.82792,5.82792,0,1,0,65.034,5.47647,6.10952,6.10952,0,0,1,65.04439,6.24765Z" transform="translate(0 -0.1286)"/>
</svg>