<svg width="24" height="21" viewBox="0 0 24 21" fill="none" xmlns="http://www.w3.org/2000/svg">
<path opacity="0.1" d="M15.0942 20.3334H7.50005C6.98221 20.3334 6.56252 19.9836 6.56252 19.5521C6.56252 19.1206 6.98221 18.7708 7.50005 18.7708H15.0942C18.9714 18.7708 22.1257 16.1421 22.1257 12.9111C22.1257 9.68027 18.9714 7.05156 15.0942 7.05156H8.62509C7.59106 7.05156 6.74985 6.35055 6.74985 5.48901V1.8982C6.74985 1.89804 6.74985 1.89774 6.74985 1.89759C6.74838 1.89698 6.74655 1.89652 6.7449 1.89606C6.74435 1.89652 6.74362 1.89698 6.74289 1.89774L2.15082 5.71637C1.97302 5.86423 1.87506 6.06092 1.87506 6.27028C1.87506 6.47964 1.97302 6.67633 2.15082 6.82419L6.74289 10.6428C6.74362 10.6436 6.74435 10.644 6.7449 10.6445C6.74655 10.6442 6.74838 10.6436 6.74985 10.643C6.74985 10.6428 6.74985 10.6427 6.74985 10.6425V9.78602C6.74985 9.35449 7.16972 9.00474 7.68756 9.00474C8.20521 9.00474 8.62509 9.35449 8.62509 9.78602V10.6425C8.62509 11.2767 8.17042 11.8436 7.46673 12.0868C6.7623 12.3305 5.95807 12.1979 5.41844 11.749L0.826381 7.93034C0.293527 7.48721 0 6.89759 0 6.27028C0 5.64297 0.293527 5.05351 0.826381 4.61038L5.41844 0.791594C5.95826 0.342818 6.7623 0.210215 7.46673 0.453753C8.17042 0.696986 8.62509 1.26387 8.62509 1.8982V5.48901H15.0942C20.0053 5.48901 24.0008 8.81858 24.0008 12.9113C24.0008 17.0038 20.0053 20.3334 15.0942 20.3334Z" fill="black"/>
</svg>
