<svg width="28" height="28" viewBox="0 0 28 28" fill="none" xmlns="http://www.w3.org/2000/svg">
<g clip-path="url(#clip0_1005_862)">
<path d="M14.0014 13.6598L19.7181 10.4223L25.0849 7.38308L14.0014 1.11218L8.6347 4.15138L2.91797 7.38308L14.0014 13.6598Z" fill="#FFDD00"/>
<path d="M26.2473 7.41454C26.2456 7.31828 26.2339 7.2232 26.2094 7.13278C26.1989 7.0937 26.1779 7.05928 26.1633 7.02195C26.1412 6.96478 26.1231 6.90645 26.0928 6.85336C26.0718 6.81661 26.0414 6.78686 26.0163 6.75303C25.9813 6.70578 25.9504 6.65561 25.9084 6.61361C25.8787 6.58386 25.8407 6.56228 25.8081 6.53544C25.7632 6.49928 25.7217 6.45903 25.671 6.42928C25.6687 6.42811 25.6657 6.42753 25.6634 6.42636C25.6611 6.42519 25.6599 6.42344 25.6576 6.42227L14.5741 0.151377C14.2177 -0.0504589 13.7814 -0.0504589 13.425 0.151377L8.06056 3.18941C8.05998 3.18941 8.0594 3.18999 8.05881 3.18999L2.34209 6.42169C2.33976 6.42286 2.33801 6.42519 2.33626 6.42636C2.33392 6.42753 2.33101 6.42811 2.32926 6.42928C2.27967 6.45786 2.24001 6.49753 2.19625 6.53253C2.16184 6.55994 2.12275 6.58211 2.09242 6.61303C2.04925 6.65619 2.01717 6.70694 1.98159 6.75595C1.95767 6.78861 1.92792 6.81778 1.90809 6.85278C1.87483 6.90995 1.85442 6.97353 1.83167 7.03536C1.81942 7.06803 1.80075 7.09837 1.79142 7.1322C1.7675 7.2197 1.75758 7.3107 1.75525 7.40345C1.75408 7.41454 1.75 7.42504 1.75 7.4367V20.5618C1.75 20.9824 1.97634 21.3703 2.34209 21.5774L13.4255 27.8483C13.485 27.8816 13.5486 27.9014 13.6116 27.9236C13.642 27.9347 13.6705 27.9522 13.702 27.9603C13.7995 27.9866 13.8998 28 14.0001 28C14.1005 28 14.2008 27.9866 14.2982 27.9609C14.3291 27.9527 14.3577 27.9352 14.3886 27.9242C14.4516 27.902 14.5152 27.8822 14.5747 27.8489L25.6582 21.578C26.0239 21.3709 26.2503 20.983 26.2503 20.5624V7.43729C26.2503 7.42912 26.2473 7.42212 26.2473 7.41454ZM14.0001 2.5069L22.7146 7.43787L19.7157 9.13597L11.0018 4.205L14.0001 2.5069ZM8.63282 5.5461L17.3479 10.4771L14.0001 12.3729L5.28562 7.43787L8.63282 5.5461ZM4.08336 9.43872L12.8334 14.3942V24.8325L4.08336 19.8817V9.43872ZM23.9169 19.8817L15.1668 24.8325V14.3942L23.9169 9.43872V19.8817Z" fill="black"/>
</g>
<defs>
<clipPath id="clip0_1005_862">
<rect width="28" height="28" fill="white"/>
</clipPath>
</defs>
</svg>
