<svg xmlns="http://www.w3.org/2000/svg" xmlns:xlink="http://www.w3.org/1999/xlink" width="142" height="31" viewBox="0 0 142 31"><defs><path id="ztqba" d="M153.49 28l-.53.92c-.22.57-.37.92-.58 1.38a51 51 0 0 0-.5 1.13l-4.44 11.24c-.78 2-2.53 3.33-4.45 3.33-.66 0-1.44-.2-1.88-.39l-.4-.17.17-.4c.62-1.36 1.23-1.97 2.52-2.08.49-.04 1.02-.62 1.4-1.53l.19-.47-4.03-9.54-.54-1.3c-.15-.37-.3-.74-.5-1.19l.06-.93h1.98c1.15 0 1.35.7 1.79 1.84l2.38 6.01c.16.41.35 1.4.35 1.4h.1s.15-.88.32-1.4c.17-.51 2.15-6 2.15-6 .41-1.12 1.28-1.85 2.45-1.85z"/><path id="ztqbb" d="M124.83 30.92v-.87c0-.77-.5-2.01-1.92-2.01L122 28v14h3v-6c0-.77-.02-1.6.16-2.16.44-1.5 1.56-2.47 2.83-2.47.3 0 .57.05.57.05h.44V28l-.34-.05c-.01 0-.35.09-.67.09-1.3 0-2.81 1.43-3.16 2.88z"/><path id="ztqbc" d="M133.83 30.97v-.87c0-.77-.5-2.01-1.92-2.01l-.9-.04L131 42h3v-5.95c0-.77-.01-1.6.16-2.16.45-1.5 1.56-2.47 2.83-2.47.31 0 .57.05.57.05h.44l-.05-3.54-.29.07c-.01 0-.35.09-.67.09-1.29 0-2.8 1.43-3.16 2.88z"/><path id="ztqbd" d="M67 35c0-2.21 1.35-3.81 3.41-3.81 2.07 0 3.64 1.66 3.64 3.87 0 2.23-1.57 3.92-3.64 3.92-2.06 0-3.41-1.75-3.41-3.98zm-3 0c0 3.87 2.56 7 6.41 7 3.8 0 6.59-3.2 6.59-7 0-3.84-2.73-7-6.59-7-3.85 0-6.41 3.16-6.41 7z"/><path id="ztqbe" d="M55.52 38.97c-1.97 0-3.22-2-3.22-3.94 0-2.94 1.8-3.98 3.27-3.98 1.68 0 3.42 1.48 3.42 3.96s-1.76 3.96-3.47 3.96m-3.1-9.48h-.09s.09-.72.09-1.46V26c0-1.34-.98-2.07-2.25-2.07H49v11.06c.15 4.17 3.15 7.01 7 7.01 3.55 0 6.08-3.1 6.08-7.01 0-3.92-2.6-6.86-6.05-6.86a5.3 5.3 0 0 0-3.61 1.36z"/><path id="ztqbf" d="M98.44 38.97c-1.96 0-3.22-2-3.22-3.94 0-2.94 1.8-3.98 3.27-3.98 1.68 0 3.43 1.48 3.43 3.96s-1.77 3.96-3.48 3.96M95 29.44h-.09s.09-.72.09-1.45V26c0-1.34-.62-1.98-1.89-1.98L92 23.98v11c.15 4.19 2.65 7.02 6.5 7.02 3.55 0 6.5-3.1 6.5-7.01 0-3.91-2.55-7-6-7a6.5 6.5 0 0 0-4 1.45z"/><path id="ztqbg" d="M85.58 34.94l2.12-3.35 1-1.5c.24-.34.48-.68.74-1.08l.44-1.01h-2.31c-1.3 0-1.78.63-2.47 1.84l-1.07 1.86c-.12.22-.44.98-.45 1h-.08s-.3-.7-.47-1l-1.07-1.86c-.74-1.21-1.23-1.84-2.48-1.84h-2.31l.47 1.01c.56.83.88 1.32 1.36 2.06l2.47 3.87-2.1 3.65c-.38.6-.68 1.04-1 1.5-.24.34-.49.83-.75 1.23l-.45.68h2.32c1.3 0 1.8-.45 2.49-1.66l1.06-1.86c.12-.22.45-.98.46-1h.08s.29.7.46 1l1.08 1.86c.73 1.21 1.2 1.66 2.46 1.66h2.3l-.47-.68c-.55-.83-.86-1.47-1.34-2.21z"/><path id="ztqbh" d="M116.5 33h-5.72a2.82 2.82 0 0 1 2.86-2.5c1.62 0 2.86.75 2.86 2.5zm.22 5.4l-.05.03c-.68.3-1.51.68-2.5.68-1.68 0-3.76-.89-3.95-3.11H120c.06-.42 0-1.17 0-1.5 0-3.64-2.96-6.5-6.6-6.5-3.89 0-6.4 2.99-6.4 6.96 0 3.92 3 6.97 7.05 6.97 3.28 0 5.12-1.96 5.2-2.04l.22-.22-.13-.27c-.3-.6-.74-1.3-1.59-1.3-.36 0-.7.16-1.03.3z"/><path id="ztqbi" d="M25 44a3.6 3.6 0 0 1 5 0 3.6 3.6 0 0 1 0 5 3.6 3.6 0 0 1-5 0 3.61 3.61 0 0 1 0-5"/><path id="ztqbj" d="M31 38a3.61 3.61 0 0 0 0 5 3.61 3.61 0 0 0 5 0 3.6 3.6 0 0 0 0-5 3.6 3.6 0 0 0-5 0"/><path id="ztqbk" d="M37 32a3.6 3.6 0 0 0 0 5 3.6 3.6 0 0 0 5 0 3.61 3.61 0 0 0 0-5 3.6 3.6 0 0 0-5 0"/><path id="ztqbl" d="M19 38a3.6 3.6 0 0 0 0 5 3.61 3.61 0 0 0 5 0 3.6 3.6 0 0 0 0-5 3.6 3.6 0 0 0-5 0"/><path id="ztqbm" d="M13 32a3.6 3.6 0 0 0 0 5 3.6 3.6 0 0 0 5 0 3.6 3.6 0 0 0 0-5 3.6 3.6 0 0 0-5 0"/><path id="ztqbn" d="M25 32a3.61 3.61 0 0 0 0 5 3.6 3.6 0 0 0 5 0 3.6 3.6 0 0 0 0-5 3.6 3.6 0 0 0-5 0"/><path id="ztqbo" d="M19 26a3.6 3.6 0 0 0 0 5 3.61 3.61 0 0 0 5 0 3.6 3.6 0 0 0 0-5 3.6 3.6 0 0 0-5 0"/><path id="ztqbp" d="M31 26a3.61 3.61 0 0 0 0 5 3.61 3.61 0 0 0 5 0 3.6 3.6 0 0 0 0-5 3.6 3.6 0 0 0-5 0"/><path id="ztqbq" d="M25 20a3.6 3.6 0 0 1 5 0 3.6 3.6 0 0 1 0 5 3.6 3.6 0 0 1-5 0 3.61 3.61 0 0 1 0-5"/></defs><g><g transform="translate(-12 -19)"><g><g><use fill="#ed1651" xlink:href="#ztqba"/></g><g><use fill="#ed1651" xlink:href="#ztqbb"/></g><g><use fill="#ed1651" xlink:href="#ztqbc"/></g><g><use fill="#ed1651" xlink:href="#ztqbd"/></g><g><use fill="#ed1651" xlink:href="#ztqbe"/></g><g><use fill="#ed1651" xlink:href="#ztqbf"/></g><g><use fill="#ed1651" xlink:href="#ztqbg"/></g><g><use fill="#ed1651" xlink:href="#ztqbh"/></g></g><g><g><use fill="#ed1651" xlink:href="#ztqbi"/></g><g><use fill="#ed1651" xlink:href="#ztqbj"/></g><g><use fill="#ed1651" xlink:href="#ztqbk"/></g><g><use fill="#ed1651" xlink:href="#ztqbl"/></g><g><use fill="#ed1651" xlink:href="#ztqbm"/></g><g><use fill="#ed1651" xlink:href="#ztqbn"/></g><g><use fill="#ed1651" xlink:href="#ztqbo"/></g><g><use fill="#ed1651" xlink:href="#ztqbp"/></g><g><use fill="#a6ce39" xlink:href="#ztqbq"/></g></g></g></g></svg>
