<?xml version="1.0" encoding="UTF-8"?>
<svg width="143px" height="33px" viewBox="0 0 143 33" version="1.1" xmlns="http://www.w3.org/2000/svg" xmlns:xlink="http://www.w3.org/1999/xlink">
    <title>boxberry</title>
    <g id="Page-1" stroke="none" stroke-width="1" fill="none" fill-rule="evenodd">
        <g id="boxberry" transform="translate(0.990367, 0.990367)" fill-rule="nonzero">
            <g id="Group" transform="translate(37.009633, 4.939633)" fill="#ED1651">
                <g id="ztqba-link" transform="translate(90.920000, 4.070000)">
                    <path d="M13.57,0 L13.04,0.92 C12.82,1.49 12.67,1.84 12.46,2.3 C12.2887762,2.67463369 12.1220973,3.051328 11.96,3.43 L7.52,14.67 C6.74,16.67 4.99,18 3.07,18 C2.41,18 1.63,17.8 1.19,17.61 L0.79,17.44 L0.96,17.04 C1.58,15.68 2.19,15.07 3.48,14.96 C3.97,14.92 4.5,14.34 4.88,13.43 L5.07,12.96 L1.04,3.42 L0.5,2.12 C0.35,1.75 0.2,1.38 -2.84217094e-14,0.93 L0.06,0 L2.04,0 C3.19,0 3.39,0.7 3.83,1.84 L6.21,7.85 C6.37,8.26 6.56,9.25 6.56,9.25 L6.66,9.25 C6.66,9.25 6.81,8.37 6.98,7.85 C7.15,7.34 9.13,1.85 9.13,1.85 C9.54,0.73 10.41,0 11.58,0 L13.57,0 Z" id="ztqba"></path>
                </g>
                <g id="ztqbb-link" transform="translate(73.000000, 4.020000)">
                    <path d="M2.83,2.97 L2.83,2.1 C2.83,1.33 2.33,0.09 0.91,0.09 L0,0.05 L0,14.05 L3,14.05 L3,8.05 C3,7.28 2.98,6.45 3.16,5.89 C3.6,4.39 4.72,3.42 5.99,3.42 C6.29,3.42 6.56,3.47 6.56,3.47 L7,3.47 L7,0.05 L6.66,-3.55271368e-15 C6.65,-3.55271368e-15 6.31,0.09 5.99,0.09 C4.69,0.09 3.18,1.52 2.83,2.97 L2.83,2.97 Z" id="ztqbb"></path>
                </g>
                <g id="ztqbc-link" transform="translate(82.000000, 4.000000)">
                    <path d="M2.83,3.04 L2.83,2.17 C2.83,1.4 2.33,0.16 0.91,0.16 L0.01,0.12 L0,14.07 L3,14.07 L3,8.12 C3,7.35 2.99,6.52 3.16,5.96 C3.61,4.46 4.72,3.49 5.99,3.49 C6.3,3.49 6.56,3.54 6.56,3.54 L7,3.54 L6.95,-3.55271368e-15 L6.66,0.07 C6.65,0.07 6.31,0.16 5.99,0.16 C4.7,0.16 3.19,1.59 2.83,3.04 L2.83,3.04 Z" id="ztqbc"></path>
                </g>
                <g id="ztqbd-link" transform="translate(15.000000, 4.070000)">
                    <path d="M3,7 C3,4.79 4.35,3.19 6.41,3.19 C8.48,3.19 10.05,4.85 10.05,7.06 C10.05,9.29 8.48,10.98 6.41,10.98 C4.35,10.98 3,9.23 3,7 L3,7 Z M0,7 C0,10.87 2.56,14 6.41,14 C10.21,14 13,10.8 13,7 C13,3.16 10.27,0 6.41,0 C2.56,0 0,3.16 0,7 Z" id="ztqbd"></path>
                </g>
                <g id="ztqbe-link">
                    <path d="M6.52,15.04 C4.55,15.04 3.3,13.04 3.3,11.1 C3.3,8.16 5.1,7.12 6.57,7.12 C8.25,7.12 9.99,8.6 9.99,11.08 C9.99,13.56 8.23,15.04 6.52,15.04 M3.42,5.56 L3.33,5.56 C3.33,5.56 3.42,4.84 3.42,4.1 L3.42,2.07 C3.42,0.73 2.44,-7.10542736e-15 1.17,-7.10542736e-15 L0,-7.10542736e-15 L0,11.06 C0.15,15.23 3.15,18.07 7,18.07 C10.55,18.07 13.08,14.97 13.08,11.06 C13.08,7.14 10.48,4.2 7.03,4.2 C5.69855035,4.18375763 4.40976922,4.66928183 3.42,5.56 L3.42,5.56 Z" id="ztqbe"></path>
                </g>
                <g id="ztqbf-link" transform="translate(43.000000, 0.050000)">
                    <path d="M6.44,14.99 C4.48,14.99 3.22,12.99 3.22,11.05 C3.22,8.11 5.02,7.07 6.49,7.07 C8.17,7.07 9.92,8.55 9.92,11.03 C9.92,13.51 8.15,14.99 6.44,14.99 M3,5.46 L2.91,5.46 C2.91,5.46 3,4.74 3,4.01 L3,2.02 C3,0.68 2.38,0.04 1.11,0.04 L0,-3.55271368e-15 L0,11 C0.15,15.19 2.65,18.02 6.5,18.02 C10.05,18.02 13,14.92 13,11.01 C13,7.1 10.45,4.01 7,4.01 C5.54175547,4.03091008 4.13291039,4.54161642 3,5.46 L3,5.46 Z" id="ztqbf"></path>
                </g>
                <g id="ztqbg-link" transform="translate(28.170000, 4.070000)">
                    <path d="M8.41,6.94 L10.53,3.59 L11.53,2.09 C11.77,1.75 12.01,1.41 12.27,1.01 L12.71,7.10542736e-15 L10.4,7.10542736e-15 C9.1,7.10542736e-15 8.62,0.63 7.93,1.84 L6.86,3.7 C6.74,3.92 6.42,4.68 6.41,4.7 L6.33,4.7 C6.33,4.7 6.03,4 5.86,3.7 L4.79,1.84 C4.05,0.63 3.56,7.10542736e-15 2.31,7.10542736e-15 L-1.42108547e-14,7.10542736e-15 L0.47,1.01 C1.03,1.84 1.35,2.33 1.83,3.07 L4.3,6.94 L2.2,10.59 C1.82,11.19 1.52,11.63 1.2,12.09 C0.96,12.43 0.71,12.92 0.45,13.32 L-1.42108547e-14,14 L2.32,14 C3.62,14 4.12,13.55 4.81,12.34 L5.87,10.48 C5.99,10.26 6.32,9.5 6.33,9.48 L6.41,9.48 C6.41,9.48 6.7,10.18 6.87,10.48 L7.95,12.34 C8.68,13.55 9.15,14 10.41,14 L12.71,14 L12.24,13.32 C11.69,12.49 11.38,11.85 10.9,11.11 L8.41,6.94 Z" id="ztqbg"></path>
                </g>
                <g id="ztqbh-link" transform="translate(58.000000, 4.070000)">
                    <path d="M9.5,5 L3.78,5 C3.94492241,3.5532631 5.18420275,2.46997609 6.64,2.5 C8.26,2.5 9.5,3.25 9.5,5 Z M9.72,10.4 L9.67,10.43 C8.99,10.73 8.16,11.11 7.17,11.11 C5.49,11.11 3.41,10.22 3.22,8 L13,8 C13.06,7.58 13,6.83 13,6.5 C13,2.86 10.04,3.55271368e-15 6.4,3.55271368e-15 C2.51,3.55271368e-15 0,2.99 0,6.96 C0,10.88 3,13.93 7.05,13.93 C10.33,13.93 12.17,11.97 12.25,11.89 L12.47,11.67 L12.34,11.4 C12.04,10.8 11.6,10.1 10.75,10.1 C10.39,10.1 10.05,10.26 9.72,10.4 Z" id="ztqbh"></path>
                </g>
            </g>
            <g id="Group">
                <g id="ztqbi-link" transform="translate(12.003880, 24.000000)" fill="#ED1651">
                    <path d="M1.00575347,1.00963323 C2.400591,-0.33654441 4.61091594,-0.33654441 6.00575347,1.00963323 C7.35193111,2.40447076 7.35193111,4.6147957 6.00575347,6.00963323 C4.61091594,7.35581087 2.400591,7.35581087 1.00575347,6.00963323 C-0.335251156,4.61271057 -0.335251156,2.40655589 1.00575347,1.00963323" id="ztqbi"></path>
                </g>
                <g id="ztqbj-link" transform="translate(18.003880, 18.000000)" fill="#ED1651">
                    <path d="M1.00575347,1.00963323 C-0.335251156,2.40655589 -0.335251156,4.61271057 1.00575347,6.00963323 C2.40267612,7.35063785 4.60883081,7.35063785 6.00575347,6.00963323 C7.35193111,4.6147957 7.35193111,2.40447076 6.00575347,1.00963323 C4.61091594,-0.33654441 2.400591,-0.33654441 1.00575347,1.00963323" id="ztqbj"></path>
                </g>
                <g id="ztqbk-link" transform="translate(24.000000, 12.000000)" fill="#ED1651">
                    <path d="M1.00963323,1.00963323 C-0.33654441,2.40447076 -0.33654441,4.6147957 1.00963323,6.00963323 C2.40447076,7.35581087 4.6147957,7.35581087 6.00963323,6.00963323 C7.35063785,4.61271057 7.35063785,2.40655589 6.00963323,1.00963323 C4.6147957,-0.33654441 2.40447076,-0.33654441 1.00963323,1.00963323" id="ztqbk"></path>
                </g>
                <g id="ztqbl-link" transform="translate(6.000000, 18.000000)" fill="#ED1651">
                    <path d="M1.00963323,1.00963323 C-0.33654441,2.40447076 -0.33654441,4.6147957 1.00963323,6.00963323 C2.40655589,7.35063785 4.61271057,7.35063785 6.00963323,6.00963323 C7.35581087,4.6147957 7.35581087,2.40447076 6.00963323,1.00963323 C4.6147957,-0.33654441 2.40447076,-0.33654441 1.00963323,1.00963323" id="ztqbl"></path>
                </g>
                <g id="ztqbm-link" transform="translate(0.000000, 12.000000)" fill="#ED1651">
                    <path d="M1.00963323,1.00963323 C-0.33654441,2.40447076 -0.33654441,4.6147957 1.00963323,6.00963323 C2.40447076,7.35581087 4.6147957,7.35581087 6.00963323,6.00963323 C7.35581087,4.6147957 7.35581087,2.40447076 6.00963323,1.00963323 C4.6147957,-0.33654441 2.40447076,-0.33654441 1.00963323,1.00963323" id="ztqbm"></path>
                </g>
                <g id="ztqbn-link" transform="translate(12.003880, 12.000000)" fill="#ED1651">
                    <path d="M1.00575347,1.00963323 C-0.335251156,2.40655589 -0.335251156,4.61271057 1.00575347,6.00963323 C2.400591,7.35581087 4.61091594,7.35581087 6.00575347,6.00963323 C7.35193111,4.6147957 7.35193111,2.40447076 6.00575347,1.00963323 C4.61091594,-0.33654441 2.400591,-0.33654441 1.00575347,1.00963323" id="ztqbn"></path>
                </g>
                <g id="ztqbo-link" transform="translate(6.000000, 6.000000)" fill="#ED1651">
                    <path d="M1.00963323,1.00963323 C-0.33654441,2.40447076 -0.33654441,4.6147957 1.00963323,6.00963323 C2.40655589,7.35063785 4.61271057,7.35063785 6.00963323,6.00963323 C7.35581087,4.6147957 7.35581087,2.40447076 6.00963323,1.00963323 C4.6147957,-0.33654441 2.40447076,-0.33654441 1.00963323,1.00963323" id="ztqbo"></path>
                </g>
                <g id="ztqbp-link" transform="translate(18.003880, 6.000000)" fill="#ED1651">
                    <path d="M1.00575347,1.00963323 C-0.335251156,2.40655589 -0.335251156,4.61271057 1.00575347,6.00963323 C2.40267612,7.35063785 4.60883081,7.35063785 6.00575347,6.00963323 C7.35193111,4.6147957 7.35193111,2.40447076 6.00575347,1.00963323 C4.61091594,-0.33654441 2.400591,-0.33654441 1.00575347,1.00963323" id="ztqbp"></path>
                </g>
                <g id="ztqbq-link" transform="translate(12.003880, 0.000000)" fill="#A6CE39">
                    <path d="M1.00575347,1.00963323 C2.400591,-0.33654441 4.61091594,-0.33654441 6.00575347,1.00963323 C7.35193111,2.40447076 7.35193111,4.6147957 6.00575347,6.00963323 C4.61091594,7.35581087 2.400591,7.35581087 1.00575347,6.00963323 C-0.335251156,4.61271057 -0.335251156,2.40655589 1.00575347,1.00963323" id="ztqbq"></path>
                </g>
            </g>
        </g>
    </g>
</svg>
