<?xml version="1.0" encoding="utf-8"?>
<!-- Generator: Adobe Illustrator 23.0.1, SVG Export Plug-In . SVG Version: 6.00 Build 0)  -->
<svg version="1.1" id="Слой_1" xmlns="http://www.w3.org/2000/svg" xmlns:xlink="http://www.w3.org/1999/xlink" x="0px" y="0px"
	 viewBox="0 0 24 17" style="enable-background:new 0 0 24 17;" xml:space="preserve">
<g>
	<path class="st0" d="M22.5,3h-21C0.7,3,0,2.3,0,1.5v0C0,0.7,0.7,0,1.5,0h21C23.3,0,24,0.7,24,1.5v0C24,2.3,23.3,3,22.5,3z"/>
	<path class="st0" d="M22.5,10h-21C0.7,10,0,9.3,0,8.5v0C0,7.7,0.7,7,1.5,7h21C23.3,7,24,7.7,24,8.5v0C24,9.3,23.3,10,22.5,10z"/>
	<path class="st0" d="M22.5,17h-21C0.7,17,0,16.3,0,15.5v0C0,14.7,0.7,14,1.5,14h21c0.8,0,1.5,0.7,1.5,1.5v0
		C24,16.3,23.3,17,22.5,17z"/>
</g>
</svg>
