<svg width="20" height="20" viewBox="0 0 20 20" fill="none" xmlns="http://www.w3.org/2000/svg">
<path fill-rule="evenodd" clip-rule="evenodd" d="M10 0C12.6711 0 15.1824 1.04023 17.0711 2.92891C18.9598 4.81758 20 7.32891 20 10C20 12.6711 18.9598 15.1824 17.0711 17.0711C15.1824 18.9598 12.6711 20 10 20C7.32891 20 4.81758 18.9598 2.92891 17.0711C1.04023 15.1824 0 12.6711 0 10C0 7.32891 1.04023 4.81758 2.92891 2.92891C4.81758 1.04023 7.32891 0 10 0ZM1.17188 10C1.17188 14.868 5.13203 18.8281 10 18.8281C14.868 18.8281 18.8281 14.868 18.8281 10C18.8281 5.13203 14.868 1.17188 10 1.17188C5.13203 1.17188 1.17188 5.13203 1.17188 10ZM13.9488 6.7914C14.1773 6.5625 14.5484 6.5625 14.7773 6.7914C15.0062 7.02031 15.0062 7.39101 14.7773 7.61992L9.18906 13.2082C9.07461 13.3227 8.92461 13.3797 8.77461 13.3797C8.62461 13.3797 8.47461 13.3227 8.36015 13.2082L5.22226 10.0703C4.99336 9.8414 4.99336 9.4707 5.22226 9.2418C5.45117 9.01289 5.82187 9.01289 6.05078 9.2418L8.77461 11.9656L13.9488 6.7914Z" fill="#B3B3B3"/>
</svg>
