<svg width="22" height="22" viewBox="0 0 22 22" fill="none" xmlns="http://www.w3.org/2000/svg">
<path fill-rule="evenodd" clip-rule="evenodd" d="M0.853553 0.146447C0.658291 -0.0488155 0.341709 -0.0488155 0.146447 0.146447C-0.0488155 0.341709 -0.0488155 0.658291 0.146447 0.853553L10.2929 11L0.146446 21.1464C-0.0488148 21.3417 -0.0488148 21.6583 0.146446 21.8536C0.341709 22.0488 0.658291 22.0488 0.853554 21.8536L11 11.7071L21.1464 21.8536C21.3417 22.0488 21.6583 22.0488 21.8536 21.8536C22.0488 21.6583 22.0488 21.3417 21.8536 21.1464L11.7071 11L21.8536 0.853553C22.0488 0.658291 22.0488 0.341709 21.8536 0.146447C21.6583 -0.0488155 21.3417 -0.0488155 21.1464 0.146447L11 10.2929L0.853553 0.146447Z" fill="#C4C4C4"/>
</svg>
