<?xml version="1.0" encoding="UTF-8"?>
<svg width="176px" height="44px" viewBox="0 0 176 44" version="1.1" xmlns="http://www.w3.org/2000/svg" xmlns:xlink="http://www.w3.org/1999/xlink">
    <title>decathlon</title>
    <g id="Page-1" stroke="none" stroke-width="1" fill="none" fill-rule="evenodd">
        <g id="decathlon" fill-rule="nonzero">
            <polygon id="Path" fill="#0082C3" points="0 0 176 0 176 44 0 44"></polygon>
            <path d="M30.98,19.82 C30.6803656,17.3493501 29.5104433,15.0662291 27.68,13.38 C25.2,11.15 22.56,10.68 18.78,10.68 L10.65,10.68 L10.65,33.28 L19.58,33.28 C22.93,33.28 25.17,32.84 27.71,30.48 C29.4813499,28.8295856 30.6381291,26.625357 30.99,24.23 L30.99,33.27 L43.93,33.27 L43.93,28.31 L36.81,28.31 L36.81,24.21 L42.97,24.21 L42.97,19.34 L36.81,19.34 L36.81,15.65 L43.93,15.65 L43.93,10.67 L30.99,10.67 L30.99,19.81 L30.98,19.82 Z M18.81,28.32 L16.47,28.32 L16.47,15.54 L18.78,15.54 C23.06,15.54 25.37,17.84 25.37,21.91 C25.37,26.36 23.27,28.32 18.81,28.32 Z M62.28,24.57 C61.43,25.92 59.57,28.06 56.76,28.02 C52.18,27.95 50.46,24.79 50.46,21.95 C50.4538993,18.6455742 53.0962164,15.9454287 56.4,15.88 C60.2,15.8 63.03,19.45 63.03,19.45 L66,14.65 C66,14.65 62.64,10.08 56.45,10.22 C47.15,10.43 44.43,18.22 44.43,21.84 C44.43,29.46 50.29,33.26 55.08,33.72 C61.97,34.39 65.74,29.88 65.74,29.88 L65.94,29.87 C67.6233378,29.8628482 69.3067038,29.8661816 70.99,29.88 L70.99,33.28 L76.59,33.28 L76.59,10.68 L70.5,10.68 C70.5,10.68 63.01,23.42 62.28,24.56 L62.28,24.57 Z M71.1,25.16 L68.1,25.16 L71.1,20.04 L71.1,25.16 Z M77.8,16.07 L82.33,16.07 L82.33,33.29 L88.14,33.29 L88.14,16.07 L92.66,16.07 L92.66,10.67 L77.8,10.67 M105.66,19.26 L99.68,19.26 L99.68,10.67 L93.86,10.67 L93.86,33.29 L99.68,33.29 L99.68,24.64 L105.66,24.64 L105.66,33.29 L111.48,33.29 L111.48,10.67 L105.66,10.67 M159.54,10.67 L159.54,23.24 L150.8,10.67 L145.54,10.67 L145.54,18.37 C144.951293,16.5441128 143.920786,14.8918665 142.54,13.56 C140.355372,11.4044915 137.409007,10.1972005 134.34,10.2 C131.218775,10.1398527 128.205052,11.3402949 125.98,13.53 C123.744049,15.6783565 122.486303,18.6492377 122.5,21.75 C122.5,24.23 123.1,26.41 124.28,28.29 L119.05,28.29 L119.05,10.68 L113.26,10.68 L113.26,33.29 L125.83,33.29 L125.83,30.27 C128.03943,32.5701294 131.111373,33.8395275 134.3,33.77 C137.5,33.77 140.53,32.53 142.76,30.23 C144.057366,28.9127549 145.014885,27.2997298 145.55,25.53 L145.55,33.29 L151.37,33.29 L151.37,20.69 L160.25,33.29 L165.37,33.29 L165.37,10.68 L159.55,10.68 L159.54,10.67 Z M134.3,28.14 C130.904746,28.0259765 128.224532,25.2168635 128.27,21.82 C128.27,18.5062915 130.956292,15.82 134.27,15.82 C137.583708,15.82 140.27,18.5062915 140.27,21.82 C140.27,25.52 137.6,28.14 134.3,28.14 L134.3,28.14 Z" id="Shape" fill="#FFFFFF"></path>
        </g>
    </g>
</svg>