<svg width="57" height="55" viewBox="0 0 57 55" fill="none" xmlns="http://www.w3.org/2000/svg">
<g clip-path="url(#clip0)">
<path d="M15.3231 0H47.3231C52.6231 0.01 56.9131 4.3 56.9231 9.6V44.8C56.9731 46.51 56.3131 48.17 55.1031 49.38C53.8931 50.59 52.2331 51.25 50.5231 51.2H34.5231C33.6431 51.2 32.9231 50.48 32.9231 49.6C32.9231 48.72 33.6431 48 34.5231 48H50.5231C51.3831 48.06 52.2331 47.74 52.8431 47.12C53.4531 46.51 53.7731 45.66 53.7231 44.8V9.6C53.7231 6.07 50.8531 3.2 47.3231 3.2H40.9231V14.4C40.9731 16.11 40.3131 17.77 39.1031 18.98C37.8931 20.19 36.2331 20.85 34.5231 20.8H28.1231C26.4131 20.85 24.7531 20.19 23.5431 18.98C22.3331 17.77 21.6731 16.11 21.7231 14.4V3.2H15.3231C11.7931 3.2 8.92313 6.07 8.92313 9.6V20.8C8.92313 21.68 8.20313 22.4 7.32313 22.4C6.44313 22.4 5.72313 21.68 5.72313 20.8V9.6C5.72313 4.3 10.0231 0.01 15.3231 0ZM25.7931 16.72C26.4031 17.33 27.2531 17.65 28.1131 17.6H34.5131C35.3731 17.66 36.2231 17.34 36.8331 16.72C37.4431 16.11 37.7631 15.26 37.7131 14.4V12.8H24.9131V14.4C24.8631 15.26 25.1831 16.11 25.7931 16.72ZM24.9231 9.6H37.7231V3.2H24.9231V9.6Z" fill="black"/>
</g>
<path d="M22.4283 34.405V41.9099C22.4283 46.8385 18.3968 52.4392 12.9095 52.4392H12.5735C7.0862 52.4392 3.05469 46.8385 3.05469 41.9099V34.405L12.6855 30.0365L22.4283 34.405Z" fill="#FFDC00"/>
<path d="M0 34.1098V41.9506C0 45.1074 1.22167 48.2641 3.35958 50.708C5.59931 53.2537 8.65347 54.6793 11.7076 54.6793H12.0131C15.169 54.6793 18.1214 53.2537 20.3611 50.708C22.499 48.2641 23.7207 45.1074 23.7207 41.9506V34.1098C23.7207 33.4988 23.3135 32.8878 22.8045 32.6842L12.6239 28.1018C12.5221 28 12.2167 28 11.9113 28C11.8094 28 11.8094 28 11.7076 28C11.4022 28 11.1986 28 10.995 28.1018L0.814445 32.6842C0.407222 32.8878 0 33.4988 0 34.1098ZM3.15597 35.1281L11.9113 31.1567L20.6665 35.1281V41.9506C20.6665 46.533 17.0015 51.5226 12.0131 51.5226H11.7076C6.71917 51.5226 3.05417 46.4311 3.05417 41.9506V35.1281H3.15597Z" fill="black"/>
<path d="M8.14453 39.2012L12.7258 43.7836L23.9244 32.0731" stroke="black" stroke-width="3" stroke-linecap="round" stroke-linejoin="round"/>
<defs>
<clipPath id="clip0">
<rect width="51.2" height="51.2" fill="white" transform="matrix(-1 0 0 1 56.9258 0)"/>
</clipPath>
</defs>
</svg>
