<svg width="28" height="28" viewBox="0 0 28 28" fill="none" xmlns="http://www.w3.org/2000/svg">
<path d="M19.0821 12.3276L24.8092 6.59474L21.3566 3.13635L19.0821 5.41084L14.3932 10.1056L12.6436 15.3194L17.8457 13.564L19.0821 12.3276Z" fill="#FFDD00"/>
<path d="M21.407 1.49112L20.5322 2.36593L19.1057 3.79361C19.0975 3.79361 19.0905 3.79127 19.0824 3.79127H1.1664C0.521966 3.79127 0 4.31382 0 4.95768V26.8336C0 27.4775 0.521966 28 1.1664 28H19.0824C19.7262 28 20.2488 27.4775 20.2488 26.8336V12.8636L25.6347 7.47361C25.6352 7.47303 25.6352 7.47245 25.6358 7.47186L26.5089 6.59881C28.3221 4.78505 28.4947 2.60912 26.9463 1.05372C25.3967 -0.495847 23.2219 -0.324969 21.407 1.49112ZM23.0563 3.14042C23.9445 2.25279 24.6986 2.10465 25.2946 2.70127C26.0417 3.45243 25.4702 4.33832 24.859 4.9501L24.81 4.99908L23.5777 3.76445L23.0056 3.19116L23.0563 3.14042ZM2.33281 25.6672V6.12408H16.7758L13.5688 9.33578C13.4416 9.46291 13.3454 9.61805 13.2883 9.78893L11.5387 15.0028C11.3975 15.4227 11.5066 15.8863 11.8203 16.1995C11.8903 16.2695 11.9702 16.3255 12.053 16.3744C12.0758 16.3879 12.0991 16.3995 12.1224 16.4112C12.1924 16.4462 12.2647 16.4742 12.34 16.4946C12.3586 16.4998 12.3761 16.5068 12.3948 16.5109C12.477 16.529 12.5604 16.5401 12.645 16.5401C12.6532 16.5401 12.6613 16.536 12.6695 16.536C12.7861 16.5337 12.9034 16.5173 13.0182 16.4788L17.9171 14.8255V25.6672H2.33281ZM17.2144 12.6005L14.4972 13.5173L15.4123 10.7903L21.3563 4.84104L22.686 6.17307L23.1607 6.64896L17.2144 12.6005Z" fill="black"/>
<path d="M12.5106 8.91128C12.5106 8.26742 11.9881 7.74487 11.3442 7.74487H8.82656C8.18271 7.74487 7.66016 8.26742 7.66016 8.91128C7.66016 9.55513 8.18271 10.0777 8.82656 10.0777H11.3442C11.9881 10.0777 12.5106 9.55513 12.5106 8.91128Z" fill="black"/>
<path d="M8.23597 21.8601H6.16093V19.7821C6.16093 19.1383 5.63839 18.6157 4.99453 18.6157C4.35067 18.6157 3.82812 19.1383 3.82812 19.7821V23.0265C3.82812 23.6703 4.35067 24.1929 4.99453 24.1929H8.23597C8.87982 24.1929 9.40237 23.6703 9.40237 23.0265C9.40237 22.3826 8.87982 21.8601 8.23597 21.8601Z" fill="black"/>
</svg>
