<?xml version="1.0" encoding="UTF-8"?>
<svg width="38px" height="42px" viewBox="0 0 38 42" version="1.1" xmlns="http://www.w3.org/2000/svg" xmlns:xlink="http://www.w3.org/1999/xlink">
    <title>txt</title>
    <g id="Page-1" stroke="none" stroke-width="1" fill="none" fill-rule="evenodd">
        <g id="txt" transform="translate(0.955380, 0.617431)">
            <path d="M35.46892,2.46866864 L35.46892,38.2921686 C35.46892,39.3155686 34.63932,40.1451686 33.61592,40.1451686 L5.82182,40.1451686 C4.79844,40.1451686 3.96888,39.3155686 3.96888,38.2921686 L3.96888,9.13924864 L12.48622,0.615718642 L33.61592,0.615718642 C34.63932,0.615718642 35.46892,1.44534864 35.46892,2.46866864 Z" id="Path" fill="#FFFFFF" fill-rule="nonzero"></path>
            <path d="M35.46772,2.46866864 L35.46772,38.2921686 C35.46772,39.3174686 34.64002,40.1451686 33.61482,40.1451686 L5.82066,40.1451686 C4.79536,40.1451686 3.96772,39.3174686 3.96772,38.2921686 L3.96772,36.3774686 L4.06654,36.4330686 C38.08032,37.4336686 27.79652,0.615718642 27.79652,0.615718642 L33.61482,0.615718642 C34.64002,0.615718642 35.46772,1.44342864 35.46772,2.46866864 Z" id="Path" fill="#F2F2F2" fill-rule="nonzero"></path>
            <path d="M12.48622,0.615718642 L12.48622,7.90395864 C12.48622,8.58620864 11.93322,9.13924864 11.25092,9.13924864 L3.96888,9.13924864 L12.48622,0.615718642 Z" id="Path" fill="#F2F2F2" fill-rule="nonzero"></path>
            <path d="M24.71932,20.5472686 L24.71932,31.0472686 C24.71932,31.7266686 24.16962,32.2825686 23.48412,32.2825686 L2.47172,32.2825686 C1.44642,32.2825686 0.61878,31.4549686 0.61878,30.4296686 L0.61878,17.7617686 L0.64966,17.7740686 C0.71142,18.1569686 0.89672,18.5028686 1.16231,18.7684686 C1.49584,19.1019686 1.95907,19.3119686 2.47172,19.3119686 L23.48412,19.3119686 C24.16962,19.3119686 24.71932,19.8616686 24.71932,20.5472686 Z" id="Path" fill="#FFDC00" fill-rule="nonzero"></path>
            <path d="M24.72072,20.5472686 L24.72072,31.0472686 C24.72072,31.7266686 24.17102,32.2825686 23.48542,32.2825686 L2.4669,32.2825686 C1.44778,32.2825686 0.61396,31.4549686 0.61396,30.4296686 L0.61396,29.4105686 C21.27422,30.8928686 22.15132,19.3119686 22.15132,19.3119686 L23.48542,19.3119686 C24.17102,19.3119686 24.72072,19.8616686 24.72072,20.5472686 Z" id="Path" fill="#000000" fill-rule="nonzero" opacity="0.1"></path>
            <path d="M3.96642,15.5937686 L3.96642,19.3119686 L2.47172,19.3119686 C1.95907,19.3119686 1.49584,19.1019686 1.16231,18.7684686 C0.82878,18.4287686 0.61878,17.9654686 0.61878,17.4528686 C0.61878,16.4275686 1.44642,15.5937686 2.47172,15.5937686 L3.96642,15.5937686 Z" id="Path" fill="#E5C600" fill-rule="nonzero"></path>
            <path d="M33.61852,0.000421641705 L12.48882,0.000421641705 C12.32822,-0.00575435829 12.16762,0.0560106417 12.05032,0.179539642 L3.53294,8.70306864 C3.41559,8.82041864 3.35383,8.98100864 3.35383,9.14159864 L3.35383,14.9783686 L2.47059,14.9783686 C1.11177,14.9783686 0,16.0901686 0,17.4551686 L0,30.4256686 C0,31.7906686 1.10559,32.8962686 2.47059,32.8962686 L3.35383,32.8962686 L3.35383,38.2945686 C3.35383,39.6533686 4.45942,40.7651686 5.82442,40.7651686 L33.61852,40.7651686 C34.97732,40.7651686 36.08912,39.6533686 36.08912,38.2945686 L36.08912,2.47100864 C36.08912,1.10606864 34.97732,0.000421641705 33.61852,0.000421641705 Z M11.87122,2.10665864 L11.87122,7.90636864 C11.87122,8.24606864 11.59322,8.52401864 11.25352,8.52401864 L5.46,8.52401864 L11.87122,2.10665864 Z M2.47059,16.2136686 L3.34765,16.2136686 C3.34765,16.3299686 3.34765,18.8018686 3.34765,18.6965686 L2.47059,18.6965686 C1.63152,18.6965686 1.12326,17.8443686 1.24141,17.3686686 C1.28471,16.7201686 1.82206,16.2136686 2.47059,16.2136686 Z M2.47059,31.6610686 C1.785,31.6610686 1.2353,31.1113686 1.2353,30.4257686 L1.2353,19.5922686 C1.60589,19.8145686 2.03206,19.9319686 2.47059,19.9319686 C33.66402,19.9227686 17.87702,19.9275686 23.48912,19.9257686 C23.82882,19.9257686 24.10672,20.2036686 24.10672,20.5434686 L24.10672,31.0434686 C24.10672,31.3892686 23.82882,31.6610686 23.48912,31.6610686 C18.12272,31.6610686 7.81532,31.6610686 2.47059,31.6610686 Z M34.85382,38.2945686 C34.85382,38.9739686 34.29792,39.5298686 33.61852,39.5298686 L5.82442,39.5298686 C5.13883,39.5298686 4.58912,38.9739686 4.58912,38.2945686 L4.58912,32.8962686 L23.48912,32.8962686 C24.50822,32.8962686 25.34202,32.0686686 25.34202,31.0433686 L25.34202,20.5433686 C25.34202,19.5242686 24.50822,18.6904686 23.48912,18.6904686 L4.58912,18.6904686 L4.58912,9.75926864 L11.25352,9.75926864 C12.27262,9.75926864 13.10652,8.92541864 13.10652,7.90630864 L13.10652,1.23571864 L33.61852,1.23571864 C34.29792,1.23571864 34.85382,1.78541864 34.85382,2.47100864 L34.85382,38.2945686 Z" id="Shape" fill="#000000" fill-rule="nonzero"></path>
            <text id="DOCX" font-family="Helvetica" font-size="7" font-weight="normal" fill="#000000">
                <tspan x="2" y="28">DOCX</tspan>
            </text>
        </g>
    </g>
</svg>