<?xml version="1.0" encoding="utf-8"?>
<!-- Generator: Adobe Illustrator 23.0.1, SVG Export Plug-In . SVG Version: 6.00 Build 0)  -->
<svg version="1.1" id="Слой_1" xmlns="http://www.w3.org/2000/svg" xmlns:xlink="http://www.w3.org/1999/xlink" x="0px" y="0px"
	 viewBox="0 0 1366 768" style="enable-background:new 0 0 1366 768;" xml:space="preserve">
<g>
	<path d="M318.5,426.4v32.9h-121V308.6h118.2v32.9h-76V367h67v31.9h-67v27.6H318.5z"/>
	<path d="M443.2,430.1h-63.7l-11.8,29.3h-43.5l66.5-150.7h42l66.7,150.7H455L443.2,430.1z M430.7,398.6l-19.4-48.2l-19.4,48.2H430.7
		z"/>
	<path d="M528.8,457.9c-11.5-3-20.8-7-28-12.1l14-31.4c6.7,4.5,14.6,8,23.5,10.8c8.9,2.7,17.7,4.1,26.3,4.1
		c16.4,0,24.5-4.1,24.5-12.3c0-4.3-2.3-7.5-7-9.6c-4.7-2.1-12.2-4.3-22.5-6.6c-11.3-2.4-20.8-5.1-28.4-7.9
		c-7.6-2.8-14.1-7.3-19.6-13.5c-5.5-6.2-8.2-14.5-8.2-25c0-9.2,2.5-17.5,7.5-24.9c5-7.4,12.5-13.2,22.5-17.5
		c10-4.3,22.2-6.5,36.7-6.5c9.9,0,19.7,1.1,29.3,3.3c9.6,2.2,18.1,5.5,25.4,9.8l-13.1,31.6c-14.4-7.8-28.3-11.6-41.8-11.6
		c-8.5,0-14.6,1.3-18.5,3.8c-3.9,2.5-5.8,5.8-5.8,9.8c0,4,2.3,7,6.9,9c4.6,2,12,4.1,22.2,6.2c11.5,2.4,21,5.1,28.5,7.9
		s14.1,7.3,19.6,13.3c5.5,6.1,8.3,14.4,8.3,24.9c0,9-2.5,17.2-7.5,24.5c-5,7.3-12.6,13.2-22.6,17.5c-10,4.4-22.2,6.6-36.6,6.6
		C552.2,462.4,540.3,460.9,528.8,457.9z"/>
	<path d="M680.6,342.4h-46.3v-33.8h135v33.8h-46.1v116.9h-42.6V342.4z"/>
	<path d="M785.9,456.7c-9-3.8-16.4-9.3-22.2-16.5l23.3-27.6c8,10.5,16.7,15.7,26.1,15.7c6.2,0,10.9-1.9,14.1-5.6
		c3.2-3.7,4.8-9.2,4.8-16.4v-64.8h-52.1v-32.9h94.3v95.2c0,19.5-4.9,34.2-14.7,43.9c-9.8,9.8-24.3,14.6-43.4,14.6
		C805,462.4,795,460.5,785.9,456.7z"/>
	<path d="M1024,426.4v32.9H903V308.6h118.2v32.9h-76V367h67v31.9h-67v27.6H1024z"/>
	<path d="M1079.8,342.4h-46.3v-33.8h135v33.8h-46.1v116.9h-42.6V342.4z"/>
</g>
</svg>
