<svg width="19" height="16" viewBox="0 0 19 16"  xmlns="http://www.w3.org/2000/svg">
<path d="M15.9545 0H2.95454C1.32541 0 0 1.32357 0 2.95044V13.0496C0 14.6764 1.32541 16 2.95454 16H15.9545C17.5837 16 18.9091 14.6764 18.9091 13.0496V3.64461C18.9091 3.64048 18.9091 3.63631 18.9091 3.63218V2.95044C18.9091 1.32353 17.5837 0 15.9545 0ZM17.4318 13.0496C17.4318 13.863 16.7691 14.5248 15.9545 14.5248H2.95454C2.13997 14.5248 1.47727 13.863 1.47727 13.0496V5.09671L6.40183 9.0933C8.17846 10.5352 10.7186 10.5367 12.496 9.11672L17.4318 5.17357V13.0496ZM17.4318 3.28436L11.5732 7.9648C10.3345 8.95434 8.56725 8.9498 7.33354 7.9485L1.47727 3.19574V2.95041C1.47727 2.13697 2.13997 1.47519 2.95454 1.47519H15.9545C16.7691 1.47519 17.4318 2.13697 17.4318 2.95041V3.28436Z" />
</svg>
