<svg width="64" height="64" viewBox="0 0 64 64" fill="none" xmlns="http://www.w3.org/2000/svg">
<path d="M55.5315 4.23185V59.7613C55.5315 61.0608 54.478 62.1142 53.1785 62.1142H10.8256C9.52611 62.1142 8.47266 61.0608 8.47266 59.7613V14.0389L20.6326 1.87891H53.1786C54.478 1.87891 55.5315 2.93236 55.5315 4.23185Z" fill="white"/>
<path d="M55.5354 4.2338V59.7632C55.5354 61.062 54.4813 62.1162 53.1824 62.1162H10.8295C9.52132 62.1162 8.47656 61.062 8.47656 59.7632V14.0409L20.6366 1.88086H53.1825C54.4813 1.88086 55.5354 2.93498 55.5354 4.2338Z" fill="white"/>
<path d="M55.5366 4.2338V59.7632C55.5366 61.062 54.4825 62.1162 53.1837 62.1162H12.0449C52.7131 52.5444 51.9037 15.9985 49.9837 1.88086H53.1837C54.4825 1.88086 55.5366 2.93498 55.5366 4.2338Z" fill="#DFE1E6"/>
<path d="M20.6326 1.87891L20.6232 12.1565C20.6232 13.1919 19.7856 14.0389 18.7409 14.0389H8.47266L20.6326 1.87891Z" fill="#C6CAD0"/>
<path d="M39.9471 17.7571C39.7031 18.3462 39.6049 18.9486 39.6236 19.5426C39.6841 21.4966 39.4785 23.4539 38.7297 25.2618L36.3828 30.9276L41.2254 32.9335L43.6726 27.0255C44.378 25.3225 45.557 23.8914 46.9219 22.6507C47.5699 22.0681 48.0581 21.2775 48.2564 20.3195C48.6258 18.6286 47.9097 16.8191 46.481 15.8396C44.098 14.219 40.9868 15.247 39.9471 17.7571Z" fill="#C6CAD0"/>
<path d="M48.2534 20.3183C48.0557 21.2783 47.5758 22.0689 46.9263 22.6525C45.5616 23.8948 44.3757 25.3254 43.6699 27.0289L41.2228 32.9301L38.5781 31.8383L40.8087 26.4548C41.5146 24.7513 42.7005 23.3207 44.0651 22.0783C44.7051 21.4948 45.1946 20.7042 45.3922 19.7442C45.8071 17.8875 44.8768 15.9416 43.3687 15.1042C44.404 14.9537 45.5052 15.1701 46.484 15.8384C47.9146 16.8172 48.6299 18.6242 48.2534 20.3183Z" fill="#B1B4BA"/>
<path d="M47.2803 39.4474L45.8657 42.8623L26.0801 34.6668L27.4946 31.2519C28.2766 29.3639 30.441 28.4674 32.329 29.2494L45.2778 34.613C47.1657 35.395 48.0623 37.5594 47.2803 39.4474Z" fill="#FAC41D"/>
<path d="M47.2817 39.4434L45.8605 42.8599L33.1734 37.6081L33.1641 37.5988C44.0817 39.0387 42.6511 33.5234 42.6511 33.5234L45.277 34.6152C47.1688 35.3964 48.0628 37.5611 47.2817 39.4434Z" fill="#F4A01E"/>
<path d="M43.3684 41.8286L42.0347 45.0893C41.8357 45.5695 41.2852 45.7976 40.805 45.5986L27.7512 40.1916C27.2709 39.9927 27.0429 39.4421 27.2418 38.9619L28.5756 35.7012L43.3684 41.8286Z" fill="#F4A01E"/>
<path d="M53.1764 0.941406H20.6305C20.3858 0.941406 20.1505 1.03556 19.9717 1.21439L7.8117 13.3744C7.63795 13.548 7.5293 13.8281 7.5293 14.0426V59.7649C7.5293 61.5814 9.00695 63.0591 10.8234 63.0591H53.1764C54.9928 63.0591 56.4705 61.5814 56.4705 59.7649V4.23552C56.4705 2.41905 54.9928 0.941406 53.1764 0.941406ZM19.6893 4.16027L19.6799 12.1603C19.6799 12.6779 19.2658 13.1014 18.7387 13.1014H10.7482L19.6893 4.16027ZM54.5881 59.7649C54.5881 60.5367 53.9576 61.1767 53.1764 61.1767H10.8234C10.0516 61.1767 9.41165 60.5367 9.41165 59.7649V14.9838H18.7387C20.3011 14.9838 21.5623 13.7132 21.5623 12.1603L21.5717 2.82376H53.1764C53.9576 2.82376 54.5881 3.45439 54.5881 4.23552V59.7649Z" fill="#010101"/>
<path d="M41.7966 11.2906H48.2066C48.7263 11.2906 49.1478 10.8691 49.1478 10.3494C49.1478 9.82961 48.7263 9.4082 48.2066 9.4082H41.7966C41.2769 9.4082 40.8555 9.82961 40.8555 10.3494C40.8555 10.8691 41.2769 11.2906 41.7966 11.2906Z" fill="#010101"/>
<path d="M27.9685 11.2906H35.3435C35.8633 11.2906 36.2847 10.8691 36.2847 10.3494C36.2847 9.82961 35.8633 9.4082 35.3435 9.4082H27.9685C27.4488 9.4082 27.0273 9.82961 27.0273 10.3494C27.0273 10.8691 27.4488 11.2906 27.9685 11.2906Z" fill="#010101"/>
<path d="M35.1082 19.7617H29.9841C29.4644 19.7617 29.043 20.1831 29.043 20.7029C29.043 21.2227 29.4644 21.6441 29.9841 21.6441H35.1082C35.628 21.6441 36.0494 21.2227 36.0494 20.7029C36.0494 20.1831 35.628 19.7617 35.1082 19.7617Z" fill="#010101"/>
<path d="M16.947 21.6441H24.1309C24.6506 21.6441 25.072 21.2227 25.072 20.7029C25.072 20.1831 24.6506 19.7617 24.1309 19.7617H16.947C16.4273 19.7617 16.0059 20.1831 16.0059 20.7029C16.0059 21.2227 16.4273 21.6441 16.947 21.6441Z" fill="#010101"/>
<path d="M16.947 30.0386H22.7379C23.2577 30.0386 23.6791 29.6172 23.6791 29.0974C23.6791 28.5777 23.2577 28.1562 22.7379 28.1562H16.947C16.4273 28.1562 16.0059 28.5777 16.0059 29.0974C16.0059 29.6172 16.4273 30.0386 16.947 30.0386Z" fill="#010101"/>
<path d="M16.947 38.4331H21.6529C22.1727 38.4331 22.5941 38.0117 22.5941 37.492C22.5941 36.9722 22.1727 36.5508 21.6529 36.5508H16.947C16.4273 36.5508 16.0059 36.9722 16.0059 37.492C16.0059 38.0117 16.4273 38.4331 16.947 38.4331Z" fill="#010101"/>
<path d="M16.947 46.8277H27.3753C27.8951 46.8277 28.3165 46.4062 28.3165 45.8865C28.3165 45.3667 27.8951 44.9453 27.3753 44.9453H16.947C16.4273 44.9453 16.0059 45.3667 16.0059 45.8865C16.0059 46.4062 16.4273 46.8277 16.947 46.8277Z" fill="#010101"/>
<path d="M47.0642 53.3379H39.8767C39.357 53.3379 38.9355 53.7593 38.9355 54.2791C38.9355 54.7988 39.357 55.2202 39.8767 55.2202H47.0642C47.584 55.2202 48.0054 54.7988 48.0054 54.2791C48.0054 53.7593 47.584 53.3379 47.0642 53.3379Z" fill="#010101"/>
<path d="M33.7389 53.3379H27.3689C26.8491 53.3379 26.4277 53.7593 26.4277 54.2791C26.4277 54.7988 26.8491 55.2202 27.3689 55.2202H33.7389C34.2586 55.2202 34.68 54.7988 34.68 54.2791C34.68 53.7593 34.2586 53.3379 33.7389 53.3379Z" fill="#010101"/>
<path d="M22.7379 53.3379H16.947C16.4273 53.3379 16.0059 53.7593 16.0059 54.2791C16.0059 54.7988 16.4273 55.2202 16.947 55.2202H22.7379C23.2577 55.2202 23.6791 54.7988 23.6791 54.2791C23.6791 53.7593 23.2577 53.3379 22.7379 53.3379Z" fill="#010101"/>
<path d="M45.6376 33.7416L42.4564 32.4239L43.4447 30.0428H47.0588C47.5858 30.0428 47.9999 29.6192 47.9999 29.1016C47.9999 28.5745 47.5858 28.1604 47.0588 28.1604H44.2259L44.5458 27.3886C45.1199 25.9863 46.1082 24.6592 47.5482 23.3509C50.0848 21.0709 49.8073 16.9831 47.0117 15.0592C44.1319 13.1294 40.3679 14.2995 39.0776 17.3933C38.2117 19.5291 39.2458 21.5222 37.8635 24.9039L35.8776 29.6945L32.687 28.3769C30.375 27.4136 27.6273 28.4835 26.6259 30.8898L25.2141 34.3063C25.0164 34.7863 25.2423 35.3415 25.7223 35.5392L27.3505 36.2169C27.2631 36.4295 26.3205 38.7227 26.3717 38.598C25.9759 39.5875 26.4432 40.6589 27.3882 41.0639L36.7623 44.9415L36.7696 44.9446H33.1622C32.6424 44.9446 32.221 45.366 32.221 45.8858C32.221 46.4055 32.6424 46.8269 33.1622 46.8269H47.0625C47.5822 46.8269 48.0037 46.4055 48.0037 45.8858C48.0037 45.366 47.5822 44.9446 47.0625 44.9446H43.114L43.1152 44.9415L43.887 43.0686L45.5058 43.7369C45.7068 43.8206 45.99 43.8294 46.2305 43.7369C46.4564 43.6333 46.6446 43.4545 46.7388 43.2192L48.1505 39.8121C49.1294 37.4404 47.9999 34.7204 45.6376 33.7416ZM39.6047 25.6192C40.1035 24.4145 40.4046 23.0874 40.5176 21.6004C40.6758 19.6702 40.3846 19.1385 40.8188 18.118C41.6168 16.1657 44.0319 15.3347 45.9482 16.6121C47.7091 17.8288 47.9474 20.4496 46.287 21.958C44.6306 23.4545 43.4917 24.998 42.8047 26.6639C42.4965 27.4034 42.256 27.9806 42.0634 28.4426C42.1193 28.3117 41.855 28.9523 40.7152 31.6992L37.6094 30.4192L39.6047 25.6192ZM28.1129 39.3227C28.1517 39.2279 29.1554 36.7766 29.0917 36.9321C38.4973 40.8314 41.2491 41.9721 41.9405 42.2588C41.942 42.2594 41.9442 42.2603 41.9463 42.2612C41.9451 42.2607 41.9449 42.2606 41.9439 42.2602C41.9541 42.2644 41.9652 42.2689 41.9745 42.2728C41.9663 42.2694 41.9594 42.2666 41.9533 42.2641C41.9639 42.2685 41.9809 42.2755 42.0038 42.285C41.9959 42.2818 41.9879 42.2784 41.9809 42.2755C41.9987 42.2829 42.0132 42.2889 42.0277 42.2949C42.0532 42.3055 42.0853 42.3187 42.1239 42.3348C42.1218 42.3338 42.119 42.3327 42.1167 42.3318C42.1314 42.3379 42.1412 42.3419 42.1458 42.3439C42.1507 42.3459 42.1498 42.3456 42.1458 42.3439L41.167 44.7251L28.1129 39.3227ZM46.4093 39.0874L45.3552 41.6286C21.2246 31.6345 28.9048 34.8155 27.3129 34.1557L28.367 31.6145C28.9478 30.1948 30.5853 29.5405 31.9717 30.118C32.9831 30.5348 44.2674 35.2113 44.9223 35.4827C46.1984 36.02 47.0271 37.5089 46.4093 39.0874Z" fill="#010101"/>
<path d="M42.0653 28.4434C41.9593 28.6916 40.7029 31.7116 42.0653 28.4434V28.4434Z" fill="#010101"/>
<path d="M42.1489 42.3431C42.1401 42.3395 42.1351 42.3374 42.127 42.334C42.1372 42.3382 42.1449 42.3415 42.1489 42.3431Z" fill="#010101"/>
<path d="M41.9466 42.2597C41.9455 42.2591 41.944 42.2585 41.9429 42.2581C41.934 42.2544 41.9368 42.2556 41.9466 42.2597Z" fill="#010101"/>
<path d="M41.9766 42.2734C41.9789 42.2744 41.9811 42.2753 41.9836 42.2764C41.9809 42.2753 41.9793 42.2746 41.9766 42.2734Z" fill="#010101"/>
</svg>
