<?xml version="1.0" encoding="UTF-8"?>
<svg width="130px" height="75px" viewBox="0 0 130 75" version="1.1" xmlns="http://www.w3.org/2000/svg" xmlns:xlink="http://www.w3.org/1999/xlink">
    <!-- Generator: Sketch 51.2 (57519) - http://www.bohemiancoding.com/sketch -->
    <title>footer-logo</title>
    <desc>Created with Sketch.</desc>
    <defs></defs>
    <g id="Page-1" stroke="none" stroke-width="1" fill="none" fill-rule="evenodd">
        <g id="footer-logo" fill-rule="nonzero">
            <path d="M117.844053,74.9526316 L4.77245146,74.9526316 C1.69599515,74.9526316 -0.536407767,71.6605263 0.260315534,68.2973684 L7.08373786,50.1710526 C7.2967233,49.2868421 7.2967233,48.3473684 7.09951456,47.4631579 L0.228762136,6.64736842 C-0.536407767,3.29210526 1.69599515,0 4.75667476,0 L117.820388,0 C119.950243,0 121.796117,1.62631579 122.332524,3.96315789 L129.81068,47.4552632 C130.023665,48.3394737 130.023665,49.2789474 129.81068,50.1631579 L122.348301,71.0131579 C121.804005,73.3421053 119.950243,74.9526316 117.844053,74.9526316 Z" id="Shape" fill="#FFDD00"></path>
            <path d="M105.167476,31.2789474 C105.167476,31.2789474 105.167476,36.9394737 105.167476,36.9868421 C105.167476,38.8815789 103.629248,40.4210526 101.736044,40.4210526 C101.688714,40.4210526 94.8731796,40.4210526 94.8731796,40.4210526 C94.2578883,38.0447368 92.0964806,36.2842105 89.5485437,36.2842105 C86.9848301,36.2842105 84.8234223,38.0447368 84.2081311,40.4210526 L49.878034,40.4210526 C49.2627427,38.0447368 47.1092233,36.2842105 44.5455097,36.2842105 C41.9817961,36.2842105 39.8203883,38.0447368 39.2050971,40.4210526 L32.2239078,40.4210526 C32.2081311,40.4210526 32.2081311,40.4210526 32.1923544,40.4210526 C30.0940534,40.3894737 28.413835,38.6921053 28.413835,36.5921053 L28.413835,15.9078947 C28.413835,13.7921053 30.1256068,12.0789474 32.2396845,12.0789474 L92.5697816,12.0789474 L95.2597087,12.1263158 L98.1941748,12.1263158 C99.9217233,12.1263158 101.436286,13.35 101.775485,15.0473684 L105.167476,31.2789474 Z" id="Shape" fill="#FFFFFF"></path>
            <path d="M107.754854,31.0894737 L104.347087,14.5342105 C103.747573,11.6289474 101.168083,9.51315789 98.2020631,9.51315789 L32.2239078,9.51315789 C28.7845874,9.51315789 25.9842233,12.3157895 25.9842233,15.7578947 L25.9842233,36.7894737 C25.9842233,40.2315789 28.7845874,43.0342105 32.2239078,43.0342105 L39.1656553,43.0342105 C39.7257282,45.4894737 41.9265777,47.3210526 44.5455097,47.3210526 C47.1644417,47.3210526 49.3574029,45.4894737 49.9174757,43.0342105 L84.1686893,43.0342105 C84.7287621,45.4894737 86.9296117,47.3210526 89.5485437,47.3210526 C92.1595874,47.3210526 94.3604369,45.4894737 94.9126214,43.0342105 L101.523058,43.0342105 C104.978155,43.0342105 107.778519,40.2315789 107.778519,36.7894737 L107.778519,31.35 C107.778519,31.2552632 107.770631,31.1763158 107.754854,31.0894737 Z M98.1941748,12.1263158 C99.9217233,12.1263158 101.436286,13.35 101.775485,15.0473684 L104.867718,30.0394737 L99.9769417,30.0394737 C99.4563107,30.0394737 99.0145631,29.6684211 98.8883495,29.1552632 L95.2597087,12.1263158 L98.1941748,12.1263158 Z M44.5455097,44.7078947 C43.3938107,44.7078947 42.3919903,44.0210526 41.9265777,43.0421053 C41.9029126,42.9947368 41.8871359,42.9552632 41.8634709,42.9078947 C41.8634709,42.9 41.8555825,42.9 41.8555825,42.8921053 C41.8398058,42.8526316 41.8240291,42.8131579 41.8082524,42.7657895 C41.8082524,42.7578947 41.8003641,42.75 41.8003641,42.7421053 C41.7845874,42.7026316 41.776699,42.6631579 41.7609223,42.6236842 C41.7609223,42.6157895 41.753034,42.6 41.753034,42.5842105 C41.7451456,42.5447368 41.7372573,42.5131579 41.7214806,42.4736842 C41.7214806,42.4578947 41.7135922,42.4421053 41.7135922,42.4342105 C41.7057039,42.4026316 41.6978155,42.3631579 41.6899272,42.3315789 C41.6899272,42.3157895 41.6820388,42.3 41.6820388,42.2842105 C41.6741505,42.2526316 41.6741505,42.2131579 41.6662621,42.1815789 C41.6662621,42.1657895 41.6583738,42.15 41.6583738,42.1342105 C41.6504854,42.0947368 41.6504854,42.0631579 41.6504854,42.0236842 C41.6504854,42.0078947 41.6504854,41.9921053 41.6504854,41.9763158 C41.6504854,41.9210526 41.6425971,41.8736842 41.6425971,41.8184211 C41.6425971,41.7631579 41.6425971,41.7 41.6504854,41.6447368 C41.6504854,41.6289474 41.6504854,41.6131579 41.6504854,41.5973684 C41.6504854,41.5578947 41.6583738,41.5184211 41.6662621,41.4789474 C41.6662621,41.4631579 41.6741505,41.4473684 41.6741505,41.4236842 C41.6820388,41.3842105 41.6899272,41.3368421 41.6978155,41.2973684 C41.6978155,41.2815789 41.7057039,41.2736842 41.7057039,41.2578947 C41.7135922,41.2026316 41.7293689,41.1473684 41.7451456,41.0921053 C41.7451456,41.0921053 41.7451456,41.0921053 41.7451456,41.0921053 C41.7609223,41.0368421 41.776699,40.9894737 41.7924757,40.9342105 C41.7924757,40.9263158 41.8003641,40.9105263 41.8003641,40.9026316 C41.8161408,40.8552632 41.8319175,40.8157895 41.8476942,40.7763158 C41.8555825,40.7684211 41.8555825,40.7526316 41.8634709,40.7447368 C41.8871359,40.6973684 41.9029126,40.6421053 41.9265777,40.5947368 C41.9265777,40.5947368 41.9265777,40.5947368 41.9265777,40.5947368 C41.9502427,40.5394737 41.9817961,40.4921053 42.0054612,40.4368421 C42.5024272,39.5447368 43.4490291,38.9368421 44.5376214,38.9368421 C45.6262136,38.9368421 46.5728155,39.5447368 47.0697816,40.4368421 C47.101335,40.4921053 47.125,40.5394737 47.148665,40.5947368 C47.148665,40.5947368 47.148665,40.5947368 47.148665,40.5947368 C47.1723301,40.6421053 47.1959951,40.6973684 47.2117718,40.7447368 C47.2196602,40.7526316 47.2196602,40.7684211 47.2275485,40.7763158 C47.2433252,40.8157895 47.2591019,40.8631579 47.2748786,40.9026316 C47.2748786,40.9105263 47.282767,40.9263158 47.282767,40.9342105 C47.2985437,40.9894737 47.3143204,41.0368421 47.3300971,41.0921053 C47.3300971,41.0921053 47.3300971,41.0921053 47.3300971,41.1 C47.3458738,41.1552632 47.3537621,41.2105263 47.3695388,41.2657895 C47.3695388,41.2815789 47.3774272,41.2894737 47.3774272,41.3052632 C47.3853155,41.3447368 47.3932039,41.3921053 47.4010922,41.4315789 C47.4010922,41.4473684 47.4089806,41.4710526 47.4089806,41.4868421 C47.4168689,41.5263158 47.4168689,41.5657895 47.4168689,41.6052632 C47.4168689,41.6210526 47.4168689,41.6368421 47.4168689,41.6605263 C47.4168689,41.7157895 47.4247573,41.7710526 47.4247573,41.8342105 C47.4247573,41.8342105 47.4247573,41.8342105 47.4247573,41.8342105 C47.4247573,41.8342105 47.4247573,41.8342105 47.4247573,41.8342105 C47.4247573,41.8894737 47.4247573,41.9368421 47.4168689,41.9921053 C47.4168689,42.0078947 47.4168689,42.0236842 47.4168689,42.0394737 C47.4168689,42.0789474 47.4089806,42.1105263 47.4089806,42.15 C47.4089806,42.1657895 47.4010922,42.1815789 47.4010922,42.1973684 C47.3932039,42.2289474 47.3932039,42.2684211 47.3853155,42.3 C47.3853155,42.3157895 47.3774272,42.3315789 47.3774272,42.3473684 C47.3695388,42.3789474 47.3616505,42.4184211 47.3537621,42.45 C47.3537621,42.4657895 47.3458738,42.4815789 47.3458738,42.4894737 C47.3379854,42.5289474 47.3300971,42.5605263 47.3143204,42.6 C47.3143204,42.6157895 47.306432,42.6236842 47.306432,42.6315789 C47.2985437,42.6710526 47.282767,42.7105263 47.2669903,42.75 C47.2669903,42.7578947 47.2591019,42.7657895 47.2591019,42.7736842 C47.2433252,42.8131579 47.2275485,42.8605263 47.2117718,42.9 C47.2117718,42.9078947 47.2038835,42.9078947 47.2038835,42.9157895 C47.1881068,42.9631579 47.1644417,43.0105263 47.1407767,43.05 C46.7069175,44.0210526 45.7050971,44.7078947 44.5455097,44.7078947 Z M89.5485437,44.7078947 C88.381068,44.7078947 87.3792476,44.0210526 86.913835,43.0421053 C86.8901699,42.9947368 86.8743932,42.9552632 86.8507282,42.9078947 C86.8507282,42.9 86.8428398,42.9 86.8428398,42.8921053 C86.8270631,42.8526316 86.8112864,42.8131579 86.7955097,42.7657895 C86.7955097,42.7578947 86.7876214,42.75 86.7876214,42.7421053 C86.7718447,42.7026316 86.7639563,42.6631579 86.7481796,42.6236842 C86.7481796,42.6157895 86.7402913,42.6 86.7402913,42.5842105 C86.7324029,42.5447368 86.7245146,42.5131579 86.7087379,42.4736842 C86.7087379,42.4578947 86.7008495,42.4421053 86.7008495,42.4342105 C86.6929612,42.4026316 86.6850728,42.3631579 86.6771845,42.3315789 C86.6771845,42.3157895 86.6692961,42.3 86.6692961,42.2842105 C86.6614078,42.2526316 86.6614078,42.2131579 86.6535194,42.1815789 C86.6535194,42.1657895 86.6456311,42.15 86.6456311,42.1342105 C86.6377427,42.0947368 86.6377427,42.0631579 86.6377427,42.0236842 C86.6377427,42.0078947 86.6377427,41.9921053 86.6377427,41.9763158 C86.6377427,41.9210526 86.6298544,41.8736842 86.6298544,41.8184211 C86.6298544,41.7631579 86.6298544,41.7 86.6377427,41.6447368 C86.6377427,41.6289474 86.6377427,41.6131579 86.6377427,41.5973684 C86.6377427,41.5578947 86.6456311,41.5184211 86.6535194,41.4789474 C86.6535194,41.4631579 86.6614078,41.4473684 86.6614078,41.4236842 C86.6692961,41.3842105 86.6771845,41.3368421 86.6850728,41.2973684 C86.6850728,41.2815789 86.6929612,41.2736842 86.6929612,41.2578947 C86.7008495,41.2026316 86.7166262,41.1473684 86.7324029,41.0921053 C86.7324029,41.0921053 86.7324029,41.0921053 86.7324029,41.0921053 C86.7481796,41.0368421 86.7639563,40.9894737 86.779733,40.9342105 C86.779733,40.9263158 86.7876214,40.9105263 86.7876214,40.9026316 C86.8033981,40.8552632 86.8191748,40.8157895 86.8349515,40.7763158 C86.8428398,40.7684211 86.8428398,40.7526316 86.8507282,40.7447368 C86.8743932,40.6973684 86.8901699,40.6421053 86.913835,40.5947368 C86.913835,40.5947368 86.913835,40.5947368 86.913835,40.5947368 C86.9375,40.5394737 86.9690534,40.4921053 86.9927184,40.4368421 C87.4896845,39.5447368 88.4441748,38.9368421 89.5406553,38.9368421 C90.6292476,38.9368421 91.5758495,39.5447368 92.0728155,40.4368421 C92.1043689,40.4921053 92.128034,40.5394737 92.151699,40.5947368 C92.151699,40.5947368 92.151699,40.5947368 92.151699,40.5947368 C92.1753641,40.6421053 92.1990291,40.6973684 92.2148058,40.7447368 C92.2226942,40.7526316 92.2226942,40.7684211 92.2305825,40.7763158 C92.2463592,40.8157895 92.2621359,40.8631579 92.2779126,40.9026316 C92.2779126,40.9105263 92.285801,40.9263158 92.285801,40.9342105 C92.3015777,40.9894737 92.3173544,41.0368421 92.3331311,41.0921053 C92.3331311,41.0921053 92.3331311,41.0921053 92.3331311,41.0921053 C92.3489078,41.1473684 92.3567961,41.2026316 92.3725728,41.2578947 C92.3725728,41.2736842 92.3804612,41.2815789 92.3804612,41.2973684 C92.3883495,41.3368421 92.3962379,41.3842105 92.4041262,41.4236842 C92.4041262,41.4394737 92.4120146,41.4552632 92.4120146,41.4789474 C92.4199029,41.5184211 92.4199029,41.5578947 92.4277913,41.5973684 C92.4277913,41.6131579 92.4277913,41.6289474 92.4277913,41.6447368 C92.4277913,41.7 92.4356796,41.7552632 92.4356796,41.8184211 C92.4356796,41.8736842 92.4356796,41.9210526 92.4277913,41.9763158 C92.4277913,41.9921053 92.4277913,42.0078947 92.4277913,42.0236842 C92.4277913,42.0631579 92.4199029,42.0947368 92.4199029,42.1342105 C92.4199029,42.15 92.4120146,42.1657895 92.4120146,42.1815789 C92.4041262,42.2131579 92.4041262,42.2526316 92.3962379,42.2842105 C92.3962379,42.3 92.3883495,42.3157895 92.3883495,42.3315789 C92.3804612,42.3631579 92.3725728,42.4026316 92.3646845,42.4342105 C92.3646845,42.45 92.3567961,42.4657895 92.3567961,42.4736842 C92.3489078,42.5131579 92.3410194,42.5447368 92.3252427,42.5842105 C92.3252427,42.6 92.3173544,42.6078947 92.3173544,42.6236842 C92.309466,42.6631579 92.2936893,42.7026316 92.2779126,42.7421053 C92.2779126,42.75 92.2700243,42.7578947 92.2700243,42.7657895 C92.2542476,42.8052632 92.2384709,42.8447368 92.2226942,42.8921053 C92.2226942,42.9 92.2148058,42.9 92.2148058,42.9078947 C92.1990291,42.9552632 92.1753641,43.0026316 92.151699,43.0421053 C91.7020631,44.0210526 90.7002427,44.7078947 89.5485437,44.7078947 Z M105.167476,36.9868421 C105.167476,38.8815789 103.629248,40.4210526 101.736044,40.4210526 C101.688714,40.4210526 94.8731796,40.4210526 94.8731796,40.4210526 C94.2578883,38.0447368 92.0964806,36.2842105 89.5485437,36.2842105 C86.9848301,36.2842105 84.8234223,38.0447368 84.2081311,40.4210526 L49.878034,40.4210526 C49.2627427,38.0447368 47.1092233,36.2842105 44.5455097,36.2842105 C41.9817961,36.2842105 39.8203883,38.0447368 39.2050971,40.4210526 L32.2239078,40.4210526 C32.2081311,40.4210526 32.2081311,40.4210526 32.1923544,40.4210526 C30.0940534,40.3894737 28.413835,38.6921053 28.413835,36.5921053 L28.413835,15.9078947 C28.413835,13.7921053 30.1256068,12.0789474 32.2396845,12.0789474 L92.5697816,12.0789474 L96.3325243,29.7078947 C96.7032767,31.4210526 98.2257282,32.6605263 99.9690534,32.6605263 L105.167476,32.6605263 C105.167476,32.6605263 105.167476,36.9394737 105.167476,36.9868421 Z" id="Shape" fill="#000000"></path>
            <g id="Group" transform="translate(16.407767, 18.947368)" fill="#000000">
                <g transform="translate(0.000000, 0.078947)" id="Shape">
                    <path d="M16.1947816,13.65 L1.35679612,13.65 C0.631067961,13.65 0.0473300971,13.0657895 0.0473300971,12.3394737 C0.0473300971,11.6131579 0.631067961,11.0289474 1.35679612,11.0289474 L16.1947816,11.0289474 C16.9205097,11.0289474 17.5042476,11.6131579 17.5042476,12.3394737 C17.4963592,13.0657895 16.9126214,13.65 16.1947816,13.65 Z"></path>
                    <path d="M16.1947816,2.64473684 L1.35679612,2.64473684 C0.631067961,2.64473684 0.0473300971,2.06052632 0.0473300971,1.33421053 C0.0473300971,0.607894737 0.631067961,0.0236842105 1.35679612,0.0236842105 L16.1947816,0.0236842105 C16.9205097,0.0236842105 17.5042476,0.607894737 17.5042476,1.33421053 C17.4963592,2.05263158 16.9126214,2.64473684 16.1947816,2.64473684 Z"></path>
                    <path d="M18.5455097,8.14736842 L3.70752427,8.14736842 C2.98179612,8.14736842 2.39805825,7.56315789 2.39805825,6.83684211 C2.39805825,6.11052632 2.98179612,5.52631579 3.70752427,5.52631579 L18.5455097,5.52631579 C19.2712379,5.52631579 19.8549757,6.11052632 19.8549757,6.83684211 C19.8549757,7.55526316 19.2712379,8.14736842 18.5455097,8.14736842 Z"></path>
                </g>
                <g transform="translate(27.451456, 0.000000)">
                    <g>
                        <g>
                            <rect id="Rectangle-path" transform="translate(5.246249, 7.954153) rotate(90.000000) translate(-5.246249, -7.954153) " x="0.0202178638" y="6.64362633" width="10.4520631" height="2.62105263"></rect>
                            <g id="Shape">
                                <path d="M8.25910194,6.22894737 L4.32281553,2.28947368 C3.81007282,1.77631579 3.81007282,0.947368421 4.32281553,0.442105263 C4.83555825,-0.0710526316 5.66383495,-0.0710526316 6.16868932,0.442105263 L10.1049757,4.38157895 C10.6177184,4.89473684 10.6177184,5.72368421 10.1049757,6.22894737 C9.60012136,6.74210526 8.77184466,6.74210526 8.25910194,6.22894737 Z"></path>
                                <path d="M2.23240291,6.22894737 L6.16868932,2.28947368 C6.68143204,1.77631579 6.68143204,0.947368421 6.16868932,0.442105263 C5.6559466,-0.0710526316 4.8276699,-0.0710526316 4.32281553,0.442105263 L0.386529126,4.38157895 C-0.126213592,4.89473684 -0.126213592,5.72368421 0.386529126,6.22894737 C0.891383495,6.74210526 1.71966019,6.74210526 2.23240291,6.22894737 Z"></path>
                            </g>
                        </g>
                        <path d="M9.17415049,13.7289474 L1.31735437,13.7289474 C0.591626214,13.7289474 0.00788834951,13.1447368 0.00788834951,12.4184211 C0.00788834951,11.6921053 0.591626214,11.1078947 1.31735437,11.1078947 L9.17415049,11.1078947 C9.89987864,11.1078947 10.4836165,11.6921053 10.4836165,12.4184211 C10.4836165,13.1447368 9.89199029,13.7289474 9.17415049,13.7289474 Z" id="Shape"></path>
                    </g>
                    <g transform="translate(15.776699, 0.000000)">
                        <rect id="Rectangle-path" transform="translate(5.098745, 10.419474) rotate(90.000000) translate(-5.098745, -10.419474) " x="2.34176705" y="9.1089474" width="5.51395631" height="2.62105263"></rect>
                        <path d="M9.18203883,13.7289474 L1.32524272,13.7289474 C0.599514563,13.7289474 0.015776699,13.1447368 0.015776699,12.4184211 C0.015776699,11.6921053 0.599514563,11.1078947 1.32524272,11.1078947 L9.18203883,11.1078947 C9.90776699,11.1078947 10.4915049,11.6921053 10.4915049,12.4184211 C10.4915049,13.1447368 9.90776699,13.7289474 9.18203883,13.7289474 Z" id="Shape"></path>
                        <path d="M5.11953883,9.31578947 C2.76092233,9.31578947 0.851941748,7.39736842 0.851941748,5.04473684 L0.851941748,1.35789474 C0.851941748,0.639473684 1.43567961,0.0631578947 2.14563107,0.0631578947 L8.0934466,0.0631578947 C8.81128641,0.0631578947 9.38713592,0.647368421 9.38713592,1.35789474 L9.38713592,5.04473684 C9.39502427,7.39736842 7.47815534,9.31578947 5.11953883,9.31578947 Z M3.43932039,2.87368421 L3.43932039,4.99736842 C3.43932039,5.90526316 4.1413835,6.67894737 5.04854369,6.71842105 C6.00303398,6.75789474 6.79186893,5.98421053 6.79186893,5.03684211 L6.79186893,2.87368421 C6.79186893,2.74736842 6.68932039,2.65263158 6.57099515,2.65263158 L3.66019417,2.65263158 C3.54186893,2.65263158 3.43932039,2.75526316 3.43932039,2.87368421 Z" id="Shape"></path>
                    </g>
                    <g transform="translate(29.817961, 0.000000)" id="Shape">
                        <path d="M9.07160194,13.7131579 C7.21783981,13.7131579 5.7032767,12.2052632 5.7032767,10.3421053 L5.7032767,7.16052632 C5.7032767,6.44210526 6.28701456,5.86578947 6.99696602,5.86578947 C7.71480583,5.86578947 8.29065534,6.45 8.29065534,7.16052632 L8.29065534,10.3421053 C8.29065534,10.7684211 8.63774272,11.1157895 9.06371359,11.1157895 C9.48968447,11.1157895 9.83677184,10.7684211 9.83677184,10.3421053 C9.83677184,9.62368421 10.4205097,9.04736842 11.1304612,9.04736842 C11.8404126,9.04736842 12.4241505,9.63157895 12.4241505,10.3421053 C12.4399272,12.2052632 10.9253641,13.7131579 9.07160194,13.7131579 Z"></path>
                        <path d="M7.00485437,0.0552631579 C3.14745146,0.0552631579 0.0236650485,3.18157895 0.0236650485,7.04210526 C0.0236650485,7.04210526 0.0236650485,7.05 0.0236650485,7.05 C0.0236650485,7.46052632 0.362864078,7.79210526 0.773058252,7.79210526 L13.2287621,7.79210526 C13.6389563,7.79210526 13.9781553,7.46052632 13.9781553,7.05 C13.9781553,7.05 13.9781553,7.04210526 13.9781553,7.04210526 C13.9781553,3.18157895 10.8543689,0.0552631579 7.00485437,0.0552631579 Z M3.55764563,5.19473684 C3.39199029,5.19473684 3.2815534,5.01315789 3.36043689,4.86315789 C4.0467233,3.55263158 5.41929612,2.65263158 7.00485437,2.65263158 C8.59041262,2.65263158 9.96298544,3.55263158 10.6492718,4.86315789 C10.7281553,5.01315789 10.6177184,5.19473684 10.4520631,5.19473684 L3.55764563,5.19473684 Z"></path>
                    </g>
                </g>
            </g>
            <g id="Group" transform="translate(25.952670, 52.263158)" fill="#000000">
                <path d="M6.80764563,5.64473684 C6.41322816,5.33684211 5.93992718,5.11578947 5.41140777,4.98947368 C4.8907767,4.86315789 4.27548544,4.79210526 3.56553398,4.79210526 L2.60315534,4.79210526 L2.60315534,2.44736842 L6.99696602,2.44736842 C7.09951456,2.44736842 7.17839806,2.36842105 7.17839806,2.26578947 L7.17839806,0.236842105 C7.17839806,0.134210526 7.09951456,0.0552631579 6.99696602,0.0552631579 L0.220873786,0.0552631579 C0.118325243,0.0552631579 0.0394417476,0.134210526 0.0394417476,0.236842105 L0.0394417476,12.7026316 C0.0394417476,12.8052632 0.118325243,12.8842105 0.220873786,12.8842105 L3.53398058,12.8842105 C4.25182039,12.8842105 4.875,12.8210526 5.39563107,12.6868421 C5.92415049,12.5526316 6.39745146,12.3315789 6.79975728,12.0236842 C7.20995146,11.7157895 7.51759709,11.2815789 7.71480583,10.7447368 C7.91201456,10.2157895 8.01456311,9.57631579 8.01456311,8.82631579 C8.01456311,8.08421053 7.91201456,7.44473684 7.72269417,6.91578947 C7.51759709,6.37894737 7.20995146,5.95263158 6.80764563,5.64473684 Z M5.05643204,10.1447368 C4.7961165,10.3736842 4.31492718,10.4842105 3.63652913,10.4842105 L2.60315534,10.4842105 L2.60315534,7.18421053 L3.63652913,7.18421053 C4.32281553,7.18421053 4.7961165,7.29473684 5.06432039,7.52368421 C5.31674757,7.74473684 5.45084951,8.17894737 5.45084951,8.82631579 C5.44296117,9.48157895 5.31674757,9.92368421 5.05643204,10.1447368 Z" id="Shape"></path>
                <path d="M14.2226942,0.236842105 C14.1990291,0.157894737 14.128034,0.102631579 14.0491505,0.102631579 L11.8404126,0.102631579 C11.7615291,0.102631579 11.690534,0.157894737 11.6668689,0.236842105 L8.22754854,12.6552632 C8.21177184,12.7105263 8.22754854,12.7657895 8.25910194,12.8131579 C8.29065534,12.8605263 8.34587379,12.8842105 8.40109223,12.8842105 L10.6966019,12.8842105 C10.7754854,12.8842105 10.8464806,12.8289474 10.8701456,12.7578947 L11.4775485,10.6657895 L14.3883495,10.6657895 L14.9720874,12.7578947 C14.9957524,12.8368421 15.0667476,12.8921053 15.1456311,12.8921053 L17.4411408,12.8921053 C17.4963592,12.8921053 17.5515777,12.8684211 17.5831311,12.8210526 C17.6146845,12.7736842 17.6304612,12.7184211 17.6146845,12.6631579 L14.2226942,0.236842105 Z M12.1165049,8.14736842 L12.9290049,4.53947368 L13.7415049,8.14736842 L12.1165049,8.14736842 Z" id="Shape"></path>
                <path d="M26.5758495,8.68421053 L24.3671117,8.68421053 C24.2645631,8.68421053 24.1856796,8.76315789 24.1856796,8.86578947 C24.1856796,9.47368421 24.059466,9.91578947 23.7991505,10.1842105 C23.5467233,10.4526316 23.0576456,10.5868421 22.3398058,10.5868421 C21.961165,10.5868421 21.6535194,10.5473684 21.4168689,10.4763158 C21.1959951,10.4052632 21.0224515,10.3026316 20.9120146,10.1605263 C20.7936893,10.0105263 20.7069175,9.84473684 20.6674757,9.66315789 C20.6201456,9.46578947 20.5964806,9.21315789 20.5964806,8.90526316 L20.5964806,4.07368421 C20.5964806,3.76578947 20.6201456,3.51315789 20.6674757,3.31578947 C20.7148058,3.13421053 20.7936893,2.96842105 20.9120146,2.81842105 C21.0224515,2.67631579 21.1959951,2.57368421 21.4168689,2.50263158 C21.6535194,2.43157895 21.9690534,2.39210526 22.3398058,2.39210526 C22.75,2.39210526 23.0813107,2.43157895 23.3337379,2.50263158 C23.5703883,2.57368421 23.743932,2.67631579 23.8622573,2.81842105 C23.9805825,2.96842105 24.0673544,3.13421053 24.1146845,3.32368421 C24.1620146,3.52105263 24.1856796,3.78157895 24.1856796,4.09736842 C24.1856796,4.2 24.2645631,4.27894737 24.3671117,4.27894737 L26.5758495,4.27894737 C26.6783981,4.27894737 26.7572816,4.2 26.7572816,4.09736842 C26.7572816,2.67631579 26.4023058,1.63421053 25.7081311,1.00263158 C25.0218447,0.378947368 23.8859223,0.0631578947 22.3476942,0.0631578947 C20.8252427,0.0631578947 19.7129854,0.371052632 19.0424757,0.971052632 C18.371966,1.57894737 18.032767,2.58157895 18.032767,3.95526316 L18.032767,9.00789474 C18.032767,10.35 18.3798544,11.3447368 19.0582524,11.9684211 C19.7366505,12.5842105 20.8410194,12.9 22.3398058,12.9 C23.8543689,12.9 24.9745146,12.5763158 25.6765777,11.9368421 C26.3865291,11.2973684 26.7415049,10.2631579 26.7415049,8.85789474 C26.7415049,8.85789474 26.7415049,8.85 26.7415049,8.85 C26.7493932,8.76315789 26.6705097,8.68421053 26.5758495,8.68421053 Z" id="Shape"></path>
                <path d="M33.3046117,6.55263158 C33.5491505,6.30789474 33.7542476,6.00789474 33.9199029,5.66052632 C34.1092233,5.27368421 34.2906553,4.78421053 34.4720874,4.2 C34.4720874,4.2 34.4720874,4.2 34.4720874,4.2 C34.4957524,4.12894737 34.5273058,4.01842105 34.5667476,3.88421053 C34.6377427,3.65526316 34.6929612,3.48157895 34.7324029,3.36315789 C34.7718447,3.25263158 34.8270631,3.12631579 34.8980583,2.98421053 C34.961165,2.86578947 35.0242718,2.77894737 35.0873786,2.72368421 C35.1583738,2.66842105 35.253034,2.61315789 35.3713592,2.55789474 C35.4896845,2.50263158 35.6316748,2.47105263 35.7894417,2.46315789 C35.8841019,2.45526316 36.0024272,2.45526316 36.1207524,2.45526316 C36.2154126,2.45526316 36.3258495,2.45526316 36.4362864,2.46315789 C36.4362864,2.46315789 36.4441748,2.46315789 36.4441748,2.46315789 C36.538835,2.46315789 36.6177184,2.39210526 36.6256068,2.29736842 L36.7912621,0.252631579 C36.7991505,0.157894737 36.7281553,0.0710526316 36.6256068,0.0631578947 C36.3889563,0.0394736842 36.1601942,0.0315789474 35.9393204,0.0315789474 C35.5606796,0.0315789474 35.2135922,0.0631578947 34.8980583,0.126315789 C33.9593447,0.315789474 33.2493932,0.828947368 32.7839806,1.65 C32.5709951,2.02105263 32.342233,2.61315789 32.0740291,3.48157895 C32.0188107,3.63947368 31.9951456,3.74210526 31.9793689,3.77368421 C31.9714806,3.80526316 31.9399272,3.89210526 31.8925971,4.03421053 C31.8294903,4.21578947 31.8058252,4.27105263 31.7979369,4.28684211 C31.7742718,4.32631579 31.7348301,4.40526316 31.6796117,4.51578947 C31.6086165,4.65 31.5770631,4.68947368 31.5691748,4.68947368 C31.529733,4.72894737 31.4745146,4.78421053 31.3956311,4.86315789 C31.3404126,4.91842105 31.2930825,4.95789474 31.2536408,4.97368421 C31.190534,4.99736842 31.1195388,5.02105263 31.032767,5.04473684 C30.9538835,5.06842105 30.875,5.07631579 30.7882282,5.07631579 L30.4253641,5.07631579 L30.4253641,0.236842105 C30.4253641,0.134210526 30.3464806,0.0552631579 30.243932,0.0552631579 L28.0194175,0.0552631579 C27.9168689,0.0552631579 27.8379854,0.134210526 27.8379854,0.236842105 L27.8379854,12.7026316 C27.8379854,12.8052632 27.9168689,12.8842105 28.0194175,12.8842105 L30.2281553,12.8842105 C30.3307039,12.8842105 30.4095874,12.8052632 30.4095874,12.7026316 L30.4095874,7.65 L31.0012136,7.65 L34.2117718,12.7973684 C34.2433252,12.8526316 34.2985437,12.8842105 34.3616505,12.8842105 L37.0910194,12.8842105 C37.1541262,12.8842105 37.217233,12.8447368 37.2487864,12.7894737 C37.2803398,12.7342105 37.2803398,12.6631579 37.2408981,12.6078947 L33.3046117,6.55263158 Z M35.9487925,0.205263158 C35.9587925,0.205263158 35.9687925,0.205263158 35.9787925,0.205263158 C35.9587925,0.205263158 35.9487925,0.205263158 35.9487925,0.205263158 C35.9387925,0.205263158 35.9387925,0.205263158 35.9487925,0.205263158 Z" id="Shape"></path>
                <path d="M45.7997573,0.0552631579 L43.5910194,0.0552631579 C43.5121359,0.0552631579 43.4490291,0.102631579 43.4174757,0.181578947 L42.4787621,3.03157895 C42.4787621,3.03157895 42.4787621,3.03947368 42.4787621,3.03947368 C42.3998786,3.31578947 42.25,3.81315789 42.0212379,4.52368421 C41.8950243,4.91842105 41.7845874,5.27368421 41.6978155,5.57368421 L40.940534,3.04736842 L40.0728155,0.197368421 C40.0491505,0.118421053 39.9781553,0.0710526316 39.8992718,0.0710526316 L37.690534,0.0710526316 C37.6353155,0.0710526316 37.5800971,0.0947368421 37.5485437,0.142105263 C37.5169903,0.189473684 37.5091019,0.244736842 37.5248786,0.3 L40.3489078,9 L40.0570388,10.0263158 C39.9781553,10.3105263 39.8125,10.4605263 39.5364078,10.4921053 C39.5206311,10.4921053 39.496966,10.4921053 39.473301,10.4921053 C39.2997573,10.4921053 39.023665,10.4526316 38.6450243,10.3657895 C38.6292476,10.3657895 38.6213592,10.3578947 38.6055825,10.3578947 C38.5740291,10.3578947 38.5345874,10.3657895 38.5109223,10.3894737 C38.4714806,10.4131579 38.4399272,10.4526316 38.4320388,10.5 L38.0218447,12.3947368 C38.006068,12.4815789 38.0533981,12.5763158 38.1401699,12.6 C38.6765777,12.7736842 39.1735437,12.8842105 39.6152913,12.9236842 C39.7257282,12.9315789 39.836165,12.9394737 39.9387136,12.9394737 C40.2700243,12.9394737 40.5776699,12.8921053 40.8695388,12.8052632 C41.2639563,12.6789474 41.6110437,12.4421053 41.9029126,12.1026316 C42.1868932,11.7710526 42.407767,11.3289474 42.5734223,10.7921053 L45.9575243,0.292105263 C45.9654126,0.276315789 45.9654126,0.252631579 45.9654126,0.228947368 C45.9811893,0.134210526 45.8944175,0.0552631579 45.7997573,0.0552631579 Z M39.9466019,12.7736842 C39.9150485,12.7736842 39.8834951,12.7736842 39.8440534,12.7736842 C39.8834951,12.7736842 39.9150485,12.7736842 39.9466019,12.7736842 C39.9466019,12.7736842 39.9466019,12.7736842 39.9466019,12.7736842 Z" id="Shape"></path>
                <path d="M53.4514563,1.01052632 C52.7257282,0.402631579 51.5740291,0.0868421053 50.0436893,0.0868421053 L46.9514563,0.0868421053 C46.8489078,0.0868421053 46.7700243,0.165789474 46.7700243,0.268421053 L46.7700243,12.7026316 C46.7700243,12.8052632 46.8489078,12.8842105 46.9514563,12.8842105 L49.1759709,12.8842105 C49.2785194,12.8842105 49.3574029,12.8052632 49.3574029,12.7026316 L49.3574029,9.07105263 L50.0279126,9.07105263 C51.5345874,9.07105263 52.6783981,8.74736842 53.4277913,8.1 C54.1850728,7.45263158 54.5716019,6.45 54.5716019,5.12368421 L54.5716019,3.97894737 C54.5637136,2.62894737 54.1929612,1.62631579 53.4514563,1.01052632 Z M52,5.01315789 C52,5.56578947 51.8580097,5.96052632 51.5819175,6.19736842 C51.2979369,6.44210526 50.7694175,6.56052632 50.0279126,6.56052632 L49.3337379,6.56052632 L49.3337379,2.47894737 L50.059466,2.47894737 C50.5958738,2.47894737 51.0139563,2.54210526 51.3058252,2.67631579 C51.5819175,2.79473684 51.7554612,2.96052632 51.8501214,3.16578947 C51.9526699,3.38684211 52,3.70263158 52,4.09736842 L52,5.01315789 Z" id="Shape"></path>
                <path d="M62.4362864,4.87105263 C61.6868932,4.23157895 60.5430825,3.9 59.0442961,3.9 L58.3580097,3.9 L58.3580097,0.236842105 C58.3580097,0.134210526 58.2791262,0.0552631579 58.1765777,0.0552631579 L55.9520631,0.0552631579 C55.8495146,0.0552631579 55.7706311,0.134210526 55.7706311,0.236842105 L55.7706311,12.7026316 C55.7706311,12.8052632 55.8495146,12.8842105 55.9520631,12.8842105 L59.0521845,12.8842105 C60.5825243,12.8842105 61.726335,12.5763158 62.4520631,11.9605263 C63.1856796,11.3368421 63.5643204,10.3421053 63.5643204,8.98421053 L63.5643204,7.84736842 C63.5800971,6.52105263 63.193568,5.51842105 62.4362864,4.87105263 Z M61.0163835,8.86578947 C61.0163835,9.16578947 60.9927184,9.41052632 60.9375,9.60789474 C60.8901699,9.78947368 60.7955097,9.95526316 60.6692961,10.1052632 C60.5430825,10.2473684 60.3537621,10.35 60.1092233,10.4131579 C59.8489078,10.4842105 59.5097087,10.5236842 59.0995146,10.5236842 L58.3580097,10.5236842 L58.3580097,6.33157895 L59.0679612,6.33157895 C59.7936893,6.33157895 60.306432,6.46578947 60.598301,6.72631579 C60.8822816,6.98684211 61.0242718,7.39736842 61.0242718,7.95789474 L61.0242718,8.86578947 L61.0163835,8.86578947 Z" id="Shape"></path>
                <path d="M72.3677184,10.5078947 L67.3743932,10.5078947 L67.3743932,7.58684211 L71.4132282,7.58684211 C71.5157767,7.58684211 71.5946602,7.50789474 71.5946602,7.40526316 L71.5946602,5.4 C71.5946602,5.29736842 71.5157767,5.21842105 71.4132282,5.21842105 L67.3743932,5.21842105 L67.3743932,2.38421053 L72.1468447,2.38421053 C72.2493932,2.38421053 72.3282767,2.30526316 72.3282767,2.20263158 L72.3282767,0.260526316 C72.3282767,0.157894737 72.2493932,0.0789473684 72.1468447,0.0789473684 L64.9921117,0.0789473684 C64.8895631,0.0789473684 64.8106796,0.157894737 64.8106796,0.260526316 L64.8106796,12.7105263 C64.8106796,12.8131579 64.8895631,12.8921053 64.9921117,12.8921053 L72.3677184,12.8921053 C72.470267,12.8921053 72.5491505,12.8131579 72.5491505,12.7105263 L72.5491505,10.6736842 C72.5491505,10.5868421 72.470267,10.5078947 72.3677184,10.5078947 Z" id="Shape"></path>
                <path d="M80.595267,1.01052632 C79.8695388,0.402631579 78.7178398,0.0868421053 77.1875,0.0868421053 L74.095267,0.0868421053 C73.9927184,0.0868421053 73.913835,0.165789474 73.913835,0.268421053 L73.913835,12.7026316 C73.913835,12.8052632 73.9927184,12.8842105 74.095267,12.8842105 L76.3197816,12.8842105 C76.4223301,12.8842105 76.5012136,12.8052632 76.5012136,12.7026316 L76.5012136,9.07105263 L77.1717233,9.07105263 C78.6783981,9.07105263 79.8222087,8.74736842 80.5716019,8.1 C81.3288835,7.45263158 81.7154126,6.45 81.7154126,5.12368421 L81.7154126,3.97894737 C81.7075243,2.62894737 81.3367718,1.62631579 80.595267,1.01052632 Z M79.1438107,5.01315789 C79.1438107,5.56578947 79.0018204,5.96052632 78.7257282,6.19736842 C78.4417476,6.44210526 77.9132282,6.56052632 77.1717233,6.56052632 L76.4775485,6.56052632 L76.4775485,2.47894737 L77.2032767,2.47894737 C77.7396845,2.47894737 78.157767,2.54210526 78.4496359,2.67631579 C78.7257282,2.79473684 78.8992718,2.96052632 78.993932,3.16578947 C79.0964806,3.38684211 79.1438107,3.70263158 79.1438107,4.09736842 L79.1438107,5.01315789 Z" id="Shape"></path>
            </g>
        </g>
    </g>
</svg>