<?xml version="1.0" encoding="UTF-8"?>
<svg width="91px" height="54px" viewBox="0 0 91 54" version="1.1" xmlns="http://www.w3.org/2000/svg" xmlns:xlink="http://www.w3.org/1999/xlink">
    <!-- Generator: Sketch 51.2 (57519) - http://www.bohemiancoding.com/sketch -->
    <title>delivery-from-airport</title>
    <desc>Created with Sketch.</desc>
    <defs></defs>
    <g id="Page-1" stroke="none" stroke-width="1" fill="none" fill-rule="evenodd">
        <g id="delivery-from-airport" transform="translate(2.000000, 2.000000)" fill-rule="nonzero">
            <path d="M9.5866,27.5249 C9.0459,27.2126 8.6601,26.6632 8.5735,26.0325 L6.4243,11.3637 L2.3148,8.9905 C0.78725,8.1083 -0.11096,6.011 0.7767,4.4731 C1.66436,2.9353 3.9294,2.6647 5.4569,3.5468 L9.5259,5.8966 L23.3416,0.44727 C23.9231,0.22055 24.586,0.25863 25.1268,0.57089 C26.4515,1.3359 26.5155,3.2237 25.2564,4.0934 L16.6364,10.0028 L23.2198,13.8046 L27.1229,12.5384 C27.4649,12.4456 27.8273,12.4734 28.1247,12.6452 C28.733,12.9965 28.9369,13.7674 28.5913,14.3662 L23.3282,23.4844 C22.9825,24.0832 22.2131,24.2921 21.6183,23.9486 L21.4831,23.8705 C21.1857,23.6988 20.9725,23.4124 20.8954,23.0775 L19.9965,19.2015 L13.5078,15.4543 L12.6878,25.8681 C12.5778,27.4014 10.9114,28.2899 9.5866,27.5249 Z" id="Shape" stroke="#000000" stroke-width="3" fill="#FFDC00"></path>
            <path d="M34.2639,38.8571 C35.1401,38.6381 36.0163,39.2952 36.2354,40.1714 C36.6735,42.4714 38.7544,44.2238 41.1639,44.2238 L41.9306,44.2238 L42.0401,43.8952 C42.9163,41.4857 45.2163,39.8428 47.8449,39.8428 C50.4735,39.8428 52.7735,41.4857 53.6496,43.8952 L53.7592,44.2238 L68.3258,44.2238 L68.4354,43.8952 C69.3116,41.4857 71.6116,39.8428 74.2401,39.8428 C76.8687,39.8428 79.1687,41.4857 80.0449,43.8952 L80.1544,44.2238 L80.5925,44.2238 C83.3306,44.1143 85.4116,41.9238 85.4116,39.1857 L85.4116,26.5904 L53.102,26.5904 L49.7068,29.9857 C48.0639,31.6285 45.983,32.5047 43.683,32.5047 L34.5925,32.5047 C33.7163,32.5047 32.9496,31.7381 32.9496,30.8619 L32.9496,30.0952 C32.9496,28.0143 33.3877,26.0428 34.1544,24.1809 L39.302,11.2571 C40.6163,8.0809 43.5735,6 46.9687,6 L80.3735,6 C82.5639,6 84.7544,6.8762 86.2877,8.4095 C87.8211,10.0524 88.6973,12.1333 88.6973,14.3238 L88.6973,39.1857 C88.6973,43.6762 84.9735,47.4 80.483,47.5095 L80.1544,47.5095 L80.0449,47.8381 C79.1687,50.2476 76.8687,51.8904 74.2401,51.8904 C71.6116,51.8904 69.3116,50.2476 68.4354,47.8381 L68.3258,47.5095 L53.7592,47.5095 L53.6496,47.8381 C52.7735,50.2476 50.4735,51.8904 47.8449,51.8904 C45.2163,51.8904 42.9163,50.2476 42.0401,47.8381 L41.9306,47.5095 L41.1639,47.5095 C37.2211,47.5095 33.7163,44.6619 32.9496,40.8285 C32.8401,39.9524 33.3877,39.0762 34.2639,38.8571 Z M50.6925,9.3952 L47.0782,9.3952 C44.9973,9.3952 43.2449,10.6 42.4782,12.4619 L37.2211,25.3857 C36.783,26.3714 36.5639,27.3571 36.4544,28.4524 L36.3449,29.1095 L43.683,29.1095 C45.1068,29.1095 46.4211,28.5619 47.4068,27.5762 L50.802,24.1809 L50.802,9.3952 L50.6925,9.3952 Z M61.8639,9.3952 L53.9782,9.3952 L53.9782,23.3047 L61.8639,23.3047 L61.8639,9.3952 Z M73.583,9.3952 L65.2592,9.3952 L65.2592,23.3047 L73.583,23.3047 L73.583,9.3952 Z M85.302,14.3238 C85.302,13.0095 84.7544,11.6952 83.8782,10.819 C82.8925,9.8333 81.6877,9.3952 80.3735,9.3952 L76.9782,9.3952 L76.9782,23.3047 L85.4116,23.3047 L85.4116,14.3238 L85.302,14.3238 Z M74.2401,48.6047 C75.7735,48.6047 76.9782,47.4 76.9782,45.8666 C76.9782,44.3333 75.7735,43.1285 74.2401,43.1285 C72.7068,43.1285 71.502,44.3333 71.502,45.8666 C71.502,47.4 72.7068,48.6047 74.2401,48.6047 Z M47.8449,48.6047 C49.3782,48.6047 50.583,47.4 50.583,45.8666 C50.583,44.3333 49.3782,43.1285 47.8449,43.1285 C46.3116,43.1285 45.1068,44.3333 45.1068,45.8666 C45.1068,47.4 46.3116,48.6047 47.8449,48.6047 Z" id="Shape" fill="#000000"></path>
        </g>
    </g>
</svg>