<?xml version="1.0" encoding="UTF-8"?>
<svg viewBox="0 0 318 316" version="1.1" xmlns="http://www.w3.org/2000/svg" xmlns:xlink="http://www.w3.org/1999/xlink">
    <!-- Generator: Sketch 51.2 (57519) - http://www.bohemiancoding.com/sketch -->
    <title>full-screen</title>
    <desc>Created with Sketch.</desc>
    <defs></defs>
    <g id="Page-1" stroke="none" stroke-width="1"  fill-rule="evenodd">
        <g id="full-screen"  fill-rule="nonzero">
            <path d="M309.715,0.107 L238.492,0.107 C234.349,0.107 230.992,3.465 230.992,7.607 L230.992,27.607 C230.992,31.749 234.349,35.107 238.492,35.107 L257.465,35.107 L200.336,92.234 C198.93,93.64 198.139,95.548 198.139,97.537 C198.139,99.526 198.93,101.434 200.336,102.84 L214.479,116.983 C215.944,118.448 217.863,119.18 219.783,119.18 C221.702,119.18 223.622,118.447 225.087,116.983 L282.216,59.856 L282.216,78.83 C282.216,82.972 285.573,86.33 289.716,86.33 L309.716,86.33 C313.859,86.33 317.216,82.972 317.216,78.83 L317.216,7.607 C317.215,3.465 313.857,0.107 309.715,0.107 Z" id="Shape"></path>
            <path d="M59.75,35.107 L78.723,35.107 C82.866,35.107 86.223,31.749 86.223,27.607 L86.223,7.607 C86.223,3.465 82.866,0.107 78.723,0.107 L7.5,0.107 C3.357,0.107 0,3.465 0,7.607 L0,78.83 C0,82.972 3.357,86.33 7.5,86.33 L27.5,86.33 C31.643,86.33 35,82.972 35,78.83 L35,59.857 L92.125,116.983 C93.59,118.447 95.51,119.18 97.43,119.18 C99.349,119.18 101.269,118.447 102.735,116.983 L116.877,102.84 C118.283,101.434 119.073,99.526 119.073,97.537 C119.073,95.548 118.283,93.64 116.877,92.234 L59.75,35.107 Z" id="Shape"></path>
            <path d="M102.734,198.233 C99.804,195.304 95.056,195.304 92.125,198.233 L35,255.358 L35,236.384 C35,232.242 31.643,228.884 27.5,228.884 L7.5,228.884 C3.357,228.884 0,232.242 0,236.384 L0,307.607 C0,311.749 3.357,315.107 7.5,315.107 L78.723,315.107 C82.866,315.107 86.223,311.749 86.223,307.607 L86.223,287.607 C86.223,283.465 82.866,280.107 78.723,280.107 L59.75,280.107 L116.876,222.982 C118.282,221.576 119.072,219.668 119.072,217.679 C119.072,215.69 118.282,213.782 116.876,212.376 L102.734,198.233 Z" id="Shape"></path>
            <path d="M309.715,228.885 L289.715,228.885 C285.572,228.885 282.215,232.243 282.215,236.385 L282.215,255.361 L225.085,198.234 C222.156,195.305 217.408,195.305 214.479,198.234 L200.336,212.377 C198.93,213.783 198.139,215.691 198.139,217.68 C198.139,219.669 198.93,221.577 200.337,222.983 L257.465,280.108 L238.492,280.108 C234.349,280.108 230.992,283.466 230.992,287.608 L230.992,307.608 C230.992,311.75 234.349,315.108 238.492,315.108 L309.715,315.108 C313.858,315.108 317.215,311.75 317.215,307.608 L317.215,236.385 C317.215,232.243 313.857,228.885 309.715,228.885 Z" id="Shape"></path>
        </g>
    </g>
</svg>
