<svg width="42" height="42" viewBox="0 0 42 42" fill="none" xmlns="http://www.w3.org/2000/svg">
<path d="M38.1527 19.5316H37.1602C36.5203 16.5457 34.166 14.1914 31.1801 13.5516V12.5508C31.1801 11.6484 30.4418 10.9102 29.5395 10.9102C28.6371 10.9102 27.8988 11.6484 27.8988 12.5508V13.5434C24.9129 14.1832 22.5586 16.5375 21.9188 19.5234H20.918C20.0156 19.5234 19.2773 20.2617 19.2773 21.1641C19.2773 22.0664 20.0156 22.8047 20.918 22.8047H21.9105C22.5504 25.7906 24.9047 28.1449 27.8906 28.7848V29.7773C27.8906 30.6797 28.6289 31.418 29.5312 31.418C30.4336 31.418 31.1719 30.6797 31.1719 29.7773V28.793C34.1578 28.1531 36.5121 25.7988 37.152 22.8129H38.1445C39.0469 22.8129 39.7852 22.0746 39.7852 21.1723C39.7852 20.2699 39.0633 19.5316 38.1527 19.5316ZM33.7395 22.8047C33.2801 23.9859 32.3367 24.9211 31.1555 25.3805C31.0488 24.5766 30.3598 23.9613 29.5312 23.9613C28.7027 23.9613 28.0137 24.5766 27.907 25.3805C26.7258 24.9211 25.7824 23.9859 25.323 22.8047C26.1598 22.7309 26.8242 22.0254 26.8242 21.1723C26.8242 20.3191 26.168 19.6137 25.323 19.5398C25.7824 18.3668 26.7176 17.4234 27.8906 16.9723C27.9645 17.809 28.6699 18.4652 29.523 18.4652C30.3844 18.4652 31.0816 17.809 31.1555 16.9723C32.3285 17.4316 33.2719 18.3668 33.723 19.5398C32.8863 19.6137 32.2219 20.3191 32.2219 21.1723C32.2219 22.0254 32.9027 22.7309 33.7395 22.8047ZM18.293 5.82422H15.0117C14.1094 5.82422 13.3711 6.5543 13.3711 7.46484C13.3711 8.36719 14.1094 9.10547 15.0117 9.10547H18.293C19.1953 9.10547 19.9336 8.36719 19.9336 7.46484C19.9336 6.5625 19.2035 5.82422 18.293 5.82422ZM16.6523 32.9027C15.75 32.9027 15.0117 33.641 15.0117 34.5434C15.0117 35.4539 15.75 36.184 16.6523 36.184C17.5629 36.184 18.293 35.4457 18.293 34.5434C18.293 33.6328 17.5629 32.9027 16.6523 32.9027ZM29.5395 33.7969C28.6371 33.7969 27.8988 34.5352 27.8988 35.4375C27.8988 37.2504 26.4223 38.727 24.6176 38.727H8.69531C6.89062 38.727 5.41406 37.2422 5.41406 35.4375V6.5543C5.41406 4.74141 6.89062 3.27305 8.69531 3.27305H24.6094C26.4141 3.27305 27.8906 4.74961 27.8906 6.5543C27.8906 7.45664 28.6289 8.19492 29.5312 8.19492C30.4336 8.19492 31.1719 7.45664 31.1719 6.5543C31.1719 2.93672 28.227 0 24.6094 0H8.69531C5.07773 0 2.13281 2.93672 2.13281 6.5543V35.4375C2.13281 39.0551 5.07773 42 8.69531 42H24.6094C28.227 42 31.1719 39.0551 31.1719 35.4375C31.1801 34.527 30.4418 33.7969 29.5395 33.7969Z" fill="black"/>
<path d="M33.7401 22.8043C33.2808 23.9856 32.3374 24.9208 31.1562 25.3801C31.0495 24.5762 30.3604 23.961 29.5319 23.961C28.7034 23.961 28.0144 24.5762 27.9077 25.3801C26.7265 24.9208 25.7831 23.9856 25.3237 22.8043C26.1604 22.7305 26.8249 22.025 26.8249 21.1719C26.8249 20.3188 26.1687 19.6133 25.3237 19.5395C25.7831 18.3665 26.7183 17.4231 27.8913 16.9719C27.9651 17.8086 28.6706 18.4649 29.5237 18.4649C30.3851 18.4649 31.0823 17.8086 31.1562 16.9719C32.3292 17.4313 33.2726 18.3665 33.7237 19.5395C32.887 19.6133 32.2226 20.3188 32.2226 21.1719C32.2226 22.025 32.9034 22.7305 33.7401 22.8043Z" fill="#FFDC00"/>
</svg>
