<svg width="18" height="18" viewBox="0 0 18 18" xmlns="http://www.w3.org/2000/svg">
<path d="M17.2968 14.4844C17.6852 14.4844 18 14.1696 18 13.7812V13.0471C18 11.3777 16.6416 10.0195 14.9721 10.0195H14.3633C14.4415 9.79939 14.4843 9.56291 14.4843 9.31641V3.55078C14.4843 3.16241 14.1696 2.84766 13.7812 2.84766H11.6718V2.10938C11.6718 0.946198 10.7255 0 9.56246 0C8.39928 0 7.45309 0.946198 7.45309 2.10938V2.84766H5.34371C4.95534 2.84766 4.64059 3.16241 4.64059 3.55078V9.31641C4.64059 9.50331 4.66531 9.68459 4.71117 9.85721L3.57697 8.82079C3.17597 8.43228 2.64712 8.22093 2.08956 8.22656C1.5261 8.23192 0.998481 8.45631 0.603797 8.85841C0.209113 9.26065 -0.00525786 9.79239 9.79831e-05 10.3557C0.00531651 10.9192 0.229712 11.4468 0.631949 11.8415C0.636756 11.8463 0.6417 11.851 0.646643 11.8555L4.22764 15.171C5.16079 16.0731 6.24404 16.7775 7.44718 17.2645C8.65293 17.7525 9.92377 18 11.2246 18H17.2968C17.6852 18 18 17.6852 18 17.2969C18 16.9085 17.6852 16.5938 17.2968 16.5938H11.2246C8.96384 16.5938 6.82426 15.7276 5.19993 14.1551C5.19622 14.1515 5.19237 14.1479 5.18853 14.1443L1.61083 10.8318C1.48051 10.701 1.408 10.5275 1.40621 10.3425C1.40443 10.1548 1.47597 9.97751 1.60754 9.84348C1.7391 9.70944 1.91501 9.6346 2.10274 9.63281C2.28992 9.63171 2.46776 9.70258 2.6018 9.83414C2.60784 9.84004 2.61388 9.84567 2.62006 9.8513L6.67855 13.5599C7.06417 13.9767 7.61527 14.2383 8.22652 14.2383H11.7421C12.1305 14.2383 12.4453 13.9235 12.4453 13.5352C12.4453 13.1468 12.1305 12.832 11.7421 12.832H8.22652C8.08137 12.832 7.94637 12.7878 7.83417 12.7121C7.83005 12.708 7.82621 12.7036 7.82195 12.6996L7.67927 12.5693C7.5819 12.4486 7.5234 12.2956 7.5234 12.1289C7.5234 11.7412 7.83884 11.4258 8.22652 11.4258H14.9721C15.8663 11.4258 16.5937 12.1531 16.5937 13.0471V13.7812C16.5937 14.1696 16.9085 14.4844 17.2968 14.4844ZM8.85934 2.10938C8.85934 1.72169 9.17478 1.40625 9.56246 1.40625C9.95014 1.40625 10.2656 1.72169 10.2656 2.10938V2.84766H8.85934V2.10938ZM8.22652 10.0195H6.74996C6.36228 10.0195 6.04684 9.70409 6.04684 9.31641V4.25391H7.45309V4.99219C7.45309 5.38055 7.76784 5.69531 8.15621 5.69531C8.54458 5.69531 8.85934 5.38055 8.85934 4.99219V4.25391H10.2656V4.99219C10.2656 5.38055 10.5803 5.69531 10.9687 5.69531C11.3571 5.69531 11.6718 5.38055 11.6718 4.99219V4.25391H13.0781V9.31641C13.0781 9.70409 12.7626 10.0195 12.375 10.0195H8.22652Z"/>
</svg>
