<svg width="17" height="17" viewBox="0 0 17 17" xmlns="http://www.w3.org/2000/svg">
<path d="M15.6719 13.6797C15.3051 13.6797 15.0078 13.977 15.0078 14.3438C15.0078 15.076 14.412 15.6719 13.6797 15.6719H10.791V13.6465C10.791 13.2797 10.4937 12.9824 10.127 12.9824H6.80664C6.43985 12.9824 6.14258 13.2797 6.14258 13.6465V15.6719H3.32031C2.58803 15.6719 1.99219 15.076 1.99219 14.3438V6.97266C1.99219 6.60587 1.69492 6.30859 1.32812 6.30859C0.961334 6.30859 0.664062 6.60587 0.664062 6.97266V14.3438C0.664062 15.8084 1.85561 17 3.32031 17H13.6797C15.1444 17 16.3359 15.8084 16.3359 14.3438C16.3359 13.977 16.0387 13.6797 15.6719 13.6797ZM7.4707 14.3105H9.46289V15.6719H7.4707V14.3105ZM15.0078 0H1.99219C0.893631 0 0 0.893631 0 1.99219V3.98438C0 4.35117 0.297272 4.64844 0.664062 4.64844H6.14258V6.64062C6.14258 7.00742 6.43985 7.30469 6.80664 7.30469H10.1602C10.5269 7.30469 10.8242 7.00742 10.8242 6.64062V4.64844H15.0078V10.9902C15.0078 11.357 15.3051 11.6543 15.6719 11.6543C16.0387 11.6543 16.3359 11.357 16.3359 10.9902V4.64844C16.7027 4.64844 17 4.35117 17 3.98438V1.99219C17 0.893631 16.1064 0 15.0078 0ZM1.32812 3.32031V1.99219C1.32812 1.62605 1.62605 1.32812 1.99219 1.32812H6.14258V3.32031H1.32812ZM9.49609 5.97656H7.4707V1.32812H9.49609V5.97656ZM10.8242 1.32812H15.0078C15.374 1.32812 15.6719 1.62605 15.6719 1.99219V3.32031H10.8242V1.32812Z"/>
</svg>
