<?xml version="1.0" encoding="UTF-8"?>
<svg width="129px" height="78px" viewBox="0 0 129 78" version="1.1" xmlns="http://www.w3.org/2000/svg" xmlns:xlink="http://www.w3.org/1999/xlink">
    <title>header-logo</title>
    <g id="Page-1" stroke="none" stroke-width="1" fill="none" fill-rule="evenodd">
        <g id="header-logo" transform="translate(0.000000, 0.200000)" fill-rule="nonzero">
            <path d="M127.9,30.8 L127.9,30.8 L127.9,30.8 L127.9,30.8 L123.2,8.1 C122.2,3.4 118.1,3.55271368e-15 113.3,3.55271368e-15 L23.1,3.55271368e-15 C17.5,3.55271368e-15 13,4.5 13,10 L13,13 L3.3,13 C1.5,13 0,14.5 0,16.3 C0,18.1 1.5,19.6 3.3,19.6 L13,19.6 L13,20.5 L6.5,20.5 C4.7,20.5 3.2,22 3.2,23.8 C3.2,25.6 4.7,27.1 6.5,27.1 L13,27.1 L13,28 L3.3,28 C1.5,28 0,29.5 0,31.3 C0,33.1 1.5,34.6 3.3,34.6 L13,34.6 L13,38.8 C13,44.3 17.5,48.8 23.1,48.8 L31.5,48.8 C32.1,50.3 33,51.6 34.3,52.7 C35.9,54 37.9,54.7 40,54.7 C42.1,54.7 44.1,54 45.7,52.7 C47,51.7 47.9,50.4 48.5,48.8 L93.1,48.8 C93.7,50.3 94.6,51.6 95.9,52.7 C97.5,54 99.5,54.7 101.6,54.7 C103.7,54.7 105.7,54 107.3,52.7 C108.6,51.7 109.5,50.4 110.1,48.8 L118,48.8 C123.6,48.8 128.1,44.3 128.1,38.7 L128.1,31.3 C128,31.1 128,30.9 127.9,30.8 Z" id="Path" fill="#FFDC00"></path>
            <path d="M122.9,31.2 C122.9,31.2 122.9,38.9 122.9,39 C122.9,41.6 120.8,43.7 118.2,43.7 C118.1,43.7 108.8,43.7 108.8,43.7 C108,40.5 105,38 101.5,38 C98,38 95,40.4 94.2,43.7 L47.2,43.7 C46.4,40.5 43.4,38 39.9,38 C36.4,38 33.4,40.4 32.6,43.7 L23,43.7 C23,43.7 23,43.7 23,43.7 C20.1,43.7 17.8,41.3 17.8,38.5 L17.8,10.2 C17.8,7.3 20.1,5 23,5 L105.6,5 L109.3,5.1 L113.3,5.1 C115.7,5.1 117.7,6.8 118.2,9.1 L122.9,31.2 Z" id="Path" fill="#FFFFFF"></path>
            <path d="M126.4,31 L121.7,8.4 C120.9,4.4 117.3,1.5 113.3,1.5 L23.1,1.5 C18.4,1.5 14.6,5.3 14.6,10 L14.6,38.8 C14.6,43.5 18.4,47.3 23.1,47.3 L32.6,47.3 C33.4,50.7 36.4,53.2 40,53.2 C43.6,53.2 46.6,50.7 47.3,47.3 L94.2,47.3 C95,50.7 98,53.2 101.6,53.2 C105.2,53.2 108.2,50.7 108.9,47.3 L117.9,47.3 C122.6,47.3 126.5,43.5 126.5,38.8 L126.5,31.4 C126.5,31.2 126.5,31.1 126.4,31 Z M113.4,5.1 C115.8,5.1 117.8,6.8 118.3,9.1 L122.5,29.6 L115.8,29.6 C115.1,29.6 114.5,29.1 114.3,28.4 L109.3,5.1 L113.4,5.1 Z M40,49.6 C38.4,49.6 37.1,48.7 36.4,47.3 C36.4,47.2 36.3,47.2 36.3,47.1 C36.3,47.1 36.3,47.1 36.3,47.1 C36.3,47 36.3,47 36.2,46.9 C36.2,46.9 36.2,46.9 36.2,46.9 C36.2,46.8 36.2,46.8 36.2,46.7 C36.2,46.7 36.2,46.7 36.2,46.7 C36.2,46.7 36.2,46.6 36.2,46.6 C36.2,46.6 36.2,46.6 36.2,46.5 C36.2,46.5 36.2,46.4 36.2,46.4 C36.2,46.4 36.2,46.4 36.2,46.3 C36.2,46.3 36.2,46.2 36.2,46.2 C36.2,46.2 36.2,46.2 36.2,46.1 C36.2,46 36.2,46 36.2,45.9 C36.2,45.9 36.2,45.9 36.2,45.8 C36.2,45.7 36.2,45.7 36.2,45.6 C36.2,45.5 36.2,45.4 36.2,45.4 C36.2,45.4 36.2,45.4 36.2,45.3 C36.2,45.2 36.2,45.2 36.2,45.1 C36.2,45.1 36.2,45.1 36.2,45 C36.2,44.9 36.2,44.9 36.2,44.8 C36.2,44.8 36.2,44.8 36.2,44.7 C36.2,44.6 36.2,44.5 36.3,44.5 C36.3,44.5 36.3,44.5 36.3,44.5 C36.3,44.4 36.3,44.4 36.4,44.3 C36.4,44.3 36.4,44.3 36.4,44.3 C36.4,44.2 36.4,44.2 36.5,44.1 C36.5,44.1 36.5,44.1 36.5,44.1 C36.5,44 36.6,44 36.6,43.9 C36.6,43.9 36.6,43.9 36.6,43.9 C36.6,43.8 36.7,43.8 36.7,43.7 C37.4,42.5 38.7,41.6 40.2,41.6 C41.7,41.6 43,42.4 43.7,43.7 L43.7,43.7 C43.7,43.8 43.8,43.8 43.8,43.9 C43.8,43.9 43.8,43.9 43.8,43.9 C43.8,44 43.9,44 43.9,44.1 C43.9,44.1 43.9,44.1 43.9,44.1 C43.9,44.2 43.9,44.2 44,44.3 C44,44.3 44,44.3 44,44.3 C44,44.4 44,44.4 44.1,44.5 C44.1,44.5 44.1,44.5 44.1,44.5 C44.1,44.6 44.1,44.7 44.2,44.7 C44.2,44.7 44.2,44.7 44.2,44.8 C44.2,44.9 44.2,44.9 44.2,45 C44.2,45 44.2,45 44.2,45.1 C44.2,45.2 44.2,45.2 44.2,45.3 C44.2,45.3 44.2,45.3 44.2,45.4 C44.2,45.5 44.2,45.6 44.2,45.6 C44.2,45.6 44.2,45.6 44.2,45.6 C44.2,45.6 44.2,45.6 44.2,45.6 C44.2,45.7 44.2,45.7 44.2,45.8 C44.2,45.8 44.2,45.8 44.2,45.9 C44.2,45.9 44.2,46 44.2,46 C44.2,46 44.2,46 44.2,46.1 C44.2,46.1 44.2,46.2 44.2,46.2 C44.2,46.2 44.2,46.2 44.2,46.3 C44.2,46.3 44.2,46.4 44.2,46.4 C44.2,46.4 44.2,46.4 44.2,46.5 C44.2,46.6 44.2,46.6 44.2,46.6 C44.2,46.6 44.2,46.6 44.2,46.6 C44.2,46.7 44.2,46.7 44.2,46.8 C44.2,46.8 44.2,46.8 44.2,46.8 C44.2,46.9 44.2,46.9 44.1,47 C44.1,47 44.1,47 44.1,47 C44.1,47.1 44,47.1 44,47.2 L44,47.2 C42.9,48.7 41.5,49.6 40,49.6 Z M101.5,49.6 C99.9,49.6 98.5,48.7 97.9,47.3 C97.9,47.2 97.8,47.2 97.8,47.1 C97.8,47.1 97.8,47.1 97.8,47.1 C97.8,47 97.8,47 97.7,46.9 C97.7,46.9 97.7,46.9 97.7,46.9 C97.7,46.8 97.7,46.8 97.7,46.7 C97.7,46.7 97.7,46.7 97.7,46.7 C97.7,46.7 97.7,46.6 97.7,46.6 C97.7,46.6 97.7,46.6 97.7,46.5 C97.7,46.5 97.7,46.4 97.7,46.4 C97.7,46.4 97.7,46.4 97.7,46.3 C97.7,46.3 97.7,46.2 97.7,46.2 C97.7,46.2 97.7,46.2 97.7,46.1 C97.7,46 97.7,46 97.7,45.9 C97.7,45.9 97.7,45.9 97.7,45.8 C97.7,45.7 97.7,45.7 97.7,45.6 C97.7,45.5 97.7,45.4 97.7,45.4 C97.7,45.4 97.7,45.4 97.7,45.3 C97.7,45.2 97.7,45.2 97.7,45.1 C97.7,45.1 97.7,45.1 97.7,45 C97.7,44.9 97.7,44.9 97.7,44.8 C97.7,44.8 97.7,44.8 97.7,44.7 C97.7,44.6 97.7,44.5 97.8,44.5 C97.8,44.5 97.8,44.5 97.8,44.5 C97.8,44.4 97.8,44.4 97.9,44.3 C97.9,44.3 97.9,44.3 97.9,44.3 C97.9,44.2 97.9,44.2 98,44.1 C98,44.1 98,44.1 98,44.1 C98,44 98.1,44 98.1,43.9 C98.1,43.9 98.1,43.9 98.1,43.9 C98.1,43.8 98.2,43.8 98.2,43.7 L98.2,43.7 C98.9,42.5 100.2,41.6 101.7,41.6 C103.2,41.6 104.5,42.4 105.2,43.7 L105.2,43.7 C105.2,43.8 105.3,43.8 105.3,43.9 C105.3,43.9 105.3,43.9 105.3,43.9 C105.3,44 105.4,44 105.4,44.1 C105.4,44.1 105.4,44.1 105.4,44.1 C105.4,44.2 105.4,44.2 105.5,44.3 C105.5,44.3 105.5,44.3 105.5,44.3 C105.5,44.4 105.5,44.4 105.6,44.5 C105.6,44.5 105.6,44.5 105.6,44.5 C105.6,44.6 105.6,44.7 105.7,44.7 C105.7,44.7 105.7,44.7 105.7,44.8 C105.7,44.9 105.7,44.9 105.7,45 C105.7,45 105.7,45 105.7,45.1 C105.7,45.2 105.7,45.2 105.7,45.3 C105.7,45.3 105.7,45.3 105.7,45.4 C105.7,45.5 105.7,45.6 105.7,45.6 C105.7,45.7 105.7,45.7 105.7,45.8 C105.7,45.8 105.7,45.8 105.7,45.9 C105.7,46 105.7,46 105.7,46.1 C105.7,46.1 105.7,46.1 105.7,46.2 C105.7,46.2 105.7,46.3 105.7,46.3 C105.7,46.3 105.7,46.3 105.7,46.4 C105.7,46.4 105.7,46.5 105.7,46.5 C105.7,46.5 105.7,46.5 105.7,46.6 C105.7,46.7 105.7,46.7 105.7,46.7 C105.7,46.7 105.7,46.7 105.7,46.7 C105.7,46.8 105.7,46.8 105.7,46.9 C105.7,46.9 105.7,46.9 105.7,46.9 C105.7,47 105.7,47 105.6,47.1 C105.6,47.1 105.6,47.1 105.6,47.1 C105.6,47.2 105.5,47.2 105.5,47.3 L105.5,47.3 C104.5,48.7 103.1,49.6 101.5,49.6 Z M122.9,39 C122.9,41.6 120.8,43.7 118.2,43.7 C118.1,43.7 108.8,43.7 108.8,43.7 C108,40.5 105,38 101.5,38 C98,38 95,40.4 94.2,43.7 L47.2,43.7 C46.4,40.5 43.4,38 39.9,38 C36.4,38 33.4,40.4 32.6,43.7 L23,43.7 C23,43.7 23,43.7 23,43.7 C20.1,43.7 17.8,41.3 17.8,38.5 L17.8,10.2 C17.8,7.3 20.1,5 23,5 L105.6,5 L110.7,29.1 C111.2,31.4 113.3,33.1 115.7,33.1 L122.8,33.1 C122.9,33.1 122.9,39 122.9,39 Z" id="Shape" fill="#000000"></path>
            <g id="Group" transform="translate(1.500000, 14.475000)" fill="#000000">
                <g transform="translate(0.000000, 0.025000)" id="Path">
                    <path d="M22.1,18.6 L1.8,18.6 C0.8,18.6 -2.22044605e-16,17.8 -2.22044605e-16,16.8 L-2.22044605e-16,16.8 C-2.22044605e-16,15.8 0.8,15 1.8,15 L22.1,15 C23.1,15 23.9,15.8 23.9,16.8 L23.9,16.8 C23.9,17.8 23.1,18.6 22.1,18.6 Z"></path>
                    <path d="M22.1,3.6 L1.8,3.6 C0.8,3.6 -2.22044605e-16,2.8 -2.22044605e-16,1.8 L-2.22044605e-16,1.8 C-2.22044605e-16,0.8 0.8,-1.77635684e-15 1.8,-1.77635684e-15 L22.1,-1.77635684e-15 C23.1,-1.77635684e-15 23.9,0.8 23.9,1.8 L23.9,1.8 C23.9,2.8 23.1,3.6 22.1,3.6 Z"></path>
                    <path d="M25.3,11.1 L5,11.1 C4,11.1 3.2,10.3 3.2,9.3 L3.2,9.3 C3.2,8.3 4,7.5 5,7.5 L25.3,7.5 C26.3,7.5 27.1,8.3 27.1,9.3 L27.1,9.3 C27.1,10.3 26.3,11.1 25.3,11.1 Z"></path>
                </g>
                <g transform="translate(37.500000, 0.000000)">
                    <g>
                        <g transform="translate(0.075000, 0.000000)">
                            <rect id="Rectangle" transform="translate(7.062900, 10.730500) rotate(90.000000) translate(-7.062900, -10.730500) " x="-0.0870999775" y="8.93050001" width="14.3" height="3.6"></rect>
                            <g id="Path">
                                <path d="M11.225,8.425 L5.825,3.025 C5.125,2.325 5.125,1.225 5.825,0.525 L5.825,0.525 C6.525,-0.175 7.625,-0.175 8.325,0.525 L13.725,5.925 C14.425,6.625 14.425,7.725 13.725,8.425 L13.725,8.425 C13.025,9.125 11.925,9.125 11.225,8.425 Z"></path>
                                <path d="M3.025,8.425 L8.425,3.025 C9.125,2.325 9.125,1.225 8.425,0.525 L8.425,0.525 C7.725,-0.175 6.625,-0.175 5.925,0.525 L0.525,5.925 C-0.175,6.625 -0.175,7.725 0.525,8.425 L0.525,8.425 C1.125,9.125 2.325,9.125 3.025,8.425 Z"></path>
                            </g>
                        </g>
                        <path d="M12.6,18.625 L1.8,18.625 C0.8,18.625 0,17.825 0,16.825 L0,16.825 C0,15.825 0.8,15.025 1.8,15.025 L12.5,15.025 C13.5,15.025 14.3,15.825 14.3,16.825 L14.3,16.825 C14.4,17.825 13.6,18.625 12.6,18.625 Z" id="Path"></path>
                    </g>
                    <g transform="translate(21.600000, 0.025000)">
                        <rect id="Rectangle" transform="translate(7.004700, 14.091800) rotate(90.000000) translate(-7.004700, -14.091800) " x="3.25470006" y="12.2918" width="7.5" height="3.6"></rect>
                        <path d="M12.6,18.6 L1.8,18.6 C0.8,18.6 7.10542736e-15,17.8 7.10542736e-15,16.8 L7.10542736e-15,16.8 C7.10542736e-15,15.8 0.8,15 1.8,15 L12.5,15 C13.5,15 14.3,15.8 14.3,16.8 L14.3,16.8 C14.4,17.8 13.6,18.6 12.6,18.6 Z" id="Path"></path>
                        <path d="M7,12.6 C3.8,12.6 1.2,10 1.2,6.8 L1.2,1.8 C1.2,0.8 2,-1.77635684e-15 3,-1.77635684e-15 L11.1,-1.77635684e-15 C12.1,-1.77635684e-15 12.9,0.8 12.9,1.8 L12.9,6.8 C12.9,10 10.2,12.6 7,12.6 Z M4.7,3.8 L4.7,6.7 C4.7,7.9 5.7,9 6.9,9.1 C8.2,9.1 9.3,8.1 9.3,6.8 L9.3,3.8 C9.3,3.6 9.2,3.5 9,3.5 L5,3.5 C4.9,3.5 4.7,3.6 4.7,3.8 Z" id="Shape"></path>
                    </g>
                    <g transform="translate(40.900000, 0.025000)">
                        <path d="M12.3,18.6 C9.8,18.6 7.7,16.5 7.7,14 L7.7,9.7 C7.7,8.7 8.5,7.9 9.5,7.9 C10.5,7.9 11.3,8.7 11.3,9.7 L11.3,14 C11.3,14.6 11.8,15.1 12.4,15.1 C13,15.1 13.5,14.6 13.5,14 C13.5,13 14.3,12.2 15.3,12.2 C16.3,12.2 17.1,13 17.1,14 C16.9,16.6 14.9,18.6 12.3,18.6 Z" id="Path"></path>
                        <path d="M9.5,-1.77635684e-15 C4.2,-1.77635684e-15 0,4.3 0,9.5 C0,9.5 0,9.5 0,9.5 C0,10.1 0.5,10.5 1,10.5 L18,10.5 C18.6,10.5 19,10 19,9.5 C19,9.5 19,9.5 19,9.5 C19,4.2 14.8,-1.77635684e-15 9.5,-1.77635684e-15 Z M4.8,7 C4.6,7 4.4,6.8 4.5,6.6 C5.4,4.8 7.3,3.6 9.5,3.6 C11.7,3.6 13.5,4.8 14.5,6.6 C14.6,6.8 14.5,7 14.2,7 L4.8,7 Z" id="Shape"></path>
                    </g>
                </g>
            </g>
            <g id="Group" transform="translate(14.600000, 59.900000)" fill="#000000">
                <path d="M9.2,7.7 C8.7,7.3 8,7 7.3,6.8 C6.6,6.6 5.7,6.5 4.8,6.5 L3.5,6.5 L3.5,3.3 L9.5,3.3 C9.6,3.3 9.7,3.2 9.7,3.1 L9.7,0.3 C9.7,0.2 9.6,0.1 9.5,0.1 L0.2,0.1 C0.1,0.1 7.10542736e-15,0.2 7.10542736e-15,0.3 L7.10542736e-15,17.3 C7.10542736e-15,17.4 0.1,17.5 0.2,17.5 L4.7,17.5 C5.7,17.5 6.5,17.4 7.3,17.2 C8,17 8.7,16.7 9.2,16.3 C9.8,15.9 10.2,15.3 10.5,14.6 C10.8,13.9 10.9,13 10.9,12 C10.9,11 10.8,10.1 10.5,9.4 C10.2,8.8 9.8,8.2 9.2,7.7 Z M6.8,13.9 C6.4,14.2 5.8,14.4 4.9,14.4 L3.5,14.4 L3.5,9.9 L4.9,9.9 C5.8,9.9 6.5,10.1 6.8,10.4 C7.1,10.7 7.3,11.3 7.3,12.2 C7.4,13 7.2,13.6 6.8,13.9 Z" id="Shape"></path>
                <path d="M19.4,0.4 C19.4,0.3 19.3,0.2 19.2,0.2 L16.2,0.2 C16.1,0.2 16,0.3 16,0.4 L11.3,17.4 C11.3,17.5 11.3,17.6 11.3,17.6 C11.3,17.7 11.4,17.7 11.5,17.7 L14.6,17.7 C14.7,17.7 14.8,17.6 14.8,17.5 L15.6,14.6 L19.6,14.6 L20.4,17.5 C20.4,17.6 20.5,17.7 20.6,17.7 L23.7,17.7 C23.8,17.7 23.8,17.7 23.9,17.6 C23.9,17.5 24,17.5 23.9,17.4 L19.4,0.4 Z M16.5,11.2 L17.6,6.3 L18.7,11.2 L16.5,11.2 Z" id="Shape"></path>
                <path d="M36.3,11.9 L36.3,11.9 L33.3,11.9 C33.2,11.9 33.1,12 33.1,12.1 C33.1,12.9 32.9,13.5 32.6,13.9 C32.3,14.3 31.6,14.4 30.6,14.4 C30.1,14.4 29.7,14.3 29.3,14.2 C29,14.1 28.8,14 28.6,13.8 C28.4,13.6 28.3,13.4 28.3,13.1 C28.2,12.8 28.2,12.5 28.2,12.1 L28.2,5.5 C28.2,5.1 28.2,4.7 28.3,4.5 C28.4,4.2 28.5,4 28.6,3.8 C28.8,3.6 29,3.5 29.3,3.4 C29.6,3.3 30.1,3.2 30.6,3.2 C31.2,3.2 31.6,3.3 32,3.4 C32.3,3.5 32.6,3.6 32.7,3.8 C32.9,4 33,4.2 33,4.5 C33.1,4.8 33.1,5.1 33.1,5.6 C33.1,5.7 33.2,5.8 33.3,5.8 L36.3,5.8 C36.4,5.8 36.5,5.7 36.5,5.6 C36.5,3.7 36,2.2 35.1,1.4 C34.2,0.5 32.6,0.1 30.5,0.1 C28.4,0.1 26.9,0.5 26,1.3 C25.1,2.1 24.6,3.5 24.6,5.4 L24.6,12.3 C24.6,14.1 25.1,15.5 26,16.3 C26.9,17.1 28.4,17.6 30.5,17.6 C32.6,17.6 34.1,17.2 35.1,16.3 C36.1,15.4 36.6,14 36.6,12.1 C36.6,12.1 36.6,12.1 36.6,12.1 C36.5,12 36.4,11.9 36.3,11.9 Z" id="Path"></path>
                <path d="M45.5,9 C45.8,8.7 46.1,8.3 46.3,7.8 C46.6,7.3 46.8,6.6 47.1,5.8 C47.1,5.8 47.1,5.8 47.1,5.8 C47.1,5.7 47.2,5.6 47.2,5.4 C47.3,5.1 47.4,4.8 47.4,4.7 C47.5,4.5 47.5,4.4 47.6,4.2 C47.7,4 47.8,3.9 47.9,3.8 C48,3.7 48.1,3.6 48.3,3.6 C48.5,3.5 48.7,3.5 48.9,3.5 C49,3.5 49.2,3.5 49.4,3.5 C49.5,3.5 49.7,3.5 49.8,3.5 C49.8,3.5 49.8,3.5 49.8,3.5 C49.9,3.5 50,3.4 50,3.3 L50.2,0.5 C50.2,0.4 50.1,0.2 50,0.2 C49.7,0.2 49.4,0.2 49.1,0.2 C48.6,0.2 48.1,0.2 47.7,0.3 C46.4,0.6 45.4,1.3 44.8,2.4 C44.5,2.9 44.2,3.7 43.8,4.9 C43.7,5.1 43.7,5.3 43.7,5.3 C43.7,5.3 43.6,5.5 43.6,5.7 C43.5,5.8 43.4,5.9 43.4,5.9 C43.4,6 43.3,6.1 43.2,6.2 C43.1,6.4 43.1,6.4 43.1,6.4 C43,6.5 43,6.5 42.9,6.6 C42.8,6.7 42.8,6.7 42.7,6.7 C42.6,6.9 42.5,6.9 42.4,6.9 C42.3,6.9 42.2,6.9 42.1,6.9 L41.6,6.9 L41.6,0.3 C41.6,0.2 41.5,0.1 41.4,0.1 L38.4,0.1 C38.3,0.1 38.2,0.2 38.2,0.3 L38.2,17.3 C38.2,17.4 38.3,17.5 38.4,17.5 L41.4,17.5 C41.5,17.5 41.6,17.4 41.6,17.3 L41.6,10.4 L42.4,10.4 L46.8,17.4 C46.8,17.5 46.9,17.5 47,17.5 L50.7,17.5 C50.8,17.5 50.9,17.5 50.9,17.4 C50.9,17.3 50.9,17.2 50.9,17.1 L45.5,9 Z" id="Shape"></path>
                <path d="M62.6,0.1 L62.6,0.1 L59.6,0.1 C59.5,0.1 59.4,0.2 59.4,0.3 L58.1,4.2 C58.1,4.2 58.1,4.2 58.1,4.2 C58,4.6 57.8,5.3 57.5,6.2 C57.3,6.7 57.2,7.2 57.1,7.6 L56.1,4.1 L54.9,0.2 C54.9,0.1 54.8,0 54.7,0 L51.7,0 C51.6,0 51.5,0 51.5,0.1 C51.5,0.2 51.4,0.2 51.5,0.3 L55.4,12.2 L55,13.6 C54.9,14 54.7,14.2 54.3,14.2 C54.3,14.2 54.2,14.2 54.2,14.2 C54,14.2 53.6,14.1 53.1,14 C53.1,14 53.1,14 53,14 C53,14 52.9,14 52.9,14 C52.8,14 52.8,14.1 52.8,14.2 L52.2,16.8 C52.2,16.9 52.2,17 52.4,17.1 C53.1,17.3 53.8,17.5 54.4,17.5 C54.6,17.5 54.7,17.5 54.8,17.5 C55.2,17.5 55.7,17.4 56.1,17.3 C56.6,17.1 57.1,16.8 57.5,16.3 C57.9,15.8 58.2,15.2 58.4,14.5 L63,0.1 C63,0.1 63,0 63,0 C62.8,0.2 62.7,0.1 62.6,0.1 Z" id="Shape"></path>
                <path d="M73.1,1.4 C72.1,0.6 70.5,0.1 68.4,0.1 L64.2,0.1 C64.1,0.1 64,0.2 64,0.3 L64,17.3 C64,17.4 64.1,17.5 64.2,17.5 L67.2,17.5 C67.3,17.5 67.4,17.4 67.4,17.3 L67.4,12.3 L68.4,12.3 C70.5,12.3 72,11.9 73.1,11 C74.1,10.1 74.7,8.7 74.7,6.9 L74.7,5.3 C74.6,3.6 74.1,2.3 73.1,1.4 Z M71.1,6.9 C71.1,7.7 70.9,8.2 70.5,8.5 C70.1,8.8 69.4,9 68.4,9 L67.4,9 L67.4,3.4 L68.4,3.4 C69.1,3.4 69.7,3.5 70.1,3.7 C70.5,3.9 70.7,4.1 70.8,4.4 C70.9,4.7 71,5.1 71,5.7 L71,6.9 L71.1,6.9 Z" id="Shape"></path>
                <path d="M85.4,6.7 C84.4,5.8 82.8,5.4 80.8,5.4 L79.9,5.4 L79.9,0.4 C79.9,0.3 79.8,0.2 79.7,0.2 L76.7,0.2 C76.6,0.2 76.5,0.3 76.5,0.4 L76.5,17.4 C76.5,17.5 76.6,17.6 76.7,17.6 L80.9,17.6 C83,17.6 84.6,17.2 85.6,16.3 C86.6,15.5 87.1,14.1 87.1,12.2 L87.1,10.6 C86.9,8.9 86.4,7.6 85.4,6.7 Z M83.4,12.1 C83.4,12.5 83.4,12.9 83.3,13.1 C83.2,13.4 83.1,13.6 82.9,13.8 C82.7,14 82.5,14.1 82.1,14.2 C81.7,14.3 81.3,14.3 80.7,14.3 L79.7,14.3 L79.7,8.6 L80.7,8.6 C81.7,8.6 82.4,8.8 82.8,9.1 C83.2,9.5 83.4,10 83.4,10.8 L83.4,12.1 L83.4,12.1 Z" id="Shape"></path>
                <path d="M98.9,14.4 L92.1,14.4 L92.1,10.4 L97.6,10.4 C97.7,10.4 97.8,10.3 97.8,10.2 L97.8,7.5 C97.8,7.4 97.7,7.3 97.6,7.3 L92.1,7.3 L92.1,3.4 L98.6,3.4 C98.7,3.4 98.8,3.3 98.8,3.2 L98.8,0.5 C98.8,0.4 98.7,0.3 98.6,0.3 L88.8,0.3 C88.7,0.3 88.6,0.4 88.6,0.5 L88.6,17.5 C88.6,17.6 88.7,17.7 88.8,17.7 L98.9,17.7 C99,17.7 99.1,17.6 99.1,17.5 L99.1,14.7 C99.2,14.5 99.1,14.4 98.9,14.4 Z" id="Path"></path>
                <path d="M110.2,1.4 C109.2,0.6 107.6,0.1 105.5,0.1 L101.3,0.1 C101.2,0.1 101.1,0.2 101.1,0.3 L101.1,17.3 C101.1,17.4 101.2,17.5 101.3,17.5 L104.3,17.5 C104.4,17.5 104.5,17.4 104.5,17.3 L104.5,12.3 L105.4,12.3 C107.5,12.3 109,11.9 110.1,11 C111.1,10.1 111.7,8.7 111.7,6.9 L111.7,5.3 C111.7,3.6 111.2,2.3 110.2,1.4 Z M108.2,6.9 C108.2,7.7 108,8.2 107.6,8.5 C107.2,8.8 106.5,9 105.5,9 L104.5,9 L104.5,3.4 L105.5,3.4 C106.2,3.4 106.8,3.5 107.2,3.7 C107.6,3.9 107.8,4.1 107.9,4.4 C108,4.7 108.1,5.1 108.1,5.7 L108.1,6.9 L108.2,6.9 Z" id="Shape"></path>
            </g>
        </g>
    </g>
</svg>