<svg width="20" height="18" viewBox="0 0 20 18" fill="none" xmlns="http://www.w3.org/2000/svg">
<path d="M17.0924 7.03361H15.542V5.86134C15.542 2.62933 12.9127 0 9.68067 0C6.44866 0 3.81933 2.62933 3.81933 5.86134V7.03361H2.26891C1.01776 7.03361 0 8.05137 0 9.30252V11.5714C0 12.8226 1.01776 13.8403 2.26891 13.8403H4.57563C4.99337 13.8403 5.33193 13.5018 5.33193 13.084C5.33193 12.7047 5.33193 6.24334 5.33193 5.86134C5.33193 3.46348 7.28281 1.51261 9.68067 1.51261C12.0785 1.51261 14.0294 3.46348 14.0294 5.86134V14.9748H11.8194C11.5073 14.0946 10.6667 13.4622 9.68067 13.4622C8.42952 13.4622 7.41177 14.4799 7.41177 15.7311C7.41177 16.9822 8.42952 18 9.68067 18C10.6667 18 11.5073 17.3676 11.8194 16.4874H14.7857C15.2035 16.4874 15.542 16.1488 15.542 15.7311V13.8403H17.0924C18.3436 13.8403 19.3613 12.8226 19.3613 11.5714V9.30252C19.3613 8.05137 18.3436 7.03361 17.0924 7.03361ZM1.51261 11.5714V9.30252C1.51261 8.88552 1.85191 8.54622 2.26891 8.54622H3.81933V12.3277H2.26891C1.85191 12.3277 1.51261 11.9884 1.51261 11.5714ZM9.68067 16.4874C9.26367 16.4874 8.92437 16.1481 8.92437 15.7311C8.92437 15.3141 9.26367 14.9748 9.68067 14.9748C10.0977 14.9748 10.437 15.3141 10.437 15.7311C10.437 16.1481 10.0977 16.4874 9.68067 16.4874ZM17.8487 11.5714C17.8487 11.9884 17.5094 12.3277 17.0924 12.3277H15.542V8.54622H17.0924C17.5094 8.54622 17.8487 8.88552 17.8487 9.30252V11.5714Z" fill="black"/>
</svg>
