<?xml version="1.0" encoding="utf-8"?>
<!-- Generator: Adobe Illustrator 23.0.1, SVG Export Plug-In . SVG Version: 6.00 Build 0)  -->
<svg version="1.1" id="Слой_1" xmlns="http://www.w3.org/2000/svg" xmlns:xlink="http://www.w3.org/1999/xlink" x="0px" y="0px"
	 viewBox="0 0 128 78" style="enable-background:new 0 0 128 78;" xml:space="preserve">
<style type="text/css">
	.st0{fill:#FFDC00;}
	.st1{fill:#FFFFFF;}
</style>
<g>
	<path class="st0" d="M127.9,31L127.9,31L127.9,31L127.9,31l-4.7-22.7c-1-4.7-5.1-8.1-9.9-8.1H23.1C17.5,0.2,13,4.7,13,10.2v3H3.3
		c-1.8,0-3.3,1.5-3.3,3.3s1.5,3.3,3.3,3.3H13v0.9H6.5c-1.8,0-3.3,1.5-3.3,3.3s1.5,3.3,3.3,3.3H13v0.9H3.3c-1.8,0-3.3,1.5-3.3,3.3
		s1.5,3.3,3.3,3.3H13V39C13,44.5,17.5,49,23.1,49h8.4c0.6,1.5,1.5,2.8,2.8,3.9c1.6,1.3,3.6,2,5.7,2c2.1,0,4.1-0.7,5.7-2
		c1.3-1,2.2-2.3,2.8-3.9h44.6c0.6,1.5,1.5,2.8,2.8,3.9c1.6,1.3,3.6,2,5.7,2c2.1,0,4.1-0.7,5.7-2c1.3-1,2.2-2.3,2.8-3.9h7.9
		c5.6,0,10.1-4.5,10.1-10.1v-7.4C128,31.3,128,31.1,127.9,31z"/>
	<g>
		<path class="st1" d="M122.9,31.4c0,0,0,7.7,0,7.8c0,2.6-2.1,4.7-4.7,4.7c-0.1,0-9.4,0-9.4,0c-0.8-3.2-3.8-5.7-7.3-5.7
			c-3.5,0-6.5,2.4-7.3,5.7h-47c-0.8-3.2-3.8-5.7-7.3-5.7s-6.5,2.4-7.3,5.7h-9.6c0,0,0,0,0,0c-2.9,0-5.2-2.4-5.2-5.2V10.4
			c0-2.9,2.3-5.2,5.2-5.2h82.6l3.7,0.1h4c2.4,0,4.4,1.7,4.9,4L122.9,31.4z"/>
	</g>
	<path d="M126.4,31.2l-4.7-22.6c-0.8-4-4.4-6.9-8.4-6.9H23.1c-4.7,0-8.5,3.8-8.5,8.5V39c0,4.7,3.8,8.5,8.5,8.5h9.5
		c0.8,3.4,3.8,5.9,7.4,5.9s6.6-2.5,7.3-5.9h46.9c0.8,3.4,3.8,5.9,7.4,5.9c3.6,0,6.6-2.5,7.3-5.9h9c4.7,0,8.6-3.8,8.6-8.5v-7.4
		C126.5,31.4,126.5,31.3,126.4,31.2z M113.4,5.3c2.4,0,4.4,1.7,4.9,4l4.2,20.5h-6.7c-0.7,0-1.3-0.5-1.5-1.2l-5-23.3H113.4z M40,49.8
		c-1.6,0-2.9-0.9-3.6-2.3c0-0.1-0.1-0.1-0.1-0.2c0,0,0,0,0,0c0-0.1,0-0.1-0.1-0.2c0,0,0,0,0,0c0-0.1,0-0.1,0-0.2c0,0,0,0,0,0
		c0,0,0-0.1,0-0.1c0,0,0,0,0-0.1c0,0,0-0.1,0-0.1c0,0,0,0,0-0.1c0,0,0-0.1,0-0.1c0,0,0,0,0-0.1c0-0.1,0-0.1,0-0.2c0,0,0,0,0-0.1
		c0-0.1,0-0.1,0-0.2c0-0.1,0-0.2,0-0.2c0,0,0,0,0-0.1c0-0.1,0-0.1,0-0.2c0,0,0,0,0-0.1c0-0.1,0-0.1,0-0.2c0,0,0,0,0-0.1
		c0-0.1,0-0.2,0.1-0.2c0,0,0,0,0,0c0-0.1,0-0.1,0.1-0.2c0,0,0,0,0,0c0-0.1,0-0.1,0.1-0.2c0,0,0,0,0,0c0-0.1,0.1-0.1,0.1-0.2
		c0,0,0,0,0,0c0-0.1,0.1-0.1,0.1-0.2c0.7-1.2,2-2.1,3.5-2.1c1.5,0,2.8,0.8,3.5,2.1l0,0c0,0.1,0.1,0.1,0.1,0.2c0,0,0,0,0,0
		c0,0.1,0.1,0.1,0.1,0.2c0,0,0,0,0,0c0,0.1,0,0.1,0.1,0.2c0,0,0,0,0,0c0,0.1,0,0.1,0.1,0.2c0,0,0,0,0,0c0,0.1,0,0.2,0.1,0.2
		c0,0,0,0,0,0.1c0,0.1,0,0.1,0,0.2c0,0,0,0,0,0.1c0,0.1,0,0.1,0,0.2c0,0,0,0,0,0.1c0,0.1,0,0.2,0,0.2c0,0,0,0,0,0c0,0,0,0,0,0
		c0,0.1,0,0.1,0,0.2c0,0,0,0,0,0.1c0,0,0,0.1,0,0.1c0,0,0,0,0,0.1c0,0,0,0.1,0,0.1c0,0,0,0,0,0.1c0,0,0,0.1,0,0.1c0,0,0,0,0,0.1
		c0,0.1,0,0.1,0,0.1c0,0,0,0,0,0c0,0.1,0,0.1,0,0.2c0,0,0,0,0,0c0,0.1,0,0.1-0.1,0.2c0,0,0,0,0,0c0,0.1-0.1,0.1-0.1,0.2l0,0
		C42.9,48.9,41.5,49.8,40,49.8z M101.5,49.8c-1.6,0-3-0.9-3.6-2.3c0-0.1-0.1-0.1-0.1-0.2c0,0,0,0,0,0c0-0.1,0-0.1-0.1-0.2
		c0,0,0,0,0,0c0-0.1,0-0.1,0-0.2c0,0,0,0,0,0c0,0,0-0.1,0-0.1c0,0,0,0,0-0.1c0,0,0-0.1,0-0.1c0,0,0,0,0-0.1c0,0,0-0.1,0-0.1
		c0,0,0,0,0-0.1c0-0.1,0-0.1,0-0.2c0,0,0,0,0-0.1c0-0.1,0-0.1,0-0.2c0-0.1,0-0.2,0-0.2c0,0,0,0,0-0.1c0-0.1,0-0.1,0-0.2
		c0,0,0,0,0-0.1c0-0.1,0-0.1,0-0.2c0,0,0,0,0-0.1c0-0.1,0-0.2,0.1-0.2c0,0,0,0,0,0c0-0.1,0-0.1,0.1-0.2c0,0,0,0,0,0
		c0-0.1,0-0.1,0.1-0.2c0,0,0,0,0,0c0-0.1,0.1-0.1,0.1-0.2c0,0,0,0,0,0c0-0.1,0.1-0.1,0.1-0.2l0,0c0.7-1.2,2-2.1,3.5-2.1
		c1.5,0,2.8,0.8,3.5,2.1l0,0c0,0.1,0.1,0.1,0.1,0.2c0,0,0,0,0,0c0,0.1,0.1,0.1,0.1,0.2c0,0,0,0,0,0c0,0.1,0,0.1,0.1,0.2c0,0,0,0,0,0
		c0,0.1,0,0.1,0.1,0.2c0,0,0,0,0,0c0,0.1,0,0.2,0.1,0.2c0,0,0,0,0,0.1c0,0.1,0,0.1,0,0.2c0,0,0,0,0,0.1c0,0.1,0,0.1,0,0.2
		c0,0,0,0,0,0.1c0,0.1,0,0.2,0,0.2c0,0.1,0,0.1,0,0.2c0,0,0,0,0,0.1c0,0.1,0,0.1,0,0.2c0,0,0,0,0,0.1c0,0,0,0.1,0,0.1c0,0,0,0,0,0.1
		c0,0,0,0.1,0,0.1c0,0,0,0,0,0.1c0,0.1,0,0.1,0,0.1c0,0,0,0,0,0c0,0.1,0,0.1,0,0.2c0,0,0,0,0,0c0,0.1,0,0.1-0.1,0.2c0,0,0,0,0,0
		c0,0.1-0.1,0.1-0.1,0.2l0,0C104.5,48.9,103.1,49.8,101.5,49.8z M122.9,39.2c0,2.6-2.1,4.7-4.7,4.7c-0.1,0-9.4,0-9.4,0
		c-0.8-3.2-3.8-5.7-7.3-5.7c-3.5,0-6.5,2.4-7.3,5.7h-47c-0.8-3.2-3.8-5.7-7.3-5.7s-6.5,2.4-7.3,5.7h-9.6c0,0,0,0,0,0
		c-2.9,0-5.2-2.4-5.2-5.2V10.4c0-2.9,2.3-5.2,5.2-5.2h82.6l5.1,24.1c0.5,2.3,2.6,4,5,4h7.1C122.9,33.3,122.9,39.2,122.9,39.2z"/>
	<g>
		<g>
			<path d="M23.6,33.3H3.3c-1,0-1.8-0.8-1.8-1.8v0c0-1,0.8-1.8,1.8-1.8h20.3c1,0,1.8,0.8,1.8,1.8v0C25.4,32.5,24.6,33.3,23.6,33.3z"
				/>
			<path d="M23.6,18.3H3.3c-1,0-1.8-0.8-1.8-1.8v0c0-1,0.8-1.8,1.8-1.8h20.3c1,0,1.8,0.8,1.8,1.8v0C25.4,17.5,24.6,18.3,23.6,18.3z"
				/>
			<path d="M26.8,25.8H6.5c-1,0-1.8-0.8-1.8-1.8v0c0-1,0.8-1.8,1.8-1.8h20.3c1,0,1.8,0.8,1.8,1.8v0C28.6,25,27.8,25.8,26.8,25.8z"/>
		</g>
		<g>
			<g>
				<g>
					<rect x="39" y="23.7" transform="matrix(4.885335e-10 1 -1 4.885335e-10 71.6379 -20.7445)" width="14.3" height="3.6"/>
					<g>
						<path d="M50.3,23.1l-5.4-5.4c-0.7-0.7-0.7-1.8,0-2.5l0,0c0.7-0.7,1.8-0.7,2.5,0l5.4,5.4c0.7,0.7,0.7,1.8,0,2.5v0
							C52.1,23.8,51,23.8,50.3,23.1z"/>
						<path d="M42.1,23.1l5.4-5.4c0.7-0.7,0.7-1.8,0-2.5l0,0c-0.7-0.7-1.8-0.7-2.5,0l-5.4,5.4c-0.7,0.7-0.7,1.8,0,2.5v0
							C40.2,23.8,41.4,23.8,42.1,23.1z"/>
					</g>
				</g>
				<path d="M51.6,33.3H40.8c-1,0-1.8-0.8-1.8-1.8v0c0-1,0.8-1.8,1.8-1.8h10.7c1,0,1.8,0.8,1.8,1.8v0C53.4,32.5,52.6,33.3,51.6,33.3
					z"/>
			</g>
			<g>
				<rect x="63.8" y="27" transform="matrix(9.258281e-10 1 -1 9.258281e-10 96.4047 -38.7582)" width="7.5" height="3.6"/>
				<path d="M73.2,33.3H62.4c-1,0-1.8-0.8-1.8-1.8v0c0-1,0.8-1.8,1.8-1.8h10.7c1,0,1.8,0.8,1.8,1.8v0C75,32.5,74.2,33.3,73.2,33.3z"
					/>
				<path d="M67.6,27.3c-3.2,0-5.8-2.6-5.8-5.8v-5c0-1,0.8-1.8,1.8-1.8h8.1c1,0,1.8,0.8,1.8,1.8v5C73.5,24.7,70.8,27.3,67.6,27.3z
					 M65.3,18.5v2.9c0,1.2,1,2.3,2.2,2.4c1.3,0,2.4-1,2.4-2.3v-3c0-0.2-0.1-0.3-0.3-0.3h-4C65.5,18.2,65.3,18.3,65.3,18.5z"/>
			</g>
			<g>
				<path d="M92.2,33.3c-2.5,0-4.6-2.1-4.6-4.6v-4.3c0-1,0.8-1.8,1.8-1.8s1.8,0.8,1.8,1.8v4.3c0,0.6,0.5,1.1,1.1,1.1
					c0.6,0,1.1-0.5,1.1-1.1c0-1,0.8-1.8,1.8-1.8s1.8,0.8,1.8,1.8C96.8,31.3,94.8,33.3,92.2,33.3z"/>
				<path d="M89.4,14.7c-5.3,0-9.5,4.3-9.5,9.5c0,0,0,0,0,0c0,0.6,0.5,1,1,1h17c0.6,0,1-0.5,1-1c0,0,0,0,0,0
					C98.9,18.9,94.7,14.7,89.4,14.7z M84.7,21.7c-0.2,0-0.4-0.2-0.3-0.4c0.9-1.8,2.8-3,5-3c2.2,0,4,1.2,5,3c0.1,0.2,0,0.4-0.3,0.4
					H84.7z"/>
			</g>
		</g>
	</g>
	<g>
		<path d="M23.8,67.8c-0.5-0.4-1.2-0.7-1.9-0.9c-0.7-0.2-1.6-0.3-2.5-0.3h-1.3v-3.2h6c0.1,0,0.2-0.1,0.2-0.2v-2.8
			c0-0.1-0.1-0.2-0.2-0.2h-9.3c-0.1,0-0.2,0.1-0.2,0.2v17c0,0.1,0.1,0.2,0.2,0.2h4.5c1,0,1.8-0.1,2.6-0.3c0.7-0.2,1.4-0.5,1.9-0.9
			c0.6-0.4,1-1,1.3-1.7c0.3-0.7,0.4-1.6,0.4-2.6c0-1-0.1-1.9-0.4-2.6C24.8,68.9,24.4,68.3,23.8,67.8z M21.4,74
			c-0.4,0.3-1,0.5-1.9,0.5h-1.4v-4.5h1.4c0.9,0,1.6,0.2,1.9,0.5c0.3,0.3,0.5,0.9,0.5,1.8C22,73.1,21.8,73.7,21.4,74z"/>
		<path d="M34,60.5c0-0.1-0.1-0.2-0.2-0.2h-3c-0.1,0-0.2,0.1-0.2,0.2l-4.7,17c0,0.1,0,0.2,0,0.2c0,0.1,0.1,0.1,0.2,0.1h3.1
			c0.1,0,0.2-0.1,0.2-0.2l0.8-2.9h4l0.8,2.9c0,0.1,0.1,0.2,0.2,0.2h3.1c0.1,0,0.1,0,0.2-0.1c0-0.1,0.1-0.1,0-0.2L34,60.5z
			 M31.1,71.3l1.1-4.9l1.1,4.9H31.1z"/>
		<path d="M50.9,72L50.9,72h-3c-0.1,0-0.2,0.1-0.2,0.2c0,0.8-0.2,1.4-0.5,1.8c-0.3,0.4-1,0.5-2,0.5c-0.5,0-0.9-0.1-1.3-0.2
			c-0.3-0.1-0.5-0.2-0.7-0.4c-0.2-0.2-0.3-0.4-0.3-0.7c-0.1-0.3-0.1-0.6-0.1-1v-6.6c0-0.4,0-0.8,0.1-1c0.1-0.3,0.2-0.5,0.3-0.7
			c0.2-0.2,0.4-0.3,0.7-0.4c0.3-0.1,0.8-0.2,1.3-0.2c0.6,0,1,0.1,1.4,0.2c0.3,0.1,0.6,0.2,0.7,0.4c0.2,0.2,0.3,0.4,0.3,0.7
			c0.1,0.3,0.1,0.6,0.1,1.1c0,0.1,0.1,0.2,0.2,0.2h3c0.1,0,0.2-0.1,0.2-0.2c0-1.9-0.5-3.4-1.4-4.2c-0.9-0.9-2.5-1.3-4.6-1.3
			c-2.1,0-3.6,0.4-4.5,1.2c-0.9,0.8-1.4,2.2-1.4,4.1v6.9c0,1.8,0.5,3.2,1.4,4c0.9,0.8,2.4,1.3,4.5,1.3c2.1,0,3.6-0.4,4.6-1.3
			c1-0.9,1.5-2.3,1.5-4.2c0,0,0,0,0,0C51.1,72.1,51,72,50.9,72z"/>
		<path d="M60.1,69.1c0.3-0.3,0.6-0.7,0.8-1.2c0.3-0.5,0.5-1.2,0.8-2c0,0,0,0,0,0c0-0.1,0.1-0.2,0.1-0.4c0.1-0.3,0.2-0.6,0.2-0.7
			c0.1-0.2,0.1-0.3,0.2-0.5c0.1-0.2,0.2-0.3,0.3-0.4c0.1-0.1,0.2-0.2,0.4-0.2c0.2-0.1,0.4-0.1,0.6-0.1c0.1,0,0.3,0,0.5,0
			c0.1,0,0.3,0,0.4,0c0,0,0,0,0,0c0.1,0,0.2-0.1,0.2-0.2l0.2-2.8c0-0.1-0.1-0.3-0.2-0.3c-0.3,0-0.6,0-0.9,0c-0.5,0-1,0-1.4,0.1
			c-1.3,0.3-2.3,1-2.9,2.1c-0.3,0.5-0.6,1.3-1,2.5c-0.1,0.2-0.1,0.4-0.1,0.4c0,0-0.1,0.2-0.1,0.4C58.1,65.9,58,66,58,66
			c0,0.1-0.1,0.2-0.2,0.3c-0.1,0.2-0.1,0.2-0.1,0.2c-0.1,0.1-0.1,0.1-0.2,0.2c-0.1,0.1-0.1,0.1-0.2,0.1C57.2,67,57.1,67,57,67
			c-0.1,0-0.2,0-0.3,0h-0.5v-6.6c0-0.1-0.1-0.2-0.2-0.2h-3c-0.1,0-0.2,0.1-0.2,0.2v17c0,0.1,0.1,0.2,0.2,0.2h3
			c0.1,0,0.2-0.1,0.2-0.2v-6.9h0.8l4.4,7c0,0.1,0.1,0.1,0.2,0.1h3.7c0.1,0,0.2,0,0.2-0.1c0-0.1,0-0.2,0-0.3L60.1,69.1z M63.7,60.4
			C63.7,60.4,63.7,60.4,63.7,60.4C63.7,60.4,63.7,60.4,63.7,60.4C63.7,60.4,63.7,60.4,63.7,60.4z"/>
		<path d="M77.2,60.2L77.2,60.2h-3c-0.1,0-0.2,0.1-0.2,0.2l-1.3,3.9c0,0,0,0,0,0c-0.1,0.4-0.3,1.1-0.6,2c-0.2,0.5-0.3,1-0.4,1.4
			l-1-3.5l-1.2-3.9c0-0.1-0.1-0.2-0.2-0.2h-3c-0.1,0-0.2,0-0.2,0.1s-0.1,0.1,0,0.2l3.9,11.9l-0.4,1.4c-0.1,0.4-0.3,0.6-0.7,0.6
			c0,0-0.1,0-0.1,0c-0.2,0-0.6-0.1-1.1-0.2c0,0,0,0-0.1,0c0,0-0.1,0-0.1,0c-0.1,0-0.1,0.1-0.1,0.2l-0.6,2.6c0,0.1,0,0.2,0.2,0.3
			c0.7,0.2,1.4,0.4,2,0.4c0.2,0,0.3,0,0.4,0c0.4,0,0.9-0.1,1.3-0.2c0.5-0.2,1-0.5,1.4-1c0.4-0.5,0.7-1.1,0.9-1.8l4.6-14.4
			c0,0,0-0.1,0-0.1C77.4,60.3,77.3,60.2,77.2,60.2z M69.2,77.6c0,0-0.1,0-0.1,0C69.1,77.6,69.1,77.6,69.2,77.6
			C69.2,77.6,69.2,77.6,69.2,77.6z"/>
		<path d="M87.7,61.5c-1-0.8-2.6-1.3-4.7-1.3h-4.2c-0.1,0-0.2,0.1-0.2,0.2v17c0,0.1,0.1,0.2,0.2,0.2h3c0.1,0,0.2-0.1,0.2-0.2v-5H83
			c2.1,0,3.6-0.4,4.7-1.3c1-0.9,1.6-2.3,1.6-4.1v-1.6C89.2,63.7,88.7,62.4,87.7,61.5z M85.7,67c0,0.8-0.2,1.3-0.6,1.6
			c-0.4,0.3-1.1,0.5-2.1,0.5h-1v-5.6h1c0.7,0,1.3,0.1,1.7,0.3c0.4,0.2,0.6,0.4,0.7,0.7c0.1,0.3,0.2,0.7,0.2,1.3V67z"/>
		<path d="M100,66.8c-1-0.9-2.6-1.3-4.6-1.3h-0.9v-5c0-0.1-0.1-0.2-0.2-0.2h-3c-0.1,0-0.2,0.1-0.2,0.2v17c0,0.1,0.1,0.2,0.2,0.2h4.2
			c2.1,0,3.7-0.4,4.7-1.3c1-0.8,1.5-2.2,1.5-4.1v-1.6C101.5,69,101,67.7,100,66.8z M98,72.2c0,0.4,0,0.8-0.1,1
			c-0.1,0.3-0.2,0.5-0.4,0.7c-0.2,0.2-0.4,0.3-0.8,0.4c-0.4,0.1-0.8,0.1-1.4,0.1h-1v-5.7h1c1,0,1.7,0.2,2.1,0.5
			c0.4,0.4,0.6,0.9,0.6,1.7V72.2z"/>
		<path d="M113.5,74.5h-6.8v-4h5.5c0.1,0,0.2-0.1,0.2-0.2v-2.7c0-0.1-0.1-0.2-0.2-0.2h-5.5v-3.9h6.5c0.1,0,0.2-0.1,0.2-0.2v-2.7
			c0-0.1-0.1-0.2-0.2-0.2h-9.8c-0.1,0-0.2,0.1-0.2,0.2v17c0,0.1,0.1,0.2,0.2,0.2h10.1c0.1,0,0.2-0.1,0.2-0.2v-2.8
			C113.8,74.6,113.7,74.5,113.5,74.5z"/>
		<path d="M124.8,61.5c-1-0.8-2.6-1.3-4.7-1.3h-4.2c-0.1,0-0.2,0.1-0.2,0.2v17c0,0.1,0.1,0.2,0.2,0.2h3c0.1,0,0.2-0.1,0.2-0.2v-5
			h0.9c2.1,0,3.6-0.4,4.7-1.3c1-0.9,1.6-2.3,1.6-4.1v-1.6C126.3,63.7,125.8,62.4,124.8,61.5z M122.8,67c0,0.8-0.2,1.3-0.6,1.6
			c-0.4,0.3-1.1,0.5-2.1,0.5h-1v-5.6h1c0.7,0,1.3,0.1,1.7,0.3c0.4,0.2,0.6,0.4,0.7,0.7c0.1,0.3,0.2,0.7,0.2,1.3V67z"/>
	</g>
</g>
</svg>
