<svg width="52" height="52" viewBox="0 0 52 52" fill="none" xmlns="http://www.w3.org/2000/svg">
<g clip-path="url(#clip0)">
<path d="M34.8362 0C32.3266 0 30.209 0.898828 28.7425 2.55938C27.2759 0.898828 25.1583 0 22.6487 0C17.9413 0 14.5237 3.58008 14.5237 8.51195C14.5237 13.6764 18.8767 16.9295 22.7178 19.7986C24.486 21.1199 26.1557 22.3681 27.1591 23.6163C27.545 24.0957 28.127 24.375 28.7425 24.375C29.3579 24.375 29.9409 24.0957 30.3258 23.6163C31.3293 22.3681 32.9989 21.1199 34.7672 19.7986C38.6082 16.9295 42.9612 13.6764 42.9612 8.51195C42.9612 3.58008 39.5447 0 34.8362 0ZM32.3357 16.5445C31.052 17.5033 29.815 18.4275 28.7425 19.4086C27.67 18.4275 26.4329 17.5033 25.1492 16.5445C21.9225 14.1334 18.5862 11.6411 18.5862 8.51195C18.5862 5.85 20.2183 4.0625 22.6487 4.0625C24.2189 4.0625 25.3229 4.59164 26.0236 5.68141C26.5853 6.55484 26.7061 7.49328 26.7183 7.59484C26.7854 8.65617 27.6598 9.46766 28.7242 9.47781H28.7435C29.8028 9.47781 30.6854 8.64297 30.7676 7.58469C30.7686 7.57555 30.8682 6.66047 31.4004 5.77891C32.0981 4.62414 33.2214 4.0625 34.8362 4.0625C37.2666 4.0625 38.8987 5.85 38.8987 8.51195C38.8987 11.6411 35.5624 14.1334 32.3357 16.5445ZM49.969 41.8438C51.0913 41.8438 52.0003 40.9348 52.0003 39.8125V37.6919C52.0003 32.8687 48.0759 28.9453 43.2537 28.9453H23.7659C21.2573 28.9453 19.0991 30.4688 18.1657 32.6391L10.3343 25.482C9.17543 24.3598 7.64793 23.7494 6.03715 23.7656C4.4091 23.7809 2.88465 24.4298 1.74512 25.5907C0.604571 26.7526 -0.01496 28.2892 0.000274416 29.9163C0.0155088 31.5443 0.664493 33.0688 1.82535 34.2083C1.83957 34.2225 1.85379 34.2357 1.86902 34.2499L12.2132 43.8273C14.9096 46.4334 18.0388 48.4687 21.5143 49.8753C24.9979 51.285 28.6693 52 32.4272 52H49.969C51.0913 52 52.0003 51.091 52.0003 49.9688C52.0003 48.8465 51.0913 47.9375 49.969 47.9375H32.4272C25.8957 47.9375 19.7146 45.436 15.0224 40.8931C15.0112 40.882 15.0011 40.8718 14.9899 40.8616L4.65387 31.2914C4.27707 30.9136 4.06785 30.4129 4.06277 29.8787C4.0577 29.3363 4.26387 28.8234 4.64473 28.4365C5.02457 28.0495 5.53238 27.8332 6.07473 27.8281C6.61606 27.8251 7.12895 28.0292 7.51692 28.4101C7.53418 28.4263 7.55145 28.4426 7.56973 28.4598L19.2941 39.1727C20.4082 40.3772 21.9997 41.1328 23.7659 41.1328H33.9221C35.0444 41.1328 35.9534 40.2238 35.9534 39.1016C35.9534 37.9793 35.0444 37.0703 33.9221 37.0703H23.7659C23.3464 37.0703 22.9564 36.9423 22.6325 36.724C22.6203 36.7118 22.6101 36.6996 22.5969 36.6884L22.1846 36.3116C21.9043 35.9633 21.7346 35.5205 21.7346 35.0391C21.7346 33.9188 22.6457 33.0078 23.7659 33.0078H43.2537C45.8364 33.0078 47.9378 35.1091 47.9378 37.6919V39.8125C47.9378 40.9348 48.8468 41.8438 49.969 41.8438Z" fill="black" stroke="white" stroke-width="0.5"/>
<path d="M32.4252 16.6647L32.4253 16.6647L32.4342 16.658C34.042 15.4566 35.6904 14.2248 36.9362 12.9003C38.1842 11.5734 39.0484 10.1326 39.0484 8.51195C39.0484 7.1505 38.6307 5.99985 37.8894 5.18785C37.1469 4.37466 36.0898 3.9125 34.8359 3.9125C33.1806 3.9125 32.0023 4.49218 31.2717 5.70133L31.2717 5.70138C30.9962 6.15763 30.8336 6.62084 30.7397 6.96997C30.6926 7.14487 30.6625 7.29203 30.6441 7.39659C30.6349 7.44889 30.6285 7.49061 30.6244 7.51988C30.6224 7.53451 30.6209 7.54604 30.6199 7.55423L30.6187 7.56397L30.6184 7.56688L30.6183 7.56812L30.6182 7.56811L30.6178 7.57306C30.5415 8.55518 29.7222 9.32781 28.7432 9.32781H28.7246C27.7374 9.31802 26.9297 8.56623 26.8678 7.58539L26.868 7.58537L26.867 7.57697C26.854 7.46848 26.7298 6.50267 26.1495 5.60028L26.0234 5.68141L26.1495 5.60027C25.415 4.45802 24.2571 3.9125 22.6484 3.9125C21.3945 3.9125 20.3375 4.37466 19.595 5.18785C18.8536 5.99985 18.4359 7.1505 18.4359 8.51195C18.4359 10.1326 19.3002 11.5734 20.5482 12.9003C21.794 14.2248 23.4424 15.4566 25.0502 16.658L25.0591 16.6647L25.0591 16.6647C26.3442 17.6244 27.575 18.5441 28.6409 19.5193L28.7422 19.6119L28.8434 19.5193C29.9094 18.5441 31.1402 17.6244 32.4252 16.6647Z" fill="#FFDC00" stroke="#FFDC00" stroke-width="0.3"/>
</g>
<defs>
<clipPath id="clip0">
<rect width="52" height="52" fill="white"/>
</clipPath>
</defs>
</svg>
