<svg width="19" height="18" viewBox="0 0 19 18" fill="none" xmlns="http://www.w3.org/2000/svg">
<circle cx="9.03906" cy="9" r="8.5" stroke="#F2F2F2"/>
<path fill-rule="evenodd" clip-rule="evenodd" d="M6.53906 7.3429C6.53906 6.05964 7.58308 5.01562 8.86634 5.01562C10.1496 5.01562 11.1936 6.05964 11.1936 7.3429C11.1936 8.42534 10.4508 9.33754 9.44815 9.59654V10.5429C9.44815 10.8642 9.18767 11.1247 8.86634 11.1247C8.545 11.1247 8.28452 10.8642 8.28452 10.5429V9.08835C8.28452 8.76701 8.545 8.50653 8.86634 8.50653C9.50796 8.50653 10.03 7.98453 10.03 7.3429C10.03 6.70127 9.50796 6.17926 8.86634 6.17926C8.22471 6.17926 7.7027 6.70127 7.7027 7.3429C7.7027 7.66424 7.44222 7.92472 7.12088 7.92472C6.79954 7.92472 6.53906 7.66424 6.53906 7.3429ZM9.59517 12.2883C9.59517 12.69 9.26956 13.0156 8.8679 13.0156C8.46624 13.0156 8.14062 12.69 8.14062 12.2883C8.14062 11.8866 8.46624 11.561 8.8679 11.561C9.26956 11.561 9.59517 11.8866 9.59517 12.2883Z" fill="#999999"/>
</svg>
