<?xml version="1.0" encoding="UTF-8"?>
<svg width="22px" height="21px" viewBox="0 0 22 21" version="1.1" xmlns="http://www.w3.org/2000/svg" xmlns:xlink="http://www.w3.org/1999/xlink">
    <title>help</title>
    <g id="Page-1" stroke="none" stroke-width="1" fill="none" fill-rule="evenodd">
        <g id="help" fill-rule="nonzero">
            <path d="M21.3486,1.98232 L21.3486,15.4251 C21.3486,16.1296 20.7648,16.7685 19.9907,16.7685 L17.0804,16.7685 L15.7845,20.3524 L11.9674,16.7685 L2.00239,16.7685 C1.29029,16.7685 0.644531,16.1909 0.644531,15.4251 L0.644531,1.98232 C0.644531,1.21216 1.22837,0.638916 2.00239,0.638916 L19.9907,0.638916 C20.7692,0.638916 21.3486,1.21654 21.3486,1.98232 Z" id="Path" fill="#FFDC00"></path>
            <path d="M21.3486,2.94502 L21.3486,1.98232 C21.3486,1.21216 20.7648,0.638916 19.9907,0.638916 L2.00239,0.638916 C1.22394,0.638916 0.644531,1.21654 0.644531,1.98232 L0.644531,2.94065 L21.3486,2.94065 L21.3486,2.94502 Z" id="Path" fill-opacity="0.1" fill="#000000"></path>
            <path d="M15.2682,20.8031 L11.6458,17.4118 L2.00362,17.4118 C0.906715,17.4118 0,16.5147 0,15.4251 L0,1.98229 C0,0.897062 0.906715,0 2.00362,0 L19.992,0 C21.0933,0 21.9956,0.897062 21.9956,1.98229 L21.9956,15.4251 C21.9956,16.5147 21.0889,17.4074 19.992,17.4074 L17.5328,17.4074 L16.3695,20.5449 C16.3032,20.7374 16.1086,20.93 15.9184,20.93 C15.6574,21.0613 15.4628,20.9956 15.2682,20.8031 Z M2.00362,1.28214 C1.61439,1.28214 1.35786,1.60158 1.35786,1.98666 L1.35786,15.4295 C1.35786,15.8145 1.68074,16.134 2.00362,16.134 L11.9686,16.134 C12.1632,16.134 12.2915,16.1996 12.4198,16.3265 L15.5247,19.2059 L16.4934,16.5803 C16.5597,16.3222 16.8162,16.134 17.1391,16.134 L20.0495,16.134 C20.4387,16.134 20.6952,15.8145 20.6952,15.4295 L20.6952,1.98666 C20.6952,1.60158 20.3723,1.28214 20.0495,1.28214 L2.00362,1.28214 Z" id="Shape" fill="#000000"></path>
            <path d="M11.062,13.9548 L10.9338,13.9548 C10.288,13.9548 9.77051,13.4428 9.77051,12.8039 L9.77051,8.70805 C9.77051,8.06917 10.288,7.55719 10.9338,7.55719 L11.062,7.55719 C11.7078,7.55719 12.2253,8.06917 12.2253,8.70805 L12.2253,12.8039 C12.2297,13.4428 11.7122,13.9548 11.062,13.9548 Z" id="Path" fill="#FFFFFF"></path>
            <path d="M11.0618,14.5937 L10.9955,14.5937 C9.96049,14.5937 9.12012,13.7623 9.12012,12.7383 L9.12012,8.70371 C9.12012,7.67975 9.96049,6.84833 10.9955,6.84833 L11.0618,6.84833 C12.0968,6.84833 12.9372,7.67975 12.9372,8.70371 L12.9372,12.7383 C12.8753,13.7623 12.0349,14.5937 11.0618,14.5937 Z M10.9336,8.19173 C10.6107,8.19173 10.4161,8.44991 10.4161,8.70371 L10.4161,12.7383 C10.4161,13.0577 10.677,13.2503 10.9336,13.2503 L10.9999,13.2503 C11.3228,13.2503 11.5174,12.9921 11.5174,12.7383 L11.5174,8.70371 C11.5174,8.38427 11.2564,8.19173 10.9999,8.19173 L10.9336,8.19173 Z" id="Shape" fill="#000000"></path>
            <path d="M12.407,4.57817 C12.533,3.81001 12.0058,3.08624 11.2293,2.96157 C10.4529,2.83691 9.72135,3.35856 9.59535,4.12671 C9.46934,4.89487 9.9966,5.61864 10.773,5.74331 C11.5494,5.86797 12.281,5.34632 12.407,4.57817 Z" id="Path" fill="#FFFFFF"></path>
            <path d="M10.9997,6.40195 C9.8364,6.40195 8.92969,5.50488 8.92969,4.35402 C8.92969,3.20315 9.8364,2.30609 10.9997,2.30609 C12.1629,2.30609 13.0696,3.20315 13.0696,4.35402 C13.0696,5.50488 12.1629,6.40195 10.9997,6.40195 Z M10.9997,3.58386 C10.6104,3.58386 10.2875,3.9033 10.2875,4.28838 C10.2875,4.67346 10.6104,5.05854 10.9997,5.05854 C11.3889,5.05854 11.7118,4.7391 11.7118,4.35402 C11.7118,3.96894 11.3889,3.58386 10.9997,3.58386 Z" id="Shape" fill="#000000"></path>
        </g>
    </g>
</svg>