<?xml version="1.0" encoding="UTF-8"?>
<svg width="517px" height="133px" viewBox="0 0 517 133" version="1.1" xmlns="http://www.w3.org/2000/svg" xmlns:xlink="http://www.w3.org/1999/xlink">
    <!-- Generator: Sketch 51.2 (57519) - http://www.bohemiancoding.com/sketch -->
    <title>hermes</title>
    <desc>Created with Sketch.</desc>
    <defs></defs>
    <g id="Page-1" stroke="none" stroke-width="1" fill="none" fill-rule="evenodd">
        <g id="hermes" fill-rule="nonzero">
            <g id="Group">
                <g id="Shape">
                    <polyline fill="#D8D8D6" points="125.9 23 131.7 0 120.1 0 114.2 23 125.9 23"></polyline>
                    <polygon fill="#D8D8D6" points="106.8 52.2 118.5 52.2 124.3 29.2 112.6 29.2"></polygon>
                    <polygon fill="#D8D8D6" points="99.4 81.5 111 81.5 116.9 58.5 105.2 58.5"></polygon>
                    <polygon fill="#0191CD" points="114.8 0 0 0 0 4.9 19.2 23 108.9 23"></polygon>
                    <polygon fill="#0191CD" points="60.6 58.5 60.6 62.2 80.9 81.5 94.1 81.5 99.9 58.5"></polygon>
                    <polygon fill="#0191CD" points="107.3 29.2 29.7 29.2 29.7 32.9 50 52.2 101.5 52.2"></polygon>
                </g>
                <path d="M516.4,17.2 L514.4,24.6 C513.5,28 511.9,29.3 507.9,29.3 L496.5,29.3 C491.4,29.3 489.7,29.6 488.3,30.9 C487.3,31.9 486.7,33.7 486.7,35.3 C486.7,37.2 487.5,37.9 490.4,38.8 L502,42.2 C509.9,44.5 512.3,47 512.2,53.1 C512.1,59.2 509.8,68.8 506.3,73.2 C503,77.5 498.7,79.4 492.1,79.4 L463.9,79.4 C461.7,79.4 460.9,77.7 461.2,76.1 C461.2,76.1 464.8,62.1 464.8,62.1 L466.4,62.1 C467.3,65.3 469.4,66.2 475.7,66.2 L486.7,66.2 C490.8,66.2 492.8,65.6 494,64.1 C495.2,62.8 495.9,60.7 496,59 C496.1,56.4 495.1,55.7 489.5,54.2 L478.8,51.3 C472.6,49.7 469.9,46.5 470,41.3 C470.1,36.5 472.2,29.4 474.9,24.8 C478.1,19.3 482.9,17.2 491.5,17.2 L516.4,17.2 Z M241.7,16.6 C228.9,16.6 221.7,19.4 215.9,26.6 C210.3,33.8 204.7,51.5 204.5,62.8 C204.4,69.7 207,75.1 211.7,77.5 C214.9,79.1 220.1,79.9 228.6,79.9 C237.8,79.9 243.5,79.1 246.5,77.5 C248.7,76.2 249.2,75.3 250.8,69 L253.1,60.5 L251.7,60.5 C247.9,64.9 243.5,66.8 232.9,66.8 C227.6,66.8 224.6,66.3 223.2,65.3 C221.3,64.1 220.6,62.3 220.6,59.8 C220.6,58.7 220.9,57.3 221.1,56.1 L222.2,51.2 L249,51.2 C254.8,51.2 256.6,50.6 257.8,48.4 C259.4,45.2 261,37.4 261.1,32.6 C261.5,21.4 255.7,16.6 241.7,16.6 Z M246.6,40.8 L225.2,40.8 C228,30.9 231.2,27.8 239.1,27.8 C245,27.8 247.8,29.9 247.7,34.4 C247.7,36.2 247.5,37.7 246.6,40.8 Z M439.6,16.6 C426.8,16.6 419.6,19.4 413.8,26.6 C408.2,33.8 402.6,51.5 402.5,62.8 C402.4,69.7 404.9,75.1 409.7,77.5 C412.9,79.1 418.1,79.9 426.6,79.9 C435.8,79.9 441.5,79.1 444.5,77.5 C446.7,76.2 447.2,75.3 448.8,69 L451,60.5 L449.6,60.5 C445.8,64.9 441.4,66.8 430.8,66.8 C425.5,66.8 422.5,66.3 421.1,65.3 C419.3,64.1 418.5,62.3 418.5,59.8 C418.5,58.7 418.8,57.3 419,56.1 L420.1,51.2 L447,51.2 C452.8,51.2 454.6,50.6 455.8,48.4 C457.4,45.2 459.1,37.4 459.1,32.6 C459.5,21.4 453.6,16.6 439.6,16.6 Z M444.5,40.8 L423.1,40.8 C425.9,30.9 429.1,27.8 437,27.8 C442.9,27.8 445.7,29.9 445.6,34.4 C445.7,36.2 445.4,37.7 444.5,40.8 Z M313.7,17.2 L311.6,25.4 C310.7,28.8 309.2,29.8 304.5,29.8 L298.4,29.8 C291.8,29.8 289.7,31.6 287.9,39.1 L279.3,72.3 C278.9,73.8 278.7,75.1 278.6,75.7 C278.6,77 279.3,77.7 280.7,78.2 L280.4,79.5 L265.1,79.5 C262.9,79.5 262.1,77.8 262.4,76.2 C262.4,76.2 276.2,22.3 276.2,22.3 C276.3,22 276.4,21.5 276.5,21 C276.5,19.7 275.8,19 274.4,18.6 L274.8,17.3 L290,17.3 C292.2,17.3 293,19 292.7,20.6 C292.7,20.6 291.2,26.2 291.2,26.2 L295.7,20.1 C297.6,17.4 298,17.3 301.8,17.3 L313.7,17.3 L313.7,17.2 Z M207,4.8 C207,4.8 195.2,50.6 189.8,71.5 C189.2,73.9 188.3,76.9 191.3,77.8 C191.1,78.3 191,78.8 190.8,79.3 L173.7,79.3 C171.5,79.3 170.7,77.6 171,76 L179.7,42.5 L156.3,42.5 C156.3,42.5 150.3,65.9 148.9,71.4 C148.5,72.9 148.2,74.2 148.2,74.9 C148.2,76.3 148.9,77.2 150.2,77.7 C150.1,78.2 150,78.7 149.8,79.2 L133,79.2 C130.8,79.2 130,77.5 130.3,75.9 C130.3,75.9 142.1,30.1 147.5,9.2 C148,6.8 149,4 146,3 C146.1,2.5 146.3,1.9 146.4,1.4 L163.6,1.4 C165.8,1.4 166.6,3.1 166.3,4.7 C166.3,4.7 159.8,30 159.8,30 L183,30 C183,30 186.6,16.2 188.4,9.2 C188.8,7.6 189,6.5 189,5.7 C189,4.3 188.3,3.5 186.8,3 C186.9,2.5 187.1,1.9 187.2,1.4 L204.4,1.4 C206.5,1.5 207.3,3.2 207,4.8 Z M387.3,16.7 L379.1,16.7 C374.8,16.7 372.5,17.6 369.7,21.8 L366.6,26.6 C366.9,21.7 364.2,16.7 356,16.7 L348.4,16.7 C342,16.7 340.5,19.4 338.9,21.3 L335.3,26.1 C335.3,26.1 336.8,20.5 336.8,20.5 C337.1,18.9 336.3,17.2 334.1,17.2 L318.8,17.2 L318.5,18.5 C319.9,19 320.5,19.7 320.5,20.9 C320.5,21.4 320.5,21.8 320.3,22.2 C320.3,22.2 306.6,76.1 306.6,76.1 C306.3,77.7 307.1,79.4 309.3,79.4 L324.6,79.4 L325,78.1 C323.5,77.6 322.9,76.9 322.9,75.6 C322.9,75 323.2,73.7 323.5,72.2 C323.5,72.2 331.9,40.4 332.1,39.2 C334.1,30.9 336.4,29.9 340.8,29.4 C341.7,29.3 342.5,29.3 343.9,29.3 C348.3,29.3 349.5,31.9 348.9,34.9 C348.5,36.6 338.4,76 338.4,76 C338.1,77.6 338.9,79.3 341.1,79.3 L356.4,79.3 L356.8,78 C355.4,77.5 354.7,76.8 354.8,75.5 C354.8,74.9 355.1,73.6 355.4,72.1 C355.4,72.1 364,39.4 364,39.1 C366.2,30.9 368.4,29.8 372.8,29.3 C373.7,29.2 374.5,29.2 376,29.2 C380.4,29.2 381.6,31.8 381,34.8 C380.9,35.3 370.6,75.9 370.6,75.9 C370.3,77.5 371.1,79.2 373.3,79.2 L388.6,79.2 L389,77.9 C387.5,77.4 386.9,76.7 386.9,75.4 C386.9,74.8 387.2,73.5 387.6,72 C387.6,72 397.5,32.4 398.3,28.8 C399.2,25.3 399.1,16.7 387.3,16.7 Z" id="Shape" fill="#000000"></path>
            </g>
            <g id="Group" transform="translate(121.000000, 97.000000)" fill="#000000">
                <path d="M5.8,23.1 C5.7,23.5 5.7,23.8 5.7,24.1 C5.7,26.4 7.5,26.9 9.8,26.9 C10.4,26.9 10.8,26.9 11.5,26.8 L11.1,29.3 C10.5,29.4 9.8,29.5 9,29.5 C5.9,29.5 2.9,28.4 2.9,24.5 C2.9,24.1 2.9,23.6 3,23 L4.6,13.6 L0,13.6 L0.7,11 L5,11 L5.9,5.7 L8.8,5.7 L7.9,11 L13.6,11 L12.9,13.6 L7.5,13.6 L5.8,23.1 Z" id="Shape"></path>
                <path d="M32.4,16.7 C32.4,17.3 32.3,17.9 32.2,18.7 L30.4,29 L27.5,29 L29.3,18.6 C29.4,18 29.5,17.6 29.5,17.1 C29.5,14.7 27.9,13.3 25.5,13.3 C22.8,13.3 20.6,14.9 20.1,17.8 L18.2,29 L15.3,29 L20.2,0.8 L23.1,0.8 L21.1,12.6 C22.4,11.4 24.2,10.6 26.2,10.6 C30,10.7 32.4,13.2 32.4,16.7 Z" id="Shape"></path>
                <path d="M51.9,21 L37.6,21 C37.8,24.6 40.3,26.8 43.9,26.8 C46.2,26.8 47.9,25.9 49.5,24.6 L51,26.6 C49.1,28.4 46.5,29.5 43.7,29.5 C38.4,29.5 34.7,25.7 34.7,20.7 C34.7,15.3 39.1,10.7 44.6,10.7 C49.1,10.7 52.4,13.8 52.4,18.3 C52.4,19.5 52.2,20.4 51.9,21 Z M37.9,18.5 L49.5,18.5 L49.5,18.2 C49.5,15.1 47.3,13.4 44.4,13.4 C41.2,13.3 38.7,15.4 37.9,18.5 Z" id="Shape"></path>
                <path d="M87.2,19.3 C87.2,24.1 83.7,29.4 77.4,29.4 C73.9,29.4 71.5,27.7 70.4,25.7 L68.6,35.8 L65.7,35.8 L70,11.1 L72.7,11.1 L72.3,13.7 C73.9,11.7 76.4,10.7 78.9,10.7 C83.9,10.7 87.2,14.6 87.2,19.3 Z M84.3,19.6 C84.3,16.3 82,13.4 78.2,13.4 C73.6,13.4 71.3,17.7 71.3,21.1 C71.3,24.7 74,26.9 77.2,26.9 C81.3,26.8 84.3,23.4 84.3,19.6 Z" id="Shape"></path>
                <path d="M106.3,16.7 C106.3,17.3 106.2,17.9 106.1,18.6 L104.3,29.1 L101.6,29.1 L101.9,27.2 C100.4,28.6 98.3,29.5 96,29.5 C93,29.5 89.9,28 89.9,24.7 C89.9,22 91.9,19.3 97.3,19.3 L103.1,19.3 L103.2,18.7 C103.3,18 103.3,17.5 103.3,17.1 C103.3,14.6 101.5,13.5 99.1,13.5 C96.8,13.5 95.3,14.5 93.8,15.8 L92.4,13.7 C94.5,11.8 96.8,10.9 99.5,10.9 C103.3,10.7 106.3,12.6 106.3,16.7 Z M102.5,22.8 L102.7,21.6 L97.4,21.6 C94.2,21.6 92.9,22.7 92.9,24.3 C92.9,26.4 94.9,27.1 96.7,27.1 C99.7,27.1 102.1,25.1 102.5,22.8 Z" id="Shape"></path>
                <path d="M123.2,11.2 L122.8,13.7 C122.1,13.6 121.6,13.5 121.2,13.5 C118.5,13.5 115.8,15.2 115.2,18.6 L113.4,29 L110.5,29 L113.6,11 L116.3,11 L116,13 C117.5,11.5 119.4,10.8 121.4,10.8 C121.9,10.9 122.5,10.9 123.2,11.2 Z" id="Shape"></path>
                <path d="M141.9,15 L139.7,16.5 C138.5,14.6 136.6,13.3 134.2,13.3 C130.3,13.3 127.1,16.4 127.1,20.5 C127.1,24.1 129.7,26.8 133.3,26.8 C135.6,26.8 137.6,25.7 138.8,24.2 L140.7,25.8 C138.9,28.1 136.3,29.4 133.2,29.4 C128.1,29.4 124.2,25.7 124.2,20.6 C124.2,15 128.8,10.6 134.3,10.6 C137.7,10.7 140.4,12.4 141.9,15 Z" id="Shape"></path>
                <path d="M162.3,21 L148,21 C148.2,24.6 150.7,26.8 154.4,26.8 C156.7,26.8 158.4,25.9 160,24.6 L161.5,26.6 C159.6,28.4 157,29.5 154.2,29.5 C148.9,29.5 145.2,25.7 145.2,20.7 C145.2,15.3 149.6,10.7 155.1,10.7 C159.6,10.7 162.9,13.8 162.9,18.3 C162.7,19.5 162.5,20.4 162.3,21 Z M148.2,18.5 L159.8,18.5 L159.8,18.2 C159.8,15.1 157.6,13.4 154.7,13.4 C151.6,13.3 149,15.4 148.2,18.5 Z" id="Shape"></path>
                <polygon id="Shape" points="168.8 29 165.9 29 170.8 0.8 173.7 0.8"></polygon>
                <path d="M205.7,19.3 C205.7,24.1 202.2,29.4 195.9,29.4 C192.4,29.4 190,27.7 188.9,25.7 L187.1,35.8 L184.2,35.8 L188.5,11.1 L191.2,11.1 L190.8,13.7 C192.4,11.7 194.9,10.7 197.4,10.7 C202.4,10.7 205.7,14.6 205.7,19.3 Z M202.8,19.6 C202.8,16.3 200.5,13.4 196.7,13.4 C192.1,13.4 189.8,17.7 189.8,21.1 C189.8,24.7 192.5,26.9 195.7,26.9 C199.8,26.8 202.8,23.4 202.8,19.6 Z" id="Shape"></path>
                <path d="M226.7,21 L212.4,21 C212.6,24.6 215.1,26.8 218.8,26.8 C221.1,26.8 222.8,25.9 224.4,24.6 L225.9,26.6 C224,28.4 221.4,29.5 218.6,29.5 C213.3,29.5 209.6,25.7 209.6,20.7 C209.6,15.3 214,10.7 219.5,10.7 C224,10.7 227.3,13.8 227.3,18.3 C227.1,19.5 226.9,20.4 226.7,21 Z M212.6,18.5 L224.2,18.5 L224.2,18.2 C224.2,15.1 222,13.4 219.1,13.4 C216,13.3 213.4,15.4 212.6,18.5 Z" id="Shape"></path>
                <path d="M249.7,19.6 C249.7,25.1 245,29.4 239.5,29.4 C234.3,29.4 230.5,25.5 230.5,20.5 C230.5,15 235.2,10.6 240.6,10.6 C245.8,10.7 249.7,14.6 249.7,19.6 Z M233.5,20.6 C233.5,24.2 236.1,26.8 239.7,26.8 C243.6,26.8 246.8,23.6 246.8,19.7 C246.8,16.1 244.1,13.4 240.6,13.4 C236.6,13.3 233.5,16.6 233.5,20.6 Z" id="Shape"></path>
                <path d="M273.3,19.3 C273.3,24.1 269.8,29.4 263.6,29.4 C260.1,29.4 257.7,27.7 256.6,25.7 L254.8,35.8 L252,35.8 L256.3,11.1 L259,11.1 L258.6,13.7 C260.2,11.7 262.7,10.7 265.2,10.7 C270.1,10.7 273.3,14.6 273.3,19.3 Z M270.4,19.6 C270.4,16.3 268.1,13.4 264.3,13.4 C259.7,13.4 257.4,17.7 257.4,21.1 C257.4,24.7 260.1,26.9 263.3,26.9 C267.4,26.8 270.4,23.4 270.4,19.6 Z" id="Shape"></path>
                <polygon id="Shape" points="279.7 29 276.8 29 281.7 0.8 284.6 0.8"></polygon>
                <path d="M303.4,21 L289.1,21 C289.3,24.6 291.8,26.8 295.5,26.8 C297.8,26.8 299.5,25.9 301.1,24.6 L302.6,26.6 C300.7,28.4 298.1,29.5 295.3,29.5 C290,29.5 286.3,25.7 286.3,20.7 C286.3,15.3 290.7,10.7 296.2,10.7 C300.7,10.7 304,13.8 304,18.3 C303.9,19.5 303.7,20.4 303.4,21 Z M289.4,18.5 L301,18.5 L301,18.2 C301,15.1 298.8,13.4 295.9,13.4 C292.8,13.3 290.2,15.4 289.4,18.5 Z" id="Shape"></path>
            </g>
        </g>
    </g>
</svg>