<svg width="42" height="42" viewBox="0 0 42 42" fill="none" xmlns="http://www.w3.org/2000/svg">
<path d="M41.4668 29.7363L38.5957 27.1113C38.5465 27.0539 38.4891 27.0047 38.4234 26.9555L33.0094 22.009C31.2211 20.3766 28.5305 20.3766 26.7422 22.009L18.293 29.7363C17.6285 30.3434 17.5793 31.3852 18.1863 32.0496C18.7934 32.7141 19.8352 32.7633 20.4996 32.1562L20.6227 32.0414V37.3816C20.6227 39.9246 22.6898 41.9918 25.2328 41.9918H34.4367C36.9797 41.9918 39.0469 39.9246 39.0469 37.3816V31.9676L39.252 32.1562C39.5637 32.4434 39.9574 32.5828 40.3594 32.5828C40.8023 32.5828 41.2453 32.4023 41.5652 32.0496C42.1805 31.3852 42.1395 30.3516 41.4668 29.7363ZM35.782 37.3898C35.782 38.1281 35.1832 38.727 34.4449 38.727H25.241C24.5027 38.727 23.9039 38.1281 23.9039 37.3898V29.0473L28.957 24.4289C29.482 23.9449 30.2777 23.9449 30.8027 24.4289L35.7738 28.9734V37.3898H35.782ZM28.7273 4.90547C25.5609 1.73906 21.3445 0 16.8656 0C12.3867 0 8.17031 1.73906 5.00391 4.90547C1.8375 8.07187 0.0902344 12.2883 0.0820312 16.7672C0.0820312 20.032 0.992578 23.0918 2.85469 26.127C4.4625 28.752 6.5625 31.0488 8.77734 33.477C10.9512 35.8559 13.1988 38.3168 14.9953 41.1551C15.307 41.6473 15.8402 41.918 16.3816 41.918C16.6852 41.918 16.9805 41.8359 17.2594 41.6637C18.0223 41.1797 18.252 40.1707 17.768 39.4078C15.8156 36.3234 13.4695 33.7559 11.2055 31.2703C6.98906 26.6684 3.36328 22.6898 3.35508 16.7672C3.36328 9.32695 9.42539 3.27305 16.8656 3.27305C24.3059 3.27305 30.368 9.32695 30.3762 16.7672C30.3762 17.6695 31.1062 18.3996 32.0168 18.3996C32.9191 18.3996 33.6574 17.6613 33.6492 16.759C33.641 12.2883 31.8938 8.07187 28.7273 4.90547ZM16.8656 6.54609C11.2219 6.54609 6.62813 11.1398 6.62813 16.7836C6.62813 22.4273 11.2219 27.0211 16.8656 27.0211C17.768 27.0211 18.5063 26.291 18.5063 25.3805C18.5063 24.4781 17.7762 23.7398 16.8656 23.7398C13.0266 23.7398 9.90938 20.6227 9.90938 16.7836C9.90938 12.9445 13.0266 9.82734 16.8656 9.82734C20.7047 9.82734 23.8219 12.9445 23.8219 16.7836C23.8219 17.6859 24.552 18.4242 25.4625 18.4242C26.3648 18.4242 27.1031 17.6941 27.1031 16.7836C27.1031 11.1398 22.5094 6.54609 16.8656 6.54609Z" fill="black"/>
<path d="M35.7817 28.9734V37.3817C35.7817 38.1199 35.1829 38.7188 34.4446 38.7188H25.2407C24.5024 38.7188 23.9036 38.1199 23.9036 37.3817V29.0473L28.9567 24.4289C29.4817 23.9449 30.2774 23.9449 30.8024 24.4289L35.7817 28.9734Z" fill="#FFDC00"/>
<defs>
<rect width="42" height="42" fill="white"/>
</defs>
</svg>
