<svg width="42" height="42" viewBox="0 0 42 42" fill="none" xmlns="http://www.w3.org/2000/svg">
<mask id="path-1-inside-1" fill="white">
<path fill-rule="evenodd" clip-rule="evenodd" d="M34.9998 1.75V11.5255L41.487 18.0128C42.1704 18.6961 42.1704 19.8039 41.487 20.4872C41.1449 20.8294 40.6978 21 40.2498 21C39.8018 21 39.3547 20.8294 39.0125 20.4872L37.6248 19.0995V40.25C37.6248 41.216 36.8408 42 35.8748 42H6.12478C5.15878 42 4.37478 41.216 4.37478 40.25V19.0995L2.98703 20.4872C2.30453 21.1706 1.19503 21.1706 0.512531 20.4872C-0.170844 19.8039 -0.170844 18.6961 0.512531 18.0128L4.88753 13.6378L5.76253 12.7628L16.987 1.53737C17.9784 0.546 19.2962 0 20.6988 0H21.2999C22.7025 0 24.0212 0.546 25.0125 1.53825L31.4998 8.0255V1.75C31.4998 0.784 32.2838 0 33.2498 0C34.2158 0 34.9998 0.784 34.9998 1.75ZM20.6997 3.5C20.2385 3.5 19.7879 3.68638 19.4624 4.01188L11.2243 12.25H30.7753L22.5389 4.01188C22.2082 3.682 21.7689 3.5 21.3008 3.5H20.6997ZM7.87478 38.5H34.1248V15.75H7.87478V38.5ZM19.7276 34.4514L14.6867 29.113C14.678 29.106 14.6692 29.0973 14.6605 29.0885C12.6139 27.041 12.6139 23.709 14.6605 21.6615C16.3764 19.9456 18.9926 19.6674 21.0007 20.8259C23.0124 19.6683 25.6242 19.9483 27.3384 21.6606C29.385 23.7099 29.385 27.0401 27.3392 29.0885C27.3287 29.0981 27.3191 29.1078 27.3086 29.1174L22.2721 34.4514C21.9414 34.8014 21.4811 35 20.9999 35C20.5186 35 20.0584 34.8014 19.7276 34.4514ZM19.6077 24.1299C18.9602 23.4824 17.7956 23.4763 17.1359 24.136C16.4674 24.8054 16.4534 25.8843 17.0939 26.5703C17.1201 26.5948 17.1464 26.621 17.1717 26.6481L20.9999 30.7011L24.8271 26.6481C24.8534 26.6201 24.8814 26.593 24.9085 26.5668C25.5455 25.8808 25.5306 24.8036 24.863 24.136C24.1814 23.4526 23.0692 23.4544 22.3859 24.136C21.7226 24.9445 20.3147 24.9865 19.6489 24.1771L19.6077 24.1299Z"/>
</mask>
<path fill-rule="evenodd" clip-rule="evenodd" d="M34.9998 1.75V11.5255L41.487 18.0128C42.1704 18.6961 42.1704 19.8039 41.487 20.4872C41.1449 20.8294 40.6978 21 40.2498 21C39.8018 21 39.3547 20.8294 39.0125 20.4872L37.6248 19.0995V40.25C37.6248 41.216 36.8408 42 35.8748 42H6.12478C5.15878 42 4.37478 41.216 4.37478 40.25V19.0995L2.98703 20.4872C2.30453 21.1706 1.19503 21.1706 0.512531 20.4872C-0.170844 19.8039 -0.170844 18.6961 0.512531 18.0128L4.88753 13.6378L5.76253 12.7628L16.987 1.53737C17.9784 0.546 19.2962 0 20.6988 0H21.2999C22.7025 0 24.0212 0.546 25.0125 1.53825L31.4998 8.0255V1.75C31.4998 0.784 32.2838 0 33.2498 0C34.2158 0 34.9998 0.784 34.9998 1.75ZM20.6997 3.5C20.2385 3.5 19.7879 3.68638 19.4624 4.01188L11.2243 12.25H30.7753L22.5389 4.01188C22.2082 3.682 21.7689 3.5 21.3008 3.5H20.6997ZM7.87478 38.5H34.1248V15.75H7.87478V38.5ZM19.7276 34.4514L14.6867 29.113C14.678 29.106 14.6692 29.0973 14.6605 29.0885C12.6139 27.041 12.6139 23.709 14.6605 21.6615C16.3764 19.9456 18.9926 19.6674 21.0007 20.8259C23.0124 19.6683 25.6242 19.9483 27.3384 21.6606C29.385 23.7099 29.385 27.0401 27.3392 29.0885C27.3287 29.0981 27.3191 29.1078 27.3086 29.1174L22.2721 34.4514C21.9414 34.8014 21.4811 35 20.9999 35C20.5186 35 20.0584 34.8014 19.7276 34.4514ZM19.6077 24.1299C18.9602 23.4824 17.7956 23.4763 17.1359 24.136C16.4674 24.8054 16.4534 25.8843 17.0939 26.5703C17.1201 26.5948 17.1464 26.621 17.1717 26.6481L20.9999 30.7011L24.8271 26.6481C24.8534 26.6201 24.8814 26.593 24.9085 26.5668C25.5455 25.8808 25.5306 24.8036 24.863 24.136C24.1814 23.4526 23.0692 23.4544 22.3859 24.136C21.7226 24.9445 20.3147 24.9865 19.6489 24.1771L19.6077 24.1299Z" fill="black"/>
<path d="M34.9998 11.5255H34.6998V11.6498L34.7877 11.7376L34.9998 11.5255ZM41.487 18.0128L41.2749 18.2249L41.487 18.0128ZM41.487 20.4872L41.2749 20.2751L41.487 20.4872ZM39.0125 20.4872L38.8004 20.6994L39.0125 20.4872ZM37.6248 19.0995L37.8369 18.8874L37.3248 18.3752V19.0995H37.6248ZM4.37478 19.0995H4.67478V18.3752L4.16265 18.8874L4.37478 19.0995ZM2.98703 20.4872L2.7749 20.2751L2.77476 20.2753L2.98703 20.4872ZM0.512531 20.4872L0.724799 20.2753L0.724663 20.2751L0.512531 20.4872ZM0.512531 18.0128L0.724663 18.2249H0.724663L0.512531 18.0128ZM4.88753 13.6378L5.09966 13.8499L4.88753 13.6378ZM5.76253 12.7628L5.97466 12.9749L5.97467 12.9749L5.76253 12.7628ZM16.987 1.53737L16.7749 1.32524L16.7749 1.32525L16.987 1.53737ZM25.0125 1.53825L24.8003 1.75029L24.8004 1.75038L25.0125 1.53825ZM31.4998 8.0255L31.2877 8.23763L31.7998 8.74977V8.0255H31.4998ZM19.4624 4.01188L19.2503 3.79974V3.79974L19.4624 4.01188ZM11.2243 12.25L11.0121 12.0379L10.5 12.55H11.2243V12.25ZM30.7753 12.25V12.55H31.4994L30.9874 12.0379L30.7753 12.25ZM22.5389 4.01188L22.7511 3.79977L22.7508 3.79946L22.5389 4.01188ZM34.1248 38.5V38.8H34.4248V38.5H34.1248ZM7.87478 38.5H7.57478V38.8H7.87478V38.5ZM34.1248 15.75H34.4248V15.45H34.1248V15.75ZM7.87478 15.75V15.45H7.57478V15.75H7.87478ZM14.6867 29.113L14.9049 28.907L14.8905 28.8918L14.8741 28.8788L14.6867 29.113ZM19.7276 34.4514L19.5095 34.6574L19.5096 34.6574L19.7276 34.4514ZM14.6605 29.0885L14.4483 29.3006L14.4484 29.3007L14.6605 29.0885ZM14.6605 21.6615L14.4483 21.4494L14.4483 21.4494L14.6605 21.6615ZM21.0007 20.8259L20.8508 21.0857L21.0005 21.1721L21.1504 21.0859L21.0007 20.8259ZM27.3384 21.6606L27.5506 21.4486L27.5504 21.4484L27.3384 21.6606ZM27.3392 29.0885L27.5421 29.3099L27.5515 29.3005L27.3392 29.0885ZM27.3086 29.1174L27.1059 28.8962L27.0979 28.9036L27.0905 28.9114L27.3086 29.1174ZM22.2721 34.4514L22.4901 34.6574L22.4902 34.6574L22.2721 34.4514ZM17.1359 24.136L16.9237 23.9239L16.9236 23.924L17.1359 24.136ZM19.6077 24.1299L19.834 23.9329L19.8272 23.9251L19.8199 23.9178L19.6077 24.1299ZM17.0939 26.5703L16.8746 26.775L16.8816 26.7825L16.8892 26.7896L17.0939 26.5703ZM17.1717 26.6481L16.9527 26.8531L16.9536 26.8541L17.1717 26.6481ZM20.9999 30.7011L20.7818 30.9071L20.9999 31.1381L21.218 30.9071L20.9999 30.7011ZM24.8271 26.6481L25.0452 26.8541L25.046 26.8533L24.8271 26.6481ZM24.9085 26.5668L25.1171 26.7823L25.1229 26.7768L25.1283 26.7709L24.9085 26.5668ZM24.863 24.136L24.6506 24.3479L24.6508 24.3481L24.863 24.136ZM22.3859 24.136L22.174 23.9236L22.1634 23.9342L22.1539 23.9457L22.3859 24.136ZM19.6489 24.1771L19.8806 23.9865L19.8752 23.9802L19.6489 24.1771ZM35.2998 11.5255V1.75H34.6998V11.5255H35.2998ZM41.6992 17.8006L35.2119 11.3134L34.7877 11.7376L41.2749 18.2249L41.6992 17.8006ZM41.6992 20.6994C42.4997 19.8988 42.4997 18.6012 41.6992 17.8006L41.2749 18.2249C41.8411 18.7911 41.8411 19.7089 41.2749 20.2751L41.6992 20.6994ZM40.2498 21.3C40.7742 21.3 41.2986 21.1 41.6992 20.6994L41.2749 20.2751C40.9912 20.5588 40.6214 20.7 40.2498 20.7V21.3ZM38.8004 20.6994C39.201 21.1 39.7254 21.3 40.2498 21.3V20.7C39.8782 20.7 39.5083 20.5588 39.2247 20.2751L38.8004 20.6994ZM37.4127 19.3116L38.8004 20.6994L39.2247 20.2751L37.8369 18.8874L37.4127 19.3116ZM37.9248 40.25V19.0995H37.3248V40.25H37.9248ZM35.8748 42.3C37.0065 42.3 37.9248 41.3817 37.9248 40.25H37.3248C37.3248 41.0503 36.6751 41.7 35.8748 41.7V42.3ZM6.12478 42.3H35.8748V41.7H6.12478V42.3ZM4.07478 40.25C4.07478 41.3817 4.9931 42.3 6.12478 42.3V41.7C5.32447 41.7 4.67478 41.0503 4.67478 40.25H4.07478ZM4.07478 19.0995V40.25H4.67478V19.0995H4.07478ZM3.19916 20.6994L4.58691 19.3116L4.16265 18.8874L2.7749 20.2751L3.19916 20.6994ZM0.300263 20.6992C1.09995 21.5 2.39961 21.5 3.1993 20.6992L2.77476 20.2753C2.20945 20.8413 1.29011 20.8413 0.724799 20.2753L0.300263 20.6992ZM0.300399 17.8006C-0.500133 18.6012 -0.500133 19.8988 0.300399 20.6994L0.724663 20.2751C0.158446 19.7089 0.158446 18.7911 0.724663 18.2249L0.300399 17.8006ZM4.6754 13.4256L0.300399 17.8006L0.724663 18.2249L5.09966 13.8499L4.6754 13.4256ZM5.5504 12.5506L4.6754 13.4256L5.09966 13.8499L5.97466 12.9749L5.5504 12.5506ZM16.7749 1.32525L5.55039 12.5506L5.97467 12.9749L17.1992 1.7495L16.7749 1.32525ZM20.6988 -0.3C19.2166 -0.3 17.8225 0.277612 16.7749 1.32524L17.1992 1.74951C18.1343 0.814388 19.3757 0.3 20.6988 0.3V-0.3ZM21.2999 -0.3H20.6988V0.3H21.2999V-0.3ZM25.2248 1.32621C24.1771 0.277589 22.7821 -0.3 21.2999 -0.3V0.3C22.623 0.3 23.8653 0.814412 24.8003 1.75029L25.2248 1.32621ZM31.7119 7.81337L25.2247 1.32612L24.8004 1.75038L31.2877 8.23763L31.7119 7.81337ZM31.1998 1.75V8.0255H31.7998V1.75H31.1998ZM33.2498 -0.3C32.1181 -0.3 31.1998 0.618315 31.1998 1.75H31.7998C31.7998 0.949686 32.4495 0.3 33.2498 0.3V-0.3ZM35.2998 1.75C35.2998 0.618315 34.3815 -0.3 33.2498 -0.3V0.3C34.0501 0.3 34.6998 0.949686 34.6998 1.75H35.2998ZM19.6745 4.22401C19.9436 3.95491 20.3179 3.8 20.6997 3.8V3.2C20.1592 3.2 19.6322 3.41784 19.2503 3.79974L19.6745 4.22401ZM11.4364 12.4621L19.6745 4.22401L19.2503 3.79974L11.0121 12.0379L11.4364 12.4621ZM30.7753 11.95H11.2243V12.55H30.7753V11.95ZM22.3268 4.22398L30.5631 12.4621L30.9874 12.0379L22.7511 3.79977L22.3268 4.22398ZM21.3008 3.8C21.6894 3.8 22.0525 3.95044 22.3271 4.22429L22.7508 3.79946C22.3638 3.41356 21.8484 3.2 21.3008 3.2V3.8ZM20.6997 3.8H21.3008V3.2H20.6997V3.8ZM34.1248 38.2H7.87478V38.8H34.1248V38.2ZM33.8248 15.75V38.5H34.4248V15.75H33.8248ZM7.87478 16.05H34.1248V15.45H7.87478V16.05ZM8.17478 38.5V15.75H7.57478V38.5H8.17478ZM14.4686 29.319L19.5095 34.6574L19.9457 34.2454L14.9049 28.907L14.4686 29.319ZM14.4484 29.3007C14.4543 29.3066 14.4751 29.3279 14.4993 29.3473L14.8741 28.8788C14.8788 28.8825 14.8812 28.8848 14.8802 28.8839C14.8791 28.8829 14.8775 28.8813 14.8726 28.8764L14.4484 29.3007ZM14.4483 21.4494C12.2846 23.6141 12.2846 27.136 14.4483 29.3006L14.8727 28.8764C12.9431 26.9461 12.9431 23.804 14.8727 21.8736L14.4483 21.4494ZM21.1506 20.566C19.0282 19.3416 16.2628 19.6349 14.4483 21.4494L14.8726 21.8736C16.4899 20.2564 18.9571 19.9932 20.8508 21.0857L21.1506 20.566ZM27.5504 21.4484C25.7377 19.6376 22.977 19.3425 20.8511 20.5659L21.1504 21.0859C23.0477 19.994 25.5107 20.2589 27.1263 21.8729L27.5504 21.4484ZM27.5515 29.3005C29.7143 27.135 29.7142 23.615 27.5506 21.4486L27.1261 21.8726C29.0558 23.8048 29.0557 26.9453 27.127 28.8765L27.5515 29.3005ZM27.5113 29.3385C27.5193 29.3312 27.5266 29.3242 27.5313 29.3197C27.5367 29.3146 27.5394 29.312 27.5419 29.3097L27.1365 28.8674C27.1285 28.8747 27.1212 28.8817 27.1165 28.8862C27.1112 28.8913 27.1084 28.8939 27.1059 28.8962L27.5113 29.3385ZM22.4902 34.6574L27.5267 29.3233L27.0905 28.9114L22.054 34.2454L22.4902 34.6574ZM20.9999 35.3C21.5638 35.3 22.1028 35.0673 22.4901 34.6574L22.0541 34.2453C21.7799 34.5355 21.3984 34.7 20.9999 34.7V35.3ZM19.5096 34.6574C19.8969 35.0673 20.4359 35.3 20.9999 35.3V34.7C20.6013 34.7 20.2198 34.5355 19.9456 34.2453L19.5096 34.6574ZM17.348 24.3481C17.8906 23.8056 18.8653 23.8117 19.3956 24.342L19.8199 23.9178C19.0552 23.1531 17.7006 23.147 16.9237 23.9239L17.348 24.3481ZM17.3131 26.3655C16.7826 25.7973 16.7942 24.9027 17.3481 24.348L16.9236 23.924C16.1405 24.7081 16.1241 25.9712 16.8746 26.775L17.3131 26.3655ZM17.3908 26.4432C17.361 26.4113 17.3299 26.3802 17.2985 26.3509L16.8892 26.7896C16.9103 26.8093 16.9317 26.8307 16.9527 26.8531L17.3908 26.4432ZM21.218 30.4951L17.3898 26.4421L16.9536 26.8541L20.7818 30.9071L21.218 30.4951ZM24.609 26.4422L20.7817 30.4952L21.218 30.9071L25.0452 26.8541L24.609 26.4422ZM24.6999 26.3512C24.6735 26.3767 24.6403 26.4088 24.6082 26.443L25.046 26.8533C25.0664 26.8315 25.0892 26.8093 25.1171 26.7823L24.6999 26.3512ZM24.6508 24.3481C25.2039 24.9012 25.2163 25.7943 24.6886 26.3626L25.1283 26.7709C25.8746 25.9672 25.8573 24.7061 25.0751 23.9239L24.6508 24.3481ZM22.5977 24.3484C23.1645 23.7831 24.0867 23.7825 24.6506 24.3479L25.0754 23.9242C24.276 23.1228 22.974 23.1257 22.174 23.9236L22.5977 24.3484ZM19.4172 24.3677C19.8193 24.8566 20.4331 25.0751 21.0244 25.0632C21.6152 25.0514 22.2217 24.8091 22.6178 24.3263L22.1539 23.9457C21.8868 24.2714 21.4577 24.4544 21.0123 24.4633C20.5674 24.4723 20.1442 24.3071 19.8805 23.9865L19.4172 24.3677ZM19.3814 24.3268L19.4226 24.3741L19.8752 23.9802L19.834 23.9329L19.3814 24.3268Z" fill="white" mask="url(#path-1-inside-1)"/>
</svg>
