<svg width="119" height="18" viewBox="0 0 119 18" fill="none" xmlns="http://www.w3.org/2000/svg">
<path fill-rule="evenodd" clip-rule="evenodd" d="M5.15082 8.20844C6.50346 5.69007 8.57233 4.60353 11.9542 4.60353L25.4454 4.60727L24.7164 5.96357H14.5612L14.5469 5.96387C13.2326 5.99091 10.6665 6.0437 9.38904 8.21176L4.77265 16.7945C3.53849 16.1221 2.47964 15.1983 1.67371 14.0907C0.867775 12.9832 0.335145 11.7199 0.114815 10.3933C-0.105492 9.06683 -0.00793127 7.71071 0.400386 6.42431C0.808704 5.13791 1.51744 3.9538 2.47468 2.9587C3.4319 1.96361 4.61337 1.18273 5.93258 0.673269C7.25179 0.163804 8.67531 -0.0613482 10.0989 0.0143023C11.5225 0.0899528 12.9101 0.46449 14.16 1.11048C15.41 1.75648 16.4907 2.65756 17.3229 3.74775H15.2426C13.883 2.43704 12.0608 1.64042 10.1201 1.50834C8.17941 1.37626 6.25452 1.91784 4.70891 3.03084C3.16329 4.14383 2.10394 5.75119 1.73085 7.54941C1.3578 9.34762 1.69682 11.2122 2.68397 12.7912L5.15082 8.20844ZM27.3134 6.35042V12.2566H29.6718V6.66708C29.6718 6.48032 29.8402 6.35042 30.1624 6.35042H34.8241V4.71688H29.6656C29.0085 4.71688 27.3416 4.94929 27.3134 6.35042ZM42.111 4.71688H42.0096L38.1989 9.4685V4.71688H35.8409V12.2566H38.2998L42.1105 7.50543V12.2566H44.4685V4.71688H42.111ZM58.6288 6.35042H64.1752V4.71688H58.1317C57.4741 4.71688 55.8072 4.94929 55.7794 6.35042V10.6239C55.8072 12.0288 57.4701 12.2566 58.1317 12.2566H64.1712V10.6239H58.6288C58.3128 10.6239 58.1585 10.494 58.1396 10.3176V9.30249H63.258V7.6702H58.1396V6.6567C58.1585 6.48073 58.3128 6.35042 58.6288 6.35042ZM72.0002 8.13004C71.9878 8.31722 71.8318 8.44837 71.5087 8.44837H67.7337V6.66874C67.7461 6.48613 67.9012 6.35125 68.2243 6.35125H71.5136C71.8367 6.35125 71.9922 6.48613 72.005 6.66957L72.0002 8.13004ZM72.005 4.71688H67.728C67.0704 4.71688 65.4044 4.94929 65.3758 6.35042V12.2562H67.7337V10.0815H72.0107C72.6683 10.0815 74.3344 9.84866 74.3635 8.44837V6.34834C74.3273 4.94929 72.6626 4.71729 72.005 4.71729V4.71688ZM52.2116 4.71688H48.2329C47.5767 4.71688 45.9045 4.95095 45.8736 6.34585V12.2566H48.2321V6.6455C48.2321 6.45832 48.4308 6.34959 48.7222 6.34959H51.7201C52.0454 6.34959 52.2094 6.455 52.2094 6.67165V12.2558H54.5687V6.35042C54.5409 4.94556 52.878 4.71688 52.2164 4.71688H52.2116ZM116.642 8.86505V10.2981C116.632 10.4853 116.477 10.6202 116.151 10.6202H113.151C112.825 10.6202 112.671 10.4828 112.661 10.2981V6.67248C112.671 6.4853 112.825 6.35042 113.151 6.35042H116.151C116.477 6.35042 116.631 6.48903 116.642 6.67248V8.86505ZM116.648 4.71688H112.656C111.997 4.71688 110.331 4.94929 110.304 6.35042V10.6239C110.331 12.0288 111.995 12.2566 112.656 12.2566H116.648C117.306 12.2566 118.971 12.0242 119 10.6239V6.35042C118.972 4.94929 117.306 4.71688 116.648 4.71688ZM93.55 10.3048C93.539 10.492 93.383 10.6243 93.0595 10.6243H89.1439V9.27966H93.0595C93.383 9.27966 93.539 9.41538 93.55 9.59799V10.3044V10.3048ZM89.1439 6.66625C89.1567 6.4853 89.3118 6.35042 89.6331 6.35042H92.9224C93.2446 6.35042 93.3997 6.4853 93.4116 6.66791V7.38051C93.3997 7.56312 93.2446 7.698 92.9224 7.698H89.1426L89.1439 6.66625ZM95.246 8.43509C95.5871 8.16366 95.77 7.83579 95.77 7.48634V6.35042C95.7414 4.94556 94.0793 4.71688 93.4169 4.71688H89.1399C88.4832 4.71688 86.8163 4.94929 86.7885 6.35042V12.2562H93.5588C94.2164 12.2562 95.8824 12.0242 95.9111 10.6239V9.4851C95.9062 9.0929 95.6757 8.72561 95.246 8.43509ZM83.0616 8.44961H79.083V6.67455C79.083 6.46413 79.2817 6.34668 79.5731 6.34668H82.5732C82.8985 6.34668 83.0523 6.4853 83.0633 6.66874L83.0616 8.4492V8.44961ZM83.0673 4.71688H79.0821C78.4263 4.71688 76.7545 4.95095 76.7237 6.34585V12.2566H79.0821V10.0807H83.0603V12.2562H85.4178V6.35042C85.3918 4.94929 83.7258 4.71688 83.0673 4.71688ZM106.697 4.71688H99.3745C98.7182 4.71688 97.0473 4.95095 97.0165 6.34585V12.2566H99.3745V6.65422C99.3745 6.45791 99.5737 6.34959 99.8641 6.34959H101.853V12.2554H104.212V6.35083H106.201C106.526 6.35083 106.68 6.48945 106.69 6.67289V12.2571H109.048V6.35042C109.021 4.94556 107.358 4.71688 106.697 4.71688ZM14.9342 7.14271C12.7062 7.14271 11.2778 7.8827 10.3592 9.59759L8.61829 12.8327H11.5215C11.6262 12.6402 11.7311 12.4478 11.8366 12.2543C11.9879 11.9769 12.1403 11.6975 12.2945 11.4129H17.1004C16.7615 12.3485 16.2297 13.2118 15.5354 13.9533C14.8413 14.6948 13.9984 15.2999 13.0552 15.7339C12.112 16.1679 11.087 16.4222 10.0392 16.4822C8.99137 16.5422 7.94127 16.4067 6.94918 16.0836L6.22194 17.4362C7.66802 17.942 9.22255 18.1111 10.753 17.9289C12.2834 17.7466 13.7444 17.2186 15.0112 16.3897C16.278 15.5609 17.3132 14.4558 18.0284 13.1688C18.7436 11.8817 19.1177 10.4509 19.1186 8.99829C19.1186 8.88001 19.1186 8.76297 19.1107 8.64593H17.5139C17.537 9.11314 17.514 9.58137 17.4451 10.0446H13.0337L13.0592 9.99643C13.9328 8.51478 14.8694 8.4849 16.2251 8.46332H23.3727L24.0827 7.14188L14.9342 7.14271ZM117.11 16.133V15.5714V15.571H117.526C117.679 15.5643 117.833 15.5745 117.984 15.6013C118.046 15.6163 118.102 15.649 118.144 15.6951C118.182 15.7414 118.202 15.7986 118.2 15.857C118.202 15.8898 118.196 15.9226 118.184 15.9533C118.172 15.9841 118.153 16.0122 118.129 16.0359C118.077 16.0821 118.011 16.1116 117.941 16.1201C117.824 16.1321 117.706 16.1363 117.587 16.133H117.11ZM117.11 15.217V14.7281H117.405C117.553 14.726 117.7 14.7285 117.847 14.7356C117.919 14.7383 117.987 14.7646 118.041 14.8099C118.085 14.8545 118.108 14.9135 118.106 14.9742C118.105 15.035 118.078 15.0926 118.031 15.1348C117.972 15.1798 117.899 15.2059 117.822 15.2095C117.773 15.217 117.646 15.217 117.447 15.217H117.11ZM117.616 14.3762H116.593V16.4891H117.463C117.787 16.4862 118 16.4816 118.085 16.4737C118.207 16.4657 118.325 16.4317 118.431 16.3741C118.524 16.3211 118.6 16.2461 118.652 16.1566C118.705 16.0713 118.733 15.9744 118.733 15.8757C118.736 15.7582 118.691 15.6441 118.608 15.5561C118.511 15.4615 118.386 15.3963 118.25 15.3689C118.354 15.331 118.445 15.2662 118.513 15.1817C118.576 15.1035 118.611 15.0077 118.612 14.9091C118.613 14.8211 118.586 14.7347 118.534 14.6617C118.482 14.5895 118.414 14.5289 118.334 14.4849C118.253 14.4392 118.162 14.4098 118.068 14.3977C117.918 14.3803 117.767 14.3737 117.616 14.3762ZM113.903 15.7227C113.869 15.6292 113.855 15.5302 113.863 15.4316V15.4345C113.863 15.1909 113.928 15.0091 114.058 14.8846C114.127 14.8233 114.208 14.7757 114.297 14.7445C114.385 14.7134 114.48 14.6993 114.574 14.7032C114.668 14.6989 114.761 14.7125 114.849 14.7433C114.937 14.774 115.017 14.8212 115.085 14.8821C115.214 15.0008 115.277 15.1788 115.277 15.4241C115.277 15.6694 115.21 15.8532 115.078 15.9757C115.012 16.0376 114.933 16.0862 114.845 16.1184C114.758 16.1507 114.665 16.1659 114.572 16.1633C114.478 16.166 114.384 16.1507 114.296 16.1185C114.209 16.0863 114.129 16.0377 114.061 15.9757C113.991 15.9023 113.937 15.8163 113.903 15.7227ZM113.448 14.9045C113.365 15.0743 113.325 15.2598 113.332 15.4465V15.4494C113.324 15.5968 113.35 15.7441 113.409 15.881C113.467 16.0178 113.557 16.1409 113.672 16.2417C113.897 16.4339 114.199 16.5293 114.579 16.5293C114.905 16.5436 115.226 16.4401 115.474 16.24C115.588 16.1373 115.677 16.0125 115.736 15.8742C115.794 15.736 115.82 15.5875 115.811 15.439C115.811 15.095 115.698 14.8265 115.472 14.6339C115.221 14.4319 114.898 14.328 114.568 14.3434C114.38 14.34 114.194 14.3682 114.017 14.4268C113.895 14.4687 113.782 14.5322 113.685 14.614C113.588 14.6966 113.508 14.7949 113.448 14.9045ZM112.7 15.8445L112.202 15.7138V15.7167C112.173 15.8495 112.097 15.9699 111.986 16.057C111.884 16.1297 111.76 16.1678 111.632 16.1649C111.549 16.1683 111.465 16.1549 111.387 16.1256C111.309 16.0962 111.239 16.0516 111.18 15.9948C111.063 15.881 111.005 15.6906 111.005 15.4233C111.005 15.1718 111.064 14.9896 111.183 14.8771C111.243 14.8208 111.315 14.7768 111.394 14.7478C111.473 14.7188 111.558 14.7055 111.643 14.7086C111.767 14.7048 111.889 14.7376 111.993 14.8024C112.088 14.8635 112.156 14.956 112.183 15.0618L112.694 14.9609C112.648 14.8099 112.558 14.6746 112.432 14.5708C112.216 14.4111 111.945 14.3297 111.67 14.3413C111.352 14.328 111.041 14.4331 110.804 14.6339C110.584 14.8277 110.474 15.1012 110.474 15.4532C110.466 15.5986 110.491 15.7438 110.548 15.8793C110.605 16.0148 110.691 16.1373 110.802 16.2388C111.03 16.434 111.331 16.5373 111.639 16.5264C111.878 16.5353 112.114 16.4771 112.318 16.3592C112.505 16.2348 112.64 16.0528 112.7 15.8445ZM108.117 14.3774H107.627L107.633 16.4928H108.148L109.184 15.1132V16.4911H109.666V14.377H109.152L108.117 15.7819V14.3774ZM105.181 16.1313V15.5694H105.598C105.751 15.5626 105.905 15.5726 106.056 15.5992C106.118 15.6141 106.175 15.6468 106.217 15.693C106.255 15.7393 106.275 15.7964 106.273 15.8549C106.275 15.8879 106.269 15.9208 106.256 15.9516C106.244 15.9823 106.224 16.0103 106.2 16.0338C106.149 16.0801 106.084 16.1096 106.014 16.118C105.896 16.1301 105.777 16.1346 105.659 16.1313H105.181ZM105.181 15.2153V14.7264H105.474C105.621 14.7245 105.768 14.727 105.914 14.7339C105.988 14.7356 106.058 14.7618 106.113 14.8078C106.158 14.8523 106.182 14.9116 106.179 14.9726C106.177 15.0336 106.15 15.0914 106.102 15.1332C106.043 15.1783 105.97 15.2045 105.894 15.2079C105.847 15.2153 105.719 15.2153 105.519 15.2153H105.181ZM105.688 14.3741H104.665V14.3745L104.666 16.487H105.536C105.865 16.4845 106.072 16.4795 106.158 16.472C106.28 16.4642 106.399 16.4301 106.504 16.372C106.597 16.3187 106.673 16.2438 106.725 16.1546C106.778 16.0693 106.806 15.9724 106.807 15.8736C106.809 15.7561 106.764 15.6424 106.681 15.554C106.584 15.4594 106.459 15.3942 106.322 15.3672C106.427 15.3292 106.518 15.2642 106.585 15.1797C106.648 15.1014 106.683 15.0057 106.684 14.907C106.686 14.819 106.658 14.7327 106.606 14.66C106.555 14.5874 106.486 14.5268 106.407 14.4828C106.325 14.4376 106.234 14.4081 106.14 14.3957C105.99 14.3787 105.839 14.3716 105.688 14.3741ZM102.421 15.3316V14.7318L102.669 14.7356C102.793 14.7325 102.917 14.7372 103.041 14.7497C103.119 14.7598 103.191 14.7926 103.248 14.8435C103.274 14.8678 103.295 14.897 103.309 14.9292C103.323 14.9613 103.33 14.9959 103.329 15.0307C103.331 15.0899 103.31 15.1478 103.272 15.1946C103.23 15.2435 103.175 15.2796 103.112 15.2984C102.977 15.327 102.839 15.3378 102.702 15.3316H102.421ZM101.905 14.3791V16.4882L102.421 16.4928V15.6947H102.758C102.937 15.6978 103.115 15.6876 103.293 15.664C103.387 15.6461 103.477 15.6125 103.559 15.5648C103.648 15.5127 103.723 15.4409 103.777 15.3556C103.836 15.256 103.866 15.1431 103.861 15.029C103.868 14.8796 103.816 14.7327 103.714 14.6181C103.618 14.5131 103.489 14.4405 103.346 14.4106C103.143 14.3828 102.938 14.372 102.733 14.3791H101.905ZM99.1448 14.3791V16.4878L101.09 16.492V16.135H99.6623V15.5598H100.946V15.205H99.6623V14.7368H101.04V14.3791H99.1448ZM98.3202 15.842L97.823 15.7109L97.8248 15.7163C97.7948 15.8491 97.7177 15.9682 97.6062 16.0541C97.5048 16.1272 97.3801 16.1649 97.2531 16.162C97.1693 16.1651 97.0856 16.1516 97.0076 16.1223C96.9296 16.0929 96.8591 16.0485 96.8005 15.9919C96.6846 15.8781 96.6264 15.6876 96.6264 15.4204C96.6264 15.1689 96.6855 14.9867 96.8036 14.8742C96.8641 14.8178 96.9363 14.7737 97.0157 14.7447C97.0951 14.7157 97.18 14.7024 97.2651 14.7057C97.3887 14.7017 97.5105 14.7345 97.6132 14.7995C97.7089 14.8604 97.7767 14.953 97.8032 15.0589L98.3145 14.958C98.2695 14.8065 98.1783 14.6712 98.0527 14.5679C97.8361 14.4082 97.5658 14.327 97.2911 14.3388C96.9727 14.3251 96.6613 14.4301 96.4246 14.631C96.205 14.8252 96.0953 15.0983 96.0953 15.4503C96.0873 15.5956 96.1124 15.741 96.1687 15.8765C96.2251 16.0121 96.3116 16.1347 96.4223 16.2363C96.6506 16.4314 96.9508 16.5346 97.2589 16.5239C97.4981 16.5327 97.7346 16.4743 97.9385 16.3563C98.1258 16.2322 98.2607 16.05 98.3202 15.842ZM93.5002 15.7213C93.4661 15.6277 93.4526 15.5286 93.4605 15.4299L93.4623 15.4345C93.4623 15.1913 93.5262 15.0062 93.6536 14.88C93.7963 14.7638 93.9786 14.6999 94.1673 14.6999C94.3559 14.6999 94.5382 14.7638 94.6809 14.88C94.8092 14.9987 94.8727 15.1772 94.8727 15.422C94.8727 15.6677 94.8052 15.8512 94.6739 15.974C94.6076 16.0358 94.5286 16.0842 94.4417 16.1164C94.3549 16.1486 94.2621 16.1638 94.1688 16.1612C94.0748 16.1641 93.9813 16.149 93.8937 16.1168C93.8061 16.0846 93.7264 16.0361 93.6593 15.974C93.5886 15.9009 93.5344 15.8149 93.5002 15.7213ZM93.0449 14.9024C92.9616 15.0722 92.9215 15.2581 92.9281 15.4449L92.9303 15.4494C92.9223 15.5963 92.9483 15.7431 93.0065 15.8797C93.0647 16.0162 93.1538 16.1392 93.2675 16.24C93.4923 16.4318 93.7946 16.5277 94.1745 16.5277C94.5012 16.542 94.8214 16.4384 95.0697 16.238C95.1842 16.1355 95.2737 16.0107 95.3319 15.8724C95.3901 15.7341 95.4157 15.5855 95.4069 15.437C95.4069 15.0933 95.294 14.8248 95.0679 14.6318C94.8172 14.4301 94.4942 14.3262 94.1648 14.3413C93.9771 14.338 93.7906 14.3662 93.6135 14.4251C93.4914 14.4666 93.379 14.5306 93.2825 14.6119C93.1851 14.6949 93.1044 14.7928 93.0449 14.9024ZM91.1378 14.7368V16.4891L91.6552 16.4928V14.7368H92.4111V14.3791H90.3801V14.7368H91.1378ZM88.2606 16.1292V15.5677V15.5673H88.6771C88.8303 15.5606 88.9839 15.5707 89.1346 15.5976C89.1975 15.6121 89.2539 15.6449 89.2959 15.6914C89.3339 15.7376 89.3535 15.7948 89.3514 15.8532C89.353 15.8861 89.3474 15.9189 89.3349 15.9497C89.3225 15.9805 89.3035 16.0085 89.2792 16.0321C89.2276 16.0786 89.1615 16.1081 89.091 16.1164C88.9737 16.1284 88.8556 16.1326 88.7379 16.1292H88.2606ZM88.2606 15.2133V14.7244H88.5537C88.7007 14.7224 88.8477 14.7249 88.9945 14.7318C89.068 14.7336 89.1384 14.76 89.1932 14.8061C89.2149 14.8271 89.2318 14.852 89.2429 14.8794C89.254 14.9067 89.2592 14.9358 89.258 14.9651C89.2593 14.9964 89.253 15.0276 89.2397 15.0563C89.2265 15.085 89.2065 15.1106 89.1813 15.1311C89.1222 15.1759 89.0496 15.2021 88.9737 15.2058C88.9248 15.2133 88.7974 15.2133 88.5986 15.2133H88.2606ZM88.7657 14.3724H87.7441V16.4853H88.6136C88.9376 16.4828 89.1505 16.4779 89.236 16.4704C89.3581 16.4621 89.4766 16.4281 89.5824 16.3699C89.6746 16.3167 89.7507 16.242 89.8032 16.1529C89.8552 16.067 89.883 15.9707 89.8839 15.8719C89.8861 15.7545 89.8411 15.6403 89.7583 15.5523C89.6613 15.4573 89.5361 15.3921 89.3995 15.3652C89.504 15.3274 89.5952 15.2622 89.6617 15.178C89.7256 15.0997 89.7606 15.004 89.7614 14.9053C89.7627 14.8173 89.7358 14.731 89.6838 14.658C89.6322 14.5858 89.5643 14.5256 89.485 14.4812C89.403 14.4355 89.3122 14.4065 89.2184 14.394C89.068 14.3766 88.9169 14.3699 88.7657 14.3724ZM85.7876 14.8651L86.1397 15.6499L85.4385 15.6565L85.7876 14.8651ZM86.5329 16.4862H87.0895L86.0661 14.3778H85.5201L84.5257 16.492H85.0727L85.2834 16.0114H86.3059L86.5329 16.4862ZM80.347 14.3724H79.8626V16.4928H80.3787L81.4132 15.1132V16.4862H81.8967V14.3724H81.3823L80.347 15.7773V14.3724ZM75.4345 16.133V15.571H75.8514C76.0046 15.5643 76.1582 15.5745 76.3089 15.6013C76.3716 15.616 76.4278 15.6488 76.4698 15.6951C76.5079 15.7413 76.5276 15.7985 76.5258 15.857C76.5272 15.8898 76.5216 15.9226 76.5093 15.9533C76.4969 15.9841 76.4781 16.0122 76.4539 16.0359C76.4025 16.0821 76.3367 16.1116 76.2661 16.1201C76.1489 16.1321 76.0308 16.1367 75.9131 16.133H75.4345ZM75.4345 15.217V14.7285V14.7281H75.7258C75.9691 14.7281 76.1163 14.7306 76.1674 14.7356C76.2411 14.7371 76.3117 14.7633 76.3666 14.8095C76.3884 14.8304 76.4053 14.8554 76.4164 14.8828C76.4275 14.9102 76.4324 14.9395 76.431 14.9688C76.4321 15 76.4259 15.031 76.4129 15.0597C76.3998 15.0884 76.3803 15.114 76.3556 15.1348C76.2962 15.1794 76.2235 15.2055 76.1476 15.2095C76.0978 15.217 75.9717 15.217 75.7725 15.217H75.4345ZM75.94 14.3757H74.9192V14.3762L74.9183 16.4891H75.7875C76.1119 16.4862 76.3239 16.4816 76.4103 16.4737C76.5319 16.4656 76.6498 16.4315 76.7554 16.3741C76.848 16.3209 76.9244 16.246 76.9771 16.1566C77.0295 16.0707 77.0573 15.9744 77.0577 15.8757C77.0599 15.7582 77.0154 15.6441 76.9326 15.5561C76.8356 15.461 76.7104 15.3959 76.5734 15.3689C76.6779 15.331 76.7689 15.2662 76.836 15.1817C76.8998 15.1034 76.9346 15.0077 76.9352 14.9091C76.937 14.8211 76.9096 14.7347 76.8576 14.6617C76.8065 14.5895 76.7386 14.5289 76.6588 14.4849C76.5773 14.4392 76.487 14.4098 76.3935 14.3977C76.2428 14.3807 76.0912 14.3737 75.94 14.3757ZM72.2281 15.7228C72.1939 15.6293 72.1803 15.5302 72.1879 15.4316V15.4345C72.1879 15.1909 72.2536 15.0091 72.3827 14.8821C72.5255 14.7658 72.7079 14.7018 72.8966 14.7018C73.0854 14.7018 73.2678 14.7658 73.4105 14.8821C73.5375 15.0008 73.6023 15.1788 73.6023 15.4241C73.6023 15.6694 73.5335 15.8532 73.4035 15.9757C73.2642 16.0945 73.083 16.1603 72.8951 16.1603C72.7072 16.1603 72.526 16.0945 72.3867 15.9757C72.3162 15.9024 72.2623 15.8163 72.2281 15.7228ZM71.7732 14.9045C71.6899 15.0742 71.6502 15.2598 71.6568 15.4465V15.4494C71.6487 15.5968 71.6749 15.744 71.7335 15.8809C71.7921 16.0177 71.8818 16.1409 71.9962 16.2417C72.221 16.4339 72.5233 16.5293 72.9033 16.5293C73.2299 16.5437 73.55 16.4402 73.7984 16.24C73.9125 16.1373 74.0018 16.0125 74.06 15.8742C74.1181 15.736 74.1439 15.5875 74.1356 15.439C74.1356 15.095 74.0223 14.8265 73.7962 14.6339C73.5455 14.4322 73.2225 14.3283 72.8931 14.3434C72.7054 14.3396 72.5185 14.3683 72.3413 14.4268C72.0945 14.5125 71.8914 14.6832 71.7732 14.9045ZM68.8061 14.3787V16.4911L69.3253 16.4928V15.5685H70.3359V16.4928H70.8511V14.3791H70.3359V15.2108H69.3253V14.3787H68.8061ZM66.3494 14.377H65.8659V16.4928H66.3824L67.4155 15.1132V16.4911H67.899V14.377H67.3847L66.3494 15.7819V14.377ZM63.1059 14.8605L63.6092 14.9539V14.956C63.6346 14.8724 63.6906 14.8 63.7672 14.7516C63.8439 14.7032 63.9362 14.682 64.028 14.6916C64.1323 14.685 64.2357 14.7132 64.3202 14.7713C64.3515 14.7944 64.3768 14.8241 64.3941 14.8579C64.4114 14.8917 64.4202 14.9288 64.4198 14.9663C64.4206 15.0118 64.4096 15.0568 64.3878 15.0973C64.366 15.1379 64.334 15.1729 64.2946 15.1992C64.1871 15.2647 64.0601 15.2959 63.9323 15.2884H63.8728V15.6067H63.9892C64.1216 15.5987 64.2537 15.6265 64.37 15.6868C64.4083 15.7084 64.4401 15.739 64.4621 15.7756C64.4841 15.8122 64.4956 15.8535 64.4956 15.8956C64.4942 15.9346 64.4835 15.9728 64.4642 16.0073C64.4449 16.0418 64.4175 16.0717 64.3841 16.0948C64.2792 16.1612 64.1535 16.1919 64.028 16.1819C63.9253 16.1848 63.823 16.1653 63.7296 16.1247C63.6335 16.0691 63.5639 15.9811 63.5357 15.8781L63.0623 16.0068C63.1169 16.1821 63.2422 16.3303 63.4114 16.4198C63.6104 16.5018 63.8268 16.5396 64.0438 16.5301C64.3722 16.5301 64.6186 16.4733 64.7829 16.3587C64.8601 16.3087 64.9229 16.2415 64.9657 16.1631C65.0086 16.0847 65.0301 15.9975 65.0284 15.9093C65.032 15.7897 64.987 15.6735 64.9024 15.5843C64.7966 15.4847 64.6644 15.4141 64.5194 15.3801C64.6397 15.3317 64.7468 15.2584 64.8328 15.1655C64.9011 15.0895 64.9385 14.9929 64.9381 14.8933C64.9358 14.8163 64.9137 14.741 64.8736 14.6739C64.8336 14.6068 64.7767 14.5499 64.708 14.5081C64.5551 14.399 64.3285 14.3442 64.0288 14.3442C63.5215 14.3438 63.2139 14.516 63.1059 14.8605ZM61.2896 14.87L61.6418 15.6544H60.9445L61.2896 14.87ZM62.0305 16.4911H62.5916L61.5673 14.3791H61.0203L60.0255 16.4928H60.5725L60.7854 16.0114H61.8079L62.0305 16.4911ZM59.8673 14.377H58.1356L58.1365 16.4911H58.6526V14.7318H59.8673V14.377ZM56.1553 14.87L56.5075 15.6544H55.8102L56.1553 14.87ZM56.8923 16.4911H57.4573L56.4357 14.3778H55.8896L54.8953 16.492H55.4422L55.652 16.0114H56.6737L56.8923 16.4911ZM51.7928 14.3787V16.4911L52.2702 16.4936V14.8294L52.7753 16.4936H53.2729L53.781 14.8294V16.4928H54.2606V14.3791H53.4866L53.0291 15.8213L52.5655 14.3787H51.7928ZM49.1117 15.7239C49.0774 15.6304 49.0637 15.5314 49.0712 15.4328L49.0725 15.4345C49.0725 15.1909 49.1343 15.0091 49.2665 14.8829C49.409 14.7668 49.5912 14.7029 49.7797 14.7029C49.9682 14.7029 50.1504 14.7668 50.293 14.8829C50.4212 15.0016 50.4856 15.1801 50.4856 15.4249C50.4856 15.6706 50.4181 15.8541 50.2868 15.9769C50.2203 16.0389 50.1411 16.0874 50.0541 16.1196C49.967 16.1518 49.8739 16.1669 49.7804 16.1641C49.6863 16.1671 49.5926 16.152 49.5049 16.1197C49.4173 16.0875 49.3375 16.0387 49.2705 15.9765C49.1999 15.9033 49.1459 15.8173 49.1117 15.7239ZM48.6538 14.907C48.5707 15.0768 48.5309 15.2625 48.5375 15.4494C48.5292 15.5973 48.5553 15.745 48.614 15.8824C48.6727 16.0198 48.7626 16.1434 48.8773 16.2446C49.1016 16.4364 49.4035 16.5322 49.7835 16.5322C50.1101 16.5467 50.4302 16.4432 50.6786 16.243C50.7932 16.1404 50.8826 16.0157 50.9408 15.8774C50.9991 15.7391 51.0247 15.5905 51.0158 15.4419C51.0158 15.0979 50.903 14.8294 50.6769 14.6368C50.4262 14.4351 50.1031 14.3312 49.7738 14.3463C49.5862 14.343 49.3995 14.3712 49.2224 14.4297C48.9765 14.5167 48.7737 14.6869 48.6538 14.907ZM46.7467 14.7372V16.4936V16.494L47.2642 16.4932V14.7372H48.0201V14.3795H45.9891V14.7372H46.7467ZM43.8722 16.133V15.571H43.8726H44.2891C44.4424 15.5644 44.5959 15.5745 44.7466 15.6013C44.8093 15.6163 44.8657 15.649 44.908 15.6951C44.9455 15.7415 44.9651 15.7986 44.9635 15.857C44.9653 15.8899 44.9598 15.9229 44.9472 15.9537C44.9347 15.9845 44.9155 16.0125 44.8907 16.0359C44.8396 16.0823 44.7735 16.1118 44.703 16.1201C44.5853 16.1321 44.4672 16.1363 44.3486 16.133H43.8722ZM43.8722 15.217V14.7285V14.7281H44.164C44.3112 14.726 44.4585 14.7285 44.6056 14.7356C44.6791 14.7374 44.7495 14.7638 44.8044 14.8099C44.826 14.8309 44.8429 14.8558 44.854 14.8831C44.8652 14.9104 44.8703 14.9396 44.8692 14.9688C44.8705 15.0001 44.8644 15.0312 44.8512 15.0599C44.8381 15.0886 44.8183 15.1142 44.7934 15.1348C44.7343 15.1797 44.6616 15.2059 44.5858 15.2095C44.5368 15.217 44.4095 15.217 44.2107 15.217H43.8722ZM44.3777 14.3757H43.3565L43.3561 14.3762V16.4891H44.2257C44.5558 16.4862 44.7625 16.4816 44.848 16.4737C44.9701 16.4658 45.0886 16.4318 45.1944 16.3741C45.2873 16.3212 45.3638 16.2462 45.4161 16.1566C45.4686 16.0712 45.4964 15.9743 45.4968 15.8757C45.499 15.7582 45.454 15.6441 45.3712 15.5561C45.2751 15.461 45.1499 15.3959 45.0133 15.3689C45.1177 15.3313 45.2085 15.2662 45.2747 15.1813C45.3352 15.1076 45.3698 15.0179 45.3736 14.9247C45.3774 14.8315 45.3502 14.7396 45.2958 14.6617C45.2447 14.5895 45.1764 14.5289 45.0966 14.4849C45.015 14.4392 44.9242 14.4098 44.8304 14.3977C44.6801 14.3807 44.5289 14.3737 44.3777 14.3757ZM41.4005 14.8688L41.7526 15.6536H41.0554L41.4005 14.8688ZM42.1405 16.4899H42.7029L41.6795 14.3778H41.133L40.1386 16.492H40.6865L40.8963 16.0114H41.9179L42.1405 16.4899ZM36.4932 16.135H35.9961L35.9917 15.576H36.517C36.6642 15.5662 36.8117 15.5892 36.9476 15.6432C36.9816 15.6624 37.0106 15.6886 37.0323 15.7198C37.0539 15.7511 37.0678 15.7866 37.0727 15.8236C37.0777 15.8606 37.0737 15.8982 37.0609 15.9335C37.0482 15.9689 37.0271 16.001 36.9992 16.0276C36.9534 16.0715 36.8951 16.102 36.8313 16.1155C36.7193 16.1317 36.6061 16.1379 36.4932 16.135ZM35.9956 14.3762H35.4799H35.4795V16.4862H36.6902C36.856 16.4918 37.0216 16.4732 37.1812 16.431C37.2994 16.391 37.403 16.3202 37.4801 16.2268C37.5691 16.123 37.6158 15.9923 37.6123 15.8586C37.6127 15.7728 37.5934 15.6879 37.5556 15.6098C37.5177 15.5317 37.4624 15.4622 37.3932 15.4063C37.2473 15.2813 37.0115 15.2187 36.6863 15.2187H35.9956V14.3762ZM33.4851 14.7372V16.4899V16.4903L33.9964 16.4932V14.7372H34.7536V14.3795H32.7227V14.7372H33.4851ZM30.1505 14.3791V16.4899L32.0942 16.492V16.135H30.6661V15.5598H31.9487V15.205H30.6666V14.7368H32.0452V14.3791H30.1505ZM29.3258 15.8437L28.8286 15.7125V15.7163C28.7987 15.8491 28.7229 15.969 28.6127 16.0562C28.5109 16.1292 28.3862 16.167 28.2583 16.1641C28.1744 16.1672 28.0908 16.1536 28.0129 16.1242C27.935 16.0948 27.8645 16.0503 27.8061 15.9935C27.6898 15.8798 27.6316 15.6897 27.6316 15.4224C27.6316 15.1709 27.6906 14.9883 27.8079 14.8763C27.8684 14.8198 27.9406 14.7757 28.02 14.7468C28.0994 14.7178 28.1843 14.7045 28.2693 14.7078C28.3932 14.7036 28.5154 14.7362 28.6184 14.8012C28.7136 14.8625 28.7811 14.9552 28.8075 15.061L29.3188 14.9597C29.2738 14.8086 29.183 14.6729 29.057 14.57C28.8404 14.4101 28.5702 14.3287 28.2953 14.3405C27.9769 14.3267 27.6656 14.4317 27.4288 14.6327C27.2098 14.8269 27.0996 15.1 27.0996 15.4523C27.0916 15.5977 27.1167 15.743 27.1732 15.8785C27.2297 16.014 27.3162 16.1365 27.4271 16.238C27.6555 16.4333 27.9562 16.5365 28.2645 16.5256C28.5031 16.5345 28.7391 16.4763 28.9424 16.3583C29.13 16.2342 29.2657 16.0521 29.3258 15.8437Z" fill="#333333"/>
</svg>
