<?xml version="1.0" encoding="utf-8"?>
<!-- Generator: Adobe Illustrator 21.0.0, SVG Export Plug-In . SVG Version: 6.00 Build 0)  -->
<svg version="1.1" id="Layer_1" xmlns="http://www.w3.org/2000/svg" xmlns:xlink="http://www.w3.org/1999/xlink" x="0px" y="0px"
	 viewBox="0 0 399 137.4" style="enable-background:new 0 0 399 137.4;" xml:space="preserve">
<style type="text/css">
	.st0{fill:#458500;}
	.st1{fill:#458400;}
	.st2{fill:#458501;}
	.st3{fill:#FEFEFE;}
	.st4{fill:#FDFDFC;}
</style>
<path class="st0" d="M206.2,167.7c0,53.5,0,107,0,160.4c0,16.1-1.4,31.9-11.6,45.4c-14.2,18.8-33.6,23.6-55.4,19.2
	c-22.5-4.5-38.3-23.4-39.8-50.7c-1.8-32.6-0.9-65.4-1-98.1c-0.1-39.2,0-39.2-38.2-39.2c-32.7,0-65.5,0.6-98.2-0.3
	c-13.8-0.4-17.6,4-17.3,17.5c0.8,37.5,0.4,75,0.2,112.5c-0.1,23.1-8,42.5-29.2,53.8c-30.7,16.3-67.4,0-75.5-33.7
	c-2.6-10.7-3-22.1-3-33.2c-0.2-102.2-0.1-204.3-0.1-306.5c0-7.2,0.2-14.4,1.2-21.5c4.3-34,23.1-50.8,55.2-49.9
	c30.1,0.9,50.1,21.6,51.4,54.6c0.9,24.7,0.2,49.5,0.2,74.2c0,38.9,0,38.9,38.1,38.9c32.7,0,65.5-0.6,98.2,0.3
	c13.4,0.4,17.8-3.4,17.4-17.1c-1-31.1-1.1-62.3,0-93.4c1.2-35.7,20.6-56.6,51-57.5c35-1,55.6,19.8,56.5,59
	c0.8,38.3,0.2,76.6,0.2,114.9C206.2,134.2,206.2,150.9,206.2,167.7z"/>
<path class="st1" d="M912.8,87.4c38.1-29.2,76.8-34.9,117.4-26.7c58.4,11.8,95.9,54.2,105.5,123.9c8.5,61.7,2.5,121.9-43.2,170.2
	c-43.1,45.7-114.2,52.7-166.3,17.5c-9.6-6.5-15.4-13.7-24.3,2.9c-9.5,17.7-29.1,21.6-48.4,17.8c-17.9-3.5-30-15.1-34.1-33
	c-2.4-10.7-3.1-22.1-3.1-33.1c-0.2-104.6-0.2-209.2-0.1-313.8c0-8.8,0-17.6,1.1-26.3c3.7-28.5,22.2-44.2,50.2-43.2
	c25.8,0.9,43.9,18.3,44.9,46.2C913.7,20.7,912.8,51.7,912.8,87.4z"/>
<path class="st0" d="M415.9,257.5c-25.3,0-46.9,0.5-68.4-0.2c-13.5-0.4-16.7,3.8-12.5,16.9c12.2,37.7,51.9,54.9,88.9,37.4
	c16.9-8,29.5-21.5,43.1-33.7c17.9-16,40.7-18.5,56.5-6.5c15,11.4,18.6,32.7,7.4,54.2c-21.9,42.1-60.5,60.3-104.7,66.4
	c-44,6.1-87.7,2.9-127-21.4C241.5,335,216,263.7,231.8,183c11.5-58.9,43.8-101.8,102.1-117.8C396,48,456.1,53.2,504.2,103.4
	c26.7,27.8,38.6,61.9,37.3,100.2c-1,31-15,46.4-45.8,51.5C468,259.7,440,256.7,415.9,257.5z"/>
<path class="st0" d="M656.5,82.2c34.6-36.8,85.1-26.9,114.4-9.5c23.2,13.8,31.5,36.6,22.3,59c-9.3,22.5-30.7,31.1-57.5,23.2
	c-45.8-13.6-60.1-4.1-67.9,43.7c-6.5,40.5-3.2,81.1-4.1,121.7c-0.2,9.6,0.4,19.3-1,28.6c-4.5,29.1-24.4,45.8-52.4,44.9
	c-26.2-0.8-44.7-18.5-46.9-47.7c-1.7-22.2-1.1-44.6-1.1-66.9c0-54.2-0.1-108.4,0.5-162.7c0.2-24.2,5.7-46.5,31.4-56.5
	C616.2,51.7,635.9,59.1,656.5,82.2z"/>
<path class="st0" d="M-289.9,225.6c0-37.5-0.2-75,0.1-112.5c0.3-34.6,18.6-55,48.9-55.4c31.2-0.4,51.3,20.7,51.5,55.9
	c0.4,74.2,0.5,148.3,0,222.5c-0.2,37.3-19.8,58.2-52.1,57.8c-30.7-0.4-48.2-21.4-48.4-58.3C-290,299-289.9,262.3-289.9,225.6z"/>
<path class="st2" d="M-240.3-52.5c29.6-0.4,50.3,19,51,47.6c0.7,30.2-19.8,51.3-49.9,51.5C-269.3,46.9-289.4,28-289.9-1
	C-290.5-31.6-270.6-52.1-240.3-52.5z"/>
<path class="st3" d="M916.8,233.9c0.3-30.4,3.8-53.8,20-73.3c27.1-32.6,72.4-27.3,89.9,11.2c13.7,30.1,14.5,61.9,4.9,93.4
	c-8.7,28.8-28.9,43.9-55.6,43.3c-26.6-0.6-46.2-16.4-54.2-45.3C918.6,251.9,917.8,239.8,916.8,233.9z"/>
<path class="st4" d="M383.8,188.7c-8.7,0-17.5,0.4-26.2-0.1c-7.7-0.4-18.9,3.9-22.3-2.5c-4.6-8.5,3-18.1,7.9-26
	c12.1-19.5,30.3-27.6,52.9-24c21.7,3.4,34.9,17.3,42,37.6c3.9,11.1,1.4,16-11.4,15.2C412.4,188.1,398.1,188.7,383.8,188.7z"/>
</svg>
