<?xml version="1.0" encoding="UTF-8"?>
<svg width="180px" height="140px" viewBox="0 0 180 140" version="1.1" xmlns="http://www.w3.org/2000/svg" xmlns:xlink="http://www.w3.org/1999/xlink">
    <!-- Generator: Sketch 51.2 (57519) - http://www.bohemiancoding.com/sketch -->
    <title>Group</title>
    <desc>Created with Sketch.</desc>
    <defs></defs>
    <g id="Page-1" stroke="none" stroke-width="1" fill="none" fill-rule="evenodd">
        <g id="iml">
            <g id="Group">
                <path d="M179.704,15.182 L175.925,104.022 C175.925,108.741 172.848,112.918 168.325,114.34 L106.958,134.665 L92.488,139.531 C91.612,139.812 90.701,139.951 89.79,139.951 C88.88,139.951 87.969,139.812 87.091,139.531 L64.209,131.835 L11.386,114.34 C10.147,113.95 9.023,113.348 8.034,112.592 C6.319,111.428 5.049,109.699 4.441,107.7 C4.019,106.542 3.785,105.304 3.785,104.022 L0.006,15.182 C0.006,9.395 4.57,4.669 10.316,4.379 C10.688,4.36 51.645,0.984 89.856,0.984 C128.347,0.984 169.022,4.36 169.395,4.379 C175.14,4.669 179.704,9.395 179.704,15.182" id="Fill-1" fill="#FCC200"></path>
                <path d="M89.789,129.801 C88.617,129.801 87.443,129.613 86.325,129.237 L67.344,122.854 L20.767,107.426 C16.507,106.016 13.518,102.056 13.327,97.573 L10.244,25.116 C9.992,19.188 14.426,14.224 20.339,13.814 C34.793,12.812 63.045,11.131 89.856,11.131 C116.846,11.131 144.996,12.81 159.373,13.811 C165.285,14.223 169.718,19.187 169.466,25.112 L166.383,97.574 C166.193,102.056 163.203,106.016 158.944,107.427 L103.871,125.667 L93.253,129.238 C92.136,129.613 90.963,129.801 89.789,129.801 Z M89.856,15.131 C63.166,15.131 35.019,16.806 20.617,17.805 C16.882,18.063 14.081,21.2 14.241,24.946 L17.324,97.403 C17.444,100.236 19.333,102.738 22.024,103.629 L68.616,119.061 L87.601,125.446 C89.01,125.92 90.566,125.921 91.979,125.446 L102.605,121.873 L157.686,103.63 C160.377,102.738 162.267,100.236 162.387,97.404 L165.47,24.942 C165.629,21.198 162.829,18.061 159.096,17.801 C144.77,16.804 116.725,15.131 89.856,15.131 Z" id="Fill-2" fill="#1F1933"></path>
                <path d="M44.886,88.279 L44.865,41.092 C44.865,39.971 45.779,39.062 46.905,39.062 L53.63,39.062 C54.755,39.062 55.67,39.971 55.669,41.092 L55.631,88.279 C55.63,89.399 54.717,90.308 53.591,90.308 L46.926,90.308 C45.799,90.308 44.886,89.399 44.886,88.279 Z M100.292,88.29 L100.326,64.901 C100.327,64.301 99.523,64.098 99.236,64.626 L88.59,84.209 C88.384,84.587 87.987,84.823 87.555,84.823 L85.263,84.823 C84.862,84.823 84.492,84.603 84.302,84.253 L73.636,64.568 C73.36,64.056 72.578,64.253 72.578,64.835 L72.578,88.292 C72.578,89.405 71.671,90.308 70.553,90.308 L64.055,90.308 C62.937,90.308 62.03,89.405 62.03,88.292 L62.082,41.06 C62.082,39.948 62.988,39.044 64.107,39.044 L71.397,39.046 C72.153,39.046 72.848,39.465 73.195,40.134 L86.36,65.479 C86.584,65.911 87.207,65.902 87.419,65.466 L99.776,40.197 C100.114,39.503 100.822,39.062 101.598,39.062 L108.813,39.062 C109.931,39.062 110.837,39.964 110.837,41.076 L110.837,88.292 C110.837,89.405 109.931,90.308 108.813,90.308 L102.318,90.308 C101.199,90.308 100.291,89.403 100.292,88.29 Z M142.52,82.781 L142.52,88.275 C142.52,89.403 141.6,90.318 140.465,90.318 L119.253,90.318 C118.118,90.318 117.199,89.403 117.199,88.275 L117.199,41.105 C117.199,39.977 118.118,39.062 119.253,39.062 L125.888,39.062 C127.022,39.062 127.942,39.977 127.942,41.105 L127.942,79.817 C127.942,80.325 128.355,80.737 128.867,80.737 L140.465,80.737 C141.6,80.737 142.52,81.652 142.52,82.781 Z" id="Fill-3" fill="#1F1933"></path>
            </g>
        </g>
    </g>
</svg>