<svg width="22" height="21" viewBox="0 0 22 21" fill="none" xmlns="http://www.w3.org/2000/svg">
<path d="M21.3486 1.98232V15.4251C21.3486 16.1296 20.7648 16.7685 19.9907 16.7685H17.0804L15.7845 20.3524L11.9674 16.7685H2.00239C1.29029 16.7685 0.644531 16.1909 0.644531 15.4251V1.98232C0.644531 1.21216 1.22837 0.638916 2.00239 0.638916H19.9907C20.7692 0.638916 21.3486 1.21654 21.3486 1.98232Z" fill="#FFDC00"/>
<path d="M21.3486 2.94502V1.98232C21.3486 1.21216 20.7648 0.638916 19.9907 0.638916H2.00239C1.22394 0.638916 0.644531 1.21654 0.644531 1.98232V2.94065H21.3486V2.94502Z" fill="black" fill-opacity="0.1"/>
<path d="M15.2682 20.8031L11.6458 17.4118H2.00362C0.906715 17.4118 0 16.5147 0 15.4251V1.98229C0 0.897062 0.906715 0 2.00362 0H19.992C21.0933 0 21.9956 0.897062 21.9956 1.98229V15.4251C21.9956 16.5147 21.0889 17.4074 19.992 17.4074H17.5328L16.3695 20.5449C16.3032 20.7374 16.1086 20.93 15.9184 20.93C15.6574 21.0613 15.4628 20.9956 15.2682 20.8031ZM2.00362 1.28214C1.61439 1.28214 1.35786 1.60158 1.35786 1.98666V15.4295C1.35786 15.8145 1.68074 16.134 2.00362 16.134H11.9686C12.1632 16.134 12.2915 16.1996 12.4198 16.3265L15.5247 19.2059L16.4934 16.5803C16.5597 16.3222 16.8162 16.134 17.1391 16.134H20.0495C20.4387 16.134 20.6952 15.8145 20.6952 15.4295V1.98666C20.6952 1.60158 20.3723 1.28214 20.0495 1.28214H2.00362Z" fill="black"/>
<path d="M11.062 13.9548H10.9338C10.288 13.9548 9.77051 13.4428 9.77051 12.8039V8.70805C9.77051 8.06917 10.288 7.55719 10.9338 7.55719H11.062C11.7078 7.55719 12.2253 8.06917 12.2253 8.70805V12.8039C12.2297 13.4428 11.7122 13.9548 11.062 13.9548Z" fill="white"/>
<path d="M11.0618 14.5937H10.9955C9.96049 14.5937 9.12012 13.7623 9.12012 12.7383V8.70371C9.12012 7.67975 9.96049 6.84833 10.9955 6.84833H11.0618C12.0968 6.84833 12.9372 7.67975 12.9372 8.70371V12.7383C12.8753 13.7623 12.0349 14.5937 11.0618 14.5937ZM10.9336 8.19173C10.6107 8.19173 10.4161 8.44991 10.4161 8.70371V12.7383C10.4161 13.0577 10.677 13.2503 10.9336 13.2503H10.9999C11.3228 13.2503 11.5174 12.9921 11.5174 12.7383V8.70371C11.5174 8.38427 11.2564 8.19173 10.9999 8.19173H10.9336Z" fill="black"/>
<path d="M12.407 4.57817C12.533 3.81001 12.0058 3.08624 11.2293 2.96157C10.4529 2.83691 9.72135 3.35856 9.59535 4.12671C9.46934 4.89487 9.9966 5.61864 10.773 5.74331C11.5494 5.86797 12.281 5.34632 12.407 4.57817Z" fill="white"/>
<path d="M10.9997 6.40195C9.8364 6.40195 8.92969 5.50488 8.92969 4.35402C8.92969 3.20315 9.8364 2.30609 10.9997 2.30609C12.1629 2.30609 13.0696 3.20315 13.0696 4.35402C13.0696 5.50488 12.1629 6.40195 10.9997 6.40195ZM10.9997 3.58386C10.6104 3.58386 10.2875 3.9033 10.2875 4.28838C10.2875 4.67346 10.6104 5.05854 10.9997 5.05854C11.3889 5.05854 11.7118 4.7391 11.7118 4.35402C11.7118 3.96894 11.3889 3.58386 10.9997 3.58386Z" fill="black"/>
</svg>
