<?xml version="1.0" encoding="UTF-8"?>
<svg width="5670px" height="1459px" viewBox="0 0 5670 1459" version="1.1" xmlns="http://www.w3.org/2000/svg" xmlns:xlink="http://www.w3.org/1999/xlink">
    <!-- Generator: Sketch 51.2 (57519) - http://www.bohemiancoding.com/sketch -->
    <title>Shape</title>
    <desc>Created with Sketch.</desc>
    <defs></defs>
    <g id="Page-1" stroke="none" stroke-width="1" fill="none" fill-rule="evenodd">
        <g id="kce" fill="#F15A23" fill-rule="nonzero">
            <path d="M388.53,1 L0,1458 L357.16,1458 L745.23,1 L388.53,1 Z M1959.07,1 L1503.2,1 L917.97,465.54 L917.77,465.21 L628.91,694.98 L1184.09,1457.98 L1639.99,1457.98 L1084.71,694.86 L1959.07,1 Z M5299.25,312.4 C5306.05,302.87 5302.69,291.4 5294.25,279.99 L5070.32,0.99 L3906.58,0.99 L3820.71,325.390056 L5269.17,325.39 C5280.55,325.4 5290.91,324.09 5299.24,312.4 L5299.25,312.4 Z M2124.34,1106.93 C2111.95,1089.06 2108.84,1066.17 2114.89,1042.93 L2280.71,421.75 C2286.94,397.46 2303.29,372.65 2327.12,353.55 C2350.95,334.45 2377.93,325.36 2402.29,325.36 L3607.03,325.36 L3693.6,0.96 L2453.76,0.96 C2347.02,0.96 2228.89,41.79 2126.02,123.88 C2022.43,205.94 1952.67,313.7 1924.1,420.48 L1758.65,1043.03 C1730.11,1149.19 1742.21,1255.5 1801.29,1336.68 C1859.87,1417.61 1954.57,1458.01 2060.38,1458.01 L3304.91,1458.01 L3391.68,1133.29 L2181.39,1133.29 C2158.08,1133.29 2137.46,1124.53 2124.34,1106.93 Z M5524.71,567.58 L3756.6,567.58 L3670.91,891.41 L5440.91,891.41 L5669.38,747.71 L5524.71,567.58 Z M4929.04,1133.58 L3606.76,1133.58 L3520.91,1458 L4537.02,1458 L4953.61,1195.63 C4966.19,1188.04 4970.97,1169.32 4965.18,1155.4 C4960.51,1144.15 4952.6,1133.63 4929.04,1133.63 L4929.04,1133.58 Z" id="Shape"></path>
        </g>
    </g>
</svg>