<svg width="16" height="18" viewBox="0 0 16 18"  xmlns="http://www.w3.org/2000/svg">
<path d="M7.55859 9.38672C5.73645 9.38672 4.25391 7.90418 4.25391 6.08203C4.25391 4.25988 5.73645 2.77734 7.55859 2.77734C9.38074 2.77734 10.8633 4.25988 10.8633 6.08203C10.8633 6.26133 10.8489 6.44133 10.82 6.61711C10.7575 7.00031 10.3968 7.26047 10.0129 7.19789C9.62965 7.13531 9.36949 6.77391 9.43207 6.3907C9.44859 6.28945 9.45703 6.18574 9.45703 6.08203C9.45703 5.03543 8.6052 4.18359 7.55859 4.18359C6.51199 4.18359 5.66016 5.03543 5.66016 6.08203C5.66016 7.12863 6.51199 7.98047 7.55859 7.98047C7.64473 7.98047 7.73156 7.97484 7.81629 7.96324C8.20125 7.91156 8.55527 8.18121 8.60695 8.56617C8.65898 8.95113 8.38898 9.30516 8.00402 9.35719C7.85742 9.37652 7.7073 9.38672 7.55859 9.38672ZM4.68844 12.0909C3.11063 10.3975 1.47902 8.64633 1.47656 6.04758C1.47832 4.41773 2.11078 2.89477 3.25758 1.75816C4.40086 0.624375 5.9284 0 7.55859 0C9.18984 0 10.7227 0.623672 11.8751 1.7557C13.0345 2.89477 13.674 4.41844 13.6758 6.04582C13.6733 8.64176 12.0336 10.3897 10.4481 12.0804C9.63668 12.9456 8.7975 13.84 8.15273 14.8598C8.02371 15.0637 7.79941 15.1875 7.55824 15.1875C7.31707 15.1875 7.09277 15.0638 6.96375 14.8602C6.32215 13.8442 5.49176 12.9526 4.68844 12.0909ZM2.88281 6.04758C2.88492 8.09191 4.1973 9.50098 5.71746 11.1322C6.34113 11.8016 6.98098 12.4882 7.55895 13.2536C8.14289 12.4826 8.79047 11.7921 9.42258 11.1185C10.9491 9.49078 12.2678 8.08523 12.2695 6.04652C12.2667 3.48855 10.1531 1.40625 7.55859 1.40625C4.9398 1.40625 2.88562 3.44496 2.88281 6.04758ZM13.9841 13.9433C13.443 13.6596 12.7005 13.4205 11.777 13.2328C11.3962 13.1555 11.0254 13.4012 10.948 13.782C10.8707 14.1623 11.1164 14.5336 11.4971 14.6109C12.922 14.9003 13.506 15.248 13.6747 15.4164C13.5506 15.5408 13.1354 15.853 11.9162 16.1466C10.7177 16.4348 9.17051 16.5938 7.55859 16.5938C5.94668 16.5938 4.39945 16.4348 3.20168 16.1466C1.98211 15.853 1.56727 15.5408 1.44281 15.4164C1.61121 15.248 2.19551 14.9003 3.62039 14.6109C4.00078 14.5336 4.24687 14.1623 4.16953 13.782C4.09219 13.4016 3.72094 13.1558 3.34055 13.2328C2.41699 13.4205 1.67414 13.6596 1.13344 13.9433C0.381445 14.3378 0 14.8338 0 15.4174C0 16.2896 0.849727 16.965 2.52527 17.4245C3.87879 17.7957 5.66648 18 7.55859 18C9.4507 18 11.2384 17.7957 12.5919 17.4245C14.2675 16.965 15.1172 16.29 15.1172 15.4174C15.1172 14.8338 14.7357 14.3378 13.9841 13.9433Z"/>
</svg>
