<svg width="17" height="17" viewBox="0 0 17 17" fill="none" xmlns="http://www.w3.org/2000/svg">
<path opacity="0.5" d="M1.26432 7.17234L15.3854 1.03641C15.551 0.964485 15.7436 1.00111 15.8713 1.12872C15.9989 1.25637 16.0355 1.44908 15.9636 1.61461L9.82764 15.7357C9.75762 15.8968 9.59883 16 9.42472 16C9.41643 16 9.40808 15.9998 9.39979 15.9993C9.21601 15.9889 9.05819 15.8651 9.00437 15.6891L7.68858 11.3869C7.38422 10.3917 6.60832 9.61581 5.61307 9.31142L1.31093 7.99564C1.13495 7.94179 1.01111 7.78397 1.00071 7.60022C0.990306 7.41647 1.09551 7.2457 1.26432 7.17234Z" stroke="#2E2E2E" stroke-width="1.4"/>
</svg>
