<svg width="27" height="27" viewBox="0 0 27 27" fill="none" xmlns="http://www.w3.org/2000/svg">
<circle cx="13.5" cy="13.5" r="13.5" fill="#FFDC00"/>
<path fill-rule="evenodd" clip-rule="evenodd" d="M18.6567 15.9672C18.8232 15.623 19.2395 15.4759 19.5837 15.6425C19.9306 15.809 20.0749 16.2226 19.9112 16.5695C19.3394 17.7574 18.4485 18.7649 17.3355 19.481C16.192 20.2165 14.8653 20.6051 13.4998 20.6051C11.6014 20.6051 9.81949 19.8668 8.47615 18.5234C7.13281 17.1829 6.39453 15.3982 6.39453 13.4998C6.39453 11.6014 7.13281 9.81671 8.47615 8.47615C9.81671 7.13281 11.6014 6.39453 13.4998 6.39453C14.8653 6.39453 16.192 6.7831 17.3355 7.51583C18.4513 8.22913 19.3394 9.23664 19.9112 10.4273C20.0777 10.7743 19.9306 11.1878 19.5865 11.3543C19.2395 11.5209 18.826 11.3738 18.6594 11.0296C18.1987 10.0721 17.4826 9.25884 16.5861 8.68431C15.6647 8.09591 14.5989 7.78228 13.4998 7.78228C10.3468 7.78228 7.78228 10.3468 7.78228 13.4998C7.78228 16.6528 10.3468 19.2173 13.4998 19.2173C14.5989 19.2173 15.6647 18.9037 16.5834 18.3125C17.4799 17.7352 18.1959 16.9248 18.6567 15.9672ZM14.3605 16.4029C14.1828 16.4029 14.0052 16.3363 13.8692 16.2003C13.6 15.9283 13.6 15.4898 13.872 15.2233L14.8961 14.1992H10.9494C10.5664 14.1992 10.2555 13.8883 10.2555 13.5053C10.2555 13.1223 10.5664 12.8114 10.9494 12.8114H14.8934L13.8692 11.7873C13.5972 11.5153 13.5972 11.0768 13.8692 10.8048C14.1412 10.5328 14.5797 10.5328 14.8517 10.8048L16.5975 12.5505C16.8501 12.8031 16.9916 13.1445 16.9916 13.5025C16.9916 13.8606 16.8529 14.1992 16.5975 14.4545L14.8517 16.2003C14.7157 16.3363 14.5381 16.4029 14.3605 16.4029Z" fill="black"/>
</svg>
