<svg width="42" height="42" viewBox="0 0 42 42" fill="none" xmlns="http://www.w3.org/2000/svg">
<path d="M30.6343 26.2688H29.9082C31.6676 24.5322 32.9276 22.2872 33.4486 19.7731C36.3843 19.3088 38.6367 16.7633 38.6367 13.6991V12.469C38.6367 6.72435 33.9631 2.05078 28.2185 2.05078C28.2185 2.05078 27.9621 2.05423 27.9167 2.05931C25.9247 0.757559 23.5489 0 21 0C18.4566 0 16.0857 0.754195 14.0962 2.05078H13.7815C8.03685 2.05078 3.36328 6.72435 3.36328 12.469V13.6991C3.36328 16.7637 5.61578 19.3115 8.55192 19.7755C9.07323 22.2886 10.333 24.5327 12.0918 26.2688H11.3657C5.09865 26.2688 0 31.3585 0 37.6147V40.7644C0 41.4439 0.550922 41.9948 1.23047 41.9948C1.91002 41.9948 2.46094 41.4439 2.46094 40.7644V37.6147C2.46094 32.7155 6.45561 28.7296 11.3657 28.7296H13.656C14.0362 32.4463 17.1848 35.3555 21.0002 35.3555C22.9565 35.3555 24.8001 34.5979 26.1912 33.2223C27.4212 32.0061 28.1709 30.4305 28.3435 28.7296H30.6343C35.5444 28.7296 39.5391 32.7155 39.5391 37.6147V40.7695C39.5391 41.4491 40.09 42 40.7695 42C41.4491 42 42 41.4491 42 40.7695V37.6147C42 31.3585 36.9013 26.2688 30.6343 26.2688ZM36.1758 12.469V13.6991C36.1758 15.3033 35.1469 16.671 33.7148 17.179C33.7148 17.1756 33.7149 17.1723 33.7149 17.1691V12.7664C33.7149 9.87574 32.7525 7.20694 31.1334 5.06461C34.0833 6.22995 36.1758 9.10973 36.1758 12.469ZM5.82422 13.6991V12.469C5.82422 9.11006 7.91634 6.23118 10.8658 5.06568C9.24714 7.20784 8.28516 9.87623 8.28516 12.7663V17.169C8.28516 17.1723 8.28524 17.1756 8.28532 17.1789C6.85305 16.671 5.82422 15.3032 5.82422 13.6991ZM10.7461 17.169V12.7663C10.7461 7.08389 15.346 2.46094 21 2.46094C26.654 2.46094 31.2539 7.08389 31.2539 12.7663V17.169C31.2539 22.8514 26.654 27.4743 21 27.4743C15.346 27.4743 10.7461 22.8514 10.7461 17.169ZM21.0002 32.8945C18.6324 32.8945 16.6503 31.2138 16.183 28.9828C17.6695 29.5961 19.296 29.9353 21 29.9353C22.7038 29.9353 24.33 29.5962 25.8163 28.9831C25.3461 31.2108 23.3569 32.8945 21.0002 32.8945Z" fill="black"/>
<path d="M19.9332 15.2121C20.207 14.9192 20.5965 14.7472 21 14.7472C21.4093 14.7472 21.7914 14.9153 22.0667 15.2118C22.4236 16.8766 23.906 18.1289 25.6758 18.1289C27.7112 18.1289 29.3672 16.4729 29.3672 14.4375C29.3672 12.4021 27.7112 10.7461 25.6758 10.7461C24.3181 10.7461 23.13 11.4834 22.4889 12.5781C22.0238 12.3876 21.5201 12.2862 21 12.2862C20.4866 12.2862 19.9817 12.3905 19.5139 12.5829C18.8734 11.4855 17.6839 10.7461 16.3242 10.7461C14.2888 10.7461 12.6328 12.4021 12.6328 14.4375C12.6328 16.4729 14.2888 18.1289 16.3242 18.1289C18.094 18.1289 19.5762 16.8769 19.9332 15.2121ZM25.6758 13.207C26.3543 13.207 26.9062 13.759 26.9062 14.4375C26.9062 15.116 26.3543 15.668 25.6758 15.668C24.9973 15.668 24.4453 15.116 24.4453 14.4375C24.4453 13.759 24.9973 13.207 25.6758 13.207ZM15.0938 14.4375C15.0938 13.759 15.6457 13.207 16.3242 13.207C17.0027 13.207 17.5547 13.759 17.5547 14.4375C17.5547 15.116 17.0027 15.668 16.3242 15.668C15.6457 15.668 15.0938 15.116 15.0938 14.4375Z" fill="black"/>
<path d="M33.3867 34.8633C32.7072 34.8633 32.1562 35.4142 32.1562 36.0937V40.7694C32.1562 41.449 32.7072 41.9999 33.3867 41.9999C34.0663 41.9999 34.6172 41.449 34.6172 40.7694V36.0937C34.6172 35.4142 34.0663 34.8633 33.3867 34.8633Z" fill="black"/>
<path d="M8.61328 34.8633C7.93373 34.8633 7.38281 35.4142 7.38281 36.0937V40.7694C7.38281 41.449 7.93373 41.9999 8.61328 41.9999C9.29283 41.9999 9.84375 41.449 9.84375 40.7694V36.0937C9.84375 35.4142 9.29283 34.8633 8.61328 34.8633Z" fill="black"/>
</svg>
