<?xml version="1.0" encoding="UTF-8"?>
<svg width="26px" height="44px" viewBox="0 0 26 44" version="1.1" xmlns="http://www.w3.org/2000/svg" xmlns:xlink="http://www.w3.org/1999/xlink">
    <!-- Generator: Sketch 51.2 (57519) - http://www.bohemiancoding.com/sketch -->
    <title>map-point</title>
    <desc>Created with Sketch.</desc>
    <defs></defs>
    <g id="Page-1" stroke="none" stroke-width="1" fill="none" fill-rule="evenodd" stroke-linecap="round" stroke-linejoin="round">
        <g id="map-point" transform="translate(1.000000, 1.000000)" stroke="#000000">
            <path d="M12.0014,0 C5.37228,0 0,5.37228 0,12.0014 C0,17.6831 3.94843,22.442 9.2523,23.6851 L12.0014,41.4038 L14.7505,23.6824 L14.7505,23.6851 C20.0516,22.442 24,17.6831 24,12.0014 C24.0027,5.37501 18.6305,0 12.0014,0 Z M12.0014,18.2499 C8.55128,18.2499 5.75562,15.4542 5.75562,12.0041 C5.75562,8.55402 8.55128,5.75836 12.0014,5.75836 C15.4515,5.75836 18.2471,8.55402 18.2471,12.0041 C18.2499,15.4515 15.4515,18.2499 12.0014,18.2499 Z" id="Shape" stroke-width="2" fill="#FFDC00" fill-rule="nonzero"></path>
            <path d="M12.0036,18.2472 C15.453,18.2472 18.2493,15.4509 18.2493,12.0015 C18.2493,8.55205 15.453,5.75574 12.0036,5.75574 C8.55413,5.75574 5.75781,8.55205 5.75781,12.0015 C5.75781,15.4509 8.55413,18.2472 12.0036,18.2472 Z" id="Shape" stroke-width="1.02678"></path>
        </g>
    </g>
</svg>