<svg width="16" height="16" viewBox="0 0 16 16" fill="none" xmlns="http://www.w3.org/2000/svg">
<path d="M15.375 2.46981H13.2263C12.6528 1.02459 11.2407 0 9.59375 0C7.94678 0 6.53466 1.02459 5.96116 2.46981H3.75V0.625C3.75 0.279813 3.47019 0 3.125 0C2.30297 0 1.52372 0.318156 0.930781 0.895844C0.330562 1.48062 0 2.25566 0 3.07812C0 3.07812 3.125e-05 12.9461 0.000125 12.9504C0.0155313 14.6346 1.39038 16 3.07812 16H15.375C15.7202 16 16 15.7202 16 15.375V3.09481C16 2.74962 15.7202 2.46981 15.375 2.46981ZM9.59375 1.25C11.0584 1.25 12.25 2.44159 12.25 3.90625C12.25 6.06075 10.4707 8.44691 9.60525 9.47997C8.74059 8.40431 6.9375 5.91959 6.9375 3.90625C6.9375 2.44159 8.12909 1.25 9.59375 1.25ZM1.25 3.07812C1.25 2.29959 1.77994 1.616 2.5 1.35869V9.90625C2.04834 9.99778 1.62278 10.1883 1.25 10.4668V3.07812ZM14.75 14.75H3.07812C2.07009 14.75 1.25 13.9299 1.25 12.9219C1.25 11.9309 2.10866 11.0938 3.125 11.0938C3.47019 11.0938 3.75 10.8139 3.75 10.4688V3.71981H5.69206C5.68913 3.78162 5.6875 3.84375 5.6875 3.90625C5.6875 7.01759 8.98981 10.7016 9.13037 10.8569C9.24659 10.9853 9.41088 11.0597 9.58403 11.0624C9.58728 11.0625 9.59053 11.0625 9.59375 11.0625C9.76341 11.0625 9.92597 10.9935 10.0438 10.8711C10.185 10.7246 13.5 7.24494 13.5 3.90625C13.5 3.84375 13.4984 3.78162 13.4954 3.71981H14.75V14.75ZM8.78125 3.90625C8.78125 3.47478 9.13103 3.125 9.5625 3.125C9.99397 3.125 10.3438 3.47478 10.3438 3.90625C10.3438 4.33772 9.99397 4.6875 9.5625 4.6875C9.13103 4.6875 8.78125 4.33772 8.78125 3.90625Z" fill="#E6E6E6"/>
</svg>
