<svg width="50" height="45" viewBox="0 0 50 45" fill="none" xmlns="http://www.w3.org/2000/svg">
<path d="M44.8983 44.5H5.1017C3.19407 44.5 1.98826 42.4507 2.91468 40.7831L22.813 4.96619C23.7662 3.25039 26.2338 3.25039 27.187 4.96619L47.0853 40.7831C48.0117 42.4507 46.8059 44.5 44.8983 44.5Z" fill="#FFDC00" stroke="black"/>
<g opacity="0.3">
<mask id="mask0" mask-type="alpha" maskUnits="userSpaceOnUse" x="2" y="3" width="46" height="43">
<path d="M44.8983 44.5H5.1017C3.19407 44.5 1.98826 42.4507 2.91468 40.7831L22.813 4.96619C23.7662 3.25039 26.2338 3.25039 27.187 4.96619L47.0853 40.7831C48.0117 42.4507 46.8059 44.5 44.8983 44.5Z" fill="#FFDC00" stroke="black"/>
</mask>
<g mask="url(#mask0)">
<path opacity="0.1" d="M39.5 9.85294L51.5 45C51.5 46.0253 38.6724 47.5294 37.6471 47.5294H9.85294C8.82765 47.5294 8 46.7018 8 45.6765V43.7618L8.09882 43.8174C42.1126 44.8179 31.8288 8 31.8288 8H37.6471C38.6724 8 39.5 8.82771 39.5 9.85294Z" fill="black"/>
</g>
</g>
<path d="M25.0568 32.75C24.1647 32.75 23.4922 33.4469 23.4922 34.3709C23.4922 35.295 24.1647 35.9919 25.0568 35.9919C25.9637 35.9919 26.6214 35.3102 26.6214 34.3709C26.622 33.4164 25.9784 32.75 25.0568 32.75Z" fill="black"/>
<path d="M26.1546 30.6868L26.614 22.6729C26.6648 21.7857 25.9563 21.0391 25.0641 21.0391C24.172 21.0391 23.4635 21.7863 23.5143 22.6729L23.9736 30.6868C24.0067 31.2624 24.4849 31.7122 25.0635 31.7122C25.6433 31.7122 26.1216 31.2624 26.1546 30.6868Z" fill="black"/>
</svg>
