<svg width="18" height="18" viewBox="0 0 18 18" xmlns="http://www.w3.org/2000/svg">
<path d="M16.6634 14.1679H14.5847C14.5847 14.1679 13.8371 10.8513 13.6521 10.1492C13.2034 8.44589 12.1353 8.19158 11.5385 8.19158H6.1103L5.65061 6.25807H10.5912C10.9117 6.25807 11.1917 6.47487 11.2719 6.78521C11.3538 7.10221 11.6392 7.31257 11.9522 7.31257C12.0103 7.31257 12.0696 7.30526 12.1286 7.29004C12.5045 7.19291 12.7306 6.80937 12.6334 6.43339C12.3928 5.5022 11.553 4.85184 10.5912 4.85184H5.31629L4.54664 1.6146C4.30474 0.612902 3.391 -0.0602432 2.36627 0.00426592H0.703095C0.487947 0.00426592 0.284611 0.102805 0.151269 0.271654C0.0179264 0.440502 -0.0307279 0.661169 0.019192 0.870446L2.0413 9.34909C2.24681 10.2166 2.74503 10.9989 3.44422 11.552C4.14374 12.1054 5.02025 12.4102 5.9122 12.4102H8.19136V13.2066L5.79211 13.7269C5.41265 13.8092 5.17173 14.1835 5.254 14.563C5.3254 14.8923 5.61665 15.1173 5.94043 15.1173C5.98979 15.1173 6.03995 15.112 6.09015 15.1011L8.19136 14.6455V15.9187C6.47981 16.0523 5.07411 16.6186 5.00752 16.6458C4.64831 16.7924 4.47616 17.2021 4.62233 17.5615C4.76851 17.9208 5.17859 18.0938 5.53815 17.948C5.55422 17.9415 7.1648 17.2967 8.89418 17.2967C10.6235 17.2967 12.2341 17.9415 12.2494 17.9477C12.3364 17.9832 12.4264 18 12.5149 18C12.7921 18 13.0548 17.8349 13.1661 17.5624C13.3128 17.2029 13.1403 16.7925 12.7808 16.6458C12.7142 16.6186 11.3088 16.0525 9.59755 15.9188V12.4102H12.7306L13.3421 15.0308C13.4163 15.349 13.7 15.5742 14.0268 15.5742H16.6634C17.0517 15.5742 17.3665 15.2594 17.3665 14.8711C17.3665 14.4828 17.0517 14.1679 16.6634 14.1679ZM5.9122 11.004C4.71437 11.004 3.68514 10.1898 3.40942 9.02416C3.40932 9.02373 3.40921 9.02331 3.4091 9.02289L1.5936 1.41046H2.39053C2.40846 1.41046 2.42639 1.40976 2.44424 1.40839C2.78823 1.38205 3.0983 1.6075 3.17912 1.94228L4.8707 9.05731C4.94604 9.37416 5.22907 9.59778 5.55475 9.59778H11.5385C11.6656 9.59778 12.0526 9.59778 12.2922 10.5074C12.3379 10.6806 12.3795 10.8488 12.4163 11.004H5.9122Z"/>
</svg>
