<svg width="28" height="28" viewBox="0 0 28 28" fill="none" xmlns="http://www.w3.org/2000/svg">
<path d="M2.33203 12.184L3.65621 12.8956L13.9988 18.4549L24.3414 12.8956L25.6656 12.184V7.38892L13.9988 13.6598L2.33203 7.38892V12.184Z" fill="#FFDD00"/>
<path d="M3.10932 22.3445L13.4519 27.8629C13.5038 27.8903 13.5593 27.9055 13.6135 27.9247C13.645 27.9358 13.6742 27.9522 13.7057 27.9603C13.8031 27.9854 13.9023 28 14.0014 28C14.1006 28 14.1998 27.9854 14.2966 27.9603C14.3287 27.9522 14.3579 27.9358 14.3888 27.9247C14.443 27.9055 14.4984 27.8903 14.5504 27.8629L24.893 22.3445C25.2727 22.1415 25.5107 21.746 25.5107 21.3149V13.6475L26.2206 13.266C26.5992 13.0624 26.8349 12.6675 26.8349 12.2382V7.44312C26.8349 7.33812 26.8197 7.23545 26.7929 7.13687C26.7841 7.10362 26.7661 7.07445 26.7544 7.04295C26.7311 6.97936 26.7089 6.9152 26.6745 6.85686C26.6541 6.82186 26.6261 6.7927 26.6021 6.76003C26.566 6.71044 26.5321 6.66028 26.4884 6.61653C26.4581 6.58678 26.4219 6.56403 26.3881 6.53719C26.3478 6.50511 26.3116 6.46836 26.2667 6.44152C26.2586 6.43686 26.2492 6.43511 26.2405 6.43044C26.2329 6.42636 26.2276 6.41994 26.2201 6.41586L14.5533 0.139126C14.2079 -0.0463755 13.7932 -0.0463755 13.4478 0.139126L1.78106 6.41586C1.77347 6.41994 1.76822 6.42636 1.76122 6.43044C1.75306 6.43511 1.74372 6.43686 1.73497 6.44152C1.69006 6.46836 1.65389 6.50511 1.61364 6.53719C1.58039 6.56403 1.54364 6.58678 1.51331 6.61653C1.46956 6.66028 1.43572 6.71044 1.39955 6.76003C1.37564 6.7927 1.34764 6.82186 1.32722 6.85686C1.29339 6.9152 1.27122 6.97936 1.2473 7.04295C1.23564 7.07503 1.21755 7.1042 1.2088 7.13687C1.18314 7.23545 1.16797 7.33812 1.16797 7.44312V12.2382C1.16797 12.6675 1.40364 13.0624 1.78223 13.266L2.49215 13.6475V21.3149C2.49157 21.7454 2.72957 22.1415 3.10932 22.3445ZM24.5015 11.5411L23.7922 11.922H23.7916L15.1681 16.5572V14.4111L24.5015 9.39439V11.5411ZM12.8348 14.4117V16.5578L4.21125 11.9226H4.21067L3.50133 11.5411V9.39497L12.8348 14.4117ZM4.82492 14.9017L10.4314 17.9152L12.8348 19.2067V24.8885L4.82492 20.6149V14.9017ZM23.1774 14.9017V20.6149L15.1681 24.8885V19.2067L17.5709 17.9152L23.1774 14.9017ZM14.0014 2.49115L23.2048 7.44254L14.0014 12.3893L4.79809 7.44254L14.0014 2.49115Z" fill="black"/>
</svg>
