<svg xmlns="http://www.w3.org/2000/svg" width="0.9375em" height="0.9375em"><g id="phone" xmlns="http://www.w3.org/2000/svg">
            <svg x="50%" y="50%" width="0.9375em" height="0.9375em" overflow="visible" viewBox="0 0 15 15">
                <svg x="-7.5" y="-7.5"><svg width="15px" height="15px" version="1.1" id="Слой_1" xmlns="http://www.w3.org/2000/svg" xmlns:xlink="http://www.w3.org/1999/xlink" x="0px" y="0px"
	 viewBox="0 0 17.7 17.7" style="enable-background:new 0 0 17.7 17.7;" xml:space="preserve">
<g>
	<path d="M14.8,7.3c-0.4,0-0.7-0.3-0.7-0.7c0-1.6-1.3-3-3-3c-0.4,0-0.7-0.3-0.7-0.7s0.3-0.7,0.7-0.7c2.4,0,4.4,2,4.4,4.4
		C15.5,7,15.2,7.3,14.8,7.3z"/>
	<path d="M17,7.3c-0.4,0-0.7-0.3-0.7-0.7c0-2.8-2.3-5.1-5.1-5.1c-0.4,0-0.7-0.3-0.7-0.7S10.7,0,11.1,0c3.6,0,6.6,2.9,6.6,6.6
		C17.7,7,17.3,7.3,17,7.3z"/>
	<path d="M12.6,17.7C5.6,17.7,0,12.1,0,5.2C0,5,0,4.9,0,4.7c0-0.1,0-0.1,0-0.2c0.1-0.5,0.3-1,0.6-1.4l1.8-1.8c0.7-0.7,1.8-0.7,2.5,0
		L7,3.5c0.3,0.3,0.5,0.8,0.5,1.3C7.5,5.2,7.3,5.6,7,6L5.3,7.6c1,1.1,3.6,3.8,4.8,4.9l1.7-1.7c0.7-0.7,1.8-0.7,2.5,0l2.1,2.1
		c0.7,0.7,0.7,1.8,0,2.5L14.8,17c-0.4,0.4-0.9,0.6-1.5,0.7c-0.1,0-0.2,0-0.3,0C12.9,17.7,12.7,17.7,12.6,17.7z M3.7,2.3
		c-0.1,0-0.2,0-0.3,0.1L1.6,4.2C1.5,4.3,1.4,4.5,1.4,4.6l0,0.1c0,0.1,0,0.3,0,0.4c0,6.2,5,11.2,11.2,11.2c0.2,0,0.3,0,0.5,0
		c0.1,0,0.1,0,0.2,0c0.2,0,0.4-0.1,0.6-0.3l1.6-1.6c0.1-0.1,0.1-0.4,0-0.5l-2.1-2.1c-0.1-0.1-0.4-0.1-0.5,0L11,13.7
		c-0.4,0.4-1,0.4-1.5,0.1c-1.2-1-4.5-4.4-5.4-5.4C3.7,7.9,3.7,7.2,4.1,6.8L6,5c0.1-0.1,0.1-0.2,0.1-0.3c0-0.1,0-0.2-0.1-0.3L3.9,2.4
		C3.9,2.3,3.8,2.3,3.7,2.3z M10,12.7C10,12.7,10,12.7,10,12.7L10,12.7z M5.1,7.8L5.1,7.8C5.1,7.8,5.1,7.8,5.1,7.8z"/>
</g>
</svg>
</svg>
            </svg>
        </g></svg>