<svg width="24" height="24" viewBox="0 0 24 24" fill="none" xmlns="http://www.w3.org/2000/svg">
<g clip-path="url(#clip0)">
<path d="M23.9976 19.3383C24.0311 20.2667 23.7079 21.1586 23.0874 21.8498L23.063 21.8769C23.0518 21.8893 23.0403 21.9016 23.0284 21.9135C21.6628 23.2791 19.7554 23.9998 17.5094 24C17.4918 24 17.4743 23.9998 17.4567 23.9998C15.802 23.9916 13.9987 23.5715 12.0974 22.7514C11.622 22.5463 11.4028 21.9946 11.6079 21.5193C11.813 21.0438 12.3645 20.8246 12.84 21.0297C14.4851 21.7392 16.0847 22.1179 17.4662 22.1248C17.4803 22.125 17.4946 22.125 17.5089 22.125C19.2372 22.125 20.6801 21.5997 21.6855 20.6047L21.6921 20.5974C22.3037 19.916 22.2665 18.8842 21.6073 18.2487C19.09 15.8212 17.9016 15.9974 16.8017 17.07L15.0512 18.8075C14.7766 19.0801 14.3627 19.1559 14.0093 18.9985C13.9103 18.9543 11.5517 17.8872 8.89411 15.2294L8.7707 15.1062C6.11256 12.4481 5.04542 10.0897 5.00129 9.9906C4.84382 9.63721 4.91981 9.22339 5.19227 8.94873L6.93012 7.19788C8.00257 6.09796 8.17835 4.90979 5.75111 2.39264C5.11555 1.73346 4.08393 1.69629 3.40241 2.30786L3.39527 2.31427C2.39186 3.32812 1.86634 4.78656 1.87495 6.53375C1.89179 9.90179 3.80122 13.8133 6.98341 16.999C6.98634 17.0019 6.98927 17.0048 6.9922 17.0076C7.59974 17.6153 8.29371 18.2194 9.05488 18.8027C9.46577 19.1179 9.54341 19.7064 9.22828 20.1172C8.91334 20.5281 8.32484 20.6058 7.91395 20.2906C7.09181 19.6602 6.33869 19.0049 5.6753 18.3424C5.67237 18.3395 5.66926 18.3365 5.66633 18.3336C2.13752 14.8048 0.019358 10.3973 0.000131943 6.54309C-0.0112206 4.27441 0.710215 2.34778 2.08644 0.971558C2.09815 0.959656 2.11042 0.94812 2.12287 0.936951L2.14979 0.912781C2.84138 0.292053 3.7331 -0.0309448 4.66145 0.00238037C5.58979 0.0358887 6.45606 0.422607 7.10096 1.09113C8.36347 2.40051 9.09223 3.4975 9.39436 4.5434C9.81092 5.98462 9.43208 7.31964 8.26863 8.51093C8.26698 8.51276 8.26515 8.5144 8.26332 8.51624L7.0052 9.78387C7.45124 10.5751 8.43177 12.1157 10.0962 13.78L10.2194 13.9034C11.895 15.5788 13.4269 16.5531 14.215 16.9957L15.4835 15.7365C15.4854 15.7346 15.4872 15.7328 15.489 15.7311C16.6803 14.5677 18.0151 14.1888 19.4566 14.6054C20.5025 14.9075 21.5994 15.6365 22.9086 16.899C23.5773 17.5437 23.9641 18.41 23.9976 19.3383ZM13.0631 8.45746C12.465 7.5802 12.1406 6.55151 12.1406 5.50653C12.1406 2.47028 14.8005 0 18.0703 0C21.3398 0 23.9999 2.47028 23.9999 5.50653C23.9999 6.57385 23.6709 7.60913 23.0483 8.50067C23.0452 8.50507 23.0421 8.50946 23.039 8.51385C22.4274 9.35815 21.7066 9.97559 20.8959 10.3493C20.0337 10.7836 19.057 11.0132 18.0703 11.0132C17.3507 11.0132 16.6517 10.8959 15.9874 10.6639L13.4562 11.7797C13.3346 11.8332 13.2059 11.8594 13.0783 11.8594C12.8393 11.8594 12.604 11.768 12.4255 11.595C12.1516 11.3293 12.0659 10.9243 12.2089 10.5705L13.0631 8.45746ZM14.0156 5.50653C14.0156 6.30872 14.3025 7.06952 14.8456 7.70654C15.0721 7.97241 15.1322 8.3421 15.0012 8.66602L14.8126 9.13275L15.5855 8.79199C15.706 8.73889 15.8347 8.71234 15.9636 8.71234C16.0889 8.71234 16.2139 8.73743 16.3315 8.7876C16.877 9.02032 17.462 9.13824 18.0703 9.13824C18.7701 9.13824 19.4597 8.97583 20.0645 8.66876C20.0762 8.66272 20.0881 8.65704 20.1002 8.65137C20.6246 8.4126 21.0877 8.00977 21.5156 7.42072C21.9142 6.84705 22.1249 6.1853 22.1249 5.50653C22.1249 3.50409 20.306 1.875 18.0703 1.875C15.8345 1.875 14.0156 3.50409 14.0156 5.50653Z" fill="#FFDC00"/>
</g>
<defs>
<clipPath id="clip0">
<rect width="24" height="24" fill="white"/>
</clipPath>
</defs>
</svg>
