<svg width="18" height="20" viewBox="0 0 18 20"  xmlns="http://www.w3.org/2000/svg">
<path d="M9 5.23543C7.27371 5.23543 5.8693 6.6373 5.8693 8.36043C5.8693 10.0836 7.27375 11.4854 9 11.4854C10.7262 11.4854 12.1307 10.0836 12.1307 8.36043C12.1307 6.6373 10.7263 5.23543 9 5.23543ZM9 9.92293C8.13527 9.92293 7.4318 9.22199 7.4318 8.36043C7.4318 7.49887 8.13531 6.79793 9 6.79793C9.86469 6.79793 10.5682 7.49887 10.5682 8.36043C10.5682 9.22199 9.86473 9.92293 9 9.92293ZM17.3789 8.36043C17.3789 3.75047 13.6202 0 9 0C4.37984 0 0.621094 3.75047 0.621094 8.36043V8.36297V8.36984C0.621094 14.104 4.81398 18.4062 8.7132 19.9454C8.89742 20.0182 9.10254 20.0182 9.28684 19.9454C12.4439 18.6991 17.3789 14.7669 17.3789 8.36988C17.3789 8.36887 17.3789 8.36734 17.3789 8.36563C17.3789 8.36375 17.3789 8.36195 17.3789 8.36043ZM15.8164 8.37461C15.8145 12.9866 12.835 16.5585 8.99914 18.3646C5.18996 16.5784 2.18551 13 2.18359 8.37445C2.18363 8.37137 2.18363 8.36828 2.18363 8.36516L2.18359 8.3593C2.18434 4.61152 5.24188 1.5625 9 1.5625C12.757 1.5625 15.8138 4.60977 15.8164 8.35598C15.8164 8.35922 15.8164 8.36254 15.8164 8.36516C15.8164 8.36832 15.8164 8.37145 15.8164 8.37461Z" />
</svg>
