<svg width="67" height="56" viewBox="0 0 67 56" fill="none" xmlns="http://www.w3.org/2000/svg">
<path d="M16.5837 37.834V40.6673C16.5837 41.8006 15.5353 42.679 14.402 42.9623L10.1803 44.0673C8.31033 44.549 6.69533 46.3765 6.66699 47.7506V50.584" stroke="#B3B3B3" stroke-miterlimit="10"/>
<path d="M25.083 37.834V40.6673C25.083 41.8006 26.1313 42.679 27.2647 42.9623L31.4863 44.0531C33.3705 44.5348 34.9713 46.3623 34.9997 47.7365V50.5698" stroke="#B3B3B3" stroke-miterlimit="10"/>
<path d="M22.2497 18C25.7063 18 27.9163 20.1392 27.9163 23.6667V26.5L29.333 27.9167V30.75L27.9163 32.1667C27.9163 32.1667 27.9163 34.6742 27.9163 35C27.9163 37.9467 22.2497 39.25 20.833 39.25C19.4163 39.25 13.7497 37.9467 13.7497 35C13.7497 34.6742 13.7497 32.1667 13.7497 32.1667L12.333 30.75V27.9167L13.7497 26.5V23.6667C13.7497 20.1392 15.9597 18 19.4163 18H22.2497Z" stroke="#B3B3B3" stroke-miterlimit="10"/>
<path d="M39.25 25.084H57.6667" stroke="#B3B3B3" stroke-miterlimit="10"/>
<path d="M39.25 32.166H57.6667" stroke="#B3B3B3" stroke-miterlimit="10"/>
<path d="M39.25 39.25H47.75" stroke="#B3B3B3" stroke-miterlimit="10"/>
<path d="M39.25 9.5H66.1667V54.8333H1V9.5H27.9167" stroke="#B3B3B3" stroke-miterlimit="10"/>
<path d="M39.2503 1H27.917V13.75H39.2503V1Z" stroke="#B3B3B3" stroke-miterlimit="10"/>
</svg>
