<svg width="50" height="68" viewBox="0 0 50 68" fill="none" xmlns="http://www.w3.org/2000/svg">
<path d="M23.667 61.9167V59.0833C23.667 59.0833 27.917 55.8958 27.917 52V47.75" stroke="#B3B3B3" stroke-miterlimit="10"/>
<path d="M12.3337 29.334L5.25033 35.0007C3.25283 36.8423 2.41699 37.8907 2.41699 40.6673V50.2865V61.9173" stroke="#B3B3B3" stroke-miterlimit="10"/>
<path d="M1 67.5827V61.916H26.5V67.5827" stroke="#B3B3B3" stroke-miterlimit="10"/>
<path d="M8.08301 44.9174C8.08301 44.9174 16.8097 36.1907 19.4163 33.584C22.023 30.9774 26.0888 37.4799 22.9722 41.3615C21.4422 42.8915 19.4163 44.9174 19.4163 44.9174C19.4163 45.5549 19.4163 48.6149 19.4163 49.1674C19.4163 54.7207 14.5855 54.834 13.7497 54.834" stroke="#B3B3B3" stroke-miterlimit="10"/>
<path d="M12.333 40.6667V3.83333C12.333 2.275 13.608 1 15.1663 1H40.6663L49.1663 9.5V44.9167C49.1663 46.475 47.8913 47.75 46.333 47.75H19.4163" stroke="#B3B3B3" stroke-miterlimit="10"/>
<path d="M39.25 5.25V10.9167H44.9167" stroke="#B3B3B3" stroke-miterlimit="10"/>
<path d="M20.833 19.416H42.083" stroke="#B3B3B3" stroke-miterlimit="10"/>
<path d="M20.833 25.084H32.1663" stroke="#B3B3B3" stroke-miterlimit="10"/>
</svg>
