<svg width="110" height="27" viewBox="0 0 110 27" fill="none" xmlns="http://www.w3.org/2000/svg">
<path fill-rule="evenodd" clip-rule="evenodd" d="M18.3613 1.43887L19.3425 2.34169L6.95208 9.50783L0.953099 6.0094L1.51375 4.88088L6.95208 8.01254L18.3613 1.43887ZM15.8664 0L17.184 0.677116L6.95208 6.60188L2.18653 3.8652L2.99948 2.87774L6.95208 5.16301L15.8664 0ZM20.2115 3.27273L20.9403 4.26019L6.95208 12.3574L0.196219 8.46395L0.504578 7.22257L6.95208 10.9467L20.2115 3.27273ZM106.524 3.21631H109.131C108.663 3.47925 108.038 3.97806 107.253 4.7116L104.646 7.39185L106.075 9.45141C107.571 11.5956 108.879 13.232 110 14.3605H106.272C105.805 13.2692 105.197 12.1599 104.45 11.0314L102.768 8.49217L104.225 6.6301C105.533 4.91869 106.3 3.78057 106.524 3.21631ZM102.571 4.45769V13.0909L102.683 13.7398C102.758 13.8527 102.927 13.9469 103.188 14.0219V14.3605H99.5719V14.0219L100.076 13.7398C100.15 13.627 100.189 13.4108 100.189 13.0909V4.45769L100.076 3.837C100.001 3.70552 99.8326 3.62088 99.5719 3.58308V3.21631H103.188V3.58308C102.926 3.62032 102.757 3.70552 102.683 3.837L102.571 4.45769ZM97.1891 4.45769V13.0909L97.3012 13.7398L97.8058 14.0219V14.3605H94.1616V14.0219C94.4228 13.9469 94.6101 13.8527 94.7222 13.7398L94.8063 13.0909V8.60502H90.5454V13.0909L90.6575 13.7398C90.7321 13.8527 90.8997 13.9469 91.161 14.0219V14.3605H87.4887V14.0219C87.7881 13.9469 87.9742 13.8527 88.0493 13.7398L88.1615 13.0909V4.45769L88.0493 3.837C87.9742 3.70552 87.7881 3.62088 87.4887 3.58308V3.21631H91.161V3.58308C90.8991 3.62032 90.7315 3.70552 90.6564 3.837L90.5442 4.45769V7.87148H94.8052V4.45769L94.7222 3.837C94.6101 3.70552 94.4228 3.62088 94.1616 3.58308V3.21631H97.8058V3.58308C97.544 3.62032 97.3758 3.70552 97.3012 3.837L97.1891 4.45769ZM95.8716 21.7806H97.6376L96.9088 25.5047H96.4042L96.7406 23.7837H95.8716L94.6662 25.5047H94.1055L95.3389 23.7555C94.8344 23.6048 94.5821 23.2849 94.5821 22.7962C94.5821 22.5327 94.6942 22.307 94.9185 22.1191C95.1427 21.8934 95.4606 21.7806 95.8716 21.7806ZM95.7594 23.3605H96.8247L97.0489 22.2038H95.8716C95.6097 22.2038 95.404 22.2692 95.2548 22.4013C95.1427 22.5141 95.0867 22.6552 95.0867 22.8245C95.0867 23.1822 95.3109 23.3605 95.7594 23.3605ZM91.078 24.6019C91.3583 24.9596 91.6762 25.1379 92.0311 25.1379C92.3865 25.1379 92.6955 24.9596 92.9562 24.6019C93.218 24.2261 93.3486 23.7656 93.3486 23.2194C93.3486 22.8623 93.2741 22.5897 93.1244 22.4013C92.9752 22.2139 92.7599 22.1191 92.4796 22.1191C92.0687 22.1191 91.7227 22.3256 91.4424 22.7398L91.078 24.6019ZM91.5826 21.7806L91.4985 22.232L91.975 21.837L92.5917 21.6959C92.9842 21.6959 93.2926 21.8274 93.5168 22.0909C93.7411 22.3544 93.8532 22.7398 93.8532 23.2477C93.8532 23.9248 93.6766 24.4794 93.3206 24.9122C92.9842 25.3445 92.5637 25.5611 92.0591 25.5611L91.4424 25.4483L90.9939 25.1097L90.6295 27H90.1249L91.1341 21.7806H91.5826ZM100.441 21.7806L100.861 25.0533H101.226L101.002 26.21H100.609L100.693 25.5047H98.1983L98.002 26.21H97.6376L97.8338 25.0533H98.1702L99.712 21.7806H100.441ZM99.9643 22.2602L98.6748 25.0533H100.329L100.076 22.2602H99.9643ZM101.702 23.953C101.702 23.3131 101.889 22.7776 102.263 22.3448C102.599 21.912 103.01 21.6959 103.496 21.6959C103.907 21.6959 104.225 21.8466 104.45 22.1473C104.692 22.4295 104.814 22.8245 104.814 23.3323C104.814 23.9338 104.636 24.4608 104.281 24.9122C103.926 25.345 103.514 25.5611 103.048 25.5611C102.636 25.5611 102.31 25.4201 102.067 25.1379C101.824 24.8558 101.702 24.4608 101.702 23.953ZM110 18.2539H28.8736V17.1536H110V18.2539ZM106.86 21.7806L107.281 24.9969L108.823 21.7806H109.636L108.907 25.5047H108.43L109.047 22.232L107.421 25.5047H106.944L106.468 22.232L105.823 25.5047H105.347L106.075 21.7806H106.86ZM104.085 22.4295C104.009 22.3307 103.911 22.2513 103.799 22.1974C103.687 22.1435 103.564 22.1167 103.44 22.1191C103.123 22.1191 102.843 22.2974 102.599 22.6552C102.338 23.031 102.207 23.4914 102.207 24.0376C102.207 24.3762 102.291 24.6487 102.459 24.8558C102.609 25.0431 102.805 25.1379 103.048 25.1379C103.384 25.1379 103.684 24.9591 103.945 24.6019C104.189 24.2255 104.309 23.7735 104.309 23.2477C104.309 22.9091 104.234 22.6366 104.085 22.4295ZM79.5566 3.58308V3.21631H82.7523C82.7887 3.72414 82.9205 4.26979 83.1448 4.85267L85.4995 11.511C85.892 12.6773 86.2743 13.627 86.6488 14.3605H83.8456L82.6402 10.3542H79.08L78.3232 13.0063L78.0989 14.3605H76.0805L79.6676 6.00941C80.0231 5.12577 80.2002 4.5237 80.2002 4.20377C80.2013 3.84659 79.986 3.6395 79.5566 3.58308ZM80.8741 5.07838L79.3604 9.56427H82.3879L80.8741 5.07838ZM75.2115 5.64264H74.5948L74.4547 5.16301C74.3044 4.61737 74.0801 4.26019 73.7819 4.09091L72.2401 3.89342H70.7543C70.418 3.89342 70.1937 3.94985 70.0816 4.0627C69.9885 4.15693 69.9414 4.32565 69.9414 4.57054V7.22258H70.5581C72.3522 7.22258 73.5952 7.40145 74.2865 7.75863C75.2771 8.24784 75.7722 9.20709 75.7722 10.6364C75.7722 12.0284 75.3797 13.0249 74.5948 13.627C73.903 14.1162 72.8288 14.3605 71.3711 14.3605H66.9419V14.0219L67.4745 13.7398L67.5586 13.0909V4.45769L67.4745 3.837C67.3994 3.70552 67.2222 3.62088 66.9419 3.58308V3.21631H75.2115V5.64264ZM69.9414 7.92791V12.6959C69.9414 13.0723 70.007 13.3166 70.1376 13.4295C70.2879 13.5801 70.5491 13.6552 70.9225 13.6552H71.2589C71.9698 13.6552 72.4924 13.4103 72.8288 12.9216C73.1281 12.4702 73.2773 11.7463 73.2773 10.7492C73.2773 9.77135 73.1186 9.07561 72.8007 8.66145C72.4643 8.17223 71.8381 7.92791 70.9225 7.92791H69.9414ZM70.6422 20.5674C70.8665 20.7931 70.9786 21.1035 70.9786 21.4984C70.9786 21.837 70.8755 22.1191 70.6702 22.3448C70.4836 22.5513 70.1847 22.7116 69.7732 22.8245C70.3524 23.0688 70.6422 23.4542 70.6422 23.9812C70.6422 24.4704 70.474 24.8462 70.1376 25.1097C69.8203 25.3732 69.3437 25.5047 68.708 25.5047H66.9419L67.923 20.2288H69.577C70.0446 20.2288 70.3989 20.3417 70.6422 20.5674ZM68.3716 20.7085L68.0071 22.5423H69.0443C69.4929 22.5423 69.8388 22.4481 70.0816 22.2602C70.3254 22.0537 70.446 21.7992 70.446 21.4984C70.446 21.2163 70.3714 21.0188 70.2217 20.906C70.0535 20.7739 69.8012 20.7085 69.4648 20.7085H68.3716ZM71.8196 23.953C71.8196 24.3293 71.9132 24.6115 72.0999 24.7994C72.2681 25.0059 72.5114 25.1097 72.8288 25.1097L73.4735 24.9122L73.8379 24.4044L74.2304 24.5737L73.6697 25.279C73.4258 25.4669 73.127 25.5611 72.7716 25.5611C72.3416 25.5611 71.9956 25.4105 71.7344 25.1097C71.4725 24.809 71.3419 24.4044 71.3419 23.8966C71.3419 23.295 71.5101 22.7782 71.8465 22.3448C72.1829 21.9126 72.6034 21.6959 73.108 21.6959C73.4629 21.6959 73.7432 21.7907 73.9489 21.9781C74.1541 22.1473 74.3223 22.4114 74.4535 22.768L73.9781 22.8527C73.8475 22.3634 73.5576 22.1191 73.1091 22.1191C72.7727 22.1191 72.4733 22.2884 72.212 22.627C71.9508 22.9841 71.8196 23.4265 71.8196 23.953ZM68.8762 22.9937H67.923L67.5586 25.0251H68.7921C69.2036 25.0251 69.5209 24.9314 69.7452 24.7429C69.9694 24.555 70.0816 24.3011 70.0816 23.9812C70.0816 23.7363 69.979 23.5106 69.7732 23.3041C69.5304 23.0976 69.231 22.9937 68.8762 22.9937ZM77.9868 23.6426H75.3797L75.3517 23.953C75.3517 24.3293 75.4453 24.6205 75.632 24.8276C75.8002 25.0347 76.0346 25.1379 76.3328 25.1379C76.5952 25.1379 76.8189 25.0533 77.0056 24.884L77.4822 24.2633L77.9027 24.489L77.2018 25.2508C76.9406 25.4579 76.6227 25.5611 76.2487 25.5611C75.8193 25.5611 75.4829 25.4201 75.2396 25.1379C74.9968 24.8372 74.8751 24.4422 74.8751 23.953C74.8751 23.2945 75.0433 22.759 75.3797 22.3448C75.7357 21.912 76.1747 21.6959 76.6973 21.6959C77.1278 21.6959 77.4553 21.8274 77.6784 22.0909C77.9223 22.3358 78.0428 22.6924 78.0428 23.163L77.9868 23.6426ZM77.342 22.4013C77.2616 22.3096 77.1622 22.2368 77.0508 22.1881C76.9394 22.1393 76.8187 22.1158 76.6973 22.1191C76.3609 22.1191 76.0996 22.2224 75.9123 22.4295C75.7256 22.5987 75.576 22.8623 75.4638 23.2194H77.5102L77.5382 22.9937C77.5382 22.768 77.4732 22.5705 77.342 22.4013ZM78.5474 25.5047L79.2763 21.7806H81.3507L81.2666 22.2038H79.6687L79.024 25.5047H78.5474ZM82.7243 22.2602L81.4348 25.0533H83.0887L82.8364 22.2602H82.7243ZM83.2008 21.7806L83.6213 25.0533H83.9857L83.7615 26.21H83.3971L83.4531 25.5047H80.9582L80.762 26.21H80.3976L80.5938 25.0533H80.9302L82.472 21.7806H83.2008ZM84.5464 24.5172C84.5464 24.1223 84.7146 23.8215 85.051 23.6144C85.4064 23.3887 85.9015 23.2759 86.5367 23.2759H87.0413L87.0693 22.8527C87.0693 22.6078 87.0043 22.4295 86.8731 22.3166C86.7234 22.1851 86.5176 22.1191 86.2564 22.1191C86.0125 22.1191 85.7423 22.2602 85.4434 22.5423L85.1351 22.232C85.546 21.8742 85.948 21.6959 86.3405 21.6959C86.7133 21.6959 87.0133 21.7992 87.2375 22.0063C87.4618 22.2134 87.5739 22.4769 87.5739 22.7962L87.5178 23.3605L87.2655 24.6019C87.2095 24.8654 87.1815 25.1661 87.1815 25.5047H86.7049L86.6769 25.0815L86.1723 25.4201L85.5836 25.5611C85.2848 25.5611 85.0414 25.4584 84.8548 25.2508C84.649 25.0437 84.5464 24.7994 84.5464 24.5172ZM86.5928 23.6708C85.5651 23.6708 85.051 23.9338 85.051 24.4608C85.051 24.6487 85.107 24.8084 85.2192 24.9404C85.3498 25.0719 85.509 25.1379 85.6957 25.1379C85.9761 25.1379 86.3315 24.9782 86.761 24.6583L86.9572 23.6708H86.5928ZM65.9608 6.40439C65.9608 7.7022 65.5683 8.63323 64.7834 9.1975C64.1106 9.68671 63.0639 9.93104 61.6437 9.93104H60.5224V13.0909L60.6346 13.7398C60.6906 13.8527 60.8672 13.9469 61.1661 14.0219V14.3605H57.5218V14.0219L58.0264 13.7398L58.1385 13.0909V4.45769L58.0264 3.837C57.9518 3.70552 57.7831 3.62088 57.5218 3.58308V3.21631H62.1192C63.3711 3.21631 64.2867 3.40421 64.8664 3.78057C65.5963 4.26979 65.9608 5.14439 65.9608 6.40439ZM60.6906 4.00628C60.5785 4.08132 60.5224 4.2506 60.5224 4.51411V9.22571H61.6437C62.335 9.22571 62.8211 8.9622 63.1014 8.43574C63.3448 7.96571 63.4659 7.25079 63.4659 6.29154C63.4659 4.69298 62.8021 3.89342 61.4755 3.89342H61.1952L60.6906 4.00628ZM55.841 5.64264H55.2523L55.1121 5.16301C54.9254 4.61737 54.6917 4.26019 54.4113 4.09091L52.8976 3.89342H51.6641L51.2156 4.00628L51.1035 4.42947V7.87148H52.5612C53.5704 7.87148 54.2336 7.75863 54.5515 7.53292V8.94358C54.2342 8.71787 53.5704 8.60502 52.5612 8.60502H51.1035V12.7806C51.1035 13.1191 51.2156 13.3544 51.4399 13.4859L52.8415 13.6552H53.1499L54.6636 13.4295C54.9254 13.2602 55.1312 12.8466 55.2803 12.1881L55.3925 11.7649H56.0933V14.3605H48.104V14.0219C48.3843 13.9469 48.562 13.8527 48.6366 13.7398L48.7487 13.0909V4.45769L48.6366 3.837C48.562 3.70552 48.3843 3.62088 48.104 3.58308V3.21631H55.841V5.64264ZM46.2819 5.64264H45.6932L45.553 5.16301C45.3848 4.61737 45.151 4.26019 44.8522 4.09091L43.3665 3.89342H41.8247C41.5068 3.89342 41.2825 3.94985 41.1519 4.0627C41.0958 4.15693 41.0678 4.32565 41.0678 4.57054V7.22258H41.6845C43.4601 7.22258 44.7025 7.40145 45.4129 7.75863C46.3845 8.24784 46.8706 9.20709 46.8706 10.6364C46.8706 12.0284 46.4781 13.0249 45.6932 13.627C45.0204 14.1162 43.9456 14.3605 42.4694 14.3605H38.0123V14.0219C38.3116 13.9469 38.4983 13.8527 38.5729 13.7398L38.685 13.0909V4.45769L38.5729 3.837C38.4983 3.70552 38.3116 3.62088 38.0123 3.58308V3.21631H46.2819V5.64264ZM35.1249 4.11913C34.7885 3.8748 34.2654 3.75236 33.5551 3.75236C32.4338 3.75236 31.6393 4.16596 31.1723 4.99374C30.7798 5.70866 30.5836 6.87442 30.5836 8.49217C30.5836 10.1099 30.7983 11.3039 31.2284 12.0752C31.7514 13.0345 32.6485 13.5141 33.9195 13.5141C34.8541 13.5141 35.7792 13.2884 36.6947 12.837L37.0311 13.5423C35.9659 14.2003 34.7139 14.5298 33.2747 14.5298C29.7611 14.5298 28.0046 12.6581 28.0046 8.91536C28.0046 4.98471 29.8267 3.01881 33.471 3.01881C34.8726 3.01881 35.9474 3.18809 36.6947 3.52665V5.84013H35.9939L35.7977 5.16301C35.648 4.69298 35.4237 4.34483 35.1249 4.11913ZM41.0678 7.92791V12.6959C41.0678 13.0723 41.1239 13.3166 41.236 13.4295C41.3857 13.5801 41.6565 13.6552 42.049 13.6552H42.3573C43.7029 13.6552 44.3757 12.6863 44.3757 10.7492C44.3757 9.77135 44.217 9.07561 43.8991 8.66145C43.5442 8.17223 42.9084 7.92791 41.9929 7.92791H41.0678ZM22.8466 10.58C22.8466 9.30078 22.6408 8.07858 22.2299 6.91225L21.6131 5.33231L6.95209 13.7963L7.06864e-07 9.81821V10.58C-0.000535886 12.1204 0.304436 13.6455 0.897045 15.0659C1.4577 16.4393 2.27064 17.6615 3.33588 18.7336C4.41962 19.787 5.62502 20.5956 6.95209 21.1599C8.37222 21.7806 9.85795 22.0909 11.4093 22.0909C12.9421 22.0909 14.4278 21.7806 15.8665 21.1599C17.227 20.5983 18.465 19.7741 19.5107 18.7336C20.547 17.6774 21.3746 16.4328 21.9495 15.0659L22.2299 14.3041C22.6408 13.1005 22.8466 11.8591 22.8466 10.58Z" fill="#333333"/>
</svg>
