<svg width="42" height="42" viewBox="0 0 42 42" fill="none" xmlns="http://www.w3.org/2000/svg">
<rect x="25" y="25" width="14" height="14" rx="7" fill="#FFDC00"/>
<path d="M10.2539 15.5859C9.80273 15.5859 9.39258 15.7664 9.09727 16.0699C8.80195 16.3734 8.61328 16.7754 8.61328 17.2266C8.61328 18.1289 9.35156 18.8672 10.2539 18.8672C11.1562 18.8672 11.8945 18.1289 11.8945 17.2266C11.8945 16.3242 11.1562 15.5859 10.2539 15.5859ZM24.5273 15.5859C23.625 15.5859 22.8867 16.3242 22.8867 17.2266C22.8867 17.6777 23.0672 18.0879 23.3707 18.3832C23.6742 18.6785 24.0762 18.8672 24.5273 18.8672C25.4297 18.8672 26.168 18.1289 26.168 17.2266C26.168 16.3242 25.4297 15.5859 24.5273 15.5859ZM31.6641 15.5859C30.7617 15.5859 30.0234 16.3242 30.0234 17.2266C30.0234 17.6777 30.2039 18.0879 30.5074 18.3832C30.8109 18.6785 31.2129 18.8672 31.6641 18.8672C32.5664 18.8672 33.3047 18.1289 33.3047 17.2266C33.3047 16.3242 32.5664 15.5859 31.6641 15.5859ZM10.2539 22.7227C9.35156 22.7227 8.61328 23.4609 8.61328 24.3633C8.61328 24.8145 8.79375 25.2246 9.09727 25.5199C9.40078 25.8152 9.80273 26.0039 10.2539 26.0039C11.1562 26.0039 11.8945 25.2656 11.8945 24.3633C11.8945 23.4609 11.1562 22.7227 10.2539 22.7227ZM11.4105 30.3434C11.1152 30.048 10.7051 29.8594 10.2539 29.8594C9.35156 29.8594 8.61328 30.5977 8.61328 31.5C8.61328 31.9512 8.79375 32.3613 9.09727 32.6566C9.40078 32.952 9.80273 33.1406 10.2539 33.1406C11.1562 33.1406 11.8945 32.4023 11.8945 31.5C11.8945 31.0488 11.7141 30.6387 11.4105 30.3434ZM17.3906 15.5859C16.4883 15.5859 15.75 16.3242 15.75 17.2266C15.75 17.6777 15.9305 18.0879 16.234 18.3832C16.5375 18.6785 16.9395 18.8672 17.3906 18.8672C18.293 18.8672 19.0312 18.1289 19.0312 17.2266C19.0312 16.3242 18.293 15.5859 17.3906 15.5859ZM17.3906 22.7227C16.4883 22.7227 15.75 23.4609 15.75 24.3633C15.75 24.8145 15.9305 25.2246 16.234 25.5199C16.5375 25.8152 16.9395 26.0039 17.3906 26.0039C18.293 26.0039 19.0312 25.2656 19.0312 24.3633C19.0312 23.4609 18.293 22.7227 17.3906 22.7227ZM18.5473 30.3434C18.252 30.048 17.8418 29.8594 17.3906 29.8594C16.4883 29.8594 15.75 30.5977 15.75 31.5C15.75 31.9512 15.9305 32.3613 16.234 32.6566C16.5375 32.952 16.9395 33.1406 17.3906 33.1406C18.293 33.1406 19.0312 32.4023 19.0312 31.5C19.0312 31.0488 18.8508 30.6387 18.5473 30.3434ZM34.4531 30.4336H33.7148V28.7109C33.7148 27.8086 32.9766 27.0703 32.0742 27.0703C31.1719 27.0703 30.4336 27.8086 30.4336 28.7109V32.0742C30.4336 32.9766 31.1719 33.7148 32.0742 33.7148H34.4531C35.3555 33.7148 36.0938 32.9766 36.0938 32.0742C36.0938 31.1719 35.3555 30.4336 34.4531 30.4336ZM34.4531 30.4336H33.7148V28.7109C33.7148 27.8086 32.9766 27.0703 32.0742 27.0703C31.1719 27.0703 30.4336 27.8086 30.4336 28.7109V32.0742C30.4336 32.9766 31.1719 33.7148 32.0742 33.7148H34.4531C35.3555 33.7148 36.0938 32.9766 36.0938 32.0742C36.0938 31.1719 35.3555 30.4336 34.4531 30.4336ZM34.4531 30.4336H33.7148V28.7109C33.7148 27.8086 32.9766 27.0703 32.0742 27.0703C31.1719 27.0703 30.4336 27.8086 30.4336 28.7109V32.0742C30.4336 32.9766 31.1719 33.7148 32.0742 33.7148H34.4531C35.3555 33.7148 36.0938 32.9766 36.0938 32.0742C36.0938 31.1719 35.3555 30.4336 34.4531 30.4336ZM34.4531 30.4336H33.7148V28.7109C33.7148 27.8086 32.9766 27.0703 32.0742 27.0703C31.1719 27.0703 30.4336 27.8086 30.4336 28.7109V32.0742C30.4336 32.9766 31.1719 33.7148 32.0742 33.7148H34.4531C35.3555 33.7148 36.0938 32.9766 36.0938 32.0742C36.0938 31.1719 35.3555 30.4336 34.4531 30.4336ZM32.0742 22.1484C26.6027 22.1484 22.1484 26.6027 22.1484 32.0742C22.1484 37.5457 26.6027 42 32.0742 42C37.5457 42 42 37.5457 42 32.0742C42 26.6027 37.5457 22.1484 32.0742 22.1484ZM32.0742 38.7188C28.4074 38.7188 25.4297 35.741 25.4297 32.0742C25.4297 28.4074 28.4074 25.4297 32.0742 25.4297C35.741 25.4297 38.7188 28.4074 38.7188 32.0742C38.7188 35.741 35.741 38.7188 32.0742 38.7188ZM34.4531 30.4336H33.7148V28.7109C33.7148 27.8086 32.9766 27.0703 32.0742 27.0703C31.1719 27.0703 30.4336 27.8086 30.4336 28.7109V32.0742C30.4336 32.9766 31.1719 33.7148 32.0742 33.7148H34.4531C35.3555 33.7148 36.0938 32.9766 36.0938 32.0742C36.0938 31.1719 35.3555 30.4336 34.4531 30.4336ZM34.4531 30.4336H33.7148V28.7109C33.7148 27.8086 32.9766 27.0703 32.0742 27.0703C31.1719 27.0703 30.4336 27.8086 30.4336 28.7109V32.0742C30.4336 32.9766 31.1719 33.7148 32.0742 33.7148H34.4531C35.3555 33.7148 36.0938 32.9766 36.0938 32.0742C36.0938 31.1719 35.3555 30.4336 34.4531 30.4336ZM34.4531 30.4336H33.7148V28.7109C33.7148 27.8086 32.9766 27.0703 32.0742 27.0703C31.1719 27.0703 30.4336 27.8086 30.4336 28.7109V32.0742C30.4336 32.9766 31.1719 33.7148 32.0742 33.7148H34.4531C35.3555 33.7148 36.0938 32.9766 36.0938 32.0742C36.0938 31.1719 35.3555 30.4336 34.4531 30.4336ZM34.4531 30.4336H33.7148V28.7109C33.7148 27.8086 32.9766 27.0703 32.0742 27.0703C31.1719 27.0703 30.4336 27.8086 30.4336 28.7109V32.0742C30.4336 32.9766 31.1719 33.7148 32.0742 33.7148H34.4531C35.3555 33.7148 36.0938 32.9766 36.0938 32.0742C36.0938 31.1719 35.3555 30.4336 34.4531 30.4336ZM34.4531 30.4336H33.7148V28.7109C33.7148 27.8086 32.9766 27.0703 32.0742 27.0703C31.1719 27.0703 30.4336 27.8086 30.4336 28.7109V32.0742C30.4336 32.9766 31.1719 33.7148 32.0742 33.7148H34.4531C35.3555 33.7148 36.0938 32.9766 36.0938 32.0742C36.0938 31.1719 35.3555 30.4336 34.4531 30.4336ZM35.4375 3.28125H33.3047V1.64062C33.3047 0.738281 32.5664 0 31.6641 0C30.7617 0 30.0234 0.738281 30.0234 1.64062V3.28125H22.5586V1.64062C22.5586 0.738281 21.8203 0 20.918 0C20.0156 0 19.2773 0.738281 19.2773 1.64062V3.28125H11.8945V1.64062C11.8945 0.738281 11.1562 0 10.2539 0C9.35156 0 8.61328 0.738281 8.61328 1.64062V3.28125H6.5625C2.94492 3.28125 0 6.22617 0 9.84375V35.4375C0 39.0551 2.94492 42 6.5625 42H19.1133C20.0156 42 20.7539 41.2617 20.7539 40.3594C20.7539 39.457 20.0156 38.7188 19.1133 38.7188H6.5625C4.74961 38.7188 3.28125 37.2504 3.28125 35.4375V9.84375C3.28125 8.03086 4.74961 6.5625 6.5625 6.5625H8.61328V8.20312C8.61328 9.10547 9.35156 9.84375 10.2539 9.84375C11.1562 9.84375 11.8945 9.10547 11.8945 8.20312V6.5625H19.2773V8.20312C19.2773 9.10547 20.0156 9.84375 20.918 9.84375C21.8203 9.84375 22.5586 9.10547 22.5586 8.20312V6.5625H30.0234V8.20312C30.0234 9.10547 30.7617 9.84375 31.6641 9.84375C32.5664 9.84375 33.3047 9.10547 33.3047 8.20312V6.5625H35.4375C37.2504 6.5625 38.7188 8.03086 38.7188 9.84375V19.1953C38.7188 20.0977 39.457 20.8359 40.3594 20.8359C41.2617 20.8359 42 20.0977 42 19.1953V9.84375C42 6.22617 39.0551 3.28125 35.4375 3.28125Z" fill="black"/>
<path d="M32.0742 25.4297C28.4074 25.4297 25.4297 28.4074 25.4297 32.0742C25.4297 35.741 28.4074 38.7188 32.0742 38.7188C35.741 38.7188 38.7188 35.741 38.7188 32.0742C38.7188 28.4074 35.741 25.4297 32.0742 25.4297ZM34.4531 33.7148H32.0742C31.1719 33.7148 30.4336 32.9766 30.4336 32.0742V28.7109C30.4336 27.8086 31.1719 27.0703 32.0742 27.0703C32.9766 27.0703 33.7148 27.8086 33.7148 28.7109V30.4336H34.4531C35.3555 30.4336 36.0938 31.1719 36.0938 32.0742C36.0938 32.9766 35.3555 33.7148 34.4531 33.7148Z" fill="#FFDC00"/>
</svg>
