<svg width="54" height="54" viewBox="0 0 54 54" fill="none" xmlns="http://www.w3.org/2000/svg">
<path d="M50.5217 30.8984C48.9709 28.6352 46.8441 26.9114 44.3733 25.8734L48.9403 11.467L48.9098 11.4568C48.9241 11.3591 48.9342 11.2604 48.9342 11.1576C48.9342 10.0362 48.0245 9.1275 46.9031 9.1275C45.7827 9.1275 44.8719 8.21572 44.8719 7.09634C44.8719 5.97595 45.7827 5.06518 46.9031 5.06518C48.0225 5.06518 48.9342 5.97595 48.9342 7.09634C48.9342 8.21775 49.843 9.1275 50.9644 9.1275C52.0868 9.1275 52.9955 8.21775 52.9955 7.09634C52.9955 3.73617 50.2622 1.00387 46.9031 1.00387C43.5429 1.00387 40.8106 3.73617 40.8106 7.09634C40.8106 9.5315 42.2465 11.6369 44.3163 12.6108L40.4361 24.8507C37.0719 24.4721 33.7199 25.3046 30.899 27.239C30.3475 27.6166 29.8295 28.0287 29.3451 28.4714L23.848 23.5695C23.3473 21.2758 21.9643 19.3077 20.0736 18.0428C20.788 17.0446 21.2093 15.8244 21.2093 14.5066C21.2093 11.1475 18.476 8.41415 15.1168 8.41415C11.7577 8.41415 9.02332 11.1475 9.02332 14.5066C9.02332 15.8244 9.44563 17.0446 10.16 18.0428C8.92461 18.8691 7.90598 19.9946 7.20891 21.3155C5.48914 19.1195 4.68318 16.2244 5.23372 13.2733C6.25031 7.82394 11.5104 4.2175 16.9597 5.2341C22.409 6.24968 26.0155 11.5108 24.9989 16.9601C24.7933 18.0622 25.5209 19.1225 26.623 19.3291C27.7261 19.5347 28.7864 18.8071 28.992 17.705C30.4197 10.0535 25.3561 2.66767 17.7046 1.24098C10.0542 -0.186739 2.6683 4.87692 1.24059 12.5284C-0.00293899 19.1978 3.68592 25.6658 9.7214 28.16L6.43654 40.8456C3.38674 41.1763 1.00348 43.7661 1.00348 46.9024C1.00348 50.2616 3.7368 52.9949 7.09697 52.9949C8.21838 52.9949 9.12712 52.0862 9.12712 50.9648C9.12712 49.8423 8.21838 48.9336 7.09697 48.9336C5.97658 48.9336 5.06581 48.0218 5.06581 46.9024C5.06581 45.7831 5.97658 44.8713 7.09697 44.8713C8.21635 44.8713 9.12712 45.7831 9.12712 46.9024C9.12712 48.0239 10.0369 48.9336 11.1583 48.9336C12.2797 48.9336 13.1894 48.0239 13.1894 46.9024C13.1894 44.7563 12.0721 42.8666 10.39 41.7808L13.6596 29.1562C14.1582 29.2091 14.6568 29.2356 15.1534 29.2356C17.5693 29.2356 19.9301 28.6118 22.0508 27.409L26.7695 31.6178C25.9188 33.0395 25.3174 34.6147 25.005 36.2918C23.5783 43.9432 28.6419 51.3291 36.2924 52.7558C37.1686 52.9196 38.0468 53 38.9168 53C41.8007 53 44.6073 52.1147 47.0191 50.4132C47.8047 49.8586 48.0754 48.8481 47.7304 47.9933C47.3702 45.4188 45.9078 43.1922 43.838 41.8062C44.5514 40.809 44.9737 39.5888 44.9737 38.271C44.9737 34.9109 42.2404 32.1786 38.8812 32.1786C35.521 32.1786 32.7877 34.9109 32.7877 38.271C32.7877 39.5888 33.21 40.809 33.9234 41.8062C32.689 42.6335 31.6704 43.759 30.9733 45.0789C29.2535 42.8829 28.4476 39.9877 28.9981 37.0367C29.4906 34.397 30.9814 32.1073 33.1958 30.589C35.4111 29.0697 38.0844 28.505 40.7241 28.9975C46.1734 30.0141 49.7799 35.2741 48.7633 40.7235C48.5577 41.8266 49.2843 42.8869 50.3874 43.0925C51.4905 43.298 52.5508 42.5704 52.7564 41.4684C53.4474 37.7622 52.6536 34.0082 50.5217 30.8984ZM15.1168 12.4765C16.2362 12.4765 17.148 13.3872 17.148 14.5066C17.148 15.627 16.2362 16.5378 15.1168 16.5378C13.9964 16.5378 13.0856 15.627 13.0856 14.5066C13.0856 13.3872 13.9964 12.4765 15.1168 12.4765ZM13.2739 24.9993C12.2675 24.811 11.3242 24.4782 10.4612 24.0274C11.0789 22.0441 12.933 20.6001 15.1168 20.6001C17.3006 20.6001 19.1537 22.0441 19.7724 24.0285C17.784 25.0725 15.5208 25.4175 13.2739 24.9993ZM38.8812 36.2399C40.0006 36.2399 40.9114 37.1506 40.9114 38.271C40.9114 39.3914 40.0006 40.3022 38.8812 40.3022C37.7608 40.3022 36.85 39.3914 36.85 38.271C36.85 37.1506 37.7608 36.2399 38.8812 36.2399ZM38.8812 44.3645C41.065 44.3645 42.9181 45.8085 43.5358 47.7918C41.5474 48.8369 39.2852 49.1819 37.0373 48.7626C36.0319 48.5754 35.0885 48.2426 34.2256 47.7918C34.8433 45.8085 36.6964 44.3645 38.8812 44.3645Z" fill="black" stroke="white" stroke-width="0.5"/>
<path d="M40.9109 38.271C40.9109 39.3914 40.0001 40.3022 38.8808 40.3022C37.7604 40.3022 36.8496 39.3914 36.8496 38.271C36.8496 37.1506 37.7604 36.2399 38.8808 36.2399C40.0001 36.2399 40.9109 37.1506 40.9109 38.271Z" fill="#FFDC00"/>
<path d="M43.5348 47.7918C41.5464 48.8369 39.2842 49.1819 37.0363 48.7626C36.0309 48.5754 35.0875 48.2426 34.2246 47.7918C34.8423 45.8085 36.6954 44.3645 38.8802 44.3645C41.064 44.3645 42.9171 45.8085 43.5348 47.7918Z" fill="#FFDC00"/>
<path d="M17.1483 14.5066C17.1483 15.627 16.2365 16.5378 15.1171 16.5378C13.9967 16.5378 13.0859 15.627 13.0859 14.5066C13.0859 13.3873 13.9967 12.4765 15.1171 12.4765C16.2365 12.4765 17.1483 13.3873 17.1483 14.5066Z" fill="#FFDC00"/>
<path d="M19.7721 24.0284C17.7837 25.0725 15.5205 25.4175 13.2736 24.9993C12.2672 24.811 11.3239 24.4782 10.4609 24.0274C11.0786 22.0441 12.9327 20.6001 15.1165 20.6001C17.3003 20.6001 19.1534 22.0441 19.7721 24.0284Z" fill="#FFDC00"/>
</svg>
