<?xml version="1.0" encoding="UTF-8"?>
<svg width="42px" height="42px" viewBox="0 0 42 42" version="1.1" xmlns="http://www.w3.org/2000/svg" xmlns:xlink="http://www.w3.org/1999/xlink">
    <title>Shape</title>
    <g id="Page-1" stroke="none" stroke-width="1" fill="none" fill-rule="evenodd">
        <g id="shelter" transform="translate(-24.000000, -21.000000)" fill="#000000" fill-rule="nonzero">
            <path d="M58.9998,22.75 L58.9998,32.5255 L65.487,39.0128 C66.1704,39.6961 66.1704,40.8039 65.487,41.4872 C65.1449,41.8294 64.6978,42 64.2498,42 C63.8018,42 63.3547,41.8294 63.0125,41.4872 L61.6248,40.0995 L61.6248,61.25 C61.6248,62.216 60.8408,63 59.8748,63 L30.1248,63 C29.1588,63 28.3748,62.216 28.3748,61.25 L28.3748,40.0995 L26.987,41.4872 C26.3045,42.1706 25.195,42.1706 24.5125,41.4872 C23.8292,40.8039 23.8292,39.6961 24.5125,39.0128 L28.8875,34.6378 L29.7625,33.7628 L40.987,22.5374 C41.9784,21.546 43.2962,21 44.6988,21 L45.2999,21 C46.7025,21 48.0212,21.546 49.0125,22.5383 L55.4998,29.0255 L55.4998,22.75 C55.4998,21.784 56.2838,21 57.2498,21 C58.2158,21 58.9998,21.784 58.9998,22.75 Z M44.6997,24.5 C44.2385,24.5 43.7879,24.6864 43.4624,25.0119 L35.2243,33.25 L54.7753,33.25 L46.5389,25.0119 C46.2082,24.682 45.7689,24.5 45.3008,24.5 L44.6997,24.5 Z M31.8748,59.5 L58.1248,59.5 L58.1248,36.75 L31.8748,36.75 L31.8748,59.5 Z M43.7276,55.4514 L38.6867,50.113 C38.678,50.106 38.6692,50.0973 38.6605,50.0885 C36.6139,48.041 36.6139,44.709 38.6605,42.6615 C40.3764,40.9456 42.9926,40.6674 45.0007,41.8259 C47.0124,40.6683 49.6242,40.9483 51.3384,42.6606 C53.385,44.7099 53.385,48.0401 51.3392,50.0885 C51.3287,50.0981 51.3191,50.1078 51.3086,50.1174 L46.2721,55.4514 C45.9414,55.8014 45.4811,56 44.9999,56 C44.5186,56 44.0584,55.8014 43.7276,55.4514 Z M43.6077,45.1299 C42.9602,44.4824 41.7956,44.4763 41.1359,45.136 C40.4674,45.8054 40.4534,46.8843 41.0939,47.5703 C41.1201,47.5948 41.1464,47.621 41.1717,47.6481 L44.9999,51.7011 L48.8271,47.6481 C48.8534,47.6201 48.8814,47.593 48.9085,47.5668 C49.5455,46.8808 49.5306,45.8036 48.863,45.136 C48.1814,44.4526 47.0692,44.4544 46.3859,45.136 C45.7226,45.9445 44.3147,45.9865 43.6489,45.1771 L43.6077,45.1299 Z" id="Shape"></path>
        </g>
    </g>
</svg>