<svg width="135" height="59" viewBox="0 0 135 59" fill="none" xmlns="http://www.w3.org/2000/svg">
<path d="M52.8328 10.3551C52.8328 16.636 49.015 20.7 43.1037 20.7C37.1923 20.7 33.3745 16.636 33.3745 10.3551C33.3745 4.07427 37.1923 0.0101929 43.1037 0.0101929C49.015 0.0101929 52.8328 4.07427 52.8328 10.3551ZM38.1775 10.3551C38.1775 13.5571 39.6554 16.5128 43.1037 16.5128C46.552 16.5128 48.0298 13.434 48.0298 10.3551C48.0298 7.15312 46.552 4.19742 43.1037 4.19742C39.6554 4.19742 38.1775 7.15312 38.1775 10.3551Z" fill="#EA5901"/>
<path d="M55.2959 2.71964C55.2959 1.24179 56.4043 0.502869 57.5127 0.502869H63.0546C66.5029 0.502869 69.8281 2.71964 69.8281 7.27633C69.8281 11.0941 67.4881 14.0498 63.1777 14.0498H59.7294V18.237C59.7294 19.838 58.7442 20.5769 57.5127 20.5769C56.158 20.5769 55.2959 19.7149 55.2959 18.237V2.71964ZM59.7294 9.86256H62.1925C64.163 9.86256 65.1482 8.50787 65.1482 7.15318C65.1482 5.42902 63.9167 4.44379 62.1925 4.44379H59.7294V9.86256Z" fill="#EA5901"/>
<path d="M71.9219 2.71964C71.9219 1.24179 73.0303 0.502869 74.1386 0.502869H79.6806C83.1289 0.502869 86.454 2.71964 86.454 7.27633C86.454 11.0941 84.1141 14.0498 79.8037 14.0498H76.3554V18.237C76.3554 19.838 75.3702 20.5769 74.1386 20.5769C72.784 20.5769 71.9219 19.7149 71.9219 18.237V2.71964ZM76.4786 9.86256H78.9416C80.9121 9.86256 81.8973 8.50787 81.8973 7.15318C81.8973 5.42902 80.6658 4.44379 78.9416 4.44379H76.4786V9.86256Z" fill="#EA5901"/>
<path d="M93.1044 17.9907C93.1044 19.5917 92.1192 20.3306 90.8877 20.3306C89.533 20.3306 88.6709 19.4685 88.6709 17.9907V2.59645C88.6709 0.995454 89.6561 0.256531 90.8877 0.256531C92.2424 0.256531 93.1044 1.11861 93.1044 2.59645V17.9907Z" fill="#EA5901"/>
<path d="M96.0601 2.71962C96.0601 1.11862 97.0453 0.3797 98.2768 0.3797C99.5084 0.3797 99.8778 0.872315 101.356 2.84278L108.868 12.2025V2.84278C108.868 1.24178 109.853 0.502854 111.085 0.502854C112.44 0.502854 113.302 1.36493 113.302 2.84278V18.237C113.302 19.838 112.316 20.5769 111.085 20.5769C109.853 20.5769 109.484 20.0843 108.006 18.1139L100.494 8.75416V18.1139C100.494 19.7149 99.5084 20.4538 98.2768 20.4538C96.9221 20.4538 96.0601 19.5917 96.0601 18.1139V2.71962Z" fill="#EA5901"/>
<path d="M132.267 8.50781C133.868 8.50781 134.607 9.36989 134.607 11.2172C134.607 16.5128 131.036 20.7 125.617 20.7C119.336 20.7 115.888 16.0202 115.888 10.3551C115.888 4.32058 120.075 0.0101929 125.617 0.0101929C129.311 0.0101929 133.252 1.61119 133.252 4.32058C133.252 5.42896 132.513 6.16788 131.159 6.16788C129.558 6.16788 128.696 4.07427 125.74 4.07427C122.538 4.07427 120.691 6.78365 120.691 10.232C120.691 13.3108 122.169 16.3897 125.74 16.3897C128.08 16.3897 129.804 14.9118 129.927 12.5719H127.341C125.863 12.5719 125.124 11.7098 125.124 10.4783C125.124 9.12358 125.986 8.38465 127.341 8.38465H132.267V8.50781Z" fill="#EA5901"/>
<path d="M16.5024 2.35019C16.5024 0.9955 17.3645 0.133423 18.5961 0.133423C19.8276 0.133423 20.6897 0.872346 20.6897 2.35019V8.38473H26.7242V2.35019C26.7242 0.9955 27.5863 0.133423 28.8178 0.133423C30.0494 0.133423 30.9114 0.872346 30.9114 2.35019V18.3602C30.9114 19.7149 30.0494 20.577 28.8178 20.577C27.5863 20.577 26.7242 19.838 26.7242 18.3602V12.2025H20.6897V18.3602C20.6897 19.7149 19.8276 20.577 18.5961 20.577C17.3645 20.577 16.5024 19.838 16.5024 18.3602V2.35019Z" fill="#EA5901"/>
<path d="M13.5469 3.08909C13.5469 4.19747 12.808 5.1827 11.6996 5.1827C10.5912 5.1827 8.74392 4.07432 7.14292 4.07432C5.91138 4.07432 4.803 4.69009 4.803 5.92163C4.803 8.87732 14.1627 6.90686 14.1627 14.2961C14.1627 18.3602 10.8375 20.8232 6.89662 20.8232C4.67985 20.8232 0 20.3306 0 17.6212C0 16.5129 0.738923 15.6508 1.84731 15.6508C3.202 15.6508 4.803 16.7592 6.52715 16.7592C8.37446 16.7592 9.35969 15.7739 9.35969 14.2961C9.35969 10.9709 0 12.9414 0 6.41424C0 2.47332 3.202 0.0102418 7.01977 0.0102418C8.74392 -0.112912 13.5469 0.872319 13.5469 3.08909Z" fill="#EA5901"/>
<path d="M5.29557 50.257V33.0155C5.29557 30.6755 7.14288 28.8282 9.4828 28.8282L34.7293 27.3504C33.9904 26.1188 33.0052 25.6262 31.4042 25.6262L4.80295 26.8578C2.46303 26.8578 0.615723 28.7051 0.615723 31.045V52.3506C0.615723 54.6905 2.46303 56.5378 4.80295 56.5378L31.4042 57.7694C32.882 57.7694 33.9904 57.2768 34.7293 56.0452L9.4828 54.5674C7.26603 54.4442 5.29557 52.5969 5.29557 50.257Z" fill="#EA5901"/>
<path d="M38.9166 52.1043V31.045C38.9166 28.3356 37.8082 25.1336 35.9609 24.7642C40.1482 24.8873 43.5965 27.4735 43.5965 31.1682V52.2275C43.5965 55.9221 40.2713 58.5083 35.9609 58.5083C37.8082 58.0157 39.0398 54.8137 38.9166 52.1043Z" fill="#EA5901"/>
<path d="M55.4194 29.6903C55.4194 27.2273 56.8973 25.9957 58.9909 25.9957C61.0845 25.9957 62.5624 27.2273 62.5624 29.6903V50.6265H70.0747C72.2915 50.6265 73.6462 51.858 73.6462 53.8285C73.6462 55.799 72.2915 57.0305 70.0747 57.0305H58.9909C57.1436 57.0305 55.4194 55.799 55.4194 53.459V29.6903Z" fill="#EA5901"/>
<path d="M83.9911 53.5822C83.9911 56.0453 82.5132 57.2768 80.4196 57.2768C78.326 57.2768 76.8481 56.0453 76.8481 53.5822V29.6903C76.8481 27.2273 78.326 25.9957 80.4196 25.9957C82.5132 25.9957 83.9911 27.2273 83.9911 29.6903V53.5822Z" fill="#EA5901"/>
<path d="M106.282 29.0746C106.897 27.4736 107.513 25.8726 110.222 25.8726C112.316 25.8726 113.671 27.4736 113.671 29.3209C113.671 29.9366 113.178 31.4145 112.932 31.9071L104.065 53.5822C103.326 55.3063 102.71 57.2768 100.124 57.2768C97.5376 57.2768 96.9219 55.3063 96.1829 53.5822L87.5622 31.9071C87.3159 31.4145 86.8232 29.9366 86.8232 29.3209C86.8232 27.5967 88.1779 25.8726 90.2715 25.8726C92.8578 25.8726 93.4735 27.4736 94.2125 29.0746L100.247 44.8382L106.282 29.0746Z" fill="#EA5901"/>
<path d="M116.627 29.6903C116.627 27.4735 118.351 26.1188 120.198 26.1188H130.912C133.129 26.1188 134.484 27.4735 134.484 29.3208C134.484 31.4145 133.129 32.5228 130.912 32.5228H123.646V38.0648H130.297C132.513 38.0648 133.868 39.2963 133.868 41.2668C133.868 43.2372 132.513 44.4688 130.297 44.4688H123.646V50.257H131.159C133.375 50.257 134.73 51.4885 134.73 53.459C134.73 55.4294 133.375 56.661 131.159 56.661H120.075C118.228 56.661 116.503 55.4294 116.503 53.0895V29.6903H116.627Z" fill="#EA5901"/>
</svg>
