<svg width="53" height="51" viewBox="0 0 53 51" fill="none" xmlns="http://www.w3.org/2000/svg">
<path d="M24.702 0H44.402C48.602 0 52.002 3.4 52.002 7.6V43.4C52.002 47.6 48.602 51 44.402 51H24.702C20.502 51 17.102 47.6 17.102 43.4V42.5C17.102 41.7 17.802 41 18.602 41C19.402 41 20.102 41.7 20.102 42.5V43.4C20.102 45.9 22.102 48 24.702 48H44.402C46.902 48 49.002 46 49.002 43.4V7.6C49.002 5.1 47.002 3 44.402 3H24.702C22.202 3 20.102 5 20.102 7.6V8.5C20.102 9.3 19.402 10 18.602 10C17.802 10 17.102 9.3 17.102 8.5V7.6C17.002 3.4 20.502 0 24.702 0Z" fill="black"/>
<path d="M34.502 40.8C35.402 40.8 36.002 41.4 36.002 42.2C36.002 43 35.302 43.7 34.502 43.7C33.702 43.7 33.002 43 33.002 42.2C33.002 41.5 33.702 40.8 34.502 40.8Z" fill="black"/>
<path d="M32.5035 7.19995H36.6035C37.4035 7.19995 38.1035 7.89995 38.1035 8.69995C38.1035 9.49995 37.4035 10.2 36.6035 10.2H32.5035C31.7035 10.2 31.0035 9.49995 31.0035 8.69995C31.0035 7.89995 31.6035 7.19995 32.5035 7.19995Z" fill="black"/>
<rect width="22" height="17" transform="matrix(-1 0 0 1 25.002 17)" fill="#FFDC00"/>
<path d="M0.000391006 31.3V19.7C0.000391006 17.2 2.00039 15.1 4.60039 15.1H22.3004C24.8004 15.1 26.9004 17.1 26.9004 19.7V31.3C26.9004 33.8 24.9004 35.9 22.3004 35.9H4.60039C2.10039 35.9 0.000391006 33.8 0.000391006 31.3ZM21.7004 18.2H5.10039H3.30039L4.80039 19.1L12.7004 24C12.9004 24.1 13.2004 24.2 13.5004 24.2C13.8004 24.2 14.0004 24.1 14.3004 24L22.0004 19.1L23.5004 18.2H21.7004ZM22.3004 32.8C23.1004 32.8 23.8004 32.1 23.8004 31.3V22.5V21.6L23.0004 22.1L15.8004 26.6C15.1004 27.1 14.2004 27.3 13.4004 27.3C12.6004 27.3 11.7004 27.1 11.0004 26.6L3.80039 22.1L3.00039 21.6V22.5V31.3C3.00039 32.1 3.70039 32.8 4.50039 32.8H22.3004Z" fill="black"/>
</svg>
