<svg width="52" height="52" viewBox="0 0 52 52" fill="none" xmlns="http://www.w3.org/2000/svg">
<path d="M44.8847 40.1219H44.6847V40.3219V44.2824C44.6847 45.2935 43.8649 46.1133 42.8538 46.1133H36.4562H36.2562V46.3133V49.9691C36.2562 50.9802 35.4364 51.8 34.4253 51.8H2.13242C1.60289 51.8 1.12669 51.5737 0.791644 51.2129L0.78681 51.2077L0.781618 51.2028C0.0793395 50.5467 -0.000329224 49.4498 0.620215 48.7002L0.620233 48.7002L7.46578 40.4288L7.51171 40.3733V40.3013V20.1193V19.4588L7.1453 20.0084L3.8957 24.8826L3.8621 24.9329V24.9935V32.4008C3.8621 33.4123 3.04234 34.2321 2.03085 34.2321C1.01978 34.2321 0.2 33.4123 0.2 32.4008V24.3786C0.2 24.0169 0.306945 23.6636 0.507566 23.3628L0.5076 23.3628L4.7851 16.9462C4.78511 16.9461 4.78512 16.9461 4.78513 16.9461C5.73608 15.5205 7.24198 14.5936 8.91364 14.3734L8.92279 14.3722L8.93179 14.3701C9.0659 14.3397 9.20253 14.3223 9.34256 14.3223C9.36004 14.3223 9.37175 14.3232 9.38794 14.3243C9.40045 14.3252 9.41563 14.3263 9.43821 14.3273L9.44671 14.3277L9.45521 14.3273C9.53339 14.3242 9.61121 14.3223 9.68851 14.3223H16.6543C17.3484 14.3223 18.216 14.6331 19.0708 15.1649C19.922 15.6945 20.7395 16.4304 21.3343 17.2523L21.3343 17.2524L24.7394 21.9572L24.7993 22.0399H24.9015H30.1601C31.1712 22.0399 31.9909 22.8596 31.9909 23.8712C31.9909 24.8822 31.1712 25.702 30.1601 25.702H23.864C23.2768 25.702 22.7252 25.4202 22.3808 24.9444L18.3675 19.399C18.081 19.003 17.7239 18.6832 17.3986 18.4486C17.0754 18.2156 16.7721 18.0586 16.5859 17.9951L16.5545 17.9844H16.5214H11.3734H11.1734V18.1844V41.0328C11.1734 41.4593 11.025 41.872 10.7532 42.2002L10.7532 42.2002L6.10987 47.8108L5.83882 48.1383H6.26395H21.9347H22.1347V47.9383V40.4262V40.336L22.067 40.2763L15.8488 34.7896C15.455 34.4419 15.2293 33.9418 15.2293 33.4164V26.5114C15.2293 25.4999 16.0491 24.6801 17.0601 24.6801C18.0716 24.6801 18.8914 25.4999 18.8914 26.5114V32.5V32.5902L18.959 32.65L25.1769 38.1367C25.1769 38.1367 25.177 38.1367 25.177 38.1367C25.5708 38.4844 25.7964 38.9844 25.7964 39.5098V47.9383V48.1383H25.9964H32.3941H32.5941V47.9383V44.2824C32.5941 43.2714 33.4138 42.4516 34.4253 42.4516H40.823H41.023V42.2516V38.291C41.023 37.2799 41.8424 36.4602 42.8538 36.4602H49.9624H49.9625C50.9735 36.4598 51.7933 37.2795 51.7933 38.291C51.7933 39.3021 50.9735 40.1219 49.9624 40.1219H44.8847ZM33.5414 3.22116L33.5414 3.22113C33.0769 2.67828 32.971 1.91434 33.27 1.26513C33.569 0.615922 34.2182 0.2 34.9327 0.2H45.9003C49.1493 0.2 51.7933 2.84392 51.7933 6.09296V29.1516C51.7933 30.1627 50.9735 30.9825 49.9624 30.9825C48.9509 30.9825 48.1312 30.1627 48.1312 29.1516V14.2239V14.0239H47.9312H34.9331C34.2093 14.0239 33.5533 13.5973 33.2593 12.9355C32.9656 12.2739 33.0894 11.5013 33.5751 10.9645L36.8445 7.35107L36.9626 7.2206L36.8482 7.08688L33.5414 3.22116ZM47.9312 10.3618H48.1312V10.1618V6.09296C48.1312 4.86251 47.1303 3.8621 45.9003 3.8621H39.3428H38.9085L39.1908 4.19212L40.7924 6.06427C41.3911 6.76422 41.3768 7.80002 40.7588 8.48314L39.3611 10.0276L39.0587 10.3618H39.5094H47.9312ZM20.2113 6.0997C20.2113 9.34914 17.5678 11.9927 14.3183 11.9927C11.0693 11.9927 8.42537 9.34913 8.42537 6.0997C8.42537 2.85066 11.0693 0.206744 14.3183 0.206744C17.5678 0.206744 20.2113 2.85065 20.2113 6.0997ZM16.5496 6.0997C16.5496 4.86923 15.5487 3.86885 14.3183 3.86885C13.0879 3.86885 12.0875 4.86928 12.0875 6.0997C12.0875 7.33012 13.0879 8.33055 14.3183 8.33055C15.5487 8.33055 16.5496 7.33017 16.5496 6.0997Z" fill="black" stroke="white" stroke-width="0.4"/>
<path d="M45.5 3.5H38L39.9805 5.81064C40.5793 6.50917 40.6242 7.52605 40.0895 8.2747L38.5 10.5H48.5V6.5C48.5 4.84315 47.1569 3.5 45.5 3.5Z" fill="#FFDC00"/>
</svg>
