<svg width="56" height="52" viewBox="0 0 56 52" fill="none" xmlns="http://www.w3.org/2000/svg">
<path d="M12 43V36.5H54V43H12Z" fill="#FFDC00" stroke="black"/>
<mask id="path-2-inside-1" fill="white">
<path fill-rule="evenodd" clip-rule="evenodd" d="M6.93761 13.8667C3.10828 13.8667 0.00427485 10.7627 0.00427485 6.93334C0.00427485 3.10401 3.10828 0 6.93761 0C10.7669 0 13.8709 3.10401 13.8709 6.93334C13.8709 6.98197 13.8704 7.03049 13.8695 7.07889V34.6666H17.6322C17.4406 34.1245 17.3363 33.5411 17.3363 32.9333V22.5333C17.3363 19.6616 19.6646 17.3333 22.5363 17.3333H26.3001C26.1085 16.7912 26.0043 16.2078 26.0043 15.6V5.2C26.0043 2.32832 28.3326 0 31.2043 0H34.6673H41.6006H45.0709C47.943 0 50.2709 2.32832 50.2709 5.2V15.6C50.2709 16.2078 50.1667 16.7912 49.9751 17.3333H50.2683C53.1404 17.3333 55.4683 19.6616 55.4683 22.5333V32.9333C55.4683 33.7359 55.2866 34.4959 54.962 35.1746C55.2755 35.4882 55.4695 35.9214 55.4695 36.3999V39.8666C55.5101 41.258 54.9756 42.6041 53.9913 43.5885C53.007 44.5728 51.6609 45.1072 50.2695 45.0666H12.1492C12.1447 45.0667 12.1401 45.0667 12.1355 45.0667H5.20216C4.72989 45.0205 4.26143 45.1881 3.92585 45.5237C3.59028 45.8593 3.4227 46.3277 3.46882 46.8V48.5333H53.7355C54.6927 48.5333 55.4688 49.3094 55.4688 50.2667C55.4688 51.2239 54.6927 52 53.7355 52H1.73549C0.778263 52 0.00215633 51.2239 0.00215633 50.2667V46.8C-0.0384687 45.409 0.496427 44.0625 1.48031 43.0782C2.46462 42.0943 3.81117 41.5594 5.20216 41.6H10.4028V12.9401C9.38334 13.5294 8.19988 13.8667 6.93761 13.8667ZM6.93761 3.46667C8.83224 3.46667 10.3721 4.98689 10.4038 6.87396C10.4031 6.89365 10.4028 6.91343 10.4028 6.93328V7.0361C10.3484 8.90303 8.81769 10.4 6.93761 10.4C5.02316 10.4 3.47094 8.84779 3.47094 6.93334C3.47094 5.01888 5.02316 3.46667 6.93761 3.46667ZM41.3071 20.8C41.4987 21.3422 41.603 21.9256 41.603 22.5333V26H45.0704V20.8H41.3071ZM48.5371 20.8V26C48.5565 26.9255 48.1977 27.8184 47.5435 28.473C46.8888 29.1273 45.9959 29.4861 45.0704 29.4666H41.603V32.9333C41.603 33.5411 41.4987 34.1245 41.3071 34.6666H50.2794C51.2315 34.6607 52.0017 33.8869 52.0017 32.9333V22.5333C52.0017 21.5761 51.2256 20.8 50.2683 20.8H48.5371ZM50.2683 38.1333H36.403H36.4017H22.5363L22.5172 38.1333H13.8695V41.5999H50.2695C50.7417 41.6465 51.2102 41.4785 51.5458 41.1429C51.8813 40.8073 52.0493 40.3389 52.0028 39.8666V38.1333H50.2874L50.2683 38.1333ZM46.8043 15.6C46.8043 16.5544 46.0328 17.3287 45.0796 17.3333H36.403H36.4017H31.1957C30.2424 17.3287 29.4709 16.5544 29.4709 15.6V5.2C29.4709 4.24277 30.247 3.46667 31.2043 3.46667H32.934V8.66666C32.9759 9.67594 33.435 10.6222 34.2018 11.2798C34.9686 11.937 35.9741 12.2463 36.9778 12.1333H39.2901C40.2909 12.2328 41.2892 11.9188 42.053 11.2641C42.8164 10.6095 43.2794 9.67128 43.334 8.66666V3.46667H45.0709C46.0282 3.46667 46.8043 4.24277 46.8043 5.2V15.6ZM34.6693 20.8H36.4017L36.4116 20.8C37.3649 20.8046 38.1363 21.579 38.1363 22.5333V32.9333C38.1363 33.8869 37.3661 34.6607 36.414 34.6666H22.5253C21.5731 34.6607 20.803 33.8869 20.803 32.9333V22.5333C20.803 21.5761 21.5791 20.8 22.5363 20.8H24.2693V26C24.3112 27.0093 24.7703 27.9555 25.5371 28.6131C26.3039 29.2703 27.3094 29.5796 28.3132 29.4667H30.6254C31.6262 29.5661 32.6245 29.2521 33.3883 28.5975C34.1517 27.9428 34.6147 27.0046 34.6693 26V20.8ZM36.4006 3.46667V8.66666C36.4136 8.62361 36.4765 8.63033 36.6012 8.64367C36.6923 8.6534 36.8163 8.66666 36.9778 8.66666H39.2901C39.4873 8.65777 39.6819 8.61842 39.8673 8.55071V3.46667H36.4006ZM31.2026 20.8L31.1893 20.8H27.7359V26C27.7499 25.956 27.8126 25.9628 27.9371 25.9765C28.0279 25.9864 28.1516 26 28.3132 26H30.6254C30.8226 25.9911 31.0173 25.9518 31.2026 25.884V20.8Z"/>
</mask>
<path fill-rule="evenodd" clip-rule="evenodd" d="M6.93761 13.8667C3.10828 13.8667 0.00427485 10.7627 0.00427485 6.93334C0.00427485 3.10401 3.10828 0 6.93761 0C10.7669 0 13.8709 3.10401 13.8709 6.93334C13.8709 6.98197 13.8704 7.03049 13.8695 7.07889V34.6666H17.6322C17.4406 34.1245 17.3363 33.5411 17.3363 32.9333V22.5333C17.3363 19.6616 19.6646 17.3333 22.5363 17.3333H26.3001C26.1085 16.7912 26.0043 16.2078 26.0043 15.6V5.2C26.0043 2.32832 28.3326 0 31.2043 0H34.6673H41.6006H45.0709C47.943 0 50.2709 2.32832 50.2709 5.2V15.6C50.2709 16.2078 50.1667 16.7912 49.9751 17.3333H50.2683C53.1404 17.3333 55.4683 19.6616 55.4683 22.5333V32.9333C55.4683 33.7359 55.2866 34.4959 54.962 35.1746C55.2755 35.4882 55.4695 35.9214 55.4695 36.3999V39.8666C55.5101 41.258 54.9756 42.6041 53.9913 43.5885C53.007 44.5728 51.6609 45.1072 50.2695 45.0666H12.1492C12.1447 45.0667 12.1401 45.0667 12.1355 45.0667H5.20216C4.72989 45.0205 4.26143 45.1881 3.92585 45.5237C3.59028 45.8593 3.4227 46.3277 3.46882 46.8V48.5333H53.7355C54.6927 48.5333 55.4688 49.3094 55.4688 50.2667C55.4688 51.2239 54.6927 52 53.7355 52H1.73549C0.778263 52 0.00215633 51.2239 0.00215633 50.2667V46.8C-0.0384687 45.409 0.496427 44.0625 1.48031 43.0782C2.46462 42.0943 3.81117 41.5594 5.20216 41.6H10.4028V12.9401C9.38334 13.5294 8.19988 13.8667 6.93761 13.8667ZM6.93761 3.46667C8.83224 3.46667 10.3721 4.98689 10.4038 6.87396C10.4031 6.89365 10.4028 6.91343 10.4028 6.93328V7.0361C10.3484 8.90303 8.81769 10.4 6.93761 10.4C5.02316 10.4 3.47094 8.84779 3.47094 6.93334C3.47094 5.01888 5.02316 3.46667 6.93761 3.46667ZM41.3071 20.8C41.4987 21.3422 41.603 21.9256 41.603 22.5333V26H45.0704V20.8H41.3071ZM48.5371 20.8V26C48.5565 26.9255 48.1977 27.8184 47.5435 28.473C46.8888 29.1273 45.9959 29.4861 45.0704 29.4666H41.603V32.9333C41.603 33.5411 41.4987 34.1245 41.3071 34.6666H50.2794C51.2315 34.6607 52.0017 33.8869 52.0017 32.9333V22.5333C52.0017 21.5761 51.2256 20.8 50.2683 20.8H48.5371ZM50.2683 38.1333H36.403H36.4017H22.5363L22.5172 38.1333H13.8695V41.5999H50.2695C50.7417 41.6465 51.2102 41.4785 51.5458 41.1429C51.8813 40.8073 52.0493 40.3389 52.0028 39.8666V38.1333H50.2874L50.2683 38.1333ZM46.8043 15.6C46.8043 16.5544 46.0328 17.3287 45.0796 17.3333H36.403H36.4017H31.1957C30.2424 17.3287 29.4709 16.5544 29.4709 15.6V5.2C29.4709 4.24277 30.247 3.46667 31.2043 3.46667H32.934V8.66666C32.9759 9.67594 33.435 10.6222 34.2018 11.2798C34.9686 11.937 35.9741 12.2463 36.9778 12.1333H39.2901C40.2909 12.2328 41.2892 11.9188 42.053 11.2641C42.8164 10.6095 43.2794 9.67128 43.334 8.66666V3.46667H45.0709C46.0282 3.46667 46.8043 4.24277 46.8043 5.2V15.6ZM34.6693 20.8H36.4017L36.4116 20.8C37.3649 20.8046 38.1363 21.579 38.1363 22.5333V32.9333C38.1363 33.8869 37.3661 34.6607 36.414 34.6666H22.5253C21.5731 34.6607 20.803 33.8869 20.803 32.9333V22.5333C20.803 21.5761 21.5791 20.8 22.5363 20.8H24.2693V26C24.3112 27.0093 24.7703 27.9555 25.5371 28.6131C26.3039 29.2703 27.3094 29.5796 28.3132 29.4667H30.6254C31.6262 29.5661 32.6245 29.2521 33.3883 28.5975C34.1517 27.9428 34.6147 27.0046 34.6693 26V20.8ZM36.4006 3.46667V8.66666C36.4136 8.62361 36.4765 8.63033 36.6012 8.64367C36.6923 8.6534 36.8163 8.66666 36.9778 8.66666H39.2901C39.4873 8.65777 39.6819 8.61842 39.8673 8.55071V3.46667H36.4006ZM31.2026 20.8L31.1893 20.8H27.7359V26C27.7499 25.956 27.8126 25.9628 27.9371 25.9765C28.0279 25.9864 28.1516 26 28.3132 26H30.6254C30.8226 25.9911 31.0173 25.9518 31.2026 25.884V20.8Z" fill="black"/>
<path d="M13.8695 7.07889L13.5695 7.07271V7.07889H13.8695ZM13.8695 34.6666H13.5695V34.9666H13.8695V34.6666ZM17.6322 34.6666V34.9666H18.0564L17.915 34.5666L17.6322 34.6666ZM26.3001 17.3333V17.6333H26.7244L26.583 17.2333L26.3001 17.3333ZM49.9751 17.3333L49.6923 17.2334L49.5509 17.6333H49.9751V17.3333ZM54.962 35.1746L54.6913 35.0451L54.5998 35.2366L54.7498 35.3866L54.962 35.1746ZM55.4695 39.8666H55.1693L55.1696 39.8754L55.4695 39.8666ZM50.2695 45.0666L50.2782 44.7666H50.2695V45.0666ZM12.1492 45.0666V44.7666L12.147 44.7666L12.1492 45.0666ZM5.20216 45.0667L5.173 45.3652L5.18754 45.3667H5.20216V45.0667ZM3.92585 45.5237L3.71372 45.3116L3.71372 45.3116L3.92585 45.5237ZM3.46882 46.8H3.76882V46.7854L3.7674 46.7708L3.46882 46.8ZM3.46882 48.5333H3.16882V48.8333H3.46882V48.5333ZM0.00215633 46.8H0.302284L0.302028 46.7912L0.00215633 46.8ZM1.48031 43.0782L1.26823 42.866L1.26814 42.8661L1.48031 43.0782ZM5.20216 41.6L5.19339 41.9H5.20216V41.6ZM10.4028 41.6V41.9H10.7028V41.6H10.4028ZM10.4028 12.9401H10.7028V12.4201L10.2526 12.6803L10.4028 12.9401ZM10.4038 6.87396L10.7036 6.88404L10.7039 6.87648L10.7037 6.86892L10.4038 6.87396ZM10.4028 7.0361L10.7028 7.04484V7.0361H10.4028ZM41.3071 20.8V20.5H40.8829L41.0242 20.9L41.3071 20.8ZM41.603 26H41.303V26.3H41.603V26ZM45.0704 26V26.3H45.3704V26H45.0704ZM45.0704 20.8H45.3704V20.5H45.0704V20.8ZM48.5371 26H48.237L48.2371 26.0063L48.5371 26ZM48.5371 20.8V20.5H48.2371V20.8H48.5371ZM47.5435 28.473L47.7555 28.6852L47.7557 28.6851L47.5435 28.473ZM45.0704 29.4666L45.0767 29.1666H45.0704V29.4666ZM41.603 29.4666V29.1666H41.303V29.4666H41.603ZM41.3071 34.6666L41.0243 34.5667L40.8829 34.9666H41.3071V34.6666ZM50.2794 34.6666V34.9666L50.2812 34.9666L50.2794 34.6666ZM50.2683 38.1333V38.4333H50.2689L50.2683 38.1333ZM22.5363 38.1333L22.5358 38.4333H22.5363V38.1333ZM22.5172 38.1333L22.5177 37.8333H22.5172V38.1333ZM13.8695 38.1333V37.8333H13.5695V38.1333H13.8695ZM13.8695 41.5999H13.5695V41.8999H13.8695V41.5999ZM50.2695 41.5999L50.2989 41.3014L50.2842 41.2999H50.2695V41.5999ZM52.0028 39.8666H51.7028V39.8814L51.7042 39.896L52.0028 39.8666ZM52.0028 38.1333H52.3028V37.8333H52.0028V38.1333ZM50.2874 38.1333V37.8333H50.2869L50.2874 38.1333ZM45.0796 17.3333V17.6333L45.081 17.6333L45.0796 17.3333ZM31.1957 17.3333L31.1942 17.6333H31.1957V17.3333ZM32.934 3.46667H33.234V3.16667H32.934V3.46667ZM32.934 8.66666H32.6337L32.6342 8.6791L32.934 8.66666ZM34.2018 11.2798L34.0065 11.5075L34.0066 11.5076L34.2018 11.2798ZM36.9778 12.1333V11.8333H36.961L36.9443 11.8352L36.9778 12.1333ZM39.2901 12.1333L39.3197 11.8348L39.305 11.8333H39.2901V12.1333ZM42.053 11.2641L42.2482 11.4919L42.2483 11.4919L42.053 11.2641ZM43.334 8.66666L43.6335 8.68294L43.634 8.67481V8.66666H43.334ZM43.334 3.46667V3.16667H43.034V3.46667H43.334ZM36.4017 20.8L36.4023 20.5H36.4017V20.8ZM34.6693 20.8V20.5H34.3693V20.8H34.6693ZM36.4116 20.8L36.4131 20.5L36.4122 20.5L36.4116 20.8ZM36.414 34.6666V34.9666L36.4159 34.9666L36.414 34.6666ZM22.5253 34.6666L22.5234 34.9666H22.5253V34.6666ZM24.2693 20.8H24.5693V20.5H24.2693V20.8ZM24.2693 26H23.969L23.9695 26.0124L24.2693 26ZM25.5371 28.6131L25.3418 28.8408L25.3419 28.8409L25.5371 28.6131ZM28.3132 29.4667V29.1667H28.2963L28.2796 29.1685L28.3132 29.4667ZM30.6254 29.4667L30.6551 29.1681L30.6403 29.1667H30.6254V29.4667ZM33.3883 28.5975L33.5835 28.8252L33.5836 28.8252L33.3883 28.5975ZM34.6693 26L34.9688 26.0163L34.9693 26.0081V26H34.6693ZM36.4006 8.66666H36.1006L36.6879 8.75317L36.4006 8.66666ZM36.4006 3.46667V3.16667H36.1006V3.46667H36.4006ZM36.6012 8.64367L36.6331 8.34537H36.6331L36.6012 8.64367ZM39.2901 8.66666V8.96697L39.3036 8.96636L39.2901 8.66666ZM39.8673 8.55071L39.9702 8.8325L40.1673 8.76051V8.55071H39.8673ZM39.8673 3.46667H40.1673V3.16667H39.8673V3.46667ZM31.1893 20.8L31.1898 20.5H31.1893V20.8ZM31.2026 20.8H31.5026V20.5005L31.2031 20.5L31.2026 20.8ZM27.7359 20.8V20.5H27.4359V20.8H27.7359ZM27.7359 26H27.4359L28.0219 26.0906L27.7359 26ZM27.9371 25.9765L27.9698 25.6783H27.9698L27.9371 25.9765ZM30.6254 26V26.3003L30.6389 26.2997L30.6254 26ZM31.2026 25.884L31.3055 26.1658L31.5026 26.0938V25.884H31.2026ZM-0.295725 6.93334C-0.295725 10.9284 2.94259 14.1667 6.93761 14.1667V13.5667C3.27397 13.5667 0.304275 10.597 0.304275 6.93334H-0.295725ZM6.93761 -0.3C2.94259 -0.3 -0.295725 2.93832 -0.295725 6.93334H0.304275C0.304275 3.26969 3.27397 0.3 6.93761 0.3V-0.3ZM14.1709 6.93334C14.1709 2.93832 10.9326 -0.3 6.93761 -0.3V0.3C10.6013 0.3 13.5709 3.26969 13.5709 6.93334H14.1709ZM14.1694 7.08506C14.1704 7.03461 14.1709 6.98403 14.1709 6.93334H13.5709C13.5709 6.97991 13.5705 7.02637 13.5695 7.07271L14.1694 7.08506ZM14.1695 34.6666V7.07889H13.5695V34.6666H14.1695ZM17.6322 34.3666H13.8695V34.9666H17.6322V34.3666ZM17.0363 32.9333C17.0363 33.5756 17.1465 34.1928 17.3493 34.7666L17.915 34.5666C17.7346 34.0562 17.6363 33.5066 17.6363 32.9333H17.0363ZM17.0363 22.5333V32.9333H17.6363V22.5333H17.0363ZM22.5363 17.0333C19.4989 17.0333 17.0363 19.4959 17.0363 22.5333H17.6363C17.6363 19.8273 19.8303 17.6333 22.5363 17.6333V17.0333ZM26.3001 17.0333H22.5363V17.6333H26.3001V17.0333ZM25.7043 15.6C25.7043 16.2423 25.8145 16.8595 26.0173 17.4333L26.583 17.2333C26.4026 16.7229 26.3043 16.1733 26.3043 15.6H25.7043ZM25.7043 5.2V15.6H26.3043V5.2H25.7043ZM31.2043 -0.3C28.1669 -0.3 25.7043 2.16264 25.7043 5.2H26.3043C26.3043 2.49401 28.4983 0.3 31.2043 0.3V-0.3ZM34.6673 -0.3H31.2043V0.3H34.6673V-0.3ZM41.6006 -0.3H34.6673V0.3H41.6006V-0.3ZM45.0709 -0.3H41.6006V0.3H45.0709V-0.3ZM50.5709 5.2C50.5709 2.16265 48.1087 -0.3 45.0709 -0.3V0.3C47.7773 0.3 49.9709 2.49399 49.9709 5.2H50.5709ZM50.5709 15.6V5.2H49.9709V15.6H50.5709ZM50.258 17.4333C50.4607 16.8595 50.5709 16.2423 50.5709 15.6H49.9709C49.9709 16.1733 49.8727 16.7229 49.6923 17.2334L50.258 17.4333ZM50.2683 17.0333H49.9751V17.6333H50.2683V17.0333ZM55.7683 22.5333C55.7683 19.496 53.3061 17.0333 50.2683 17.0333V17.6333C52.9747 17.6333 55.1683 19.8273 55.1683 22.5333H55.7683ZM55.7683 32.9333V22.5333H55.1683V32.9333H55.7683ZM55.2326 35.304C55.5761 34.5858 55.7683 33.7816 55.7683 32.9333H55.1683C55.1683 33.6901 54.997 34.406 54.6913 35.0451L55.2326 35.304ZM55.7695 36.3999C55.7695 35.8387 55.5416 35.3301 55.1741 34.9625L54.7498 35.3866C55.0094 35.6464 55.1695 36.0042 55.1695 36.3999H55.7695ZM55.7695 39.8666V36.3999H55.1695V39.8666H55.7695ZM54.2034 43.8006C55.2462 42.7578 55.8124 41.3318 55.7693 39.8579L55.1696 39.8754C55.2078 41.1842 54.705 42.4504 53.7792 43.3763L54.2034 43.8006ZM50.2607 45.3665C51.7346 45.4095 53.1607 44.8433 54.2034 43.8006L53.7792 43.3763C52.8533 44.3022 51.5871 44.805 50.2782 44.7667L50.2607 45.3665ZM12.1492 45.3666H50.2695V44.7666H12.1492V45.3666ZM12.147 44.7666C12.1431 44.7667 12.1392 44.7667 12.1355 44.7667V45.3667C12.1409 45.3667 12.1462 45.3666 12.1515 45.3666L12.147 44.7666ZM12.1355 44.7667H5.20216V45.3667H12.1355V44.7667ZM5.23132 44.7681C4.66985 44.7133 4.11283 44.9125 3.71372 45.3116L4.13799 45.7358C4.41004 45.4638 4.78993 45.3278 5.173 45.3652L5.23132 44.7681ZM3.71372 45.3116C3.31461 45.7107 3.1154 46.2677 3.17024 46.8292L3.7674 46.7708C3.72999 46.3878 3.86594 46.0079 4.13799 45.7358L3.71372 45.3116ZM3.16882 46.8V48.5333H3.76882V46.8H3.16882ZM3.46882 48.8333H53.7355V48.2333H3.46882V48.8333ZM53.7355 48.8333C54.527 48.8333 55.1688 49.4751 55.1688 50.2667H55.7688C55.7688 49.1438 54.8584 48.2333 53.7355 48.2333V48.8333ZM55.1688 50.2667C55.1688 51.0582 54.527 51.7 53.7355 51.7V52.3C54.8584 52.3 55.7688 51.3896 55.7688 50.2667H55.1688ZM53.7355 51.7H1.73549V52.3H53.7355V51.7ZM1.73549 51.7C0.943948 51.7 0.302156 51.0582 0.302156 50.2667H-0.297844C-0.297844 51.3896 0.612578 52.3 1.73549 52.3V51.7ZM0.302156 50.2667V46.8H-0.297844V50.2667H0.302156ZM0.302028 46.7912C0.263815 45.4828 0.766963 44.2162 1.69249 43.2902L1.26814 42.8661C0.225892 43.9088 -0.340753 45.3352 -0.297716 46.8088L0.302028 46.7912ZM1.6924 43.2903C2.61833 42.3648 3.885 41.8617 5.1934 41.8999L5.21092 41.3001C3.73735 41.2571 2.31092 41.8237 1.26823 42.866L1.6924 43.2903ZM5.20216 41.9H10.4028V41.3H5.20216V41.9ZM10.1028 12.9401V41.6H10.7028V12.9401H10.1028ZM6.93761 14.1667C8.25399 14.1667 9.48906 13.8148 10.5529 13.1998L10.2526 12.6803C9.27761 13.244 8.14577 13.5667 6.93761 13.5667V14.1667ZM10.7037 6.86892C10.6693 4.81843 8.99623 3.16667 6.93761 3.16667V3.76667C8.66824 3.76667 10.0749 5.15535 10.1038 6.879L10.7037 6.86892ZM10.7028 6.93328C10.7028 6.91679 10.7031 6.90038 10.7036 6.88404L10.104 6.86388C10.1032 6.88693 10.1028 6.91006 10.1028 6.93328H10.7028ZM10.7028 7.0361V6.93328H10.1028V7.0361H10.7028ZM6.93761 10.7C8.98045 10.7 10.6436 9.0735 10.7027 7.04484L10.1029 7.02737C10.0533 8.73256 8.65493 10.1 6.93761 10.1V10.7ZM3.17094 6.93334C3.17094 9.01348 4.85747 10.7 6.93761 10.7V10.1C5.18884 10.1 3.77094 8.68211 3.77094 6.93334H3.17094ZM6.93761 3.16667C4.85747 3.16667 3.17094 4.8532 3.17094 6.93334H3.77094C3.77094 5.18457 5.18884 3.76667 6.93761 3.76667V3.16667ZM41.903 22.5333C41.903 21.891 41.7928 21.2738 41.5899 20.7L41.0242 20.9C41.2047 21.4105 41.303 21.9601 41.303 22.5333H41.903ZM41.903 26V22.5333H41.303V26H41.903ZM45.0704 25.7H41.603V26.3H45.0704V25.7ZM44.7704 20.8V26H45.3704V20.8H44.7704ZM41.3071 21.1H45.0704V20.5H41.3071V21.1ZM48.8371 26V20.8H48.2371V26H48.8371ZM47.7557 28.6851C48.4676 27.9726 48.8582 27.0009 48.837 25.9937L48.2371 26.0063C48.2549 26.85 47.9277 27.6641 47.3313 28.261L47.7557 28.6851ZM45.0641 29.7666C46.0713 29.7878 47.0431 29.3972 47.7555 28.6852L47.3314 28.2608C46.7345 28.8573 45.9205 29.1845 45.0767 29.1667L45.0641 29.7666ZM41.603 29.7666H45.0704V29.1666H41.603V29.7666ZM41.903 32.9333V29.4666H41.303V32.9333H41.903ZM41.59 34.7666C41.7928 34.1928 41.903 33.5756 41.903 32.9333H41.303C41.303 33.5066 41.2047 34.0562 41.0243 34.5667L41.59 34.7666ZM50.2794 34.3666H41.3071V34.9666H50.2794V34.3666ZM51.7017 32.9333C51.7017 33.7218 51.0648 34.3617 50.2775 34.3666L50.2812 34.9666C51.3982 34.9596 52.3017 34.0519 52.3017 32.9333H51.7017ZM51.7017 22.5333V32.9333H52.3017V22.5333H51.7017ZM50.2683 21.1C51.0599 21.1 51.7017 21.7418 51.7017 22.5333H52.3017C52.3017 21.4104 51.3913 20.5 50.2683 20.5V21.1ZM48.5371 21.1H50.2683V20.5H48.5371V21.1ZM36.403 38.4333H50.2683V37.8333H36.403V38.4333ZM36.4017 38.4333H36.403V37.8333H36.4017V38.4333ZM22.5363 38.4333H36.4017V37.8333H22.5363V38.4333ZM22.5167 38.4333L22.5358 38.4333L22.5368 37.8333L22.5177 37.8333L22.5167 38.4333ZM13.8695 38.4333H22.5172V37.8333H13.8695V38.4333ZM14.1695 41.5999V38.1333H13.5695V41.5999H14.1695ZM50.2695 41.2999H13.8695V41.8999H50.2695V41.2999ZM51.3336 40.9308C51.0614 41.203 50.6816 41.3391 50.2989 41.3014L50.24 41.8985C50.8019 41.9539 51.3589 41.754 51.7579 41.355L51.3336 40.9308ZM51.7042 39.896C51.742 40.2787 51.6058 40.6586 51.3336 40.9308L51.7579 41.355C52.1569 40.9561 52.3567 40.399 52.3013 39.8372L51.7042 39.896ZM51.7028 38.1333V39.8666H52.3028V38.1333H51.7028ZM50.2874 38.4333H52.0028V37.8333H50.2874V38.4333ZM50.2689 38.4333L50.288 38.4333L50.2869 37.8333L50.2678 37.8333L50.2689 38.4333ZM45.081 17.6333C46.1993 17.6279 47.1043 16.7196 47.1043 15.6H46.5043C46.5043 16.3892 45.8663 17.0295 45.0781 17.0333L45.081 17.6333ZM36.403 17.6333H45.0796V17.0333H36.403V17.6333ZM36.4017 17.6333H36.403V17.0333H36.4017V17.6333ZM31.1957 17.6333H36.4017V17.0333H31.1957V17.6333ZM29.1709 15.6C29.1709 16.7196 30.0759 17.6279 31.1942 17.6333L31.1971 17.0333C30.4089 17.0295 29.7709 16.3892 29.7709 15.6H29.1709ZM29.1709 5.2V15.6H29.7709V5.2H29.1709ZM31.2043 3.16667C30.0814 3.16667 29.1709 4.07709 29.1709 5.2H29.7709C29.7709 4.40846 30.4127 3.76667 31.2043 3.76667V3.16667ZM32.934 3.16667H31.2043V3.76667H32.934V3.16667ZM33.234 8.66666V3.46667H32.634V8.66666H33.234ZM34.3971 11.0521C33.6935 10.4486 33.2721 9.58034 33.2337 8.65422L32.6342 8.6791C32.6796 9.77154 33.1766 10.7957 34.0065 11.5075L34.3971 11.0521ZM36.9443 11.8352C36.0233 11.9389 35.1007 11.655 34.397 11.052L34.0066 11.5076C34.8365 12.2189 35.9249 12.5537 37.0114 12.4314L36.9443 11.8352ZM39.2901 11.8333H36.9778V12.4333H39.2901V11.8333ZM41.8578 11.0363C41.1561 11.6377 40.2391 11.9261 39.3197 11.8348L39.2604 12.4319C40.3427 12.5394 41.4222 12.1998 42.2482 11.4919L41.8578 11.0363ZM43.0344 8.65038C42.9843 9.5732 42.559 10.435 41.8577 11.0364L42.2483 11.4919C43.0738 10.7839 43.5745 9.76937 43.6335 8.68294L43.0344 8.65038ZM43.034 3.46667V8.66666H43.634V3.46667H43.034ZM45.0709 3.16667H43.334V3.76667H45.0709V3.16667ZM47.1043 5.2C47.1043 4.07709 46.1939 3.16667 45.0709 3.16667V3.76667C45.8625 3.76667 46.5043 4.40846 46.5043 5.2H47.1043ZM47.1043 15.6V5.2H46.5043V15.6H47.1043ZM36.4017 20.5H34.6693V21.1H36.4017V20.5ZM36.4122 20.5L36.4023 20.5L36.401 21.1L36.411 21.1L36.4122 20.5ZM38.4363 22.5333C38.4363 21.4138 37.5313 20.5055 36.4131 20.5L36.4101 21.1C37.1984 21.1038 37.8363 21.7442 37.8363 22.5333H38.4363ZM38.4363 32.9333V22.5333H37.8363V32.9333H38.4363ZM36.4159 34.9666C37.5329 34.9596 38.4363 34.0519 38.4363 32.9333H37.8363C37.8363 33.7218 37.1994 34.3617 36.4121 34.3666L36.4159 34.9666ZM22.5253 34.9666H36.414V34.3666H22.5253V34.9666ZM20.503 32.9333C20.503 34.0519 21.4064 34.9596 22.5234 34.9666L22.5272 34.3666C21.7398 34.3617 21.103 33.7218 21.103 32.9333H20.503ZM20.503 22.5333V32.9333H21.103V22.5333H20.503ZM22.5363 20.5C21.4134 20.5 20.503 21.4104 20.503 22.5333H21.103C21.103 21.7418 21.7448 21.1 22.5363 21.1V20.5ZM24.2693 20.5H22.5363V21.1H24.2693V20.5ZM24.5693 26V20.8H23.9693V26H24.5693ZM25.7324 28.3854C25.0288 27.7819 24.6075 26.9137 24.569 25.9876L23.9695 26.0124C24.0149 27.1049 24.5119 28.1291 25.3418 28.8408L25.7324 28.3854ZM28.2796 29.1685C27.3586 29.2722 26.436 28.9884 25.7323 28.3853L25.3419 28.8409C26.1719 29.5522 27.2602 29.8871 28.3467 29.7648L28.2796 29.1685ZM30.6254 29.1667H28.3132V29.7667H30.6254V29.1667ZM33.1931 28.3697C32.4914 28.971 31.5744 29.2595 30.6551 29.1681L30.5957 29.7652C31.678 29.8727 32.7575 29.5332 33.5835 28.8252L33.1931 28.3697ZM34.3697 25.9837C34.3196 26.9065 33.8943 27.7683 33.193 28.3697L33.5836 28.8252C34.4091 28.1173 34.9098 27.1027 34.9688 26.0163L34.3697 25.9837ZM34.3693 20.8V26H34.9693V20.8H34.3693ZM36.7006 8.66666V3.46667H36.1006V8.66666H36.7006ZM36.6331 8.34537C36.5831 8.34002 36.5051 8.3306 36.4405 8.33459C36.4062 8.33671 36.3429 8.34371 36.2775 8.379C36.1988 8.42146 36.1398 8.49251 36.1134 8.58016L36.6879 8.75317C36.6793 8.78175 36.6642 8.81326 36.6399 8.8429C36.6157 8.87249 36.588 8.89322 36.5623 8.90706C36.5162 8.93192 36.4788 8.93336 36.4775 8.93345C36.473 8.93373 36.4765 8.93318 36.4959 8.93468C36.5143 8.93611 36.5368 8.93849 36.5693 8.94197L36.6331 8.34537ZM36.9778 8.36666C36.8332 8.36666 36.7225 8.35493 36.6331 8.34537L36.5693 8.94197C36.662 8.95188 36.7993 8.96666 36.9778 8.96666V8.36666ZM39.2901 8.36666H36.9778V8.96666H39.2901V8.36666ZM39.7644 8.26892C39.6074 8.32627 39.4429 8.35947 39.2766 8.36697L39.3036 8.96636C39.5317 8.95608 39.7565 8.91057 39.9702 8.8325L39.7644 8.26892ZM39.5673 3.46667V8.55071H40.1673V3.46667H39.5673ZM36.4006 3.76667H39.8673V3.16667H36.4006V3.76667ZM31.1889 21.1L31.2021 21.1L31.2031 20.5L31.1898 20.5L31.1889 21.1ZM27.7359 21.1H31.1893V20.5H27.7359V21.1ZM28.0359 26V20.8H27.4359V26H28.0359ZM27.9698 25.6783C27.9201 25.6728 27.8415 25.6631 27.7762 25.6672C27.7411 25.6694 27.6776 25.6767 27.6122 25.7124C27.5342 25.7549 27.4768 25.8247 27.4499 25.9094L28.0219 26.0906C28.0133 26.1178 27.9986 26.1479 27.9751 26.1765C27.9516 26.205 27.9247 26.2254 27.8993 26.2392C27.8535 26.2642 27.8161 26.2659 27.8139 26.266C27.809 26.2663 27.8121 26.2657 27.8313 26.2673C27.8495 26.2687 27.8719 26.2711 27.9044 26.2747L27.9698 25.6783ZM28.3132 25.7C28.1689 25.7 28.0588 25.688 27.9698 25.6783L27.9044 26.2747C27.9969 26.2848 28.1342 26.3 28.3132 26.3V25.7ZM30.6254 25.7H28.3132V26.3H30.6254V25.7ZM31.0997 25.6023C30.9427 25.6596 30.7782 25.6928 30.6119 25.7003L30.6389 26.2997C30.867 26.2894 31.0918 26.2439 31.3055 26.1658L31.0997 25.6023ZM30.9026 20.8V25.884H31.5026V20.8H30.9026Z" fill="white" mask="url(#path-2-inside-1)"/>
</svg>
