<svg width="52" height="52" viewBox="0 0 52 52" fill="none" xmlns="http://www.w3.org/2000/svg">
<path d="M47.8706 38.7683L47.7375 38.8155V38.9568V49.9688C47.7375 50.9802 46.9177 51.8 45.9062 51.8C44.8948 51.8 44.075 50.9802 44.075 49.9688V37.2734C44.075 36.2619 44.8948 35.4422 45.9062 35.4422C47.1367 35.4422 48.1375 34.4414 48.1375 33.2109V24.2734C48.1375 23.043 47.1367 22.0422 45.9062 22.0422H42.25C41.2385 22.0422 40.4188 21.2224 40.4188 20.2109C40.4188 19.1994 41.2385 18.3797 42.25 18.3797H45.9062C49.1561 18.3797 51.8 21.0236 51.8 24.2734V33.2109C51.8 35.7716 50.1581 37.9569 47.8706 38.7683ZM35.95 38.9568V38.8155L35.8168 38.7683C34.6584 38.3574 33.6654 37.5934 32.9672 36.6061L32.8674 36.465L32.7133 36.5433C32.4918 36.6557 32.2628 36.7547 32.0268 36.8386L31.8937 36.8859V37.0271V49.9688C31.8937 50.9802 31.074 51.8 30.0625 51.8C29.051 51.8 28.2313 50.9802 28.2313 49.9688V35.3438C28.2313 34.3323 29.051 33.5125 30.0625 33.5125C31.2929 33.5125 32.2938 32.5117 32.2938 31.2812V20.2109C32.2938 18.9805 31.2929 17.9797 30.0625 17.9797H21.9375C20.7071 17.9797 19.7062 18.9805 19.7062 20.2109V31.2812C19.7062 32.5117 20.7071 33.5125 21.9375 33.5125C22.949 33.5125 23.7687 34.3323 23.7687 35.3438V49.9688C23.7687 50.9802 22.949 51.8 21.9375 51.8C20.926 51.8 20.1063 50.9802 20.1063 49.9688V37.0271V36.8859L19.9732 36.8386C19.7372 36.7547 19.5082 36.6557 19.2867 36.5433L19.1326 36.465L19.0328 36.6061C18.3346 37.5934 17.3416 38.3574 16.1832 38.7683L16.05 38.8155V38.9568V49.9688C16.05 50.9802 15.2302 51.8 14.2188 51.8C13.2073 51.8 12.3875 50.9802 12.3875 49.9688V37.2734C12.3875 36.2619 13.2073 35.4422 14.2188 35.4422C15.3667 35.4422 16.3132 34.5714 16.4357 33.4561L16.441 33.4084L16.424 33.3635C16.1788 32.7159 16.0438 32.0143 16.0438 31.2812V20.2109C16.0438 16.9611 18.6877 14.3172 21.9375 14.3172H30.0625C33.3123 14.3172 35.9562 16.9611 35.9562 20.2109V31.2812C35.9562 32.0143 35.8212 32.7159 35.576 33.3635L35.559 33.4084L35.5643 33.4561C35.6868 34.5714 36.6333 35.4422 37.7812 35.4422C38.7927 35.4422 39.6125 36.2619 39.6125 37.2734V49.9688C39.6125 50.9802 38.7927 51.8 37.7812 51.8C36.7698 51.8 35.95 50.9802 35.95 49.9688V38.9568ZM4.2625 38.9568V38.8155L4.12936 38.7683C1.84194 37.9569 0.2 35.7716 0.2 33.2109V24.2734C0.2 21.0236 2.84392 18.3797 6.09375 18.3797H9.75C10.7615 18.3797 11.5813 19.1994 11.5813 20.2109C11.5813 21.2224 10.7615 22.0422 9.75 22.0422H6.09375C4.86333 22.0422 3.8625 23.043 3.8625 24.2734V33.2109C3.8625 34.4414 4.86333 35.4422 6.09375 35.4422C7.10524 35.4422 7.925 36.2619 7.925 37.2734V49.9688C7.925 50.9802 7.10524 51.8 6.09375 51.8C5.08226 51.8 4.2625 50.9802 4.2625 49.9688V38.9568ZM16.05 10.1562C16.05 13.4061 13.4061 16.05 10.1562 16.05C6.90642 16.05 4.2625 13.4061 4.2625 10.1562C4.2625 6.90642 6.90642 4.2625 10.1562 4.2625C13.4061 4.2625 16.05 6.90642 16.05 10.1562ZM12.3875 10.1562C12.3875 8.92583 11.3867 7.925 10.1562 7.925C8.92583 7.925 7.925 8.92583 7.925 10.1562C7.925 11.3867 8.92583 12.3875 10.1562 12.3875C11.3867 12.3875 12.3875 11.3867 12.3875 10.1562ZM47.7375 10.1562C47.7375 13.4061 45.0936 16.05 41.8438 16.05C38.5939 16.05 35.95 13.4061 35.95 10.1562C35.95 6.90642 38.5939 4.2625 41.8438 4.2625C45.0936 4.2625 47.7375 6.90642 47.7375 10.1562ZM44.075 10.1562C44.075 8.92583 43.0742 7.925 41.8438 7.925C40.6133 7.925 39.6125 8.92583 39.6125 10.1562C39.6125 11.3867 40.6133 12.3875 41.8438 12.3875C43.0742 12.3875 44.075 11.3867 44.075 10.1562ZM31.8937 6.09375C31.8937 9.34358 29.2498 11.9875 26 11.9875C22.7502 11.9875 20.1063 9.34358 20.1063 6.09375C20.1063 2.84392 22.7502 0.2 26 0.2C29.2498 0.2 31.8937 2.84392 31.8937 6.09375ZM28.2313 6.09375C28.2313 4.86333 27.2304 3.8625 26 3.8625C24.7696 3.8625 23.7687 4.86333 23.7687 6.09375C23.7687 7.32417 24.7696 8.325 26 8.325C27.2304 8.325 28.2313 7.32417 28.2313 6.09375Z" fill="black" stroke="white" stroke-width="0.4"/>
<circle cx="26" cy="6" r="3" fill="#FFDC00"/>
<circle cx="42" cy="10" r="3" fill="#FFDC00"/>
<circle cx="10" cy="10" r="3" fill="#FFDC00"/>
</svg>
