<svg width="135" height="150" viewBox="0 0 135 150" fill="none" xmlns="http://www.w3.org/2000/svg">
<path d="M92.7616 140.253C93.5952 140.198 95.1836 139.883 96.4493 138.418L96.5088 138.349L96.5618 138.275L125.442 97.9332L125.442 97.9329C126.683 96.1995 129.094 95.8005 130.827 97.0413C132.56 98.2818 132.959 100.692 131.719 102.425C131.719 102.426 131.719 102.426 131.719 102.426L102.72 142.932L102.719 142.934C102.679 142.989 102.638 143.043 102.596 143.095L102.59 143.102C100.308 145.942 96.9108 147.712 93.2761 147.954L93.2714 147.954C92.9897 147.974 92.7028 147.983 92.4133 147.983C89.0749 147.983 85.8274 146.695 83.399 144.383L83.3934 144.377L83.3912 144.375L83.3877 144.372L83.3835 144.368L83.364 144.349L83.364 144.349C83.3605 144.346 83.3564 144.342 83.352 144.337L64.6667 126.103L64.6666 126.103C63.1407 124.614 63.1107 122.17 64.5994 120.644C66.0884 119.119 68.5312 119.09 70.0567 120.578L88.7219 138.794L88.7366 138.808L88.7516 138.822C90.2272 140.204 91.9108 140.31 92.7616 140.253ZM92.7616 140.253C92.7603 140.253 92.7591 140.253 92.7578 140.253L92.6285 138.257L92.7629 140.253C92.7625 140.253 92.7621 140.253 92.7616 140.253ZM43.8625 26.3672V24.3672H41.8625H23.4375C15.8716 24.3672 9.71875 30.52 9.71875 38.0859V126.562C9.71875 134.128 15.8716 140.281 23.4375 140.281H56.5109C58.6419 140.281 60.3703 142.009 60.3703 144.141C60.3703 146.272 58.6419 148 56.5109 148H23.4375C11.6183 148 2 138.382 2 126.562V38.0859C2 26.2667 11.6183 16.6484 23.4375 16.6484H41.8625H43.8625V14.6484V5.85938C43.8625 3.72756 45.59 2 47.7219 2H71.1594C73.2903 2 75.0187 3.72781 75.0187 5.85938V14.6484V16.6484H77.0187H95.4758C107.294 16.6484 116.913 26.2668 116.913 38.0859V82.6172C116.913 84.7488 115.185 86.4766 113.054 86.4766C110.922 86.4766 109.195 84.749 109.195 82.6172V38.0859C109.195 30.52 103.042 24.3672 95.4758 24.3672H77.0187H75.0187V26.3672V29.2969C75.0187 37.8854 68.0281 44.875 59.4406 44.875C50.852 44.875 43.8625 37.8855 43.8625 29.2969V26.3672ZM53.5812 9.71875H51.5812V11.7188V29.2969C51.5812 33.6319 55.104 37.1562 59.4406 37.1562C63.7758 37.1562 67.3 33.6321 67.3 29.2969V11.7188V9.71875H65.3H53.5812ZM93.4758 70.8984C93.4758 73.03 91.7473 74.7578 89.6164 74.7578H49.4797C47.3479 74.7578 45.6203 73.0303 45.6203 70.8984C45.6203 68.7666 47.3479 67.0391 49.4797 67.0391H89.6164C91.7473 67.0391 93.4758 68.7669 93.4758 70.8984ZM93.4758 94.3359C93.4758 96.4675 91.7473 98.1953 89.6164 98.1953H49.7726C47.6408 98.1953 45.9133 96.4678 45.9133 94.3359C45.9133 92.2041 47.6408 90.4766 49.7726 90.4766H89.6164C91.7473 90.4766 93.4758 92.2044 93.4758 94.3359ZM33.1254 70.8984C33.1254 73.0303 31.3978 74.7578 29.266 74.7578C27.1342 74.7578 25.4066 73.0303 25.4066 70.8984C25.4066 68.7666 27.1342 67.0391 29.266 67.0391C31.3978 67.0391 33.1254 68.7666 33.1254 70.8984ZM33.1254 94.3359C33.1254 96.4678 31.3978 98.1953 29.266 98.1953C27.1342 98.1953 25.4066 96.4678 25.4066 94.3359C25.4066 92.2041 27.1342 90.4766 29.266 90.4766C31.3978 90.4766 33.1254 92.2041 33.1254 94.3359Z" fill="#E6E6E6" stroke="white" stroke-width="4"/>
</svg>
