<?xml version="1.0" encoding="UTF-8"?>
<svg width="52px" height="52px" viewBox="0 0 52 52" version="1.1" xmlns="http://www.w3.org/2000/svg" xmlns:xlink="http://www.w3.org/1999/xlink">
    <title>vector_icon_time_Монтажная область 3</title>
    <g id="Page-1" stroke="none" stroke-width="1" fill="none" fill-rule="evenodd">
        <g id="vector_icon_time_Монтажная-область-3">
            <rect id="Rectangle" x="0" y="0" width="52" height="52"></rect>
            <g id="Group" fill-rule="nonzero">
                <path d="M24.56,27.34 C25.35,28.13 26.64,28.13 27.43,27.34 C28,26.76 29.85,23.63 31.93,19.91 C28.21,22.03 25.14,23.89 24.56,24.47 C23.77,25.25 23.77,26.54 24.56,27.34 Z" id="Path" fill="#F5D529"></path>
                <path d="M24.56,27.34 C25.35,28.13 26.64,28.13 27.43,27.34 C28,26.76 29.85,23.63 31.93,19.91 C28.21,22.03 25.14,23.89 24.56,24.47 C23.77,25.25 23.77,26.54 24.56,27.34 Z M21.69,30.21 C20.54,29.06 19.91,27.53 19.91,25.9 C19.91,24.27 20.54,22.74 21.69,21.59 C23.36,19.92 33.14,14.55 36.1,12.94 C36.89,12.51 37.86,12.65 38.5,13.28 C39.14,13.91 39.29,14.88 38.87,15.68 C37.29,18.67 31.99,28.54 30.31,30.21 C29.12,31.4 27.56,31.99 26,31.99 C24.44,31.99 22.88,31.4 21.69,30.21 C21.69,30.21 21.69,30.21 21.69,30.21 Z M14.3,33.35 C13.7,32.4 12.45,32.12 11.5,32.71 C10.55,33.31 10.27,34.56 10.86,35.51 C11.57,36.64 12.41,37.69 13.36,38.64 C13.76,39.04 14.28,39.23 14.8,39.23 C15.32,39.23 15.84,39.03 16.24,38.64 C17.03,37.85 17.03,36.56 16.24,35.77 C15.5,35.03 14.85,34.22 14.3,33.35 Z M37.2,39.23 C37.72,39.23 38.24,39.03 38.64,38.64 C42.95,34.33 44.76,28.19 43.47,22.22 C43.23,21.12 42.15,20.43 41.06,20.66 C39.96,20.9 39.27,21.98 39.5,23.07 C40.49,27.68 39.1,32.43 35.77,35.76 C34.98,36.55 34.98,37.84 35.77,38.63 C36.16,39.04 36.68,39.23 37.2,39.23 Z M28.75,12.46 C29.85,12.68 30.92,11.97 31.14,10.87 C31.36,9.77 30.65,8.7 29.55,8.48 C23.66,7.29 17.61,9.12 13.36,13.36 C9.76,16.96 7.86,21.94 8.15,27.03 C8.21,28.11 9.08,28.94 10.15,28.94 C11.37,28.94 12.27,27.91 12.2,26.79 C11.97,22.86 13.44,19.01 16.22,16.23 C19.51,12.95 24.19,11.54 28.75,12.46 Z M52,26 C52,31.13 50.48,36.12 47.59,40.43 C46.97,41.36 45.71,41.61 44.77,40.99 C43.84,40.37 43.59,39.1 44.21,38.17 C46.64,34.53 47.93,30.32 47.93,25.99 C47.94,13.9 38.1,4.06 26,4.06 C13.9,4.06 4.06,13.9 4.06,26 C4.06,38.1 13.9,47.94 26,47.94 C30.01,47.94 33.94,46.85 37.35,44.78 C38.31,44.2 39.56,44.51 40.14,45.47 C40.72,46.43 40.41,47.68 39.46,48.26 C35.41,50.7 30.75,52 26,52 C19.06,52 12.53,49.3 7.62,44.38 C2.7,39.47 0,32.94 0,26 C0,19.06 2.7,12.53 7.62,7.62 C12.53,2.7 19.06,0 26,0 C32.94,0 39.47,2.7 44.38,7.62 C49.3,12.53 52,19.06 52,26 Z" id="Shape" fill="#171719"></path>
            </g>
        </g>
    </g>
</svg>