<?xml version="1.0" encoding="UTF-8"?>
<svg width="51px" height="51px" viewBox="0 0 51 51" version="1.1" xmlns="http://www.w3.org/2000/svg" xmlns:xlink="http://www.w3.org/1999/xlink">
    <!-- Generator: Sketch 51.2 (57519) - http://www.bohemiancoding.com/sketch -->
    <title>package</title>
    <desc>Created with Sketch.</desc>
    <defs></defs>
    <g id="Page-1" stroke="none" stroke-width="1" fill="none" fill-rule="evenodd">
        <g id="package" fill-rule="nonzero">
            <polygon id="Shape" stroke="#000000" fill="#FFDC00" points="3.5 31 8 22.5 24.5 22.5 17.5 33 4 33"></polygon>
            <path d="M49.6101,8.89 C48.7901,8.45 47.7601,8.75 47.3101,9.58 L41.7501,19.87 L8.75013,19.87 L3.19013,9.57 C2.88013,9.01 2.30013,8.68 1.69013,8.68 C1.42013,8.68 1.14013,8.75 0.890129,8.88 C0.070129,9.32 -0.239871,10.36 0.200129,11.18 L5.80013,21.54 L1.54013,29.07 C0.920129,30.24 0.950129,31.57 1.61013,32.68 C2.27013,33.78 3.43013,34.44 4.71013,34.44 L5.98013,34.44 L5.98013,42.82 C5.98013,47.06 9.43013,50.5 13.6601,50.5 L36.8101,50.5 C41.0501,50.5 44.4901,47.05 44.4901,42.82 C44.4901,41.88 43.7301,41.12 42.7901,41.12 C41.8501,41.12 41.0901,41.88 41.0901,42.82 C41.0901,45.19 39.1601,47.11 36.8001,47.11 L26.9201,47.11 L26.9201,37.63 C26.9201,36.69 26.1601,35.93 25.2201,35.93 C24.2801,35.93 23.5201,36.69 23.5201,37.63 L23.5201,47.11 L13.6401,47.11 C11.2701,47.11 9.35013,45.18 9.35013,42.82 L9.35013,34.44 L16.5501,34.44 C18.9201,34.44 21.0801,33.14 22.1901,31.05 L25.1701,25.45 L28.1501,31.05 C29.2601,33.14 31.4201,34.44 33.7901,34.44 L45.6401,34.44 C46.9201,34.44 48.0801,33.78 48.7401,32.68 C49.4001,31.58 49.4401,30.25 48.8301,29.11 L44.6001,21.63 L50.2501,11.18 C50.7401,10.36 50.4301,9.33 49.6101,8.89 Z M19.2301,29.45 C18.7101,30.43 17.6901,31.04 16.5801,31.04 L4.33013,31.04 L8.73013,23.25 L22.5201,23.25 L19.2301,29.45 Z M46.0701,31.04 L33.8201,31.04 C32.7101,31.04 31.6901,30.43 31.1701,29.45 L27.8801,23.26 L41.6701,23.26 L46.0701,31.04 Z M17.5701,10.84 C16.9101,10.18 16.9001,9.11 17.5601,8.44 C17.8801,8.12 18.3001,7.94 18.7601,7.94 L18.7701,7.94 C19.2201,7.94 19.6401,8.11 19.9601,8.43 L23.5601,11.99 L23.5601,1.7 C23.5601,0.76 24.3201,0 25.2601,0 C26.2001,0 26.9601,0.76 26.9601,1.7 L26.9601,12.07 L30.6501,8.35 C31.3101,7.69 32.3801,7.68 33.0501,8.34 C33.3701,8.66 33.5501,9.08 33.5501,9.54 C33.5501,9.99 33.3801,10.42 33.0601,10.74 L29.3301,14.51 C28.2601,15.58 26.8301,16.17 25.3101,16.17 C23.7901,16.17 22.3601,15.58 21.2901,14.51 L17.5701,10.84 Z" id="Shape" fill="#000000"></path>
        </g>
    </g>
</svg>