<svg width="53" height="51" viewBox="0 0 53 51" fill="none" xmlns="http://www.w3.org/2000/svg">
<rect x="4" y="23" width="17" height="10" fill="#F5E643"/>
<path fill-rule="evenodd" clip-rule="evenodd" d="M50.9892 50.6H3.89922C3.39922 50.6 2.92922 50.38 2.59922 50C2.35922 49.71 2.21922 49.36 2.19922 48.99C2.19922 48.87 2.19922 48.74 2.22922 48.61C2.35922 47.81 3.11922 47.2 4.00922 47.2H10.5992V41.1C10.5992 40.16 11.3592 39.4 12.2992 39.4C13.2392 39.4 13.9992 40.16 13.9992 41.1V47.2H41.4992V7.7C41.4992 5.33 39.5692 3.4 37.1992 3.4H18.2992C15.9292 3.4 13.9992 5.33 13.9992 7.7V9.94C13.9992 10.39 13.8192 10.82 13.4992 11.14C13.1792 11.46 12.7492 11.64 12.2992 11.64C11.3592 11.64 10.5992 10.88 10.5992 9.94V7.7C10.5992 3.45 14.0492 0 18.2992 0H37.1892C41.4392 0 44.8892 3.45 44.8892 7.7V47.2H51.0892C51.5892 47.2 52.0692 47.42 52.3892 47.8C52.7192 48.19 52.8492 48.68 52.7692 49.19C52.6392 49.99 51.8792 50.6 50.9892 50.6ZM0 16V23C0 23.94 0.76 24.7001 1.7 24.7001H2V29.6C2 32.74 4.56 35.3 7.7 35.3H17.6C20.74 35.3 23.3 32.74 23.3 29.6V24.7001H23.6C24.54 24.7001 25.3 23.94 25.3 23V16C25.3 15.06 24.54 14.3 23.6 14.3H1.7C0.76 14.3 0 15.06 0 16ZM19.9 29.6C19.9 30.87 18.87 31.9 17.6 31.9H7.7C6.43 31.9 5.4 30.87 5.4 29.6V24.7001H10.9V26C10.9 26.94 11.66 27.7001 12.6 27.7001C13.54 27.7001 14.3 26.94 14.3 26V24.7001H19.9V29.6ZM3.4 17.7001H21.9V21.3H3.4V17.7001ZM35.3016 28.8C36.2416 28.8 37.0016 28.04 37.0016 27.1V23.1C37.0016 22.16 36.2416 21.4 35.3016 21.4C34.3616 21.4 33.6016 22.16 33.6016 23.1V27.1C33.6016 28.04 34.3616 28.8 35.3016 28.8Z" fill="black"/>
</svg>
