<?xml version="1.0" encoding="UTF-8" standalone="no"?>
<!-- Created with Inkscape (http://www.inkscape.org/) -->
<svg xmlns:svg="http://www.w3.org/2000/svg" xmlns="http://www.w3.org/2000/svg" version="1.0" width="814.92169" height="237.77885" id="svg2832">
  <defs id="defs2834">
    <clipPath id="clipPath83">
      <path d="M 168.672,453.565 L 34.677,453.565 L 34.677,419.172 L 168.672,419.172 L 168.672,453.565 z" id="path85"/>
    </clipPath>
    <clipPath id="clipPath95">
      <path d="M 168.672,453.565 L 34.677,453.565 L 34.677,419.172 L 168.672,419.172 L 168.672,453.565 z" id="path97"/>
    </clipPath>
    <clipPath id="clipPath111">
      <path d="M 168.672,453.565 L 34.677,453.565 L 34.677,419.172 L 168.672,419.172 L 168.672,453.565 z" id="path113"/>
    </clipPath>
  </defs>
  <g transform="translate(377.46085,-332.04418)" id="layer1">
    <path d="M -352.97616,504.38222 C -353.67274,504.38222 -357.24572,509.7507 -362.81837,509.7507 C -367.0399,509.7507 -369.54398,505.96154 -369.54398,500.33484 C -369.54398,496.28747 -368.19886,489.32766 -368.19886,487.24392 C -368.19886,485.6646 -368.57117,485.6646 -369.59202,485.5385 C -370.56484,485.41239 -370.88911,484.4636 -370.88911,483.19654 C -370.88911,480.66843 -369.31579,479.77969 -367.78452,479.02306 C -365.78485,477.94816 -361.8876,476.555 -359.79785,476.555 C -357.80419,476.555 -357.3358,478.26643 -357.3358,480.73449 C -357.3358,484.71581 -358.68693,490.84693 -359.05924,495.21257 C -359.23939,498.05294 -359.10127,500.83926 -357.75615,500.83926 C -353.57666,500.83926 -352.69993,488.00055 -352.65189,484.3375 C -352.55581,477.56985 -349.03087,476.93932 -344.20284,476.62106 C -342.48541,476.49495 -341.65071,477.19153 -341.65071,479.71964 C -341.65071,485.22023 -343.64438,491.73567 -343.74046,496.28747 C -343.7885,499.57221 -343.36814,501.78806 -341.60267,501.78806 C -337.7955,501.78806 -335.98799,494.57604 -335.98799,490.27645 C -335.98799,484.96802 -338.21585,482.81823 -338.21585,479.84575 C -338.21585,477.44374 -336.31226,476.555 -334.82902,476.555 C -331.29807,476.555 -330.51142,480.03791 -330.42134,484.27144 C -330.09107,497.29631 -335.20133,509.56454 -344.94746,509.7507 C -350.56215,509.8768 -352.4177,504.38222 -352.97616,504.38222" id="path65" style="fill:#231f20;fill-opacity:1;fill-rule:nonzero;stroke:none"/>
    <path d="M -310.73692,504.38222 C -311.4335,504.38222 -315.00648,509.7507 -320.57913,509.7507 C -324.80065,509.7507 -327.31075,505.96154 -327.31075,500.33484 C -327.31075,496.28747 -325.95962,489.32766 -325.95962,487.24392 C -325.95962,485.6646 -326.33193,485.6646 -327.35278,485.5385 C -328.3316,485.41239 -328.65587,484.4636 -328.65587,483.19654 C -328.65587,480.66843 -327.07655,479.77969 -325.54527,479.02306 C -323.55161,477.94816 -319.64835,476.555 -317.56462,476.555 C -315.56495,476.555 -315.10256,478.26643 -315.10256,480.73449 C -315.10256,484.71581 -316.44768,490.84693 -316.81999,495.21257 C -317.00615,498.05294 -316.86803,500.83926 -315.52291,500.83926 C -311.34342,500.83926 -310.46069,488.00055 -310.41265,484.3375 C -310.32257,477.56985 -306.79163,476.93932 -301.9696,476.62106 C -300.24617,476.49495 -299.41147,477.19153 -299.41147,479.71964 C -299.41147,485.22023 -301.41114,491.73567 -301.50121,496.28747 C -301.54925,499.57221 -301.1289,501.78806 -299.36943,501.78806 C -295.56226,501.78806 -293.74874,494.57604 -293.74874,490.27645 C -293.74874,484.96802 -295.9766,482.81823 -295.9766,479.84575 C -295.9766,477.44374 -294.07902,476.555 -292.58978,476.555 C -289.06484,476.555 -288.27217,480.03791 -288.1821,484.27144 C -287.85783,497.29631 -292.96209,509.56454 -302.70822,509.7507 C -308.3229,509.8768 -310.18446,504.38222 -310.73692,504.38222" id="path67" style="fill:#231f20;fill-opacity:1;fill-rule:nonzero;stroke:none"/>
    <path d="M -268.50368,504.38222 C -269.20026,504.38222 -272.77324,509.7507 -278.33989,509.7507 C -282.56741,509.7507 -285.0715,505.96154 -285.0715,500.33484 C -285.0715,496.28747 -283.72638,489.32766 -283.72638,487.24392 C -283.72638,485.6646 -284.09869,485.6646 -285.11954,485.5385 C -286.09236,485.41239 -286.41663,484.4636 -286.41663,483.19654 C -286.41663,480.66843 -284.83731,479.77969 -283.30603,479.02306 C -281.31237,477.94816 -277.41512,476.555 -275.32537,476.555 C -273.33171,476.555 -272.86332,478.26643 -272.86332,480.73449 C -272.86332,484.71581 -274.20844,490.84693 -274.58075,495.21257 C -274.76691,498.05294 -274.62879,500.83926 -273.28367,500.83926 C -269.10418,500.83926 -268.22145,488.00055 -268.17941,484.3375 C -268.08333,477.56985 -264.55839,476.93932 -259.73036,476.62106 C -258.01293,476.49495 -257.17823,477.19153 -257.17823,479.71964 C -257.17823,485.22023 -259.17189,491.73567 -259.26797,496.28747 C -259.31001,499.57221 -258.89566,501.78806 -257.13019,501.78806 C -253.32301,501.78806 -251.51551,494.57604 -251.51551,490.27645 C -251.51551,484.96802 -253.74337,482.81823 -253.74337,479.84575 C -253.74337,477.44374 -251.83978,476.555 -250.35654,476.555 C -246.82559,476.555 -246.03894,480.03791 -245.94286,484.27144 C -245.61859,497.29631 -250.72284,509.56454 -260.47498,509.7507 C -266.08967,509.8768 -267.94521,504.38222 -268.50368,504.38222" id="path69" style="fill:#231f20;fill-opacity:1;fill-rule:nonzero;stroke:none"/>
    <path d="M -236.00456,502.60474 C -236.14868,507.03643 -238.70081,510.00891 -241.52917,510.00891 C -244.36354,510.00891 -246.72951,507.03643 -246.5914,502.60474 C -246.44728,498.3712 -243.89515,495.59088 -241.06679,495.59088 C -238.23242,495.59088 -235.86645,498.3712 -236.00456,502.60474" id="path71" style="fill:#231f20;fill-opacity:1;fill-rule:nonzero;stroke:none"/>
    <path d="M -129.80596,409.7913 C -129.47568,411.36461 -129.47568,414.06686 -127.99244,414.06686 C -125.35024,414.06686 -113.8026,393.82998 -96.141868,393.82998 C -86.077471,393.82998 -79.6401,402.82548 -79.6401,416.31274 C -79.6401,429.12743 -85.086644,461.05007 -85.086644,471.1625 C -85.086644,482.63207 -76.337344,473.18619 -76.337344,483.07644 C -76.337344,499.71633 -101.096,509.82876 -110.00744,510.50133 C -117.59777,510.9517 -121.39294,504.20807 -122.21562,494.54001 C -122.21562,474.98769 -116.76908,455.87975 -116.76908,437.89475 C -116.76908,433.84737 -117.59777,430.70074 -120.89452,430.70074 C -133.60112,430.70074 -133.76926,462.62338 -134.59195,473.18619 C -135.58278,485.32832 -136.74174,496.5697 -139.37794,500.61708 C -144.49421,508.48364 -156.7084,510.50133 -163.96846,510.50133 C -170.89824,510.50133 -173.87072,507.58289 -173.87072,497.69264 C -173.87072,479.92982 -167.60149,458.34781 -167.60149,439.01768 C -167.60149,434.29774 -167.93177,430.70074 -172.05721,430.70074 C -183.61085,430.70074 -185.09409,468.91663 -185.5865,479.02907 C -187.07574,501.06145 -185.91677,508.03327 -213.64191,510.72952 C -220.07928,511.40208 -224.53499,508.48364 -224.53499,498.59339 C -224.53499,490.27045 -217.93549,454.07825 -217.93549,435.1985 C -217.93549,430.92293 -218.4279,427.7763 -221.89279,427.7763 C -225.52582,427.7763 -229.8134,427.7763 -229.8134,420.81049 C -229.8134,412.48755 -221.56251,407.54542 -216.94466,404.3988 C -209.18619,399.22848 -200.27475,393.82998 -191.36332,393.82998 C -185.42436,393.82998 -182.9503,399.22848 -182.45188,406.64467 C -182.45188,408.66836 -182.12161,414.06686 -179.97782,414.06686 C -176.01451,414.06686 -162.64736,393.82998 -147.13642,393.82998 C -139.37794,393.82998 -132.11789,399.22848 -129.80596,409.7913" id="path73" style="fill:#ed1c24;fill-opacity:1;fill-rule:nonzero;stroke:none"/>
    <path d="M -129.80596,409.7913 C -129.47568,411.36461 -129.47568,414.06686 -127.99244,414.06686 C -125.35024,414.06686 -113.8026,393.82998 -96.141868,393.82998 C -86.077471,393.82998 -79.6401,402.82548 -79.6401,416.31274 C -79.6401,429.12743 -85.086644,461.05007 -85.086644,471.1625 C -85.086644,482.63207 -76.337344,473.18619 -76.337344,483.07644 C -76.337344,499.71633 -101.096,509.82876 -110.00744,510.50133 C -117.59777,510.9517 -121.39294,504.20807 -122.21562,494.54001 C -122.21562,474.98769 -116.76908,455.87975 -116.76908,437.89475 C -116.76908,433.84737 -117.59777,430.70074 -120.89452,430.70074 C -133.60112,430.70074 -133.76926,462.62338 -134.59195,473.18619 C -135.58278,485.32832 -136.74174,496.5697 -139.37794,500.61708 C -144.49421,508.48364 -156.7084,510.50133 -163.96846,510.50133 C -170.89824,510.50133 -173.87072,507.58289 -173.87072,497.69264 C -173.87072,479.92982 -167.60149,458.34781 -167.60149,439.01768 C -167.60149,434.29774 -167.93177,430.70074 -172.05721,430.70074 C -183.61085,430.70074 -185.09409,468.91663 -185.5865,479.02907 C -187.07574,501.06145 -185.91677,508.03327 -213.64191,510.72952 C -220.07928,511.40208 -224.53499,508.48364 -224.53499,498.59339 C -224.53499,490.27045 -217.93549,454.07825 -217.93549,435.1985 C -217.93549,430.92293 -218.4279,427.7763 -221.89279,427.7763 C -225.52582,427.7763 -229.8134,427.7763 -229.8134,420.81049 C -229.8134,412.48755 -221.56251,407.54542 -216.94466,404.3988 C -209.18619,399.22848 -200.27475,393.82998 -191.36332,393.82998 C -185.42436,393.82998 -182.9503,399.22848 -182.45188,406.64467 C -182.45188,408.66836 -182.12161,414.06686 -179.97782,414.06686 C -176.01451,414.06686 -162.64736,393.82998 -147.13642,393.82998 C -139.37794,393.82998 -132.11789,399.22848 -129.80596,409.7913 z" id="path75" style="fill:none;stroke:#231f20;stroke-width:2.63619971;stroke-linecap:butt;stroke-linejoin:miter;stroke-miterlimit:4;stroke-dasharray:none;stroke-opacity:1"/>
    <path d="M -51.800872,552.5424 C -66.489127,552.5424 -81.339518,541.52921 -81.339518,519.49683 C -81.339518,505.78139 -74.241596,497.01407 -64.507474,497.01407 C -56.586865,497.01407 -50.47977,503.08514 -50.47977,514.32652 C -50.47977,518.1457 -51.140321,521.9709 -51.140321,525.79008 C -51.140321,528.26415 -50.47977,530.28783 -48.498116,530.28783 C -43.219712,530.28783 -40.577508,519.49683 -40.745648,513.87614 C -41.069919,497.24226 -56.586865,438.56731 -62.856096,438.56731 C -65.33016,438.56731 -68.795051,446.21168 -72.428083,446.21168 C -76.71566,446.21168 -80.348691,438.78949 -80.018416,433.39699 C -79.027589,419.00899 -51.302456,393.82998 -41.73047,393.82998 C -32.488759,393.82998 -29.354143,404.62098 -26.219528,414.51123 C -21.76381,428.89924 -14.005337,468.46625 -9.8798948,469.81738 C -5.4241771,471.1625 -3.4485287,448.00718 -3.4485287,443.51543 C -3.4485287,427.7763 -11.038862,423.72893 -11.038862,412.26536 C -11.038862,401.70255 -4.1090798,395.18111 3.1569827,395.18111 C 16.19386,395.18111 18.007373,410.91423 18.007373,425.08005 C 18.667924,473.63657 -9.2193436,552.5424 -51.800872,552.5424" id="path77" style="fill:#f68636;fill-opacity:1;fill-rule:nonzero;stroke:none"/>
    <g transform="matrix(6.0050104,0,0,-6.0050104,-579.13086,3070.9897)" clip-path="url(#clipPath83)" id="g81">
      <path d="M 87.815,419.391 C 85.369,419.391 82.896,421.225 82.896,424.894 C 82.896,427.178 84.078,428.638 85.699,428.638 C 87.018,428.638 88.035,427.627 88.035,425.755 C 88.035,425.119 87.925,424.482 87.925,423.846 C 87.925,423.434 88.035,423.097 88.365,423.097 C 89.244,423.097 89.684,424.894 89.656,425.83 C 89.602,428.6 87.018,438.371 85.974,438.371 C 85.562,438.371 84.985,437.098 84.38,437.098 C 83.666,437.098 83.061,438.334 83.116,439.232 C 83.281,441.628 87.898,445.821 89.492,445.821 C 91.031,445.821 91.553,444.024 92.075,442.377 C 92.817,439.981 94.109,433.392 94.796,433.167 C 95.538,432.943 95.867,436.799 95.867,437.547 C 95.867,440.168 94.603,440.842 94.603,442.751 C 94.603,444.51 95.757,445.596 96.967,445.596 C 99.138,445.596 99.44,442.976 99.44,440.617 C 99.55,432.531 94.906,419.391 87.815,419.391 z" id="path87" style="fill:none;stroke:#231f20;stroke-width:0.43900001;stroke-linecap:butt;stroke-linejoin:miter;stroke-miterlimit:4;stroke-dasharray:none;stroke-opacity:1"/>
    </g>
    <path d="M 98.954913,351.34453 C 111.66151,351.34453 111.82966,348.64828 116.11723,348.64828 C 126.18763,348.64828 132.12659,373.14872 132.12659,383.93973 C 132.12659,395.85367 127.83901,406.42249 118.42916,406.42249 C 105.88469,406.42249 108.03449,378.54122 100.77443,378.54122 C 95.490022,378.54122 95.327887,387.9871 94.006784,404.17061 C 93.015958,417.65786 89.551067,452.50494 89.551067,471.61288 C 89.551067,490.94901 102.08953,481.05275 102.08953,494.54001 C 102.08953,501.28964 96.150573,510.72952 61.825934,510.72952 C 32.119148,510.72952 31.626737,500.1607 31.626737,495.44076 C 31.626737,481.95351 43.342512,488.69713 46.314992,477.91213 C 50.272294,463.51812 56.049114,389.33223 56.049114,385.96342 C 56.049114,382.5886 55.058287,378.54122 52.085807,378.54122 C 43.834923,378.54122 45.816576,406.42249 31.128321,406.42249 C 23.537988,406.42249 19.412546,399.22848 19.412546,389.56042 C 19.412546,375.3946 28.984532,348.64828 41.198723,348.64828 C 42.844096,348.64828 44.333339,349.32084 45.984717,349.9934 C 47.79823,350.66596 49.611743,351.34453 51.923672,351.34453 L 98.954913,351.34453" id="path89" style="fill:#3c63b8;fill-opacity:1;fill-rule:nonzero;stroke:none"/>
    <g transform="matrix(6.0050104,0,0,-6.0050104,-579.13086,3070.9897)" clip-path="url(#clipPath95)" id="g93">
      <path d="M 112.92,452.896 C 115.036,452.896 115.064,453.345 115.778,453.345 C 117.455,453.345 118.444,449.265 118.444,447.468 C 118.444,445.484 117.73,443.724 116.163,443.724 C 114.074,443.724 114.432,448.367 113.223,448.367 C 112.343,448.367 112.316,446.794 112.096,444.099 C 111.931,441.853 111.354,436.05 111.354,432.868 C 111.354,429.648 113.442,431.296 113.442,429.05 C 113.442,427.926 112.453,426.354 106.737,426.354 C 101.79,426.354 101.708,428.114 101.708,428.9 C 101.708,431.146 103.659,430.023 104.154,431.819 C 104.813,434.216 105.775,446.57 105.775,447.131 C 105.775,447.693 105.61,448.367 105.115,448.367 C 103.741,448.367 104.071,443.724 101.625,443.724 C 100.361,443.724 99.674,444.922 99.674,446.532 C 99.674,448.891 101.268,453.345 103.302,453.345 C 103.576,453.345 103.824,453.233 104.099,453.121 C 104.401,453.009 104.703,452.896 105.088,452.896 L 112.92,452.896 z" id="path99" style="fill:none;stroke:#231f20;stroke-width:0.43900001;stroke-linecap:butt;stroke-linejoin:miter;stroke-miterlimit:4;stroke-dasharray:none;stroke-opacity:1"/>
    </g>
    <path d="M 140.83986,511.85245 C 172.19802,511.85245 196.95068,480.15801 196.95068,437.21618 C 196.95068,407.76761 179.9565,392.70704 159.32929,392.70704 C 127.97112,392.70704 103.21247,424.40749 103.21247,467.34332 C 103.21247,496.79189 120.21265,511.85245 140.83986,511.85245 z M 153.88274,416.53492 C 158.5006,416.53492 159.32929,422.3838 159.32929,427.55412 C 159.32929,439.01768 157.01736,456.32412 155.36598,467.79369 C 154.37515,474.53732 153.05405,488.02457 146.12427,488.02457 C 141.83669,488.02457 140.83986,482.85426 140.83986,477.68394 C 140.83986,465.31963 142.3291,450.03087 144.14262,437.89475 C 145.29558,430.92293 146.94696,416.53492 153.88274,416.53492" id="path101" style="fill:#fff64d;fill-opacity:1;fill-rule:nonzero;stroke:none"/>
    <path d="M 140.83986,511.85245 C 172.19802,511.85245 196.95068,480.15801 196.95068,437.21618 C 196.95068,407.76761 179.9565,392.70704 159.32929,392.70704 C 127.97112,392.70704 103.21247,424.40749 103.21247,467.34332 C 103.21247,496.79189 120.21265,511.85245 140.83986,511.85245 z M 153.88274,416.53492 C 158.5006,416.53492 159.32929,422.3838 159.32929,427.55412 C 159.32929,439.01768 157.01736,456.32412 155.36598,467.79369 C 154.37515,474.53732 153.05405,488.02457 146.12427,488.02457 C 141.83669,488.02457 140.83986,482.85426 140.83986,477.68394 C 140.83986,465.31963 142.3291,450.03087 144.14262,437.89475 C 145.29558,430.92293 146.94696,416.53492 153.88274,416.53492 z" id="path103" style="fill:none;stroke:#231f20;stroke-width:2.63619971;stroke-linecap:butt;stroke-linejoin:miter;stroke-miterlimit:4;stroke-dasharray:none;stroke-opacity:1"/>
    <path d="M 226.11101,552.5424 C 211.42275,552.5424 196.57236,541.52921 196.57236,519.49683 C 196.57236,505.78139 203.67028,497.01407 213.40441,497.01407 C 221.32501,497.01407 227.43211,503.08514 227.43211,514.32652 C 227.43211,518.1457 226.77156,521.9709 226.77156,525.79008 C 226.77156,528.26415 227.43211,530.28783 229.41376,530.28783 C 234.69217,530.28783 237.33437,519.49683 237.16623,513.87614 C 236.84196,497.24226 221.32501,438.56731 215.05578,438.56731 C 212.58172,438.56731 209.11683,446.21168 205.4838,446.21168 C 201.19021,446.21168 197.56319,438.78949 197.89346,433.39699 C 198.88429,419.00899 226.60942,393.82998 236.18141,393.82998 C 245.42312,393.82998 248.55774,404.62098 251.69235,414.51123 C 256.14807,428.89924 263.90654,468.46625 268.03198,469.81738 C 272.4877,471.1625 274.46936,448.00718 274.46936,443.51543 C 274.46936,427.7763 266.87302,423.72893 266.87302,412.26536 C 266.87302,401.70255 273.8028,395.18111 281.06286,395.18111 C 294.10574,395.18111 295.91925,410.91423 295.91925,425.08005 C 296.5798,473.63657 268.69254,552.5424 226.11101,552.5424" id="path105" style="fill:#f68636;fill-opacity:1;fill-rule:nonzero;stroke:none"/>
    <g transform="matrix(6.0050104,0,0,-6.0050104,-579.13086,3070.9897)" clip-path="url(#clipPath111)" id="g109">
      <path d="M 134.095,419.391 C 131.649,419.391 129.176,421.225 129.176,424.894 C 129.176,427.178 130.358,428.638 131.979,428.638 C 133.298,428.638 134.315,427.627 134.315,425.755 C 134.315,425.119 134.205,424.482 134.205,423.846 C 134.205,423.434 134.315,423.097 134.645,423.097 C 135.524,423.097 135.964,424.894 135.936,425.83 C 135.882,428.6 133.298,438.371 132.254,438.371 C 131.842,438.371 131.265,437.098 130.66,437.098 C 129.945,437.098 129.341,438.334 129.396,439.232 C 129.561,441.628 134.178,445.821 135.772,445.821 C 137.311,445.821 137.833,444.024 138.355,442.377 C 139.097,439.981 140.389,433.392 141.076,433.167 C 141.818,432.943 142.148,436.799 142.148,437.547 C 142.148,440.168 140.883,440.842 140.883,442.751 C 140.883,444.51 142.037,445.596 143.246,445.596 C 145.418,445.596 145.72,442.976 145.72,440.617 C 145.83,432.531 141.186,419.391 134.095,419.391 z" id="path115" style="fill:none;stroke:#231f20;stroke-width:0.43900001;stroke-linecap:butt;stroke-linejoin:miter;stroke-miterlimit:4;stroke-dasharray:none;stroke-opacity:1"/>
    </g>
    <path d="M 356.48579,427.99849 C 349.88028,427.99849 349.88028,414.96161 343.61104,414.96161 C 340.8067,414.96161 338.49478,417.65786 338.49478,421.48305 C 338.49478,436.09324 362.09447,446.88425 362.09447,473.85875 C 362.09447,501.74002 338.00236,511.85245 321.33246,511.85245 C 310.77565,511.85245 291.3014,507.80508 291.3014,488.92532 C 291.3014,482.1817 294.43601,472.96401 300.04469,472.96401 C 306.97448,472.96401 305.82151,488.02457 314.0724,488.02457 C 317.36915,488.02457 321.16432,485.55051 321.16432,480.60838 C 321.16432,468.69444 300.53711,457.00269 300.53711,431.82368 C 300.53711,404.84917 323.14597,392.70704 340.14615,392.70704 C 348.72731,392.70704 365.22908,396.53223 365.22908,411.5928 C 365.22908,418.33643 362.26261,427.99849 356.48579,427.99849" id="path117" style="fill:#33b540;fill-opacity:1;fill-rule:nonzero;stroke:none"/>
    <path d="M 356.48579,427.99849 C 349.88028,427.99849 349.88028,414.96161 343.61104,414.96161 C 340.8067,414.96161 338.49478,417.65786 338.49478,421.48305 C 338.49478,436.09324 362.09447,446.88425 362.09447,473.85875 C 362.09447,501.74002 338.00236,511.85245 321.33246,511.85245 C 310.77565,511.85245 291.3014,507.80508 291.3014,488.92532 C 291.3014,482.1817 294.43601,472.96401 300.04469,472.96401 C 306.97448,472.96401 305.82151,488.02457 314.0724,488.02457 C 317.36915,488.02457 321.16432,485.55051 321.16432,480.60838 C 321.16432,468.69444 300.53711,457.00269 300.53711,431.82368 C 300.53711,404.84917 323.14597,392.70704 340.14615,392.70704 C 348.72731,392.70704 365.22908,396.53223 365.22908,411.5928 C 365.22908,418.33643 362.26261,427.99849 356.48579,427.99849 z" id="path119" style="fill:none;stroke:#231f20;stroke-width:2.63619971;stroke-linecap:butt;stroke-linejoin:miter;stroke-miterlimit:4;stroke-dasharray:none;stroke-opacity:1"/>
    <path d="M 376.79473,502.60474 C 376.65662,507.03643 374.10449,510.00891 371.27012,510.00891 C 368.44176,510.00891 366.07579,507.03643 366.2139,502.60474 C 366.35202,498.3712 368.90415,495.59088 371.73251,495.59088 C 374.56687,495.59088 376.93285,498.3712 376.79473,502.60474" id="path121" style="fill:#231f20;fill-opacity:1;fill-rule:nonzero;stroke:none"/>
    <path d="M 392.16155,476.24274 C 384.08481,476.555 379.81525,490.72082 379.90533,499.82442 C 380.00141,505.26496 381.20841,509.7507 385.70617,509.7507 C 390.48616,509.7507 393.22444,503.68564 394.15522,503.68564 C 394.76172,503.68564 394.98991,504.69448 395.03795,505.32501 C 395.31418,507.85312 395.4523,509.56454 397.7282,509.43844 C 399.72186,509.37238 407.66049,505.76938 407.47433,501.78806 C 407.43229,500.58705 406.92187,500.14268 406.12921,500.01658 C 404.87416,499.82442 404.78409,499.51216 404.78409,497.74068 L 405.38459,488.94934 L 406.26732,480.35017 L 407.38425,469.41504 L 407.57041,466.69477 C 407.57041,464.79719 406.87383,463.66224 405.43263,463.66224 C 403.57708,463.66224 399.67983,464.73714 397.86631,465.55983 C 396.19692,466.31646 394.10718,467.39136 394.10718,470.17168 C 394.10718,471.43873 394.57557,472.13531 395.50034,472.13531 C 395.82461,472.13531 396.15489,472.0032 396.47315,472.0032 C 397.07966,472.0032 397.35589,472.57368 397.35589,473.39637 C 397.35589,474.21905 397.03162,478.14032 396.15489,478.14032 C 395.50034,478.14032 394.52753,476.18269 392.16155,476.24274 z M 391.36889,499.51216 C 390.5342,499.57221 390.34804,498.62341 390.30601,497.54852 C 390.25196,494.07162 392.48582,483.32265 395.22411,483.32265 C 396.287,483.32265 396.43112,484.64976 396.43112,485.5385 C 396.47315,488.88929 394.10718,499.4461 391.36889,499.51216" id="path123" style="fill:#231f20;fill-opacity:1;fill-rule:nonzero;stroke:none"/>
    <path d="M 426.9726,476.24274 C 418.52355,476.24274 409.51603,484.77586 409.10169,497.92683 C 408.86749,506.3999 413.7856,509.7507 419.44832,509.7507 C 422.37877,509.7507 424.88285,508.80791 427.48302,507.22259 C 429.38661,506.02159 432.4912,503.93785 432.4912,500.58705 C 432.4912,499.32 431.60847,497.92683 430.63565,497.92683 C 429.15242,497.92683 426.60029,501.53584 423.2555,501.53584 C 422.09653,501.53584 420.42714,500.521 420.42714,498.68947 C 420.42714,497.36236 421.5861,497.36236 422.23465,497.36236 C 427.48302,497.36236 433.74625,491.4174 433.74625,483.76702 C 433.74625,478.20037 430.63565,476.24274 426.9726,476.24274 z M 423.53773,482.49996 C 424.27635,482.49996 424.55258,483.64091 424.60062,484.4636 C 424.74474,487.49613 422.46884,492.17403 421.17176,492.17403 C 420.51721,492.17403 420.33106,491.16519 420.33106,490.40856 C 420.33106,488.38487 421.63414,482.49996 423.53773,482.49996" id="path125" style="fill:#231f20;fill-opacity:1;fill-rule:nonzero;stroke:none"/>
    <path d="M 391.57907,357.82394 L 394.72569,357.82394 C 396.06481,357.82394 396.98958,357.92002 397.488,358.11818 C 397.98641,358.31034 398.37674,358.60459 398.66498,359.00092 C 398.95322,359.39725 399.09134,359.84162 399.09134,360.34004 C 399.09134,361.12069 398.79709,361.74521 398.2146,362.2196 C 397.63212,362.688 396.53921,362.92219 394.94187,362.92219 L 391.57907,362.92219 L 391.57907,357.82394 z M 391.57907,372.49418 L 391.57907,365.26414 L 393.18841,365.26414 C 394.14921,365.27615 394.87582,365.48633 395.36823,365.88266 C 396.05881,366.41711 397.00159,367.7322 398.19659,369.81594 L 399.70385,372.49418 L 403.06065,372.49418 L 400.98892,369.1674 C 399.99809,367.60009 399.1694,366.47716 398.49083,365.8046 C 398.12453,365.45631 397.64413,365.16206 397.05564,364.90985 C 398.52686,364.79575 399.70985,364.27932 400.59859,363.35455 C 401.48133,362.43579 401.9257,361.34888 401.9257,360.09984 C 401.9257,359.2231 401.66148,358.38841 401.13304,357.60175 C 400.6046,356.8211 399.89601,356.26864 399.00727,355.95638 C 398.11852,355.64412 396.68933,355.48198 394.70167,355.48198 L 388.88282,355.48198 L 388.88282,372.49418 L 391.57907,372.49418 z M 388.08415,349.94536 C 385.58006,351.31451 383.62243,353.26613 382.21125,355.80625 C 380.80608,358.34637 380.09749,360.99458 380.09749,363.75088 C 380.09749,366.47716 380.79407,369.10135 382.18123,371.62345 C 383.56838,374.13955 385.508,376.09718 387.99408,377.49035 C 390.47415,378.88351 393.07431,379.58009 395.78257,379.58009 C 398.49083,379.58009 401.085,378.88351 403.57107,377.49035 C 406.05715,376.09718 407.98476,374.13955 409.3599,371.62345 C 410.73505,369.10135 411.41962,366.47716 411.41962,363.75088 C 411.41962,360.99458 410.72905,358.34637 409.32988,355.80625 C 407.93071,353.26613 405.97908,351.31451 403.47499,349.94536 C 400.9709,348.58223 398.40676,347.90366 395.78257,347.90366 C 393.15839,347.90366 390.58824,348.58223 388.08415,349.94536 z M 402.17791,352.23327 C 404.26765,353.37422 405.89501,355.00759 407.05998,357.12736 C 408.21895,359.24712 408.80144,361.45697 408.80144,363.75088 C 408.80144,366.03279 408.22496,368.21861 407.078,370.31436 C 405.93104,372.4041 404.3217,374.03146 402.25598,375.20244 C 400.19025,376.37341 398.02244,376.9559 395.77056,376.9559 C 393.51869,376.9559 391.35088,376.37341 389.27915,375.20244 C 387.20141,374.03146 385.59207,372.4041 384.44512,370.31436 C 383.29816,368.21861 382.71567,366.03279 382.71567,363.75088 C 382.71567,361.45697 383.30416,359.24712 384.47514,357.12736 C 385.64011,355.00759 387.26747,353.37422 389.35121,352.23327 C 391.42894,351.09232 393.57273,350.52184 395.77056,350.52184 C 397.95639,350.52184 400.09417,351.09232 402.17791,352.23327" id="path127" style="fill:#231f20;fill-opacity:1;fill-rule:nonzero;stroke:none"/>
  </g>
</svg>