<svg width="42" height="35" viewBox="0 0 42 35" fill="none" xmlns="http://www.w3.org/2000/svg">
<path d="M25 18.3539V9.85388L34 10.3539L36 18.3539H25Z" fill="#FFDC00"/>
<path d="M36.9805 17.6305L36.041 12.8511C35.7838 11.5096 35.34 10.4854 34.684 9.71988C33.8385 8.73305 32.6525 8.21141 31.2539 8.21141H25.7578V1.64062C25.7578 0.734508 25.0233 0 24.1172 0H1.64062C0.734508 0 0 0.734508 0 1.64062V24.8637C0 28.439 2.87446 31.3537 6.43347 31.4229C7.10981 33.3341 8.93427 34.7074 11.0742 34.7074C13.213 34.7074 15.0366 33.3357 15.7139 31.4262H25.8759C26.5532 33.3357 28.3768 34.7074 30.5156 34.7074C32.6544 34.7074 34.478 33.3357 35.1553 31.4262H40.3594C41.2655 31.4262 42 30.6917 42 29.7855V23.8793C42 20.8245 39.848 18.2629 36.9805 17.6305ZM31.2539 11.4926C31.7546 11.4926 32.4403 11.4926 32.8191 13.4723C32.8196 13.475 32.8202 13.4777 32.8207 13.4805L33.6232 17.5629H25.7578V11.4926H31.2539ZM11.0742 31.4262C10.1696 31.4262 9.43359 30.6902 9.43359 29.7855C9.43359 28.8809 10.1696 28.1449 11.0742 28.1449C11.9789 28.1449 12.7148 28.8809 12.7148 29.7855C12.7148 30.6902 11.9789 31.4262 11.0742 31.4262ZM30.5156 31.4262C29.611 31.4262 28.875 30.6902 28.875 29.7855C28.875 28.8809 29.611 28.1449 30.5156 28.1449C31.4203 28.1449 32.1562 28.8809 32.1562 29.7855C32.1562 30.6902 31.4203 31.4262 30.5156 31.4262ZM38.7188 28.1449H35.1553C34.4781 26.2354 32.6544 24.8637 30.5156 24.8637C28.3768 24.8637 26.5533 26.2354 25.8759 28.1449H15.7139C15.0367 26.2354 13.213 24.8637 11.0742 24.8637C8.93665 24.8637 7.11383 26.2338 6.43568 28.1417C4.68497 28.0748 3.28125 26.6305 3.28125 24.8637V3.28125H22.4766V17.5629H8.20312C7.29701 17.5629 6.5625 18.2974 6.5625 19.2035C6.5625 20.1096 7.29701 20.8441 8.20312 20.8441H35.5195C35.6716 20.8441 35.8182 20.8218 35.958 20.7831C37.5094 20.9606 38.7188 22.2811 38.7188 23.8793V28.1449Z" fill="black"/>
</svg>
