<svg width="42" height="42" viewBox="0 0 42 42" fill="none" xmlns="http://www.w3.org/2000/svg">
<path d="M38.4243 3.0861V38.9096C38.4243 39.933 37.5947 40.7626 36.5713 40.7626H8.7772C7.75382 40.7626 6.92426 39.933 6.92426 38.9096V9.75668L15.4416 1.23315H36.5713C37.5947 1.23315 38.4243 2.06278 38.4243 3.0861Z" fill="white"/>
<path d="M38.4231 3.0861V38.9096C38.4231 39.9349 37.5954 40.7626 36.5702 40.7626H8.77604C7.75074 40.7626 6.9231 39.9349 6.9231 38.9096V36.9949L7.02192 37.0505C41.0357 38.0511 30.7519 1.23315 30.7519 1.23315H36.5702C37.5954 1.23315 38.4231 2.06086 38.4231 3.0861Z" fill="#F2F2F2"/>
<path d="M15.4416 1.23315V8.52139C15.4416 9.20364 14.8886 9.75668 14.2063 9.75668H6.92426L15.4416 1.23315Z" fill="#F2F2F2"/>
<path d="M27.6747 21.1647V31.6647C27.6747 32.3441 27.125 32.9 26.4395 32.9H5.4271C4.4018 32.9 3.57416 32.0724 3.57416 31.0471V18.3792L3.60504 18.3915C3.6668 18.7744 3.8521 19.1203 4.11769 19.3859C4.45122 19.7194 4.91445 19.9294 5.4271 19.9294H26.4395C27.125 19.9294 27.6747 20.4791 27.6747 21.1647Z" fill="#FFDC00"/>
<path opacity="0.1" d="M27.6761 21.1647V31.6647C27.6761 32.3441 27.1264 32.9 26.4408 32.9H5.42228C4.40316 32.9 3.56934 32.0724 3.56934 31.0471V30.028C24.2296 31.5103 25.1067 19.9294 25.1067 19.9294H26.4408C27.1264 19.9294 27.6761 20.4791 27.6761 21.1647Z" fill="black"/>
<path d="M6.9218 16.2112V19.9294H5.4271C4.91445 19.9294 4.45122 19.7194 4.11769 19.3859C3.78416 19.0462 3.57416 18.5829 3.57416 18.0703C3.57416 17.045 4.4018 16.2112 5.4271 16.2112H6.9218Z" fill="#E5C600"/>
<path d="M36.5739 0.617853H15.4442C15.2836 0.611677 15.123 0.673442 15.0057 0.796971L6.48832 9.3205C6.37097 9.43785 6.30921 9.59844 6.30921 9.75903V15.5958H5.42597C4.06715 15.5958 2.95538 16.7076 2.95538 18.0726V31.0431C2.95538 32.4081 4.06097 33.5137 5.42597 33.5137H6.30921V38.912C6.30921 40.2708 7.4148 41.3826 8.7798 41.3826H36.5739C37.9327 41.3826 39.0445 40.2708 39.0445 38.912V3.08844C39.0445 1.7235 37.9327 0.617853 36.5739 0.617853ZM14.8266 2.72409V8.5238C14.8266 8.8635 14.5486 9.14145 14.2089 9.14145H8.41538L14.8266 2.72409ZM5.42597 16.8311H6.30303C6.30303 16.9474 6.30303 19.4193 6.30303 19.314H5.42597C4.5869 19.314 4.07864 18.4618 4.19679 17.9861C4.24009 17.3376 4.77744 16.8311 5.42597 16.8311ZM5.42597 32.2785C4.74038 32.2785 4.19068 31.7288 4.19068 31.0432V20.2097C4.56127 20.432 4.98744 20.5494 5.42597 20.5494C36.6194 20.5402 20.8324 20.545 26.4445 20.5432C26.7842 20.5432 27.0621 20.8211 27.0621 21.1609V31.6609C27.0621 32.0067 26.7842 32.2785 26.4445 32.2785C21.0781 32.2785 10.7707 32.2785 5.42597 32.2785ZM37.8092 38.912C37.8092 39.5914 37.2533 40.1473 36.5739 40.1473H8.7798C8.09421 40.1473 7.5445 39.5914 7.5445 38.912V33.5137H26.4445C27.4636 33.5137 28.2974 32.6861 28.2974 31.6608V21.1608C28.2974 20.1417 27.4636 19.3079 26.4445 19.3079H7.5445V10.3767H14.2089C15.228 10.3767 16.0619 9.54285 16.0619 8.52374V1.85315H36.5739C37.2533 1.85315 37.8092 2.40285 37.8092 3.08844V38.912Z" fill="black"/>
<path d="M12.2905 25.5967C12.2905 26.9696 11.4119 27.4125 10.0446 27.4125H9.12569V28.9319H8.2511V23.751H10.0299C11.4152 23.751 12.2905 24.2002 12.2905 25.5967ZM11.3936 25.5262C11.3936 24.7209 10.8264 24.5442 10.0151 24.5442H9.12569V26.6195H10.1411C10.9764 26.6194 11.3936 26.3616 11.3936 25.5262Z" fill="black"/>
<path d="M17.9903 26.3157C17.9903 27.9289 17.0333 28.9319 15.0405 28.9319H13.3209V23.751H15.0996C16.861 23.751 17.9903 24.6191 17.9903 26.3157ZM17.1082 26.3377C17.1082 25.1519 16.4287 24.5589 15.0701 24.5589H14.1955V28.1092H15.1663C16.3881 28.1092 17.1082 27.5357 17.1082 26.3377Z" fill="black"/>
<path d="M19.9911 24.5666V25.9894H22.2886V26.7974H19.9911V28.932H19.1165V23.7511H22.5703L22.563 24.5666H19.9911Z" fill="black"/>
</svg>
