<svg width="112" height="21" viewBox="0 0 112 21" fill="none" xmlns="http://www.w3.org/2000/svg">
<path fill-rule="evenodd" clip-rule="evenodd" d="M0 5.87171V11.7434H0.402099C0.623213 11.7434 0.932984 11.6724 1.09062 11.5856C1.6518 11.2764 2.82321 10.4367 3.03174 10.1941C3.14846 10.0584 3.28708 9.94737 3.3398 9.94737C3.43187 9.94737 3.86977 9.47818 4.36577 8.84818C4.49469 8.68433 4.75357 8.19622 4.94085 7.76364C5.12813 7.33093 5.33233 6.86907 5.39475 6.73713C5.45718 6.60519 5.5082 6.37198 5.5082 6.21904C5.5082 6.06596 5.56721 5.94079 5.63934 5.94079C5.71147 5.94079 5.77049 5.81645 5.77049 5.66447C5.77049 5.5125 5.82951 5.38816 5.90164 5.38816C5.97377 5.38816 6.03279 5.28993 6.03279 5.16987C6.03279 4.9426 7.4977 3.31579 7.70243 3.31579C7.76682 3.31579 7.93377 3.20471 8.07357 3.06904C8.30964 2.84011 8.98216 2.47772 10.0984 1.97828C10.3508 1.86527 10.6598 1.71592 10.785 1.64629C10.9103 1.57666 11.1317 1.51974 11.2769 1.51974C11.4222 1.51974 11.541 1.45757 11.541 1.38158C11.541 1.30559 11.718 1.24342 11.9344 1.24342C12.1508 1.24342 12.3279 1.18125 12.3279 1.10526C12.3279 1.02928 12.4762 0.967105 12.6576 0.967105C12.8388 0.967105 13.0897 0.910737 13.215 0.841934C13.3402 0.773132 13.8262 0.61121 14.2951 0.482309C14.7639 0.353408 15.2656 0.196322 15.4098 0.133322C15.5541 0.0703224 12.146 0.0145067 7.83607 0.00939485L0 0V5.87171ZM19.6721 0.155842C18.9709 0.340559 16.6438 0.853954 16.1639 0.929941C15.9296 0.966967 15.7377 1.05276 15.7377 1.12032C15.7377 1.18802 15.5311 1.24342 15.2787 1.24342C15.0262 1.24342 14.8197 1.30559 14.8197 1.38158C14.8197 1.45757 14.6426 1.51974 14.4262 1.51974C14.2098 1.51974 14.0328 1.56671 14.0328 1.62432C14.0328 1.6818 13.7996 1.80545 13.5148 1.89912C12.8397 2.121 11.4877 2.79037 11.4317 2.93033C11.4076 2.99029 11.2797 3.03947 11.1475 3.03947C11.0153 3.03947 10.8875 3.08976 10.8633 3.1511C10.8393 3.21259 10.5318 3.4697 10.1799 3.72253C9.39056 4.28994 8.31738 5.44743 8.09902 5.96732C8.00931 6.18063 7.89141 6.35526 7.83685 6.35526C7.78229 6.35526 7.7377 6.47961 7.7377 6.63158C7.7377 6.78355 7.69311 6.90789 7.63856 6.90789C7.584 6.90789 7.456 7.11002 7.35397 7.35691C7.25206 7.6038 7.12747 7.83701 7.07725 7.875C7.02715 7.91299 6.85731 8.21155 6.69993 8.53857C6.34925 9.26735 5.01652 10.6721 4.13167 11.2459C3.68629 11.5347 3.54767 11.6853 3.69862 11.7158C3.82072 11.7407 4.0379 11.6948 4.18125 11.614C4.32459 11.5331 4.63331 11.4671 4.86728 11.4671C5.10138 11.4671 5.4741 11.4088 5.69561 11.3375C5.91711 11.2664 6.54098 11.1086 7.08197 10.9871C7.62295 10.8656 8.21311 10.7135 8.39344 10.6491C8.57377 10.5847 8.98689 10.4519 9.31147 10.3538C9.63607 10.2559 9.95764 10.1242 10.0262 10.0615C10.0948 9.99876 10.2393 9.94737 10.3475 9.94737C10.6184 9.94737 13.1148 8.67687 13.1148 8.53899C13.1148 8.47778 13.2328 8.42763 13.377 8.42763C13.5213 8.42763 13.6393 8.36546 13.6393 8.28947C13.6393 8.21349 13.7005 8.15132 13.7752 8.15132C14.053 8.15132 16 6.10022 16 5.8076C16 5.72886 16.0443 5.66351 16.0984 5.66226C16.1524 5.66088 16.3738 5.27238 16.5902 4.79878C16.8066 4.32503 17.0279 3.91678 17.082 3.89149C17.136 3.86607 17.1803 3.72626 17.1803 3.58064C17.1803 3.43488 17.2294 3.31579 17.2893 3.31579C17.3492 3.31579 17.4813 3.14489 17.5828 2.93586C17.8269 2.43296 19.2138 1.01214 20.0102 0.449013C20.6605 -0.0107763 20.5776 -0.0827565 19.6721 0.155842ZM22.2951 0.62171C21.8262 0.953013 21.3933 1.2285 21.333 1.23375C21.2037 1.24522 19.8104 2.78927 19.8062 2.92605C19.8046 2.97758 19.7296 3.10192 19.6393 3.20236C19.409 3.45878 18.8852 4.54802 18.8852 4.77045C18.8852 5.06307 18.2076 6.63158 18.0812 6.63158C18.0185 6.63158 17.9672 6.70052 17.9672 6.78466C17.9672 6.96896 16.5822 8.42763 16.4072 8.42763C16.3395 8.42763 16.2645 8.48165 16.2404 8.54783C16.1869 8.69511 13.7074 9.94737 13.4694 9.94737C13.3753 9.94737 13.2422 9.99959 13.1738 10.0633C13.1053 10.1271 12.341 10.4106 11.4754 10.6933C10.6098 10.9761 9.76603 11.2658 9.60039 11.3372C9.43475 11.4087 9.16918 11.4681 9.01023 11.4692C8.85128 11.4704 8.63279 11.5316 8.52459 11.6053C8.39633 11.6926 11.0796 11.74 16.2295 11.7413L24.1311 11.7434V5.87171V0L23.6393 0.00967101C23.2864 0.0165789 22.9069 0.189414 22.2951 0.62171ZM30.5574 0.483553V0.967105H31.3302C31.914 0.967105 32.1226 1.02057 32.1827 1.18567C32.2265 1.30587 32.2623 3.41609 32.2623 5.87516C32.2623 10.3388 32.2618 10.3465 31.9708 10.5612C31.8105 10.6795 31.4269 10.7763 31.1183 10.7763C30.5647 10.7763 30.5574 10.7825 30.5574 11.2599V11.7434H33.2459C35.8088 11.7434 35.9344 11.731 35.9344 11.4784C35.9344 11.3327 35.9702 11.1151 36.014 10.9949C36.0774 10.8208 35.9986 10.7763 35.6268 10.7763C35.37 10.7763 35.0096 10.7042 34.8258 10.6159L34.4918 10.4557V8.26723V6.07895H35.4574H36.4232L36.5845 6.94243C36.7858 8.0202 37.1327 9.11842 37.2719 9.11842C37.3297 9.11842 37.377 9.19952 37.377 9.29872C37.377 9.67478 38.9812 11.1908 39.3793 11.1908C39.4803 11.1908 39.605 11.2353 39.6567 11.2896C39.8536 11.4971 41.0206 11.7315 41.8864 11.7373C43.5672 11.7487 44.8599 11.2089 45.9369 10.0463C47.07 8.8229 47.3882 7.854 47.3877 5.62869C47.3875 4.73522 47.3289 3.86483 47.2574 3.69448C46.3574 1.55041 45.6016 0.806428 43.6628 0.156947C43.0159 -0.0598224 41.1196 -0.0368882 40.3279 0.197151C39.4277 0.46352 38.8197 0.730303 38.8197 0.859204C38.8197 0.918612 38.7591 0.967105 38.6851 0.967105C38.5098 0.967105 37.377 2.16037 37.377 2.34509C37.377 2.42301 37.3249 2.48684 37.2612 2.48684C37.1975 2.48684 37.1149 2.6268 37.0778 2.7977C37.0407 2.9686 36.9448 3.29507 36.8649 3.52303C36.7852 3.75099 36.6589 4.20166 36.5844 4.52467L36.4489 5.11184H35.4669H34.4848L34.521 3.07401L34.5574 1.03618L35.2459 0.99446L35.9344 0.952599V0.476368V0H33.2459H30.5574V0.483553ZM48.3934 0.476368V0.952599L49.082 0.99446L49.7705 1.03618L49.805 5.74516L49.8395 10.454L49.5037 10.6152C49.3191 10.7038 48.9642 10.7763 48.7151 10.7763C48.285 10.7763 48.2623 10.8006 48.2623 11.2599V11.7434H50.9508H53.6393V11.2778C53.6393 10.8258 53.6215 10.8102 53.0244 10.7393C52.6467 10.6944 52.3431 10.5706 52.2375 10.4185C52.0066 10.0859 51.9941 6.62398 52.2229 6.38289C52.4438 6.15024 56.6709 6.15024 56.8918 6.38289C57.0553 6.55518 57.1186 9.59203 56.9708 10.1723C56.8792 10.5314 56.4033 10.7763 55.7971 10.7763C55.3669 10.7763 55.3443 10.8006 55.3443 11.2599V11.7434H58.0328H60.7213V11.2599C60.7213 10.8164 60.6892 10.7763 60.334 10.7763C60.121 10.7763 59.7965 10.7042 59.6127 10.6159L59.2787 10.4557V5.71131V0.967105H60H60.7213V0.483553V0H58.0328C55.4699 0 55.3443 0.0124341 55.3443 0.264987C55.3443 0.845941 55.4821 0.967105 56.1427 0.967105C56.7287 0.967105 56.7902 0.998743 56.8805 1.34704C56.9347 1.55593 56.9801 2.47303 56.9814 3.38487L56.9836 5.04276H54.5574H52.1311L52.0932 3.31579C52.0413 0.950388 52.0354 0.967105 52.9205 0.967105H53.6393V0.483553V0H51.0164H48.3934V0.476368ZM62.4262 0.476368V0.952599L63.1147 0.99446L63.8033 1.03618L63.8378 5.74516L63.8723 10.454L63.5365 10.6152C63.3519 10.7038 62.997 10.7763 62.7479 10.7763C62.3178 10.7763 62.2951 10.8006 62.2951 11.2599V11.7434H65.0492H67.8033V11.2599C67.8033 10.7887 67.7899 10.7763 67.2849 10.7763C66.5844 10.7763 66.0981 10.5262 66.0997 10.1669C66.1009 9.89943 66.6413 9.05363 67.2738 8.32899C67.4209 8.16071 67.541 7.95859 67.541 7.87997C67.541 7.80122 67.5873 7.73684 67.6438 7.73684C67.7005 7.73684 67.8428 7.56594 67.9601 7.35691C68.0775 7.14787 68.2821 6.84213 68.4147 6.67731C68.5473 6.51249 68.7701 6.21324 68.9099 6.01236C69.0496 5.81134 69.2709 5.51706 69.4017 5.35832C69.5323 5.19943 69.6393 5.0266 69.6393 4.9741C69.6393 4.92146 69.7898 4.69792 69.9738 4.47714C70.1576 4.25623 70.4064 3.90476 70.5266 3.69572C70.6468 3.48669 70.7913 3.31579 70.848 3.31579C70.9045 3.31579 70.9508 4.92229 70.9508 6.88565V10.4557L70.6168 10.6159C70.433 10.7042 70.1085 10.7763 69.8955 10.7763C69.5403 10.7763 69.5082 10.8164 69.5082 11.2599V11.7434H72.1967H74.8852V11.2599C74.8852 10.7825 74.8779 10.7763 74.3243 10.7763C74.0157 10.7763 73.6321 10.6795 73.4719 10.5612C73.1807 10.3464 73.1803 10.3408 73.1803 5.81175C73.1803 2.30461 73.2182 1.24411 73.3475 1.13096C73.4396 1.05055 73.8084 0.965309 74.1672 0.941408C74.7975 0.899546 74.8211 0.882829 74.8607 0.449013L74.9019 0H72.205H69.5082V0.483553V0.967105H70.2295C70.9168 0.967105 70.9508 0.983822 70.9508 1.32231C70.9508 1.5178 70.8771 1.75612 70.7869 1.85214C70.6968 1.94816 70.5049 2.19754 70.3606 2.40616C70.1028 2.77905 69.9318 3.00632 69.4754 3.58202C69.3492 3.74132 69.2459 3.93308 69.2459 4.0081C69.2459 4.08326 69.1869 4.14474 69.1148 4.14474C69.0426 4.14474 68.9836 4.21133 68.9836 4.2927C68.9836 4.37422 68.9099 4.52274 68.8197 4.6229C68.7296 4.72293 68.5415 4.97092 68.402 5.17374C68.2624 5.37669 68.0117 5.70993 67.8448 5.9144C67.6779 6.11887 67.5412 6.33343 67.5411 6.39105C67.5411 6.4488 67.3639 6.69112 67.1475 6.92958C66.9311 7.16818 66.7541 7.40678 66.7541 7.45984C66.7541 7.58777 66.2873 8.15132 66.1814 8.15132C66.0751 8.15132 66.0719 1.47691 66.178 1.18567C66.237 1.02375 66.4409 0.967105 66.9649 0.967105H67.6721V0.483553V0H65.0492H62.4262V0.476368ZM81.3443 0.269132C81.2542 0.423039 81.1803 0.642987 81.1803 0.757934C81.1803 0.87302 81.1213 0.967105 81.0492 0.967105C80.977 0.967105 80.918 1.06119 80.918 1.17628C80.918 1.29122 80.8637 1.49335 80.7974 1.62529C80.7309 1.75723 80.5137 2.30033 80.3148 2.83224C80.1157 3.36414 79.9044 3.85847 79.8452 3.93059C79.7861 4.00285 79.7377 4.17375 79.7377 4.31053C79.7377 4.4473 79.6787 4.55921 79.6066 4.55921C79.5344 4.55921 79.4754 4.67181 79.4754 4.80955C79.4754 4.9473 79.3574 5.31728 79.2131 5.63187C79.0688 5.94645 78.9508 6.3 78.9508 6.41771C78.9508 6.53528 78.8918 6.63158 78.8197 6.63158C78.7475 6.63158 78.6885 6.7171 78.6885 6.82168C78.6885 6.98775 78.5625 7.32485 77.882 8.98026C77.8038 9.17023 77.6877 9.43356 77.624 9.5655C77.5603 9.69744 77.5082 9.87677 77.5082 9.96381C77.5082 10.2591 76.96 10.6249 76.3803 10.7165C75.829 10.8037 75.8033 10.8285 75.8033 11.2756V11.7434H78.0328H80.2623V11.2599C80.2623 10.8386 80.2208 10.7763 79.9406 10.7763C79.1231 10.7763 78.739 10.2441 79.0666 9.5655C79.2264 9.23489 79.4094 8.75797 80.0607 6.97697C80.2552 6.44507 80.4686 5.90197 80.5351 5.77003C80.6014 5.63809 80.6557 5.43596 80.6557 5.32101C80.6557 5.20593 80.7148 5.11184 80.7869 5.11184C80.859 5.11184 80.918 4.98667 80.918 4.83359C80.918 4.68065 80.9701 4.44744 81.0338 4.3155C81.0976 4.18356 81.2256 3.90476 81.3183 3.69572C81.411 3.48669 81.528 3.31579 81.5781 3.31579C81.6796 3.31579 82.0984 4.40378 82.0984 4.66739C82.0984 4.75995 82.1574 4.83553 82.2295 4.83553C82.3016 4.83553 82.3606 4.95614 82.3606 5.10369C82.3606 5.25124 82.4197 5.41026 82.4918 5.45724C82.5639 5.50421 82.6229 5.66323 82.6229 5.81078C82.6229 5.95833 82.682 6.07895 82.7541 6.07895C82.8262 6.07895 82.8852 6.16143 82.8852 6.26242C82.8852 6.48416 83.6047 8.43661 83.9498 9.15103C84.0135 9.28297 84.0656 9.48509 84.0656 9.60004C84.0656 9.71513 84.1246 9.80921 84.1967 9.80921C84.2688 9.80921 84.3279 9.95469 84.3279 10.1324C84.3279 10.5029 83.8797 10.7763 83.2725 10.7763C82.9174 10.7763 82.8852 10.8164 82.8852 11.2599V11.7434H85.5651H88.2449L88.2995 11.3635L88.3541 10.9836L88.3738 11.3635L88.3934 11.7434H90.6229H92.8525V11.2599C92.8525 10.8444 92.809 10.7763 92.5441 10.7763C92.0716 10.7763 91.4098 10.4943 91.4098 10.2929C91.4098 10.1938 91.5822 9.68708 91.7929 9.16664L92.1759 8.22039L94.3382 8.18254L96.5005 8.14468L96.731 8.80425C96.8577 9.16705 97.0106 9.52281 97.0708 9.59507C97.131 9.66718 97.1803 9.89818 97.1803 10.1083C97.1803 10.5627 96.8686 10.7763 96.2054 10.7763C95.7583 10.7763 95.7377 10.7976 95.7377 11.2599V11.7434H98.4918H101.246V11.2926C101.246 10.8627 101.214 10.8337 100.557 10.6695C100.179 10.5749 99.8488 10.4347 99.8244 10.3581C99.7999 10.2814 99.6967 10.131 99.5949 10.0239C99.4931 9.9167 99.4098 9.76155 99.4098 9.67906C99.4098 9.59659 99.3578 9.42112 99.294 9.28918C99.2303 9.15724 99.1142 8.89391 99.0361 8.70395C98.3555 7.04854 98.2295 6.71143 98.2295 6.54537C98.2295 6.44078 98.1705 6.35526 98.0984 6.35526C98.0262 6.35526 97.9672 6.23009 97.9672 6.07701C97.9672 5.92407 97.9082 5.67539 97.8361 5.52438C97.7639 5.37351 97.6459 5.12649 97.5738 4.97562C97.5016 4.82461 97.4426 4.60701 97.4426 4.49207C97.4426 4.37698 97.3836 4.28289 97.3115 4.28289C97.2393 4.28289 97.1803 4.16228 97.1803 4.01473C97.1803 3.86718 97.1213 3.70816 97.0492 3.66118C96.977 3.61421 96.918 3.48586 96.918 3.37603C96.918 3.26619 96.7705 2.85407 96.5902 2.46032C96.4098 2.06657 96.2623 1.63164 96.2623 1.4939C96.2623 1.35616 96.2033 1.24342 96.1311 1.24342C96.059 1.24342 96 1.11908 96 0.967105C96 0.815132 95.941 0.690789 95.8689 0.690789C95.7967 0.690789 95.7377 0.535362 95.7377 0.345395C95.7377 0.013125 95.7061 0 94.9012 0C93.9791 0 93.9401 0.0287369 93.5852 0.967105C93.4559 1.30905 93.2972 1.69672 93.2324 1.82866C93.1677 1.9606 93.1147 2.16272 93.1147 2.27767C93.1147 2.39276 93.0557 2.48684 92.9836 2.48684C92.9115 2.48684 92.8525 2.60745 92.8525 2.75501C92.8525 2.90256 92.7934 3.06158 92.7213 3.10855C92.6492 3.15553 92.5902 3.34563 92.5902 3.53118C92.5902 3.71672 92.5311 3.86842 92.459 3.86842C92.3869 3.86842 92.3279 3.96251 92.3279 4.07759C92.3279 4.19254 92.2736 4.39466 92.2072 4.52661C92.1407 4.65855 91.9235 5.20164 91.7246 5.73355C91.5255 6.26546 91.3142 6.75965 91.2551 6.83191C91.1959 6.90416 91.1475 7.07507 91.1475 7.21184C91.1475 7.34862 91.0885 7.46053 91.0164 7.46053C90.9443 7.46053 90.8852 7.61595 90.8852 7.80592C90.8852 7.99589 90.8262 8.15132 90.7541 8.15132C90.682 8.15132 90.6229 8.24278 90.6229 8.35455C90.6229 8.71155 89.9757 10.1144 89.691 10.3746C89.1743 10.8466 87.6674 10.881 87.01 10.4358C86.8622 10.3356 86.6348 9.98274 86.5047 9.65157C86.3746 9.32027 86.2152 8.94144 86.1504 8.8095C86.0858 8.67756 86.0328 8.47543 86.0328 8.36049C86.0328 8.2454 85.9738 8.15132 85.9016 8.15132C85.8295 8.15132 85.7705 8.05723 85.7705 7.94214C85.7705 7.8272 85.7163 7.62507 85.6501 7.49313C85.3557 6.90679 84.9667 5.88635 84.8964 5.51609C84.8542 5.2938 84.768 5.11184 84.7049 5.11184C84.6418 5.11184 84.5902 4.9875 84.5902 4.83553C84.5902 4.68355 84.5311 4.55921 84.459 4.55921C84.3869 4.55921 84.3279 4.40378 84.3279 4.21382C84.3279 4.02385 84.2688 3.86842 84.1967 3.86842C84.1246 3.86842 84.0656 3.77696 84.0656 3.66533C84.0656 3.55356 83.918 3.12237 83.7377 2.70707C83.5574 2.29176 83.4098 1.89746 83.4098 1.83087C83.4098 1.71661 83.002 0.727401 82.7688 0.276316C82.7045 0.152112 82.4307 0.0531908 82.085 0.0292895C81.6224 -0.00262502 81.4757 0.0449013 81.3443 0.269132ZM101.902 0.476368V0.952599L102.59 0.99446L103.279 1.03618L103.313 5.74516L103.348 10.454L103.012 10.6152C102.827 10.7038 102.472 10.7763 102.223 10.7763C101.793 10.7763 101.77 10.8006 101.77 11.2599V11.7434H105.144C108.251 11.7434 108.589 11.7195 109.428 11.4406C111.415 10.7799 112.394 8.90773 111.811 6.88275C111.614 6.20094 111.028 5.38816 110.732 5.38816C110.636 5.38816 110.557 5.32599 110.557 5.25C110.557 5.17401 110.439 5.11184 110.295 5.11184C110.151 5.11184 110.033 5.04967 110.033 4.97368C110.033 4.8977 109.83 4.83553 109.582 4.83553C109.333 4.83553 109.094 4.77336 109.049 4.69737C109.002 4.61724 108.281 4.55921 107.333 4.55921H105.697L105.734 2.7977L105.77 1.03618L107.136 0.996533C107.956 0.97277 108.556 1.01422 108.638 1.10015C108.713 1.1789 108.886 1.24342 109.023 1.24342C109.39 1.24342 110.009 2.01393 110.171 2.67225C110.494 3.98392 110.465 3.9375 110.954 3.9375H111.41L111.446 1.96875L111.483 0H106.692H101.902V0.476368ZM42.7672 0.849395C44.4466 1.37951 45.3047 4.01957 44.8366 7.21613C44.7557 7.76848 44.6455 8.34474 44.5919 8.49671C44.3991 9.04174 44.1284 9.60501 43.9789 9.77218C43.8952 9.86586 43.8067 9.99241 43.7822 10.0535C43.7578 10.1145 43.5545 10.3001 43.3305 10.4656C42.4443 11.1206 41.1053 10.9813 40.3597 10.1565C39.7111 9.43895 39.6066 9.28614 39.6066 9.05514C39.6066 8.93799 39.5475 8.8421 39.4754 8.8421C39.4033 8.8421 39.3443 8.71362 39.3443 8.55667C39.3443 8.39972 39.281 8.14689 39.2038 7.99492C39.0104 7.61402 39.0258 3.99774 39.2237 3.3477C39.5297 2.34219 39.6492 2.11824 40.2456 1.43062C40.8363 0.749645 41.7696 0.534533 42.7672 0.849395ZM94.5574 3.24864C94.5574 3.36359 94.6114 3.56572 94.6775 3.69766C94.7436 3.8296 94.8951 4.18618 95.0143 4.49013C95.4081 5.49509 95.5049 5.7312 95.6219 5.97339C95.6856 6.10534 95.7377 6.30746 95.7377 6.42241C95.7377 6.53749 95.7967 6.63158 95.8689 6.63158C95.941 6.63158 96 6.72484 96 6.83882C96 7.01151 95.7377 7.04605 94.4262 7.04605C92.565 7.04605 92.6104 7.11361 93.3115 5.38816C93.5639 4.76686 93.7705 4.17071 93.7705 4.06336C93.7705 3.95615 93.8295 3.86842 93.9016 3.86842C93.9738 3.86842 94.0328 3.75651 94.0328 3.61974C94.0328 3.36345 94.2671 3.03947 94.4525 3.03947C94.5102 3.03947 94.5574 3.13356 94.5574 3.24864ZM108.656 5.96137C110.28 6.73174 110.656 8.71085 109.425 10.0076C109.064 10.3877 108.867 10.4735 108.184 10.5488C107.163 10.6611 106.182 10.6634 105.912 10.5543C105.734 10.4822 105.705 10.1295 105.705 8.04742V5.62427L106.984 5.69957C107.687 5.74087 108.439 5.85872 108.656 5.96137ZM10.7819 16.1823C10.0969 16.3904 9.55161 17.5397 10.0435 17.7385C10.4096 17.8865 10.6228 17.8287 10.6271 17.5806C10.6348 17.1375 10.9569 16.8553 11.4546 16.8553C11.8523 16.8553 11.9428 16.9116 12.0122 17.2025C12.1141 17.6302 11.8766 17.9605 11.4671 17.9605C11.0889 17.9605 10.968 18.1533 11.0721 18.5901C11.1355 18.8558 11.2378 18.9276 11.5528 18.9276C11.9845 18.9276 12.3279 19.1952 12.3279 19.5317C12.3279 19.7976 11.8266 20.1724 11.4789 20.1665C11.141 20.1606 10.623 19.7111 10.623 19.4236C10.623 19.2726 10.5023 19.2039 10.2372 19.2039C9.72747 19.2039 9.64826 19.3786 9.91331 19.9185C10.1913 20.4849 10.4184 20.7237 10.6792 20.7237C10.7925 20.7237 10.8852 20.7859 10.8852 20.8618C10.8852 20.9378 11.1178 21 11.4021 21C11.6864 21 11.9554 20.9378 12 20.8618C12.0446 20.7859 12.1688 20.7237 12.2759 20.7237C12.3832 20.7237 12.6157 20.571 12.7928 20.3845C13.2683 19.8837 13.1999 18.75 12.6689 18.33C12.5662 18.2487 12.5718 18.1957 12.6885 18.1458C12.927 18.0438 12.9015 16.749 12.656 16.4904C12.4494 16.2728 11.746 16.0176 11.4108 16.0387C11.302 16.0457 11.019 16.1102 10.7819 16.1823ZM30.7403 16.1757C30.2872 16.3142 29.6393 16.9283 29.6393 17.2194C29.6393 17.3231 29.5803 17.4079 29.5082 17.4079C29.4333 17.4079 29.377 17.8196 29.377 18.3668C29.377 18.8943 29.4361 19.3642 29.5082 19.4112C29.5803 19.4582 29.6393 19.5909 29.6393 19.7063C29.6393 19.9823 30.3487 20.7237 30.6129 20.7237C30.7266 20.7237 30.8197 20.7859 30.8197 20.8618C30.8197 20.9378 31.0817 21 31.4021 21C31.7225 21 32.021 20.9378 32.0656 20.8618C32.1102 20.7859 32.2582 20.7237 32.3945 20.7237C32.6525 20.7237 33.2235 20.0287 33.3595 19.5493C33.418 19.3427 33.3511 19.2305 33.0939 19.1042C32.7078 18.9146 32.5246 18.9775 32.5246 19.2997C32.5246 19.6013 31.8644 20.1706 31.5144 20.1709C31.0721 20.1712 30.6043 19.8998 30.4194 19.5361C30.3277 19.3555 30.256 18.8377 30.2601 18.3852C30.2696 17.3145 30.6427 16.855 31.5023 16.8557C31.9819 16.856 32.1045 16.9176 32.3279 17.2697C32.6205 17.7312 33.3115 17.8704 33.3115 17.4679C33.3115 16.8859 32.8073 16.3108 32.1582 16.1519C31.569 16.0077 31.2737 16.0126 30.7403 16.1757ZM75.1243 16.154C74.6569 16.3129 73.8361 17.1913 73.8361 17.5325C73.8361 17.682 73.7827 17.9522 73.7175 18.1329C73.5887 18.4899 73.8007 19.7566 73.9892 19.7566C74.0493 19.7566 74.0984 19.8215 74.0984 19.901C74.0984 20.1528 74.7313 20.7237 75.0105 20.7237C75.158 20.7237 75.2787 20.7859 75.2787 20.8618C75.2787 20.9378 75.5112 21 75.7955 21C76.0799 21 76.3488 20.9378 76.3934 20.8618C76.438 20.7859 76.5985 20.7237 76.7502 20.7237C77.0437 20.7237 77.7705 19.9678 77.7705 19.6626C77.7705 19.5623 77.8295 19.4803 77.9016 19.4803C77.9755 19.4803 78.0328 19.0931 78.0328 18.5954C78.0328 17.5597 77.6939 16.7541 77.1039 16.3869C76.6564 16.1084 75.6178 15.9862 75.1243 16.154ZM93.9213 16.1845C93.4711 16.321 93.0445 16.7072 92.7541 17.241C92.5786 17.5635 92.5226 19.6184 92.6893 19.6184C92.7439 19.6184 92.8668 19.8049 92.9626 20.0329C93.0584 20.2609 93.2203 20.4474 93.3225 20.4474C93.4247 20.4474 93.5082 20.4943 93.5082 20.552C93.5082 20.6786 94.4486 21 94.8194 21C94.9658 21 95.1881 20.9452 95.3133 20.878C95.4385 20.8109 95.6957 20.6803 95.8848 20.5877C96.4228 20.3247 96.8134 19.4608 96.8113 18.5389C96.8103 18.1068 96.7461 17.5802 96.6686 17.3688C96.2779 16.3021 95.1445 15.8136 93.9213 16.1845ZM0 18.4359C0 19.8826 0.0503606 20.7401 0.138623 20.7976C0.21482 20.8472 0.421377 20.8497 0.597639 20.8031C0.901639 20.7227 0.918033 20.6657 0.918033 19.6849V18.6513H1.71423C2.75685 18.6513 2.88525 18.7951 2.88525 19.9631V20.8802L3.2459 20.8364L3.60656 20.7928L3.64249 18.4786L3.67843 16.1645H3.28184C2.88538 16.1645 2.88525 16.1646 2.88525 16.9786C2.88525 17.9256 2.84289 17.9605 1.69416 17.9605H0.918033V17.0625V16.1645H0.459016H0V18.4359ZM5.27554 18.4786L5.31148 20.7928H6.95082H8.59016V20.4474C8.59016 20.1053 8.57797 20.1016 7.31147 20.0625L6.03279 20.0229V19.4807V18.9384L7.18033 18.8985L8.32787 18.8586V18.4441V18.0296L7.18033 17.9897L6.03279 17.9497V17.4025V16.8553H7.27869C8.52026 16.8553 8.52459 16.854 8.52459 16.5099V16.1645H6.8821H5.23961L5.27554 18.4786ZM15.6489 16.3372C15.5175 16.5549 14.9441 18.2023 14.8555 18.6168C14.819 18.7878 14.7369 18.9276 14.6732 18.9276C14.6096 18.9276 14.5574 19.0831 14.5574 19.273C14.5574 19.463 14.4984 19.6184 14.4262 19.6184C14.3541 19.6184 14.2951 19.7701 14.2951 19.9557C14.2951 20.1412 14.2361 20.3313 14.1639 20.3783C13.8734 20.5674 14.0376 20.8618 14.4334 20.8618C14.7906 20.8618 14.8639 20.7867 15.1068 20.1711L15.3793 19.4803H16.1264C16.7738 19.4803 16.8919 19.5218 17.0094 19.7911C17.466 20.8364 17.4862 20.8618 17.8582 20.8618C18.1668 20.8618 18.2295 20.8035 18.2295 20.5164C18.2295 20.3265 18.1705 20.1711 18.0984 20.1711C18.0262 20.1711 17.9672 20.0156 17.9672 19.8257C17.9672 19.6357 17.9082 19.4803 17.8361 19.4803C17.7639 19.4803 17.7049 19.3862 17.7049 19.2711C17.7049 19.1561 17.6529 18.954 17.5891 18.8221C17.5254 18.6901 17.4152 18.4268 17.3443 18.2368C16.5778 16.1831 16.5671 16.1645 16.141 16.1645C15.9277 16.1645 15.7062 16.2423 15.6489 16.3372ZM19.4098 18.5214V20.9034L20.7854 20.8214C22.0252 20.7474 22.1936 20.705 22.4904 20.3924C22.939 19.9197 22.96 18.8811 22.5288 18.487C22.2946 18.273 22.2733 18.1983 22.4195 18.1031C22.6969 17.9224 22.6552 16.8006 22.3595 16.4885C22.1628 16.2809 21.8658 16.2248 20.7638 16.1864L19.4098 16.1393V18.5214ZM24.2623 18.4293C24.2623 20.8668 24.291 20.9635 24.9618 20.7861C25.1959 20.7242 25.7209 20.0007 25.9538 19.4191C25.9824 19.3474 26.13 19.1531 26.2817 18.9875C26.4333 18.8218 26.6754 18.4763 26.8197 18.2197L27.082 17.7533L27.1475 19.273L27.2131 20.7928L27.5738 20.8364L27.9344 20.8802V18.5136V16.1469L27.5124 16.1903C27.1984 16.2225 27.0132 16.3575 26.7895 16.7171C26.3647 17.4 26.0591 17.8399 25.8689 18.0426C25.7788 18.1386 25.7049 18.2866 25.7049 18.3714C25.7049 18.4562 25.5574 18.6812 25.377 18.8711L25.0492 19.2165V17.6904V16.1645H24.6557H24.2623V18.4293ZM34.7541 18.4293C34.7541 20.7403 34.7798 20.8618 35.2694 20.8618C35.4354 20.8618 35.9344 20.3573 35.9344 20.1894C35.9344 20.1034 35.9934 20.0329 36.0656 20.0329C36.1377 20.0329 36.1967 19.9396 36.1967 19.8257C36.1967 19.7117 36.2557 19.6184 36.3279 19.6184C36.4 19.6184 36.459 19.5252 36.459 19.4112C36.459 19.2972 36.5032 19.2027 36.5574 19.2012C36.6115 19.1997 36.8303 18.8888 37.0435 18.5104C37.2568 18.132 37.478 17.8224 37.5353 17.8224C37.5925 17.8224 37.6393 18.5104 37.6393 19.3512V20.8802L38 20.8364L38.3607 20.7928L38.3966 18.4786L38.4325 16.1645H38.041C37.6397 16.1645 37.1148 16.6099 37.1148 16.9505C37.1148 17.0501 37.0691 17.1316 37.0134 17.1316C36.9576 17.1316 36.8009 17.3492 36.6649 17.6151C36.5289 17.8811 36.368 18.0987 36.3073 18.0987C36.2464 18.0987 36.1966 18.1765 36.1966 18.2714C36.1965 18.3664 36.0489 18.6247 35.8687 18.8456L35.541 19.2469V17.7058V16.1645H35.1475H34.7541V18.4293ZM40 18.4359C40 19.8146 40.0521 20.7412 40.1323 20.7936C40.2051 20.8408 40.3822 20.8404 40.5258 20.7923C40.7608 20.7137 40.7869 20.5819 40.7869 19.471C40.7869 18.7403 40.8404 18.2368 40.918 18.2368C40.9902 18.2368 41.0492 18.3923 41.0492 18.5822C41.0492 18.7722 41.1082 18.9276 41.1803 18.9276C41.2525 18.9276 41.3115 19.0839 41.3115 19.275C41.3115 19.4659 41.3642 19.7302 41.4285 19.8621C41.4929 19.9941 41.6097 20.273 41.688 20.4819C41.7908 20.7563 41.9224 20.8618 42.1612 20.8618C42.3676 20.8618 42.4918 20.7841 42.4918 20.6546C42.4918 20.5406 42.5508 20.4474 42.6229 20.4474C42.6951 20.4474 42.7541 20.2957 42.7541 20.1101C42.7541 19.9246 42.8131 19.7345 42.8852 19.6875C42.9574 19.6405 43.0164 19.454 43.0164 19.273C43.0164 19.092 43.0754 18.9055 43.1475 18.8586C43.2197 18.8116 43.2796 18.6369 43.2807 18.4705C43.2824 18.2244 43.3065 18.2066 43.4098 18.375C43.4797 18.489 43.5378 19.0992 43.539 19.7312L43.541 20.8802L43.9016 20.8364L44.2623 20.7928L44.2982 18.4786L44.3342 16.1645H43.8059C43.2906 16.1645 43.2738 16.1798 43.1199 16.7862C43.033 17.1281 42.9153 17.4079 42.8581 17.4079C42.8009 17.4079 42.7541 17.5642 42.7541 17.7552C42.7541 17.9462 42.7022 18.2105 42.6387 18.3424C42.5752 18.4743 42.4379 18.7958 42.3335 19.0568L42.1437 19.5314L41.8341 18.5042C41.6639 17.9392 41.4766 17.4178 41.418 17.3457C41.3593 17.2736 41.3115 17.0715 41.3115 16.8967C41.3115 16.7219 41.2525 16.5789 41.1803 16.5789C41.1082 16.5789 41.0492 16.4857 41.0492 16.3717C41.0492 16.2221 40.9035 16.1645 40.5246 16.1645H40V18.4359ZM46.9624 16.4753C46.8997 16.6464 46.7473 17.066 46.6239 17.4079C46.5003 17.7498 46.3464 18.1375 46.2816 18.2694C46.2169 18.4014 46.1639 18.6035 46.1639 18.7185C46.1639 18.8335 46.1049 18.9276 46.0328 18.9276C45.9607 18.9276 45.9016 19.0528 45.9016 19.2059C45.9016 19.3588 45.8426 19.6075 45.7705 19.7585C45.6984 19.9094 45.5784 20.1597 45.5037 20.3149C45.3397 20.656 45.4389 20.8618 45.7675 20.8618C46.1727 20.8618 46.4262 20.7072 46.4262 20.4601C46.4262 20.3315 46.5001 20.0589 46.5902 19.8543C46.7401 19.5141 46.8182 19.4823 47.5057 19.4814L48.2572 19.4803L48.5549 20.1365C48.7895 20.6541 48.9287 20.802 49.2131 20.8364C49.5043 20.8718 49.5738 20.8248 49.5738 20.5928C49.5738 20.4348 49.5197 20.1974 49.4536 20.0655C49.264 19.6867 48.9757 18.9525 48.5188 17.6842C48.0059 16.2604 47.9388 16.1645 47.4565 16.1645C47.1835 16.1645 47.0442 16.2521 46.9624 16.4753ZM51.3115 16.333C51.1491 16.4155 51.0164 16.5668 51.0164 16.6692C51.0164 16.7715 50.9574 16.8553 50.8852 16.8553C50.8131 16.8553 50.7541 17.1111 50.7541 17.4238C50.7541 17.8961 50.8311 18.0666 51.2092 18.4314L51.6641 18.8704L51.3403 19.2383C51.1621 19.4407 51.0164 19.6427 51.0164 19.6872C51.0164 19.7317 50.8984 19.9016 50.7541 20.0647C50.3662 20.5033 50.4106 20.8623 50.8525 20.8598C51.3301 20.8569 51.4212 20.7763 51.8666 19.9638C52.3844 19.0191 52.4931 18.9276 53.0994 18.9276H53.6274L53.6661 19.8602C53.7037 20.7632 53.7163 20.7941 54.0656 20.8364L54.4262 20.8802V18.5223V16.1645L53.0164 16.1739C52.2409 16.179 51.4738 16.2507 51.3115 16.333ZM59.6721 17.736C59.6721 19.6455 59.5868 20.1887 59.2947 20.1384C59.1414 20.1122 59.0704 20.2274 59.0409 20.551C59.003 20.9652 59.0295 21 59.3836 21C59.6235 21 59.8972 20.8634 60.1133 20.6358C60.4496 20.2814 60.459 20.2248 60.459 18.5634V16.8553H61.1147H61.7705V18.7813C61.7705 19.9854 61.8224 20.7412 61.9091 20.7976C61.9853 20.8472 62.1919 20.8497 62.3681 20.8031L62.6885 20.7184V18.4415V16.1645H61.1803H59.6721V17.736ZM65.1359 16.8158C64.8114 17.7051 64.6477 18.1211 64.5092 18.4076C64.4455 18.5395 64.3934 18.7728 64.3934 18.9257C64.3934 19.0788 64.3344 19.2039 64.2623 19.2039C64.1902 19.2039 64.1311 19.3543 64.1311 19.5379C64.1311 19.7215 64.0793 19.8924 64.016 19.9178C63.9527 19.9431 63.8594 20.1659 63.8088 20.4128C63.7292 20.8019 63.7519 20.8618 63.9789 20.8618C64.3664 20.8618 64.6557 20.7169 64.6557 20.5229C64.6557 20.4287 64.7486 20.1556 64.862 19.916C65.0582 19.5017 65.106 19.4803 65.8349 19.4803H66.6013L66.8275 20.1043C67.057 20.7376 67.4294 20.9895 67.8715 20.8109C68.0354 20.7445 68.0435 20.6733 67.917 20.416C67.5991 19.7704 67.541 19.6172 67.541 19.4246C67.541 19.3159 67.4968 19.2063 67.4426 19.1809C67.3885 19.1556 67.2454 18.8551 67.1245 18.5132C66.6338 17.1252 66.554 16.9214 66.4742 16.8553C66.4285 16.8173 66.3689 16.6618 66.3419 16.5099C66.3058 16.3062 66.1725 16.2232 65.835 16.194C65.3986 16.1565 65.3658 16.1856 65.1359 16.8158ZM69.1444 18.4786L69.1803 20.7928L70.5864 20.7722C72.0387 20.7508 72.3934 20.6212 72.3934 20.1118C72.3934 19.9924 72.4525 19.8947 72.5246 19.8947C72.5967 19.8947 72.6557 19.6771 72.6557 19.4112C72.6557 19.1452 72.5967 18.9276 72.5246 18.9276C72.4525 18.9276 72.3934 18.8358 72.3934 18.7236C72.3934 18.3757 71.8115 18.0955 70.9033 18.0063L70.0328 17.9206V17.3879V16.8553H71.082C72.1137 16.8553 72.1311 16.8495 72.1311 16.5099V16.1645H70.6198H69.1085L69.1444 18.4786ZM79.4754 18.5101V20.8802L79.8361 20.8364C80.1746 20.7954 80.1992 20.7465 80.2374 20.037C80.2597 19.6215 80.3407 19.2017 80.4173 19.1045C80.5041 18.9944 80.8745 18.9276 81.3991 18.9276C82.1186 18.9276 82.2884 18.8782 82.5633 18.5885C82.977 18.1527 83.0106 17.1045 82.6278 16.5789C82.3905 16.2533 82.2931 16.2309 80.9258 16.1869L79.4754 16.14V18.5101ZM84.971 16.5444C84.8955 16.7533 84.7645 17.1576 84.68 17.4424C84.5954 17.7275 84.4817 17.9605 84.4271 17.9605C84.3725 17.9605 84.3279 18.116 84.3279 18.3059C84.3279 18.4959 84.2688 18.6513 84.1967 18.6513C84.1246 18.6513 84.0656 18.7765 84.0656 18.9296C84.0656 19.1981 84.019 19.3313 83.6926 19.9964C83.4139 20.5644 83.497 20.8618 83.9344 20.8618C84.1967 20.8618 84.3279 20.7928 84.3279 20.6546C84.3279 20.5406 84.3869 20.4474 84.459 20.4474C84.5311 20.4474 84.5902 20.3044 84.5902 20.1296C84.5902 19.6438 84.8407 19.4803 85.584 19.4803C86.3112 19.4803 86.4821 19.5998 86.6275 20.21C86.7258 20.6224 87.034 20.8618 87.4668 20.8618C87.7601 20.8618 87.8031 20.7175 87.6219 20.3418C87.243 19.5574 86.2951 16.9929 86.2951 16.7526C86.2951 16.6571 86.2361 16.5789 86.1639 16.5789C86.0918 16.5789 86.0328 16.4857 86.0328 16.3717C86.0328 16.2266 85.894 16.1645 85.5705 16.1645C85.187 16.1645 85.0848 16.2291 84.971 16.5444ZM88 16.5099C88 16.8365 88.0393 16.8553 88.7213 16.8553H89.4426V18.8586C89.4426 20.7412 89.4577 20.8618 89.6942 20.8618C90.3456 20.8618 90.3606 20.8145 90.3606 18.7747V16.8553H91.0164C91.6285 16.8553 91.6721 16.8322 91.6721 16.5099V16.1645H89.8361H88V16.5099ZM98.2295 18.4359C98.2295 19.8826 98.2799 20.7401 98.3681 20.7976C98.4443 20.8472 98.6509 20.8497 98.8271 20.8031C99.1256 20.7242 99.1475 20.6574 99.1475 19.823V18.9276H100.071C100.876 18.9276 101.041 18.8829 101.35 18.581C101.646 18.2918 101.705 18.1178 101.705 17.5328C101.705 16.9355 101.65 16.7818 101.337 16.4978C100.999 16.1914 100.858 16.1645 99.5992 16.1645H98.2295V18.4359ZM103.082 18.4293C103.082 20.7457 103.107 20.8618 103.603 20.8618C103.773 20.8618 104.442 20.1357 104.634 19.743C104.731 19.5456 104.95 19.2117 105.122 19.0011C105.294 18.7906 105.51 18.4392 105.602 18.2203C105.694 18.0014 105.814 17.8224 105.868 17.8224C105.923 17.8224 105.967 18.471 105.967 19.2638C105.967 20.5815 105.99 20.7125 106.228 20.7923C106.372 20.8404 106.549 20.8408 106.622 20.7936C106.702 20.7412 106.754 19.8146 106.754 18.4359V16.1645H106.437C106.027 16.1645 105.705 16.2968 105.705 16.4654C105.705 16.5386 105.439 16.9905 105.115 17.4698C104.79 17.9489 104.525 18.3841 104.525 18.4369C104.525 18.5524 104.181 18.9276 104.075 18.9276C104.034 18.9276 104 18.3059 104 17.5461V16.1645H103.541H103.082V18.4293ZM108.711 16.5683C108.178 17.1305 108.188 17.7654 108.741 18.3751C109.015 18.6773 109.115 18.8856 109.036 18.9939C108.754 19.384 107.934 20.7172 107.934 20.7861C107.934 20.899 108.766 20.8736 108.918 20.7562C108.99 20.7003 109.133 20.4836 109.236 20.2747C109.338 20.0658 109.47 19.8947 109.53 19.8947C109.59 19.8947 109.641 19.8171 109.644 19.722C109.654 19.327 110.14 18.9276 110.611 18.9276H111.082V19.823C111.082 20.6574 111.104 20.7242 111.402 20.8031C111.579 20.8497 111.785 20.8472 111.861 20.7976C111.95 20.7401 112 19.8826 112 18.4359V16.1645H110.547C109.116 16.1645 109.089 16.1706 108.711 16.5683ZM21.7284 17.2192C22.0174 17.6798 21.6488 17.9861 20.8694 17.9329C20.269 17.8919 20.2619 17.8856 20.2211 17.3659L20.1801 16.8402L20.8618 16.8823C21.385 16.9145 21.5864 16.9929 21.7284 17.2192ZM53.6393 17.477V18.0987H52.867C51.8532 18.0987 51.4388 17.7953 51.6825 17.2317C51.8367 16.8753 51.8931 16.8553 52.7424 16.8553H53.6393V17.477ZM76.6028 17.0324C76.897 17.2689 77.2459 18.0219 77.2459 18.4203C77.2459 18.946 76.8969 19.6941 76.5355 19.9436C76.0177 20.3011 75.4875 20.2316 75.0265 19.7459C74.658 19.3577 74.6229 19.2424 74.6229 18.4149C74.6229 17.5981 74.6584 17.477 74.9836 17.1824C75.3847 16.8191 76.2389 16.7399 76.6028 17.0324ZM81.9109 17.0527C82.014 17.1611 82.0984 17.4113 82.0984 17.6086C82.0984 18.005 81.7119 18.2368 81.0514 18.2368C80.3831 18.2368 80.2623 18.1183 80.2623 17.4622V16.8553H80.9929C81.4514 16.8553 81.7934 16.9288 81.9109 17.0527ZM95.3443 16.9934C95.3443 17.0694 95.4328 17.1316 95.541 17.1316C95.6502 17.1316 95.7377 17.2544 95.7377 17.4079C95.7377 17.5599 95.7967 17.6842 95.8689 17.6842C95.9418 17.6842 96 18.0527 96 18.5132C96 18.9736 95.9418 19.3421 95.8689 19.3421C95.7967 19.3421 95.7373 19.4199 95.7369 19.5148C95.7359 19.7259 95.0216 20.1711 94.6841 20.1711C94.2685 20.1711 93.8243 19.8898 93.5954 19.4816C93.2073 18.7896 93.392 17.1316 93.8572 17.1316C93.9537 17.1316 94.0328 17.0694 94.0328 16.9934C94.0328 16.9174 94.3279 16.8553 94.6885 16.8553C95.0492 16.8553 95.3443 16.9174 95.3443 16.9934ZM100.665 17.0527C100.768 17.1611 100.852 17.4372 100.852 17.6658C100.852 18.0512 100.81 18.0885 100.278 18.1726C99.3313 18.3221 99.2186 18.2545 99.1731 17.5103L99.1331 16.8553H99.8055C100.213 16.8553 100.551 16.9329 100.665 17.0527ZM111.082 17.477V18.0987H110.381C109.884 18.0987 109.597 18.0234 109.397 17.8407C108.789 17.2852 109.158 16.8676 110.262 16.8605L111.082 16.8553V17.477ZM16.2623 17.6842C16.2623 17.8362 16.3213 17.9605 16.3934 17.9605C16.4656 17.9605 16.5246 18.116 16.5246 18.3059C16.5246 18.5976 16.4633 18.6513 16.1311 18.6513C15.799 18.6513 15.7377 18.5976 15.7377 18.3059C15.7377 18.116 15.7967 17.9605 15.8689 17.9605C15.941 17.9605 16 17.8362 16 17.6842C16 17.5322 16.059 17.4079 16.1311 17.4079C16.2033 17.4079 16.2623 17.5322 16.2623 17.6842ZM47.6066 17.6842C47.6066 17.8362 47.6588 17.9605 47.7224 17.9605C47.7861 17.9605 47.8665 18.116 47.901 18.3059C47.9578 18.619 47.9224 18.6513 47.5228 18.6513C47.1739 18.6513 47.082 18.5954 47.082 18.3832C47.082 18.2356 47.141 18.0766 47.2131 18.0296C47.2852 17.9826 47.3443 17.8236 47.3443 17.6761C47.3443 17.5285 47.4033 17.4079 47.4754 17.4079C47.5475 17.4079 47.6066 17.5322 47.6066 17.6842ZM66.0984 18.0612C66.0984 18.2034 66.1692 18.3943 66.2557 18.4855C66.3781 18.6144 66.2907 18.6513 65.8623 18.6513C65.2547 18.6513 65.2614 18.6581 65.432 18.2088C65.4982 18.0343 65.5866 17.778 65.6283 17.6394C65.6957 17.4152 65.7259 17.4102 65.9012 17.595C66.0097 17.7092 66.0984 17.9189 66.0984 18.0612ZM85.9128 18.1609C86.1723 18.4446 86.0285 18.6513 85.5713 18.6513C85.1344 18.6513 85.1144 18.631 85.1954 18.2714C85.2426 18.0625 85.3765 17.7754 85.493 17.6335C85.6977 17.3843 85.7064 17.3866 85.7488 17.7026C85.773 17.8825 85.8467 18.0887 85.9128 18.1609ZM21.93 19.1093C22.2737 19.6788 21.8169 20.0692 20.8808 20.0057C20.2826 19.9652 20.2609 19.9485 20.2198 19.4948C20.1944 19.215 20.2473 18.9758 20.3509 18.9021C20.5798 18.7392 21.8035 18.8999 21.93 19.1093ZM71.6913 19.3044C71.8071 19.7903 71.3307 20.1639 70.5902 20.168L70.0328 20.1711L70.0325 19.5148L70.0323 18.8586L70.8198 18.9054C71.5382 18.9481 71.6148 18.9832 71.6913 19.3044Z" fill="#333333"/>
</svg>
