<svg width="20" height="20" viewBox="0 0 20 20"  xmlns="http://www.w3.org/2000/svg">
<path fill-rule="evenodd" clip-rule="evenodd" d="M6.66631 2.28645C9.71482 -0.762031 14.6648 -0.762265 17.7135 2.28645C20.7621 5.33496 20.7623 10.2849 17.7136 13.3337C17.4085 13.6387 16.9139 13.6387 16.6088 13.3337C16.3037 13.0286 16.3037 12.534 16.6088 12.2289C19.0469 9.7909 19.0469 5.82926 16.6088 3.39117C14.1709 0.953203 10.2091 0.953125 7.77104 3.39117C7.46596 3.69621 6.97135 3.69621 6.66631 3.39117C6.36123 3.08609 6.36123 2.59152 6.66631 2.28645ZM15.5056 4.49593C13.6736 2.66398 10.7089 2.66425 8.87725 4.49593C8.57217 4.80101 8.57217 5.29558 8.87725 5.60066C9.18229 5.9057 9.67686 5.9057 9.98197 5.60066C11.2033 4.37937 13.1798 4.37953 14.4008 5.60066C15.6222 6.82199 15.6219 8.79851 14.4009 10.0196C14.0958 10.3246 14.0958 10.8192 14.4008 11.1243C14.706 11.4294 15.2006 11.4293 15.5056 11.1243C17.3376 9.29242 17.3372 6.32765 15.5056 4.49593ZM11.8048 13.6744C11.4997 13.3693 11.0052 13.3693 10.7001 13.6744C9.93561 14.4389 8.69166 14.4389 7.92713 13.6744L6.32561 12.0729C5.56112 11.3084 5.56112 10.0644 6.32561 9.29989C6.63069 8.99481 6.63069 8.50024 6.32561 8.19516L3.52467 5.39422C3.12123 4.99082 2.54655 4.81754 1.98721 4.93071C1.42795 5.04395 0.965843 5.42711 0.751077 5.95578C-0.793102 9.75684 0.0876791 14.1092 2.98924 17.0107C5.88795 19.9095 10.2396 20.7945 14.0443 19.2489C14.5729 19.0341 14.9561 18.572 15.0693 18.0128C15.1825 17.4535 15.0093 16.8788 14.6058 16.4753L11.8048 13.6744ZM13.4563 17.8015C10.2308 19.1118 6.55584 18.3679 4.09401 15.9061C1.63217 13.4443 0.888187 9.76938 2.19854 6.54383C2.23534 6.45324 2.3508 6.42985 2.41998 6.49899L4.73026 8.80926C3.87338 10.17 4.03698 11.9937 5.22092 13.1776L6.82244 14.7791C8.01092 15.9676 9.83549 16.1232 11.1908 15.2698L13.5011 17.58C13.5701 17.6491 13.5471 17.7646 13.4563 17.8015Z"/>
</svg>
