<svg width="27" height="27" viewBox="0 0 27 27" fill="none" xmlns="http://www.w3.org/2000/svg">
<circle cx="13.5" cy="13.5" r="13.5" fill="#FFDC00"/>
<path fill-rule="evenodd" clip-rule="evenodd" d="M18.6567 15.9675C18.8232 15.6233 19.2395 15.4762 19.5837 15.6427C19.9306 15.8092 20.0749 16.2228 19.9112 16.5697C19.3394 17.7576 18.4485 18.7652 17.3355 19.4812C16.192 20.2167 14.8653 20.6053 13.4998 20.6053C11.6014 20.6053 9.81949 19.867 8.47615 18.5237C7.13281 17.1831 6.39453 15.3985 6.39453 13.5C6.39453 11.6016 7.13281 9.81696 8.47615 8.4764C9.81671 7.13306 11.6014 6.39478 13.4998 6.39478C14.8653 6.39478 16.192 6.78334 17.3355 7.51607C18.4513 8.22938 19.3394 9.23688 19.9112 10.4276C20.0777 10.7745 19.9306 11.1881 19.5865 11.3546C19.2395 11.5211 18.826 11.374 18.6594 11.0298C18.1987 10.0723 17.4826 9.25908 16.5861 8.68456C15.6647 8.09615 14.5989 7.78252 13.4998 7.78252C10.3468 7.78252 7.78228 10.3471 7.78228 13.5C7.78228 16.653 10.3468 19.2176 13.4998 19.2176C14.5989 19.2176 15.6647 18.9039 16.5834 18.3127C17.4799 17.7354 18.1959 16.925 18.6567 15.9675ZM14.3605 16.4032C14.1828 16.4032 14.0052 16.3366 13.8692 16.2006C13.6 15.9286 13.6 15.49 13.872 15.2236L14.8961 14.1994H10.9494C10.5664 14.1994 10.2555 13.8886 10.2555 13.5056C10.2555 13.1225 10.5664 12.8117 10.9494 12.8117H14.8934L13.8692 11.7875C13.5972 11.5155 13.5972 11.077 13.8692 10.805C14.1412 10.533 14.5797 10.533 14.8517 10.805L16.5975 12.5508C16.8501 12.8034 16.9916 13.1447 16.9916 13.5028C16.9916 13.8608 16.8529 14.1994 16.5975 14.4548L14.8517 16.2006C14.7157 16.3366 14.5381 16.4032 14.3605 16.4032Z" fill="black"/>
</svg>
