<?xml version="1.0" encoding="UTF-8"?>
<svg width="40px" height="40px" viewBox="0 0 40 40" version="1.1" xmlns="http://www.w3.org/2000/svg" xmlns:xlink="http://www.w3.org/1999/xlink">
    <!-- Generator: Sketch 51.2 (57519) - http://www.bohemiancoding.com/sketch -->
    <title>Личный кабинет</title>
    <desc>Created with Sketch.</desc>
    <defs></defs>
    <g id="Page-1" stroke="none" stroke-width="1" fill="none" fill-rule="evenodd">
        <g id="Личный-кабинет">
            <circle id="Oval" fill="#FFDC00" fill-rule="nonzero" cx="20" cy="20" r="20"></circle>
            <path d="M20,9 C26.05,9 31,13.95 31,20 C31,21.375 30.725,22.75 30.2208,24.0333 C28.5708,28.2042 24.4917,31 20,31 C14.0417,31 9,25.9583 9,20 C9,13.95 13.95,9 20,9 Z M15.4167,27.9292 C18.1667,29.5333 21.65,29.5792 24.4,28.0208 C24.4458,28.0208 24.5375,27.975 24.5375,27.9292 L23.9417,26.4167 L16.0125,26.4167 L15.4167,27.9292 Z M14.775,24.5833 L25.225,24.5833 L26.0958,26.8292 C27.975,25.1333 29.1667,22.7042 29.1667,20 C29.1667,14.9583 25.0417,10.8333 20,10.8333 C14.9583,10.8333 10.8333,14.9583 10.8333,20 C10.8333,22.7042 12.025,25.1333 13.8583,26.8292 L14.775,24.5833 Z M16.332,19.0833 C16.332,17.0667 17.982,15.4167 19.9987,15.4167 C22.0154,15.4167 23.6653,17.0667 23.6653,19.0833 C23.6653,21.1 22.0154,22.75 19.9987,22.75 C17.982,22.75 16.332,21.1 16.332,19.0833 Z M18.1654,19.0833 C18.1654,20.0917 18.9904,20.9167 19.9987,20.9167 C21.007,20.9167 21.832,20.0917 21.832,19.0833 C21.832,18.075 21.007,17.25 19.9987,17.25 C18.9904,17.25 18.1654,18.075 18.1654,19.0833 Z" id="Shape" fill="#000000"></path>
        </g>
    </g>
</svg>