<svg width="40px" height="40px" viewBox="0 0 40 40" version="1.1" xmlns="http://www.w3.org/2000/svg" xmlns:xlink="http://www.w3.org/1999/xlink">
  <title>Group</title>
  <g id="Page-1" stroke="none" stroke-width="1" fill="none" fill-rule="evenodd">
    <g id="Group">
      <g id="круг" fill="#FFDC00" fill-rule="nonzero">
        <circle id="Oval" cx="20" cy="20" r="20"></circle>
      </g>
      <g id="user" transform="translate(9.000000, 9.000000)" fill="#000000">
        <path d="M11,0 C17.05,0 22,4.95 22,11 C22,12.375 21.725,13.75 21.2208,15.0333 C19.5708,19.2042 15.4917,22 11,22 C5.04167,22 0,16.9583 0,11 C0,4.95 4.95,0 11,0 Z M6.41667,18.9292 C9.16667,20.5333 12.65,20.5792 15.4,19.0208 C15.4458,19.0208 15.5375,18.975 15.5375,18.9292 L14.9417,17.4167 L7.0125,17.4167 L6.41667,18.9292 Z M5.775,15.5833 L16.225,15.5833 L17.0958,17.8292 C18.975,16.1333 20.1667,13.7042 20.1667,11 C20.1667,5.95833 16.0417,1.83333 11,1.83333 C5.95833,1.83333 1.83333,5.95833 1.83333,11 C1.83333,13.7042 3.025,16.1333 4.85833,17.8292 L5.775,15.5833 Z M7.33203,10.0833 C7.33203,8.06668 8.98203,6.41669 10.9987,6.41669 C13.0154,6.41669 14.6653,8.06668 14.6653,10.0833 C14.6653,12.1 13.0154,13.75 10.9987,13.75 C8.98203,13.75 7.33203,12.1 7.33203,10.0833 Z M9.16536,10.0833 C9.16536,11.0917 9.99036,11.9167 10.9987,11.9167 C12.007,11.9167 12.832,11.0917 12.832,10.0833 C12.832,9.07502 12.007,8.25002 10.9987,8.25002 C9.99036,8.25002 9.16536,9.07502 9.16536,10.0833 Z" id="Shape"></path>
      </g>
    </g>
  </g>
</svg>
