<svg width="24" height="24" viewBox="0 0 24 24" fill="none" xmlns="http://www.w3.org/2000/svg">
<path d="M24.0001 11.0625C24.0001 13.1929 23.342 15.2615 22.0969 17.0444C21.8004 17.469 21.2161 17.5728 20.7915 17.2764C20.3669 16.9799 20.2631 16.3954 20.5595 15.971C21.5838 14.5043 22.1251 12.8069 22.1251 11.0625C22.1251 5.99652 17.5829 1.875 12.0001 1.875C6.41717 1.875 1.87506 5.99652 1.87506 11.0625C1.87506 13.1147 2.60528 15.0562 3.98663 16.6769C4.21332 16.9426 4.27319 17.3124 4.14227 17.6364L2.67212 21.2734L6.95386 19.3857C7.19116 19.2812 7.46124 19.2795 7.69983 19.3813C9.05078 19.9578 10.4975 20.25 12.0001 20.25C13.7295 20.25 15.436 19.8475 16.9353 19.086C17.3971 18.8516 17.9612 19.0356 18.1958 19.4973C18.4302 19.959 18.246 20.5232 17.7844 20.7578C16.0233 21.6522 14.023 22.125 12.0001 22.125C10.3838 22.125 8.82043 21.8348 7.34662 21.2618L1.31585 23.9203C1.19427 23.974 1.06555 24 0.937742 24C0.698789 24 0.463682 23.9086 0.284971 23.7356C0.011045 23.4699 -0.0746483 23.0649 0.068357 22.7111L2.19714 17.4456C0.757749 15.5744 5.86956e-05 13.3793 5.86956e-05 11.0625C5.86956e-05 8.0918 1.25891 5.30365 3.5448 3.21149C5.80743 1.14056 8.81036 0 12.0001 0C15.1899 0 18.1927 1.14056 20.4555 3.21149C22.7412 5.30365 24.0001 8.0918 24.0001 11.0625ZM16.9419 6.07379C18.0385 7.17041 18.0385 8.95459 16.9419 10.0512L11.8058 15.1778C11.6913 15.2921 11.5494 15.3746 11.3936 15.4177L7.60974 16.4659C7.52716 16.4888 7.44293 16.5 7.35943 16.5C7.11023 16.5 6.86725 16.4006 6.68835 16.2171C6.44958 15.9725 6.36316 15.6171 6.4624 15.29L7.58337 11.5997C7.62823 11.4521 7.70898 11.3177 7.8183 11.2086L12.9652 6.07306C14.0611 4.97717 15.8455 4.97717 16.9419 6.07379ZM14.108 10.2307L12.7819 8.9046L9.30914 12.3699L8.75195 14.2039L10.6555 13.6765L14.108 10.2307ZM15.616 7.39966C15.2505 7.034 14.6558 7.034 14.2903 7.39966L14.1093 7.5802L15.4351 8.90607L15.6168 8.72479C15.9817 8.35986 15.9817 7.76514 15.616 7.39966Z" fill="#FFDC00"/>
</svg>
