<svg width="1521" height="3476" viewBox="0 0 1521 3476" fill="none" xmlns="http://www.w3.org/2000/svg">
<path d="M881.5 1936.5C906.167 1922.17 972.2 1893.5 1039 1893.5C1122.5 1893.5 1379.5 1914 1379.5 2155C1379.5 2448.5 825 2452.5 617.5 2556.5C410 2660.5 259 2894.5 299.5 3088.5C334.098 3254.23 541 3474 1519.5 3474" stroke="#BFBFBF" stroke-width="3" stroke-miterlimit="1.30541" stroke-linecap="round" stroke-dasharray="0.1 18"/>
<path d="M999.5 1536C999.5 1595 996 1705.5 875.5 1683.5C755 1661.5 592.5 1600 399.5 1615.5C206.5 1631 108 1738.5 222 1911.5" stroke="#BFBFBF" stroke-width="3" stroke-miterlimit="1.30541" stroke-linecap="round" stroke-dasharray="0.1 18"/>
<path d="M-40 2.00071C21.3333 1.83404 166.859 31.001 151 134.501C132 258.501 307 240.001 367.5 240.501C485.5 235.501 724.838 192.117 872.5 267.5C1020.16 342.883 961.5 496.656 865 535C714 595 601.5 662.5 620 829C625.667 878.667 656.4 974.4 814 998C929.5 1015.3 1081.41 965.899 1164.5 989.5C1293 1026 1341 1166.5 1204 1166.5C1067 1166.5 1032 1206.5 1012.5 1229.5" stroke="#BFBFBF" stroke-width="3" stroke-miterlimit="1.30541" stroke-linecap="round" stroke-dasharray="0.1 18"/>
</svg>
